<?xml version="1.0" encoding="utf-8"?>
<!-- Generator: Adobe Illustrator 19.2.0, SVG Export Plug-In . SVG Version: 6.00 Build 0)  -->
<svg version="1.1" baseProfile="tiny" id="Layer_1" xmlns="http://www.w3.org/2000/svg" xmlns:xlink="http://www.w3.org/1999/xlink"
	 x="0px" y="0px" viewBox="0 0 310.8 101.2" xml:space="preserve">
<path d="M67.8,30.1h0.1H67.8 M20.8,61c7.4,0,13.4,6,13.4,13.4s-6,13.4-13.4,13.4s-13.4-6-13.4-13.4S13.4,61,20.8,61 M30.5,91
	c0-3.8,3.1-6.9,6.9-6.9s6.9,3.1,6.9,6.9s-3.1,6.9-6.9,6.9C33.6,97.9,30.5,94.8,30.5,91 M83.4,36.3c-0.1-0.9-0.2-1.8-0.2-2.7
	c-0.2-0.7-0.3-1.8-0.4-2.4c-0.3-0.8-0.3-1.1-0.4-1.7c-0.2-0.6-0.2-0.6-0.5-1.9c-0.7-2.5-1.8-5-3-7.4c-0.8-1.5-1.8-2.8-2.8-4.1
	c-0.2-0.3-0.8-1-1-1.2c-0.4-0.5-2.6-3.1-3.3-3.7c-0.7-0.6-1.3-1.2-2.1-1.8c-0.7-0.6-1.5-1.2-2.2-1.7c-0.6-0.5-1.3-0.7-1.9-1.1
	c-3.4-2.1-7.2-3.8-11.1-4.7C41.4-1.1,26,3.3,17.5,14c-0.9,1.1-1.8,2.2-2.7,3.4c-0.4,0.5-0.6,1.2-1,1.8c-0.8,1.3-1.4,2.5-2,3.9
	C9.4,28.4,7.9,34.9,8.4,41c0.3,3.4,0.9,6.8,2.1,10c0.4,1,0.7,2,1.2,3c0.3,0.7,1.1,2.1,1.2,2.3C5.9,59.4,1,66.4,1,74.6
	c0,11,9,20,20,20c2.4,0,4.7-0.4,6.8-1.2c0,0.1,0.1,0.1,0.1,0.2c1.1,4.3,5,7.6,9.7,7.6c5.5,0,10-4.5,10-10c0-4.8-3.3-8.8-7.8-9.8
	c0-0.1,0.1-0.2,0.1-0.3c0.1-0.4,0.3-0.8,0.4-1.2c0.2-0.5,0.3-1,0.4-1.6c0-0.3,0.1-0.6,0.1-1c0.1-0.4,0.1-0.8,0.1-1.2
	c0.1-0.1,0.2,0,0.4,0c2.2,0.1,4.4,0.5,6.6,0.3c4.1-0.2,8.5-1,12.2-2.7C64,72,67.8,69.8,71,66.9c1.5-1.3,3-2.8,4.2-4.5
	c0.6-0.8,1.3-1.5,1.8-2.3c0.4-0.7,1-1.4,1.4-2.1c0.3-0.5,0.3-0.8,0.6-1.3c0.2-0.3,0.4-0.6,0.5-1c0.3-0.7,0.4-1.5,0.4-2.3
	c0.1-1.5-0.4-3.1-1.3-4.4c-0.7-1.1-2.4-2.1-3.7-2.5c-1.5-0.4-3.3-0.3-4.8,0.2c-1.6,0.6-2.7,2-3.6,3.5c-1,1.6-1.9,3.1-3.2,4.4
	c-2.5,2.5-5.2,4.5-8.5,5.8c-12.6,5.1-27.2-1.8-31.4-14.7c-1.9-6-1.4-12.7,1.7-18.3c1.6-2.9,3.8-5.5,6.4-7.6c1.4-1.1,3-2.1,4.6-2.8
	c1.5-0.6,3-1,4.5-1.5c1.2-0.4,2.8-0.5,4-0.6c1.3-0.1,2.7-0.1,4,0.1c2.7,0.4,5.5,1.1,8,2.3c1.3,0.7,2.8,1.6,4,2.6s2.5,2.2,3.5,3.4
	c0.8,1,1.2,1.7,2,2.7c0.8,1.2,1.9,2.5,2,4c-3.1,0-6.3,0-9.4,0c-3,0-6.3-0.7-9.1,0.7c-2.9,1.5-5.2,5.7-3.3,8.8c0.9,1.5,1.3,2.7,3,3.5
	s3.1,0.9,5,0.9c4.3-0.1,8.6,0,12.9,0h6.7c1.9,0,3.8,0.1,5.6-0.6C82.2,42.4,83.7,39.5,83.4,36.3 M111.2,34.7c0,1.1-0.5,1.7-1.6,1.7
	H96.3v1.3c0,4.2,1.8,6.3,5.5,6.3c2.3,0,4.4-0.5,6.1-1.4c0.2-0.1,0.5-0.2,0.7-0.2c0.5,0,0.9,0.2,1.2,0.6s0.5,0.8,0.5,1.3
	c0,0.7-0.3,1.2-1,1.6c-2.2,1.2-4.8,1.8-7.7,1.8c-3.3,0-5.8-1-7.4-3.1c-1.5-1.8-2.2-4.2-2.2-7.3v-4.5c0-3.1,0.7-5.5,2.2-7.3
	c1.7-2,4.1-3.1,7.4-3.1c3.4,0,5.8,1,7.5,3.1c1.4,1.7,2.1,4.1,2.1,7.2V34.7z M107,32.2c0-4.1-1.8-6.2-5.3-6.2c-3.6,0-5.5,2.1-5.5,6.2
	V33H107V32.2z M136.3,47.7c-0.9,0-1.8-0.3-2.6-1c-0.5-0.4-0.8-1-1.2-1.8c-1.8,1.9-4.3,2.8-7.6,2.8c-5.3,0-8-3-8-8.9V24.6
	c0-0.6,0.2-1.1,0.6-1.5c0.4-0.4,0.9-0.6,1.5-0.6s1.1,0.2,1.5,0.6c0.4,0.4,0.6,0.9,0.6,1.5v13.8c0,1.7,0.3,3,0.9,3.8
	c0.7,0.9,2,1.4,3.7,1.4c2.8,0,4.8-1.1,5.9-3.3V24.5c0-0.6,0.2-1.1,0.6-1.5c0.4-0.4,0.9-0.6,1.5-0.6s1.1,0.2,1.5,0.6
	c0.4,0.4,0.6,0.9,0.6,1.5v16.7c0,1.5,0.5,2.6,1.5,3.1c0.6,0.3,0.8,0.8,0.8,1.4C138.4,47.1,137.7,47.7,136.3,47.7z M156.4,26.9
	c-0.3,0-0.5-0.1-0.8-0.1s-0.6-0.1-0.9-0.1c-0.3,0-0.5,0-0.7,0c-3,0-4.8,1.5-5.4,4.4v14.5c0,0.6-0.2,1.1-0.6,1.5
	c-0.4,0.4-0.9,0.6-1.5,0.6s-1.1-0.2-1.5-0.6s-0.6-0.9-0.6-1.5V29.2c0-1.5-0.5-2.6-1.5-3.1c-0.6-0.3-0.8-0.8-0.8-1.4
	c0-1.2,0.7-1.9,2.1-1.9c0.4,0,0.6,0,0.7,0c1.6,0.4,2.7,1.4,3.3,3c1.6-2.2,3.8-3.4,6.7-3.4c1.3,0,2.4,0.2,3.3,0.6
	c0.7,0.4,1,0.9,1,1.7c0,0.6-0.2,1.1-0.6,1.5c-0.4,0.4-0.9,0.6-1.4,0.6C156.9,26.9,156.7,26.9,156.4,26.9z M177.9,44.7
	c-1.7,2-4.2,3-7.6,3c-3.3,0-5.8-1-7.5-3c-1.5-1.8-2.3-4.2-2.3-7.1v-5c0-3,0.8-5.3,2.3-7.1c1.7-2,4.2-3,7.5-3c3.4,0,5.9,1,7.6,3
	c1.5,1.8,2.3,4.2,2.3,7.1v5C180.2,40.6,179.4,42.9,177.9,44.7z M175.9,32.6c0-4.1-1.9-6.1-5.6-6.1c-3.7,0-5.5,2-5.5,6.1v5
	c0,4.1,1.8,6.2,5.5,6.2s5.6-2.1,5.6-6.2V32.6z M196.9,47.7c-2.2,0-4.1-0.6-5.8-1.9v8.4c0,0.6-0.2,1.1-0.6,1.5
	c-0.4,0.4-0.9,0.6-1.5,0.6s-1.1-0.2-1.5-0.6s-0.6-0.9-0.6-1.5V28.8c0-1.6-0.5-2.6-1.4-3.1c-0.6-0.3-0.8-0.8-0.8-1.4
	c0-1.2,0.7-1.9,2.1-1.9c0.9,0,1.8,0.3,2.6,1c0.3,0.3,0.6,0.7,0.9,1.1c2-1.4,4.1-2.1,6.4-2.1c6,0,9,3.3,9,9.9v4.4
	C205.7,44.1,202.7,47.7,196.9,47.7z M201.4,32.1c0-3.9-1.8-5.9-5.4-5.9c-1.7,0-3.4,0.7-4.9,2v13.5c1.5,1.5,3.2,2.2,5.1,2.2
	c3.5,0,5.2-2.2,5.2-6.6L201.4,32.1L201.4,32.1z M230.1,34.7c0,1.1-0.5,1.7-1.6,1.7h-13.3v1.3c0,4.2,1.8,6.3,5.5,6.3
	c2.3,0,4.4-0.5,6.1-1.4c0.2-0.1,0.5-0.2,0.7-0.2c0.5,0,0.9,0.2,1.2,0.6s0.5,0.8,0.5,1.3c0,0.7-0.3,1.2-1,1.6
	c-2.2,1.2-4.8,1.8-7.7,1.8c-3.3,0-5.8-1-7.4-3.1c-1.5-1.8-2.2-4.2-2.2-7.3v-4.5c0-3.1,0.7-5.5,2.2-7.3c1.7-2,4.1-3.1,7.4-3.1
	c3.4,0,5.8,1,7.5,3.1c1.4,1.7,2.1,4.1,2.1,7.2V34.7z M226,32.2c0-4.1-1.8-6.2-5.3-6.2c-3.6,0-5.5,2.1-5.5,6.2V33H226V32.2z
	 M252.9,47.7c-1,0-1.9-0.3-2.5-1c-0.4-0.3-0.7-0.8-1-1.5c-1.5,1.7-3.8,2.5-6.8,2.5c-2.9,0-5.1-0.7-6.5-2c-1.3-1.3-2-3-2-5.1v-0.4
	c0-2.1,0.7-3.8,2.1-5.1c1.6-1.3,3.9-2,6.8-2h5.6v-1.2c0-2.1-0.3-3.5-1-4.4c-0.7-1-2.1-1.5-4.1-1.5c-1.8,0-3.5,0.4-5,1.2
	c-0.4,0.2-0.7,0.3-1,0.3c-0.5,0-1-0.2-1.3-0.6c-0.3-0.4-0.5-0.8-0.5-1.3c0-0.6,0.3-1.1,0.9-1.5c1.8-1.1,4.2-1.7,7.2-1.7
	c3.3,0,5.7,0.8,7.1,2.5c1.3,1.5,1.9,4,1.9,7.3v9.1c0,1.5,0.5,2.6,1.4,3.1c0.6,0.4,0.8,0.8,0.8,1.4C255,47.1,254.3,47.7,252.9,47.7z
	 M248.5,36.4h-5.1c-3.4,0-5.2,1.3-5.2,3.8v0.4c0,2.5,1.7,3.8,5,3.8c3.5,0,5.3-1.7,5.3-5.1C248.5,39.3,248.5,36.4,248.5,36.4z
	 M279,47.1c-0.4,0.4-0.9,0.6-1.5,0.6c-0.6,0-1.1-0.2-1.5-0.6c-0.4-0.4-0.6-0.9-0.6-1.5V31.8c0-1.7-0.3-3-0.9-3.8
	c-0.7-1-2-1.5-3.7-1.5c-2.8,0-4.7,1-5.9,3.1v16c0,0.6-0.2,1.1-0.6,1.5s-0.9,0.6-1.5,0.6s-1.1-0.2-1.5-0.6s-0.6-0.9-0.6-1.5V29.2
	c0-1.5-0.5-2.6-1.5-3.1c-0.6-0.3-0.8-0.8-0.8-1.4c0-1.2,0.7-1.9,2.1-1.9c0.9,0,1.8,0.3,2.6,1c0.5,0.5,0.8,1,1.1,1.6
	c1.8-2,4.3-2.9,7.6-2.9c5.3,0,8,3,8,8.9v14.2C279.6,46.2,279.4,46.7,279,47.1z M303.7,47.7c-1,0-1.9-0.3-2.5-1
	c-0.4-0.3-0.7-0.8-1-1.5c-1.5,1.7-3.8,2.5-6.8,2.5c-2.9,0-5.1-0.7-6.5-2c-1.3-1.3-2-3-2-5.1v-0.4c0-2.1,0.7-3.8,2.1-5.1
	c1.6-1.3,3.9-2,6.8-2h5.6v-1.2c0-2.1-0.3-3.5-1-4.4c-0.7-1-2.1-1.5-4.1-1.5c-1.8,0-3.5,0.4-5,1.2c-0.4,0.2-0.7,0.3-1,0.3
	c-0.5,0-1-0.2-1.3-0.6c-0.3-0.4-0.5-0.8-0.5-1.3c0-0.6,0.3-1.1,0.9-1.5c1.8-1.1,4.2-1.7,7.2-1.7c3.3,0,5.7,0.8,7.1,2.5
	c1.3,1.5,1.9,4,1.9,7.3v9.1c0,1.5,0.5,2.6,1.4,3.1c0.6,0.4,0.8,0.8,0.8,1.4C305.8,47.1,305.1,47.7,303.7,47.7z M299.4,36.4h-5.1
	c-3.4,0-5.2,1.3-5.2,3.8v0.4c0,2.5,1.7,3.8,5,3.8c3.5,0,5.3-1.7,5.3-5.1C299.4,39.3,299.4,36.4,299.4,36.4z"/>
<path fill="#666766" d="M103.2,83.1c-1.4,1-3.3,1.6-5.6,1.6c-2.2,0-4.1-0.3-5.8-0.9c-0.7-0.2-1-0.7-1-1.5c0-0.4,0.1-0.8,0.4-1.1
	c0.3-0.3,0.6-0.5,1.1-0.5c0.2,0,0.4,0,0.6,0.1c1.5,0.5,3,0.8,4.7,0.8c2.9,0,4.4-1,4.4-3.1c0-1.1-0.6-1.9-1.8-2.4
	c-0.1,0-0.5-0.1-1.1-0.3c-0.6-0.1-1.6-0.4-2.8-0.7c-1.6-0.4-2.8-0.9-3.6-1.6c-1.1-0.9-1.6-2.2-1.6-4c0-1.9,0.7-3.4,2-4.5
	c1.3-1,2.9-1.6,5-1.6c2,0,3.8,0.3,5.3,0.9c0.7,0.3,1.1,0.8,1.1,1.5c0,0.4-0.2,0.8-0.5,1.1c-0.3,0.3-0.7,0.5-1.1,0.5
	c-0.1,0-0.3,0-0.5-0.1c-1.4-0.5-2.8-0.8-4.1-0.8c-2.5,0-3.8,1-3.8,2.9c0,1,0.5,1.7,1.6,2.2c0.4,0.2,1.6,0.5,3.6,0.9
	c1.8,0.4,3.1,0.9,4,1.5c1.3,0.9,1.9,2.4,1.9,4.3C105.5,80.4,104.7,82,103.2,83.1z M119.9,83.9c-0.3,0.3-0.7,0.5-1.2,0.5h-1.2
	c-2.7,0-4.6-0.8-5.7-2.4c-1-1.4-1.4-3.6-1.4-6.4v-8.8h-1.2c-0.4,0-0.8-0.1-1.1-0.5c-0.3-0.3-0.4-0.7-0.4-1.1c0-0.4,0.1-0.8,0.4-1.1
	c0.3-0.3,0.7-0.5,1.1-0.5h1.2v-4.2c0-0.5,0.2-0.9,0.5-1.3c0.4-0.4,0.8-0.5,1.3-0.5c0.5,0,0.9,0.2,1.2,0.5c0.3,0.4,0.5,0.8,0.5,1.3
	v4.2h3.8c0.4,0,0.8,0.2,1.1,0.5c0.3,0.3,0.4,0.7,0.4,1.1c0,0.4-0.1,0.8-0.4,1.1c-0.3,0.3-0.7,0.5-1.1,0.5h-3.8v8.7
	c0,2.1,0.3,3.6,0.8,4.4c0.5,0.8,1.6,1.2,3.2,1.2h0.8c0.5,0,0.9,0.2,1.2,0.5c0.3,0.3,0.5,0.7,0.5,1.2
	C120.3,83.2,120.2,83.6,119.9,83.9z M137.9,84.7c-0.8,0-1.6-0.3-2.1-0.9c-0.3-0.2-0.6-0.7-0.8-1.2c-1.3,1.4-3.2,2.1-5.7,2.1
	c-2.4,0-4.3-0.6-5.5-1.7c-1.1-1.1-1.7-2.5-1.7-4.3v-0.3c0-1.8,0.6-3.2,1.8-4.3c1.4-1.1,3.3-1.7,5.7-1.7h4.7v-1c0-1.7-0.3-3-0.8-3.7
	c-0.6-0.8-1.8-1.2-3.4-1.2c-1.5,0-2.9,0.3-4.2,1c-0.3,0.2-0.6,0.2-0.9,0.2c-0.4,0-0.8-0.2-1.1-0.5s-0.4-0.7-0.4-1.1
	c0-0.5,0.2-0.9,0.7-1.3c1.5-1,3.5-1.4,6-1.4c2.8,0,4.8,0.7,6,2.1c1.1,1.3,1.6,3.3,1.6,6.1v7.6c0,1.3,0.4,2.1,1.1,2.6
	c0.5,0.3,0.7,0.7,0.7,1.2C139.7,84.1,139.1,84.7,137.9,84.7z M134.3,75.2H130c-2.9,0-4.3,1.1-4.3,3.2v0.3c0,2.1,1.4,3.2,4.2,3.2
	c2.9,0,4.4-1.4,4.4-4.3V75.2z M153.8,83.9c-0.3,0.3-0.7,0.5-1.2,0.5h-1.2c-2.7,0-4.6-0.8-5.7-2.4c-1-1.4-1.4-3.6-1.4-6.4v-8.8h-1.2
	c-0.4,0-0.8-0.1-1.1-0.5c-0.3-0.3-0.4-0.7-0.4-1.1c0-0.4,0.1-0.8,0.4-1.1c0.3-0.3,0.7-0.5,1.1-0.5h1.2v-4.2c0-0.5,0.2-0.9,0.5-1.3
	c0.4-0.4,0.8-0.5,1.3-0.5c0.5,0,0.9,0.2,1.2,0.5c0.3,0.4,0.5,0.8,0.5,1.3v4.2h3.8c0.4,0,0.8,0.2,1.1,0.5c0.3,0.3,0.4,0.7,0.4,1.1
	c0,0.4-0.1,0.8-0.4,1.1c-0.3,0.3-0.7,0.5-1.1,0.5h-3.8v8.7c0,2.1,0.3,3.6,0.8,4.4c0.5,0.8,1.6,1.2,3.2,1.2h0.8
	c0.5,0,0.9,0.2,1.2,0.5c0.3,0.3,0.5,0.7,0.5,1.2C154.3,83.2,154.1,83.6,153.8,83.9z M160.9,58.5c-0.4,0.4-0.9,0.6-1.5,0.6
	c-0.6,0-1.1-0.2-1.5-0.6c-0.4-0.4-0.6-0.9-0.6-1.5c0-0.6,0.2-1.1,0.6-1.5c0.4-0.4,0.9-0.6,1.5-0.6c0.6,0,1.1,0.2,1.5,0.6
	c0.4,0.4,0.6,0.9,0.6,1.5C161.5,57.6,161.3,58.1,160.9,58.5z M160.7,84.2c-0.3,0.3-0.8,0.5-1.3,0.5c-0.5,0-0.9-0.2-1.2-0.5
	c-0.3-0.3-0.5-0.8-0.5-1.3V65.3c0-0.5,0.2-0.9,0.5-1.3c0.3-0.4,0.8-0.5,1.2-0.5c0.5,0,0.9,0.2,1.3,0.5c0.3,0.4,0.5,0.8,0.5,1.3v17.5
	C161.2,83.4,161,83.8,160.7,84.2z M178,83.1c-1.4,1-3.3,1.6-5.6,1.6c-2.2,0-4.1-0.3-5.8-0.9c-0.7-0.2-1-0.7-1-1.5
	c0-0.4,0.1-0.8,0.4-1.1c0.3-0.3,0.6-0.5,1.1-0.5c0.2,0,0.4,0,0.6,0.1c1.5,0.5,3,0.8,4.7,0.8c2.9,0,4.4-1,4.4-3.1
	c0-1.1-0.6-1.9-1.8-2.4c-0.1,0-0.5-0.1-1.1-0.3c-0.6-0.1-1.6-0.4-2.8-0.7c-1.6-0.4-2.8-0.9-3.6-1.6c-1.1-0.9-1.6-2.2-1.6-4
	c0-1.9,0.7-3.4,2-4.5c1.3-1,2.9-1.6,5-1.6c2,0,3.8,0.3,5.3,0.9c0.7,0.3,1.1,0.8,1.1,1.5c0,0.4-0.2,0.8-0.5,1.1
	c-0.3,0.3-0.7,0.5-1.1,0.5c-0.1,0-0.3,0-0.5-0.1c-1.4-0.5-2.8-0.8-4.1-0.8c-2.5,0-3.8,1-3.8,2.9c0,1,0.5,1.7,1.6,2.2
	c0.4,0.2,1.6,0.5,3.6,0.9c1.8,0.4,3.1,0.9,4,1.5c1.3,0.9,1.9,2.4,1.9,4.3C180.2,80.4,179.5,82,178,83.1z M194.6,83.9
	c-0.3,0.3-0.7,0.5-1.2,0.5h-1.2c-2.7,0-4.6-0.8-5.7-2.4c-1-1.4-1.4-3.6-1.4-6.4v-8.8h-1.2c-0.4,0-0.8-0.1-1.1-0.5
	c-0.3-0.3-0.5-0.7-0.5-1.1c0-0.4,0.1-0.8,0.5-1.1c0.3-0.3,0.7-0.5,1.1-0.5h1.2v-4.2c0-0.5,0.2-0.9,0.5-1.3c0.4-0.4,0.8-0.5,1.3-0.5
	s0.9,0.2,1.2,0.5c0.3,0.4,0.5,0.8,0.5,1.3v4.2h3.8c0.4,0,0.8,0.2,1.1,0.5c0.3,0.3,0.5,0.7,0.5,1.1c0,0.4-0.2,0.8-0.5,1.1
	c-0.3,0.3-0.7,0.5-1.1,0.5h-3.8v8.7c0,2.1,0.3,3.6,0.8,4.4c0.5,0.8,1.6,1.2,3.2,1.2h0.8c0.5,0,0.9,0.2,1.2,0.5
	c0.3,0.3,0.5,0.7,0.5,1.2C195.1,83.2,194.9,83.6,194.6,83.9z M201.7,58.5c-0.4,0.4-0.9,0.6-1.5,0.6c-0.6,0-1.1-0.2-1.5-0.6
	c-0.4-0.4-0.6-0.9-0.6-1.5c0-0.6,0.2-1.1,0.6-1.5c0.4-0.4,0.9-0.6,1.5-0.6c0.6,0,1.1,0.2,1.5,0.6c0.4,0.4,0.6,0.9,0.6,1.5
	C202.3,57.6,202.1,58.1,201.7,58.5z M201.4,84.2c-0.3,0.3-0.8,0.5-1.3,0.5c-0.5,0-0.9-0.2-1.2-0.5c-0.3-0.3-0.5-0.8-0.5-1.3V65.3
	c0-0.5,0.2-0.9,0.5-1.3c0.3-0.4,0.8-0.5,1.2-0.5c0.5,0,0.9,0.2,1.3,0.5c0.3,0.4,0.5,0.8,0.5,1.3v17.5
	C202,83.4,201.8,83.8,201.4,84.2z M220.3,83.5c-1.5,0.8-3.2,1.2-5.2,1.2c-2.7,0-4.8-0.9-6.2-2.6c-1.3-1.6-1.9-3.8-1.9-6.5v-2.8
	c0-2.6,0.7-4.8,2-6.5c1.4-1.8,3.4-2.7,6.1-2.7c2,0,3.7,0.4,5.1,1.2c0.5,0.3,0.8,0.8,0.8,1.3c0,0.4-0.1,0.8-0.4,1.1
	c-0.3,0.3-0.6,0.5-1,0.5c-0.2,0-0.5-0.1-0.7-0.2c-1.1-0.5-2.3-0.8-3.6-0.8c-1.5,0-2.7,0.5-3.5,1.6c-0.8,1.1-1.3,2.5-1.3,4.3v3.3
	c0,3.9,1.6,5.9,4.7,5.9c1.3,0,2.6-0.3,3.7-0.8c0.2-0.1,0.4-0.2,0.7-0.2c0.4,0,0.7,0.2,1,0.5c0.3,0.3,0.4,0.7,0.4,1.1
	C221.1,82.7,220.9,83.2,220.3,83.5z M236.2,83.1c-1.4,1-3.3,1.6-5.6,1.6c-2.2,0-4.1-0.3-5.8-0.9c-0.7-0.2-1-0.7-1-1.5
	c0-0.4,0.1-0.8,0.4-1.1c0.3-0.3,0.6-0.5,1.1-0.5c0.2,0,0.4,0,0.6,0.1c1.5,0.5,3,0.8,4.7,0.8c2.9,0,4.4-1,4.4-3.1
	c0-1.1-0.6-1.9-1.8-2.4c-0.1,0-0.5-0.1-1.1-0.3c-0.6-0.1-1.6-0.4-2.8-0.7c-1.6-0.4-2.8-0.9-3.6-1.6c-1.1-0.9-1.6-2.2-1.6-4
	c0-1.9,0.7-3.4,2-4.5c1.3-1,2.9-1.6,5-1.6c2,0,3.8,0.3,5.3,0.9c0.7,0.3,1.1,0.8,1.1,1.5c0,0.4-0.2,0.8-0.5,1.1
	c-0.3,0.3-0.7,0.5-1.1,0.5c-0.1,0-0.3,0-0.5-0.1c-1.4-0.5-2.8-0.8-4.1-0.8c-2.5,0-3.8,1-3.8,2.9c0,1,0.5,1.7,1.6,2.2
	c0.4,0.2,1.6,0.5,3.6,0.9c1.8,0.4,3.1,0.9,4,1.5c1.3,0.9,1.9,2.4,1.9,4.3C238.4,80.4,237.7,82,236.2,83.1z"/>
</svg>
