<svg xmlns="http://www.w3.org/2000/svg" xmlns:xlink="http://www.w3.org/1999/xlink" version="1.1" x="0px" y="0px" viewBox="0 0 100 125" enable-background="new 0 0 100 100" xml:space="preserve"><path d="M65.14,64.405c-1.392,1.305-3.254,1.868-5.104,1.541c-1.853-0.327-3.41-1.491-4.271-3.194  c-0.451-0.892-1.541-1.248-2.43-0.797c-0.891,0.451-1.248,1.539-0.797,2.43c1.381,2.729,3.885,4.596,6.871,5.122  c0.558,0.099,1.116,0.146,1.67,0.146c2.405,0,4.721-0.911,6.534-2.609c0.729-0.683,0.766-1.826,0.083-2.556  C67.014,63.759,65.867,63.722,65.14,64.405z M70.412,49.407c-1.942-0.343-3.892,0.239-5.34,1.602  c-0.727,0.686-0.761,1.829-0.076,2.557c0.687,0.727,1.83,0.759,2.557,0.076c0.605-0.572,1.421-0.819,2.23-0.673  c0.808,0.142,1.486,0.649,1.862,1.395c0.318,0.631,0.955,0.994,1.615,0.994c0.274,0,0.553-0.063,0.813-0.194  c0.892-0.45,1.25-1.538,0.8-2.429C73.979,50.96,72.351,49.747,70.412,49.407z M78.729,37.877c-3.363-1.906-7.974-3.442-12.981-4.325  c-3.1-0.546-6.156-0.789-8.971-0.75C56.02,28.5,55.2,23.85,55.175,23.705c-0.611-3.467-5.275-5.456-12.795-5.456  c-2.683,0-5.521,0.261-8.438,0.775c-5.009,0.883-9.62,2.419-12.982,4.325c-5.005,2.836-5.681,5.555-5.365,7.346  c0.049,0.274,2.879,16.324,2.879,16.324c1.609,9.125,10.675,19.293,21.113,19.294c0,0,0,0,0.001,0c0.892,0,1.785-0.078,2.654-0.231  c0.134-0.023,0.264-0.057,0.396-0.084c2.534,7.793,8.202,13.449,14.811,14.614c0.91,0.16,1.816,0.237,2.716,0.237  c10.129,0,19.363-9.723,21.053-19.303c0,0,2.834-16.081,2.879-16.332C84.411,43.433,83.735,40.714,78.729,37.877z M41.614,62.521  c-0.663,0.116-1.345,0.176-2.026,0.176c0,0,0,0-0.001,0c-8.401,0-16.195-8.609-17.552-16.306c0,0-2.846-16.138-2.881-16.333  c-0.084-0.481,0.556-1.845,3.588-3.563c3.014-1.708,7.214-3.096,11.828-3.909c2.709-0.478,5.337-0.72,7.81-0.72  c6.002,0,9.059,1.473,9.233,2.46c0.035,0.205,2.881,16.342,2.881,16.342C56,49.216,50.353,60.979,41.614,62.521z M77.657,60.918  c-1.51,8.55-10.852,17.663-19.579,16.133c-5.937-1.047-10.152-6.638-11.993-12.177c5.245-2.411,9.078-7.558,10.963-13.268  c0.046,0.071,0.099,0.136,0.138,0.212c0.318,0.628,0.954,0.99,1.613,0.99c0.275,0,0.555-0.063,0.817-0.196  c0.89-0.451,1.246-1.54,0.794-2.43c-0.543-1.07-1.378-1.942-2.385-2.54c0.427-2.583,0.455-5.18,0.028-7.603  c0,0-0.269-1.523-0.642-3.637c2.424,0.005,5.045,0.241,7.707,0.711c4.613,0.813,8.813,2.202,11.828,3.91  c3.032,1.719,3.674,3.082,3.59,3.556C80.5,44.786,77.657,60.919,77.657,60.918z M48.814,34.407c-0.313-0.948-1.337-1.464-2.284-1.15  c-1.892,0.625-3.417,0.323-4.411-0.874c-0.637-0.767-1.777-0.874-2.546-0.236c-0.768,0.638-0.874,1.777-0.236,2.546  c1.365,1.645,3.247,2.499,5.383,2.499c0.939,0,1.929-0.165,2.944-0.5C48.613,36.378,49.127,35.355,48.814,34.407z M34.234,35.596  c0.338-0.939-0.15-1.975-1.089-2.313c-0.939-0.339-1.975,0.15-2.313,1.089c-0.527,1.466-1.858,2.272-3.85,2.332  c-0.998,0.03-1.783,0.863-1.753,1.861c0.029,0.979,0.833,1.754,1.806,1.754c0.018,0,0.037,0,0.055-0.001  C30.589,40.213,33.193,38.492,34.234,35.596z M38.719,46.096c-2.989,0.527-5.493,2.394-6.871,5.123  c-0.45,0.891-0.092,1.979,0.799,2.429c0.261,0.132,0.54,0.194,0.813,0.194c0.661,0,1.297-0.363,1.615-0.994  c0.859-1.7,2.415-2.863,4.271-3.19c1.854-0.325,3.711,0.235,5.103,1.54c0.729,0.684,1.874,0.646,2.555-0.083  c0.683-0.729,0.646-1.873-0.083-2.555C44.691,46.467,41.7,45.572,38.719,46.096z"/><text x="0" y="115" fill="#000000" font-size="5px" visibility="hidden">Created by Sergey Demushkin</text><text x="0" y="120" fill="#000000" font-size="5px" visibility="hidden">from the Noun Project</text></svg>