<svg xmlns="http://www.w3.org/2000/svg" xmlns:xlink="http://www.w3.org/1999/xlink" version="1.1" x="0px" y="0px" viewBox="0 0 100 125" enable-background="new 0 0 100 100" xml:space="preserve"><path d="M74.643,57.839V43.876c0-0.684-0.387-1.31-0.998-1.616l-5.324-2.67V21.653c0-0.999-0.81-1.808-1.809-1.808  c-0.998,0-1.808,0.81-1.808,1.808v0.234c-4.501,1.013-9.548,1.551-14.704,1.551c-5.159,0-10.205-0.538-14.702-1.552v-0.234  c0-0.999-0.81-1.808-1.808-1.808s-1.808,0.81-1.808,1.808v17.936l-5.327,2.671c-0.611,0.307-0.998,0.932-0.998,1.616v13.963  c0,0.711,0.417,1.356,1.066,1.648l19.173,8.635l-19.042,8.576c-0.911,0.41-1.316,1.48-0.906,2.391  c0.301,0.67,0.96,1.066,1.649,1.066c0.248,0,0.5-0.052,0.741-0.16L50,70.104l21.96,9.891c0.241,0.108,0.494,0.16,0.742,0.16  c0.689,0,1.348-0.396,1.648-1.066c0.41-0.91,0.005-1.98-0.906-2.391l-19.042-8.576l19.173-8.635  C74.226,59.195,74.643,58.55,74.643,57.839z M71.026,44.992v9.031L68.32,51.81v-8.174L71.026,44.992z M64.704,50.859H35.299v-7.882  c4.54,0.957,9.569,1.463,14.702,1.464c5.132-0.001,10.162-0.508,14.703-1.465V50.859z M34.136,54.475h31.731l1.902,1.557H32.233  L34.136,54.475z M50,27.055c5.119,0,10.15-0.506,14.704-1.464v13.683c-4.486,1.012-9.532,1.55-14.703,1.552  c-5.171-0.002-10.218-0.54-14.702-1.551V25.59C39.849,26.549,44.88,27.055,50,27.055z M31.683,43.634v8.176l-2.708,2.214v-9.032  L31.683,43.634z M35.584,59.646h28.833L50,66.14L35.584,59.646z"/><text x="0" y="115" fill="#000000" font-size="5px" font-weight="bold" font-family="'Helvetica Neue', Helvetica, Arial-Unicode, Arial, Sans-serif" visibility="hidden">Created by Sergey Demushkin</text><text x="0" y="120" fill="#000000" font-size="5px" font-weight="bold" font-family="'Helvetica Neue', Helvetica, Arial-Unicode, Arial, Sans-serif" visibility="hidden">from the Noun Project</text></svg>