<svg xmlns="http://www.w3.org/2000/svg" xmlns:xlink="http://www.w3.org/1999/xlink" version="1.1" x="0px" y="0px" viewBox="0 0 100 125" enable-background="new 0 0 100 100" xml:space="preserve"><path d="M29.256,61.375c-0.461-0.886-1.553-1.229-2.438-0.769c-3.649,1.9-7.597,2.863-11.733,2.863c-0.999,0-1.808,0.81-1.808,1.809  s0.81,1.809,1.808,1.809c4.657,0,9.292-1.132,13.403-3.273C29.373,63.353,29.717,62.261,29.256,61.375z M64.172,61.371  c-0.461-0.885-1.553-1.229-2.438-0.769C58.079,62.505,54.132,63.47,50,63.47c-4.131,0-8.079-0.965-11.733-2.867  c-0.886-0.464-1.978-0.117-2.438,0.769c-0.461,0.886-0.117,1.978,0.769,2.438c4.116,2.144,8.751,3.277,13.403,3.277  c4.719,0,9.229-1.103,13.403-3.277C64.289,63.349,64.634,62.257,64.172,61.371z M84.916,63.47c-4.13,0-8.077-0.965-11.731-2.867  c-0.886-0.465-1.978-0.117-2.438,0.769c-0.462,0.886-0.117,1.978,0.769,2.438c4.116,2.144,8.75,3.277,13.401,3.277  c0.999,0,1.809-0.81,1.809-1.809S85.915,63.47,84.916,63.47z M35.662,53.795h28.676c0.998,0,1.808-0.81,1.808-1.808V23.312  c0-0.999-0.81-1.808-1.808-1.808h-8.002l-5.002-5.446c-0.343-0.373-0.826-0.585-1.332-0.585s-0.989,0.212-1.332,0.585l-5.003,5.446  h-8.005c-0.999,0-1.808,0.81-1.808,1.808v28.676C33.854,52.985,34.664,53.795,35.662,53.795z M50.002,19.953l1.424,1.55h-2.848  L50.002,19.953z M37.47,25.12h25.06v25.06H37.47V25.12z M35.684,80.911h-1.334V57.444c0-0.999-0.81-1.809-1.808-1.809  s-1.808,0.81-1.808,1.809v23.467H29.4c-0.999,0-1.808,0.81-1.808,1.809s0.81,1.809,1.808,1.809h6.283  c0.999,0,1.808-0.81,1.808-1.809S36.682,80.911,35.684,80.911z M70.602,80.911h-1.334V57.444c0-0.999-0.81-1.809-1.809-1.809  s-1.809,0.81-1.809,1.809v23.467h-1.332c-0.999,0-1.809,0.81-1.809,1.809s0.81,1.809,1.809,1.809h6.283  c0.999,0,1.809-0.81,1.809-1.809S71.601,80.911,70.602,80.911z M41.92,35.629c0.463,0,0.926-0.177,1.279-0.53l4.252-4.254  c0.706-0.707,0.706-1.851,0-2.557c-0.706-0.707-1.852-0.705-2.557,0l-4.252,4.254c-0.706,0.707-0.706,1.851,0,2.557  C40.995,35.453,41.458,35.629,41.92,35.629z M53.497,28.289L40.642,41.145c-0.707,0.706-0.707,1.851,0,2.557  c0.353,0.354,0.815,0.53,1.278,0.53s0.925-0.176,1.278-0.53l12.855-12.855c0.706-0.706,0.706-1.851,0-2.557  C55.349,27.582,54.202,27.582,53.497,28.289z"/><text x="0" y="115" fill="#000000" font-size="5px" font-weight="bold" font-family="'Helvetica Neue', Helvetica, Arial-Unicode, Arial, Sans-serif" visibility="hidden">Created by Sergey Demushkin</text><text x="0" y="120" fill="#000000" font-size="5px" font-weight="bold" font-family="'Helvetica Neue', Helvetica, Arial-Unicode, Arial, Sans-serif" visibility="hidden">from the Noun Project</text></svg>