<?xml version="1.0" encoding="utf-8"?>
<!-- Generator: Adobe Illustrator 19.1.0, SVG Export Plug-In . SVG Version: 6.00 Build 0)  -->
<svg version="1.1" id="Layer_1" xmlns="http://www.w3.org/2000/svg" xmlns:xlink="http://www.w3.org/1999/xlink" x="0px" y="0px"
	 viewBox="0 0 16 16" style="enable-background:new 0 0 16 16;" xml:space="preserve">
<style type="text/css">
	.st0{fill:#FFFFFF;}
</style>
<path class="st0" d="M1.3,12.6C1.3,12.6,1.2,12.6,1.3,12.6c-0.2,0-0.3-0.1-0.3-0.3c0.2-4.1,2.7-6.6,7.2-6.6V3c0-0.1,0.1-0.2,0.2-0.3
	c0.1,0,0.2,0,0.3,0l6.6,5.1c0.1,0,0.1,0.1,0.1,0.2c0,0.1,0,0.2-0.1,0.2l-6.6,5.1c0,0-0.1,0.1-0.2,0.1c0,0-0.1,0-0.1,0
	c-0.1,0-0.2-0.1-0.2-0.3v-2.7c-3,0-5.6,0.6-6.6,2C1.4,12.6,1.4,12.6,1.3,12.6z"/>
</svg>
