<?xml version="1.0" encoding="utf-8"?>
<!-- Generator: Adobe Illustrator 19.1.0, SVG Export Plug-In . SVG Version: 6.00 Build 0)  -->
<svg version="1.1" id="Layer_1" xmlns="http://www.w3.org/2000/svg" xmlns:xlink="http://www.w3.org/1999/xlink" x="0px" y="0px"
	 viewBox="-263 263 264 88" style="enable-background:new -263 263 264 88;" xml:space="preserve">
<style type="text/css">
	.st0{fill:#FFFFFF;}
</style>
<title>default-skin 2</title>
<path class="st0" d="M-146,284.4c0,3-2.4,5.4-5.4,5.4c-1.1,0-2.1-0.3-2.9-0.8l-4.1,4.1c-0.2,0.2-0.5,0.3-0.8,0.3
	c-0.3,0-0.6-0.1-0.8-0.3c-0.5-0.5-0.5-1.2,0-1.7l4.1-4.1c-0.5-0.8-0.8-1.8-0.8-2.9c0-3,2.4-5.4,5.4-5.4S-146,281.4-146,284.4z
	 M-148.4,283.5h-2.1v-2.1h-1.8v2.1h-2.1v1.8h2.1v2.1h1.8v-2.1h2.1V283.5z"/>
<path class="st0" d="M-101.8,284.4c0,3-2.4,5.4-5.4,5.4c-1.1,0-2.1-0.3-2.9-0.8l-4.1,4.1c-0.2,0.2-0.5,0.3-0.8,0.3
	c-0.3,0-0.6-0.1-0.8-0.3c-0.5-0.5-0.5-1.2,0-1.7l4.1-4.1c-0.5-0.8-0.8-1.8-0.8-2.9c0-3,2.4-5.4,5.4-5.4S-101.8,281.4-101.8,284.4z
	 M-110.2,283.5v1.8h6v-1.8H-110.2z"/>
<path class="st0" d="M-243.1,289.7l2,2c0.1,0.1,0.1,0.1,0.1,0.2c0,0.2-0.1,0.3-0.3,0.3h-6.6c-0.2,0-0.3-0.1-0.3-0.3v-6.6
	c0-0.1,0.1-0.2,0.2-0.3c0.1,0,0.3,0,0.3,0.1l2,2l2.6-2.5c0.1-0.1,0.3-0.1,0.4,0l2.1,2.1c0.1,0,0.1,0.1,0.1,0.2c0,0.1,0,0.2-0.1,0.2
	L-243.1,289.7z M-233.8,284.7c0,0.1-0.1,0.2-0.2,0.3c0,0-0.1,0-0.1,0c-0.1,0-0.2,0-0.2-0.1l-2-2l-2.6,2.6c0,0.1-0.1,0.1-0.2,0.1
	c-0.1,0-0.2,0-0.2-0.1l-2.1-2.1c-0.1-0.1-0.1-0.3,0-0.4l2.5-2.6l-2-2c-0.1-0.1-0.1-0.2-0.1-0.3c0-0.1,0.2-0.2,0.3-0.2h6.6
	c0.2,0,0.3,0.1,0.3,0.3V284.7z"/>
<path class="st0" d="M-203.2,284.9h6.6c0.2,0,0.3,0.1,0.3,0.3v6.6c0,0.1-0.1,0.2-0.2,0.3c-0.1,0-0.2,0-0.3-0.1l-2-2l-2,2
	c-0.1,0.1-0.3,0.1-0.4,0l-2.1-2.1c-0.1-0.1-0.1-0.3,0-0.4l2-2l-2-2c-0.1-0.1-0.1-0.1-0.1-0.2C-203.5,285-203.4,284.9-203.2,284.9z
	 M-189.4,284.9h-6.6c-0.2,0-0.3-0.1-0.3-0.3V278c0-0.1,0.1-0.2,0.2-0.3c0.1,0,0.2,0,0.3,0.1l2,2l2-2c0.1-0.1,0.3-0.1,0.4,0l2.1,2.1
	c0.1,0.1,0.1,0.3,0,0.4l-2,2l2,2c0.1,0.1,0.1,0.1,0.1,0.2C-189.1,284.8-189.2,284.9-189.4,284.9z"/>
<path class="st0" d="M-234.7,332.9c0,0.1,0,0.2-0.1,0.2l-2.1,2.1c-0.1,0-0.1,0.1-0.2,0.1s-0.2,0-0.2-0.1l-3.7-3.7l-3.7,3.7
	c-0.1,0-0.1,0.1-0.2,0.1c-0.1,0-0.2,0-0.2-0.1l-2.1-2.1c-0.1-0.1-0.1-0.1-0.1-0.2c0-0.1,0-0.2,0.1-0.2l3.7-3.7l-3.7-3.7
	c-0.1-0.1-0.1-0.1-0.1-0.2c0-0.1,0-0.2,0.1-0.2l2.1-2.1c0.1,0,0.1-0.1,0.2-0.1c0.1,0,0.2,0,0.2,0.1l3.7,3.7l3.7-3.7
	c0.1,0,0.1-0.1,0.2-0.1s0.2,0,0.2,0.1l2.1,2.1c0.1,0.1,0.1,0.1,0.1,0.2c0,0.1,0,0.2-0.1,0.2l-3.7,3.7l3.7,3.7
	C-234.7,332.7-234.7,332.8-234.7,332.9z"/>
<path class="st0" d="M-204.9,333.5C-204.9,333.5-205,333.5-204.9,333.5c-0.2,0-0.3-0.2-0.3-0.3c0.2-4.1,2.7-6.6,7.2-6.6v-2.7
	c0-0.1,0.1-0.2,0.2-0.3c0.1,0,0.2,0,0.3,0l6.6,5.1c0.1,0,0.1,0.1,0.1,0.2s-0.1,0.2-0.1,0.2l-6.6,5.1c-0.1,0-0.1,0.1-0.2,0.1
	c0,0-0.1,0-0.1,0c-0.1,0-0.2-0.2-0.2-0.3v-2.7c-3,0-5.6,0.6-6.6,1.9C-204.7,333.5-204.8,333.5-204.9,333.5z"/>
<path class="st0" d="M-154.2,314.8l6.9,6.9c0.1,0.1,0.1,0.3,0,0.4l-6.9,6.9c-0.1,0.1-0.3,0.1-0.4,0l-2.1-2.1c-0.1-0.1-0.1-0.3,0-0.4
	l4.6-4.6l-4.6-4.6c-0.1-0.1-0.1-0.3,0-0.4l2.1-2.1c0.1,0,0.1-0.1,0.2-0.1C-154.3,314.7-154.3,314.8-154.2,314.8z"/>
<path class="st0" d="M-108,329l-6.9-6.9c-0.1-0.1-0.1-0.3,0-0.4l6.9-6.9c0.1-0.1,0.3-0.1,0.4,0l2.1,2.1c0.1,0.1,0.1,0.3,0,0.4
	l-4.6,4.6l4.6,4.6c0.1,0.1,0.1,0.3,0,0.4l-2.1,2.1c-0.1,0.1-0.1,0.1-0.2,0.1S-107.9,329.1-108,329z"/>
</svg>
