<?xml version="1.0" encoding="utf-8"?>
<!-- Generator: Adobe Illustrator 18.1.1, SVG Export Plug-In . SVG Version: 6.00 Build 0)  -->
<svg version="1.1" baseProfile="basic" id="Layer_1"
	 xmlns="http://www.w3.org/2000/svg" xmlns:xlink="http://www.w3.org/1999/xlink" x="0px" y="0px" viewBox="-363 232 286 60"
	 xml:space="preserve">
<path d="M-322.8,249.5L-322.8,249.5L-322.8,249.5 M-351,268c4.4,0,8,3.6,8,8c0,4.4-3.6,8-8,8c-4.4,0-8-3.6-8-8
	C-359.1,271.6-355.5,268-351,268 M-345.2,286c0-2.3,1.9-4.2,4.2-4.2c2.3,0,4.2,1.9,4.2,4.2c0,2.3-1.9,4.2-4.2,4.2
	C-343.3,290.2-345.2,288.3-345.2,286 M-313.4,253.2c0-0.5-0.1-1.1-0.1-1.6c-0.1-0.4-0.2-1.1-0.3-1.4c-0.2-0.5-0.2-0.7-0.3-1
	c-0.1-0.4-0.1-0.3-0.3-1.1c-0.4-1.5-1.1-3-1.8-4.4c-0.5-0.9-1.1-1.7-1.7-2.5c-0.1-0.2-0.5-0.6-0.6-0.7c-0.2-0.3-1.6-1.9-2-2.2
	c-0.4-0.4-0.8-0.8-1.2-1.1c-0.4-0.3-0.9-0.7-1.3-1c-0.4-0.3-0.8-0.4-1.1-0.7c-2.1-1.3-4.3-2.3-6.7-2.8c-7.9-1.8-17.1,0.8-22.2,7.3
	c-0.5,0.7-1.1,1.3-1.6,2c-0.3,0.3-0.4,0.7-0.6,1.1c-0.5,0.8-0.9,1.5-1.2,2.3c-1.4,3.2-2.3,7.1-2,10.7c0.2,2,0.6,4.1,1.2,6
	c0.2,0.6,0.4,1.2,0.7,1.8c0.2,0.4,0.7,1.3,0.7,1.4c-4.2,1.9-7.1,6.1-7.1,11c0,6.6,5.4,12,12,12c1.4,0,2.8-0.3,4.1-0.7
	c0,0,0,0.1,0.1,0.1c0.7,2.6,3,4.5,5.8,4.5c3.3,0,6-2.7,6-6c0-2.9-2-5.3-4.7-5.9c0-0.1,0-0.1,0.1-0.2c0.1-0.2,0.2-0.5,0.2-0.7
	c0.1-0.3,0.2-0.6,0.2-0.9c0-0.2,0-0.4,0.1-0.6c0-0.2,0.1-0.5,0.1-0.7c0.1,0,0.1,0,0.3,0c1.3,0.1,2.6,0.3,3.9,0.2
	c2.5-0.1,5.1-0.6,7.3-1.6c2.3-1,4.6-2.4,6.5-4.1c0.9-0.8,1.8-1.7,2.5-2.7c0.4-0.5,0.8-0.9,1.1-1.4c0.3-0.4,0.6-0.8,0.8-1.3
	c0.2-0.3,0.2-0.5,0.4-0.8c0.1-0.2,0.2-0.4,0.3-0.6c0.2-0.4,0.2-0.9,0.3-1.4c0-0.9-0.3-1.9-0.8-2.6c-0.4-0.7-1.4-1.3-2.2-1.5
	c-0.9-0.3-2-0.2-2.9,0.1c-1,0.4-1.6,1.2-2.2,2.1c-0.6,1-1.1,1.9-1.9,2.7c-1.5,1.5-3.1,2.7-5.1,3.5c-7.6,3.1-16.3-1.1-18.8-8.8
	c-1.2-3.6-0.8-7.6,1-11c1-1.8,2.3-3.3,3.8-4.6c0.8-0.7,1.8-1.3,2.8-1.7c0.9-0.4,1.8-0.6,2.7-0.9c0.7-0.2,1.7-0.3,2.4-0.4
	c0.8-0.1,1.6-0.1,2.4,0c1.6,0.3,3.3,0.6,4.8,1.4c0.8,0.4,1.7,1,2.4,1.5c0.7,0.6,1.5,1.3,2.1,2.1c0.5,0.6,0.7,1,1.2,1.6
	c0.5,0.7,1.1,1.5,1.2,2.4c-1.9,0-3.8,0-5.7,0c-1.8,0-3.8-0.4-5.5,0.4c-1.8,0.9-3.1,3.4-2,5.3c0.5,0.9,0.8,1.6,1.8,2.1
	c1,0.5,1.9,0.6,3,0.5c2.6-0.1,5.2,0,7.8,0h4c1.1,0,2.3,0.1,3.3-0.3C-314.2,256.9-313.3,255.1-313.4,253.2"/>
<g>
	<path d="M-288.6,261.4c0,0.9-0.4,1.3-1.2,1.3h-10.3v1c0,3.3,1.4,4.9,4.2,4.9c1.8,0,3.4-0.4,4.7-1.1c0.2-0.1,0.4-0.2,0.6-0.2
		c0.4,0,0.7,0.2,0.9,0.5c0.2,0.3,0.4,0.6,0.4,1c0,0.5-0.3,0.9-0.8,1.2c-1.7,0.9-3.7,1.4-5.9,1.4c-2.5,0-4.4-0.8-5.7-2.4
		c-1.1-1.4-1.7-3.2-1.7-5.6V260c0-2.4,0.6-4.2,1.7-5.6c1.3-1.6,3.2-2.4,5.7-2.4c2.6,0,4.5,0.8,5.7,2.4c1.1,1.3,1.6,3.2,1.6,5.5
		V261.4z M-291.8,259.5c0-3.2-1.4-4.8-4.1-4.8c-2.8,0-4.2,1.6-4.2,4.8v0.6h8.3V259.5z"/>
	<path d="M-269.3,271.4c-0.7,0-1.4-0.3-2-0.8c-0.4-0.3-0.7-0.8-0.9-1.4c-1.4,1.5-3.3,2.2-5.8,2.2c-4.1,0-6.1-2.3-6.1-6.8v-10.9
		c0-0.5,0.2-0.8,0.5-1.2c0.3-0.3,0.7-0.5,1.2-0.5c0.5,0,0.8,0.2,1.1,0.5c0.3,0.3,0.5,0.7,0.5,1.2v10.6c0,1.3,0.2,2.3,0.7,2.9
		c0.6,0.7,1.5,1.1,2.9,1.1c2.2,0,3.7-0.8,4.5-2.5v-12.1c0-0.5,0.2-0.8,0.5-1.2c0.3-0.3,0.7-0.5,1.2-0.5c0.5,0,0.8,0.2,1.2,0.5
		c0.3,0.3,0.5,0.7,0.5,1.2v12.9c0,1.2,0.4,2,1.2,2.4c0.4,0.2,0.6,0.6,0.6,1.1C-267.7,271-268.2,271.4-269.3,271.4z"/>
	<path d="M-253.8,255.4c-0.2,0-0.4-0.1-0.6-0.1s-0.4-0.1-0.7-0.1c-0.2,0-0.4,0-0.5,0c-2.3,0-3.7,1.1-4.2,3.4v11.2
		c0,0.5-0.2,0.9-0.5,1.2c-0.3,0.3-0.7,0.5-1.2,0.5c-0.5,0-0.8-0.2-1.2-0.5c-0.3-0.3-0.5-0.7-0.5-1.2v-12.7c0-1.2-0.4-2-1.2-2.4
		c-0.4-0.2-0.6-0.6-0.6-1.1c0-1,0.5-1.4,1.6-1.4c0.3,0,0.5,0,0.5,0c1.2,0.3,2.1,1.1,2.5,2.3c1.2-1.7,3-2.6,5.2-2.6
		c1,0,1.9,0.2,2.5,0.5c0.5,0.3,0.8,0.7,0.8,1.3c0,0.5-0.2,0.8-0.5,1.2c-0.3,0.3-0.7,0.5-1.1,0.5
		C-253.4,255.4-253.6,255.4-253.8,255.4z"/>
	<path d="M-237.3,269.1c-1.3,1.5-3.2,2.3-5.8,2.3c-2.6,0-4.5-0.8-5.8-2.3c-1.2-1.4-1.8-3.2-1.8-5.5v-3.9c0-2.3,0.6-4.1,1.8-5.5
		c1.3-1.5,3.2-2.3,5.8-2.3c2.6,0,4.5,0.8,5.8,2.3c1.2,1.4,1.8,3.2,1.8,5.5v3.9C-235.5,265.9-236.1,267.8-237.3,269.1z M-238.8,259.8
		c0-3.2-1.4-4.7-4.3-4.7c-2.8,0-4.2,1.6-4.2,4.7v3.9c0,3.2,1.4,4.8,4.2,4.8c2.9,0,4.3-1.6,4.3-4.8V259.8z"/>
	<path d="M-222.6,271.4c-1.7,0-3.2-0.5-4.5-1.5v6.5c0,0.5-0.2,0.9-0.5,1.2c-0.3,0.3-0.7,0.5-1.2,0.5s-0.8-0.2-1.1-0.5
		c-0.3-0.3-0.5-0.7-0.5-1.2v-19.5c0-1.2-0.4-2-1.1-2.4c-0.4-0.2-0.6-0.6-0.6-1.1c0-1,0.5-1.4,1.6-1.4c0.7,0,1.4,0.3,2,0.8
		c0.2,0.2,0.5,0.5,0.7,0.9c1.5-1.1,3.2-1.7,4.9-1.7c4.6,0,6.9,2.5,6.9,7.6v3.4C-215.9,268.6-218.1,271.4-222.6,271.4z M-219.2,259.4
		c0-3-1.4-4.5-4.1-4.5c-1.3,0-2.6,0.5-3.8,1.6v10.4c1.1,1.2,2.4,1.7,3.9,1.7c2.7,0,4-1.7,4-5.1V259.4z"/>
	<path d="M-197.1,261.4c0,0.9-0.4,1.3-1.2,1.3h-10.3v1c0,3.3,1.4,4.9,4.2,4.9c1.8,0,3.4-0.4,4.7-1.1c0.2-0.1,0.4-0.2,0.6-0.2
		c0.4,0,0.7,0.2,0.9,0.5c0.2,0.3,0.4,0.6,0.4,1c0,0.5-0.3,0.9-0.8,1.2c-1.7,0.9-3.7,1.4-5.9,1.4c-2.5,0-4.4-0.8-5.7-2.4
		c-1.1-1.4-1.7-3.2-1.7-5.6V260c0-2.4,0.6-4.2,1.7-5.6c1.3-1.6,3.2-2.4,5.7-2.4c2.6,0,4.5,0.8,5.7,2.4c1.1,1.3,1.6,3.2,1.6,5.5
		V261.4z M-200.3,259.5c0-3.2-1.4-4.8-4.1-4.8c-2.8,0-4.2,1.6-4.2,4.8v0.6h8.3V259.5z"/>
	<path d="M-179.6,271.4c-0.8,0-1.4-0.3-2-0.8c-0.3-0.2-0.6-0.6-0.8-1.1c-1.2,1.3-2.9,1.9-5.3,1.9c-2.2,0-3.9-0.5-5-1.6
		c-1-1-1.5-2.3-1.5-3.9v-0.3c0-1.7,0.6-3,1.7-3.9c1.3-1,3-1.5,5.3-1.5h4.3v-0.9c0-1.6-0.2-2.7-0.8-3.4c-0.6-0.8-1.6-1.1-3.1-1.1
		c-1.4,0-2.7,0.3-3.8,0.9c-0.3,0.2-0.5,0.2-0.8,0.2c-0.4,0-0.7-0.1-1-0.4c-0.3-0.3-0.4-0.6-0.4-1c0-0.5,0.2-0.9,0.7-1.2
		c1.4-0.9,3.2-1.3,5.5-1.3c2.6,0,4.4,0.6,5.5,1.9c1,1.2,1.5,3.1,1.5,5.6v7c0,1.2,0.3,2,1.1,2.4c0.4,0.3,0.6,0.6,0.6,1.1
		C-178,271-178.5,271.4-179.6,271.4z M-182.9,262.7h-3.9c-2.7,0-4,1-4,2.9v0.3c0,2,1.3,2.9,3.9,2.9c2.7,0,4.1-1.3,4.1-3.9V262.7z"/>
	<path d="M-159.5,271c-0.3,0.3-0.7,0.5-1.2,0.5c-0.5,0-0.8-0.2-1.1-0.5c-0.3-0.3-0.5-0.7-0.5-1.2v-10.6c0-1.3-0.2-2.3-0.7-2.9
		c-0.6-0.8-1.5-1.1-2.9-1.1c-2.1,0-3.6,0.8-4.5,2.4v12.3c0,0.5-0.2,0.9-0.5,1.2s-0.7,0.5-1.2,0.5c-0.5,0-0.8-0.2-1.2-0.5
		c-0.3-0.3-0.5-0.7-0.5-1.2v-12.7c0-1.2-0.4-2-1.2-2.4c-0.4-0.2-0.6-0.6-0.6-1.1c0-1,0.5-1.4,1.6-1.4c0.7,0,1.4,0.3,2,0.8
		c0.4,0.4,0.7,0.8,0.8,1.2c1.4-1.5,3.3-2.3,5.9-2.3c4.1,0,6.2,2.3,6.2,6.9v10.9C-159,270.3-159.1,270.6-159.5,271z"/>
	<path d="M-140.4,271.4c-0.8,0-1.4-0.3-2-0.8c-0.3-0.2-0.6-0.6-0.8-1.1c-1.2,1.3-2.9,1.9-5.3,1.9c-2.2,0-3.9-0.5-5-1.6
		c-1-1-1.5-2.3-1.5-3.9v-0.3c0-1.7,0.6-3,1.7-3.9c1.3-1,3-1.5,5.3-1.5h4.3v-0.9c0-1.6-0.2-2.7-0.8-3.4c-0.6-0.8-1.6-1.1-3.1-1.1
		c-1.4,0-2.7,0.3-3.8,0.9c-0.3,0.2-0.5,0.2-0.8,0.2c-0.4,0-0.7-0.1-1-0.4c-0.3-0.3-0.4-0.6-0.4-1c0-0.5,0.2-0.9,0.7-1.2
		c1.4-0.9,3.2-1.3,5.5-1.3c2.6,0,4.4,0.6,5.5,1.9c1,1.2,1.5,3.1,1.5,5.6v7c0,1.2,0.3,2,1.1,2.4c0.4,0.3,0.6,0.6,0.6,1.1
		C-138.8,271-139.3,271.4-140.4,271.4z M-143.8,262.7h-3.9c-2.7,0-4,1-4,2.9v0.3c0,2,1.3,2.9,3.9,2.9c2.7,0,4.1-1.3,4.1-3.9V262.7z"
		/>
	<path fill="#686868" d="M-120.4,271.4c-1.7,0-3.2-0.5-4.5-1.5v6.5c0,0.5-0.2,0.9-0.5,1.2c-0.3,0.3-0.7,0.5-1.2,0.5
		s-0.8-0.2-1.1-0.5c-0.3-0.3-0.5-0.7-0.5-1.2v-19.5c0-1.2-0.4-2-1.1-2.4c-0.4-0.2-0.6-0.6-0.6-1.1c0-1,0.5-1.4,1.6-1.4
		c0.7,0,1.4,0.3,2,0.8c0.2,0.2,0.5,0.5,0.7,0.9c1.5-1.1,3.2-1.7,4.9-1.7c4.6,0,6.9,2.5,6.9,7.6v3.4
		C-113.6,268.6-115.9,271.4-120.4,271.4z M-117,259.4c0-3-1.4-4.5-4.1-4.5c-1.3,0-2.6,0.5-3.8,1.6v10.4c1.1,1.2,2.4,1.7,3.9,1.7
		c2.7,0,4-1.7,4-5.1V259.4z"/>
	<path fill="#686868" d="M-99.1,255.4c-0.2,0-0.4-0.1-0.6-0.1c-0.2,0-0.4-0.1-0.7-0.1c-0.2,0-0.4,0-0.5,0c-2.3,0-3.7,1.1-4.2,3.4
		v11.2c0,0.5-0.2,0.9-0.5,1.2s-0.7,0.5-1.2,0.5c-0.5,0-0.8-0.2-1.2-0.5c-0.3-0.3-0.5-0.7-0.5-1.2v-12.7c0-1.2-0.4-2-1.2-2.4
		c-0.4-0.2-0.6-0.6-0.6-1.1c0-1,0.5-1.4,1.6-1.4c0.3,0,0.5,0,0.5,0c1.2,0.3,2.1,1.1,2.5,2.3c1.2-1.7,3-2.6,5.2-2.6
		c1,0,1.9,0.2,2.5,0.5c0.5,0.3,0.8,0.7,0.8,1.3c0,0.5-0.1,0.8-0.5,1.2c-0.3,0.3-0.7,0.5-1.1,0.5C-98.7,255.4-98.9,255.4-99.1,255.4z
		"/>
	<path fill="#686868" d="M-82.6,269.1c-1.3,1.5-3.2,2.3-5.8,2.3c-2.6,0-4.5-0.8-5.8-2.3c-1.2-1.4-1.8-3.2-1.8-5.5v-3.9
		c0-2.3,0.6-4.1,1.8-5.5c1.3-1.5,3.2-2.3,5.8-2.3c2.6,0,4.5,0.8,5.8,2.3c1.2,1.4,1.8,3.2,1.8,5.5v3.9
		C-80.8,265.9-81.4,267.8-82.6,269.1z M-84.1,259.8c0-3.2-1.4-4.7-4.3-4.7c-2.8,0-4.2,1.6-4.2,4.7v3.9c0,3.2,1.4,4.8,4.2,4.8
		c2.9,0,4.3-1.6,4.3-4.8V259.8z"/>
</g>
</svg>
