<?xml version="1.0" encoding="utf-8"?>
<!-- Generator: Adobe Illustrator 19.1.0, SVG Export Plug-In . SVG Version: 6.00 Build 0)  -->
<svg version="1.1" id="Layer_1" xmlns="http://www.w3.org/2000/svg" xmlns:xlink="http://www.w3.org/1999/xlink" x="0px" y="0px"
	 viewBox="0 0 16 16" style="enable-background:new 0 0 16 16;" xml:space="preserve">
<style type="text/css">
	.st0{fill:#FFFFFF;}
</style>
<path class="st0" d="M0.9,1.2C0.9,1.1,1,1,1.1,0.9c0.1,0,0.3,0,0.3,0.1l2.3,2.3c1.2-1.1,2.8-1.8,4.6-1.8c3.7,0,6.8,3,6.8,6.8
	c0,3.7-3,6.8-6.8,6.8c-1.7,0-3.4-0.7-4.6-1.8c0,0,0,0,0,0c-0.1-0.1-0.1-0.1-0.1-0.2c0-0.1,0-0.2,0.1-0.2c0,0,0,0,0,0L5,11.6
	c0.1-0.1,0.3-0.1,0.4,0c0.8,0.7,1.8,1.1,2.8,1.1c2.4,0,4.3-1.9,4.3-4.3c0-2.4-1.9-4.3-4.3-4.3C7.2,4,6.2,4.4,5.5,5.1l1.8,1.8
	c0.1,0.1,0.1,0.2,0.1,0.3C7.3,7.3,7.2,7.4,7.1,7.4H1.2C1,7.4,0.9,7.2,0.9,7.1V1.2z"/>
</svg>
