<svg id="Layer_1" data-name="Layer 1" xmlns="http://www.w3.org/2000/svg" viewBox="0 0 100 125"><defs><style>.cls-1{fill:#fff;}</style></defs><title>clapperboard_w</title><path class="cls-1" d="M48.9,60V73.12L58,66.58Zm-12-13.11,37.3-15.49L70,21.32,22.7,41l2.44,5.88a2.43,2.43,0,0,0,.93,4.24V78.68H77.3V46.92Zm24.27,3.62h4.92l-3.78,3.78H57.41Zm-10,0h4.92l-3.78,3.78H47.37Zm-10,0H46l-3.78,3.78H37.33ZM65.74,27l2.32-1,1.43,3.43-5.75,2.39Zm-9.27,3.85L61,29l-2,4.86-4.55,1.89ZM47.2,34.71l4.55-1.89-2,4.86-4.55,1.89Zm-9.27,3.85,4.55-1.89-2,4.86-4.55,1.89ZM36,50.54l-3.78,3.78H29.69V50.54Zm-8.57-7.62,5.78-2.4-2,4.86-2.35,1ZM73.69,75.06h-44V57.94h44Zm0-20.74H67.45l3.78-3.78h2.46Z"/></svg>