<svg id="Layer_1" data-name="Layer 1" xmlns="http://www.w3.org/2000/svg" viewBox="0 0 100 125"><defs><style>.cls-1{fill:#fff;}</style></defs><title>easel_w</title><path class="cls-1" d="M71.72,57.37H67.9V22.21H57.2V19.5h-5.4V16.35H48.19V19.5h-5.4v2.71H32.1V57.37H28.27v9H39.13l-6.88,15.8,3.32,1.44L40,73.49h8.2v5.28h3.62V73.49H60l4.43,10.17,3.32-1.44-6.88-15.8H71.73ZM46.41,23.11h7.17v1.8H46.41Zm-10.7,2.71H42.8v2.71H57.2V25.82h7.08V57.37H35.71Zm5.85,44,1.51-3.46h5.12v3.46Zm16.87,0H51.81V66.41h5.12Zm9.67-7.08H31.89V61H68.11v1.8Z"/></svg>