<svg id="Layer_1" data-name="Layer 1" xmlns="http://www.w3.org/2000/svg" viewBox="0 0 100 125"><defs><style>.cls-1{fill:#fff;}</style></defs><title>gallery_w</title><path class="cls-1" d="M29.26,61.37a1.81,1.81,0,0,0-2.44-.77,25.16,25.16,0,0,1-11.73,2.86,1.81,1.81,0,0,0,0,3.62,29.13,29.13,0,0,0,13.4-3.27A1.81,1.81,0,0,0,29.26,61.37Zm34.92,0a1.81,1.81,0,0,0-2.44-.77,25.44,25.44,0,0,1-23.47,0,1.81,1.81,0,0,0-1.67,3.21A29.13,29.13,0,0,0,50,67.09a28.73,28.73,0,0,0,13.4-3.28A1.81,1.81,0,0,0,64.17,61.37Zm20.74,2.1A25.16,25.16,0,0,1,73.18,60.6a1.81,1.81,0,0,0-1.67,3.21,29.12,29.12,0,0,0,13.4,3.28,1.81,1.81,0,1,0,0-3.62ZM35.66,53.79H64.34A1.81,1.81,0,0,0,66.15,52V23.31a1.81,1.81,0,0,0-1.81-1.81h-8l-5-5.45a1.81,1.81,0,0,0-2.66,0l-5,5.45h-8a1.81,1.81,0,0,0-1.81,1.81V52A1.81,1.81,0,0,0,35.66,53.79ZM50,20l1.42,1.55H48.58ZM37.47,25.12H62.53V50.18H37.47ZM35.68,80.91H34.35V57.44a1.81,1.81,0,1,0-3.62,0V80.91H29.4a1.81,1.81,0,0,0,0,3.62h6.28a1.81,1.81,0,0,0,0-3.62Zm34.92,0H69.27V57.44a1.81,1.81,0,1,0-3.62,0V80.91H64.32a1.81,1.81,0,0,0,0,3.62H70.6a1.81,1.81,0,0,0,0-3.62ZM41.92,35.63a1.8,1.8,0,0,0,1.28-.53l4.25-4.25a1.81,1.81,0,0,0-2.56-2.56l-4.25,4.25a1.81,1.81,0,0,0,1.28,3.09ZM53.5,28.29,40.64,41.14A1.81,1.81,0,1,0,43.2,43.7L56.05,30.85a1.81,1.81,0,0,0-2.56-2.56Z"/></svg>