<?xml version="1.0" encoding="utf-8"?>
<!-- Generator: Adobe Illustrator 19.2.1, SVG Export Plug-In . SVG Version: 6.00 Build 0)  -->
<svg version="1.1" id="Layer_1" xmlns="http://www.w3.org/2000/svg" xmlns:xlink="http://www.w3.org/1999/xlink" x="0px" y="0px"
	 viewBox="0 0 143.2 145.4" style="enable-background:new 0 0 143.2 145.4;" xml:space="preserve">
<style type="text/css">
	.st0{fill:#FFCC00;}
</style>
<title>HiM_logo_landscape</title>
<path class="st0" d="M59.2,39.8V42c0.1,2.7,1.2,5.3,3,7.4l6.8,6.8c1.7,1.7,4.4,1.7,6.1,0l6.8-6.8c1.8-2,2.9-4.6,3-7.3v-2.2
	c-0.1-2.7-1.2-5.3-3-7.3l-6.8-6.8c-1.7-1.7-4.4-1.7-6.1,0l-6.8,6.8C60.4,34.5,59.4,37.1,59.2,39.8z"/>
<path class="st0" d="M75.2,63.7c-1.8-1.7-4.6-1.7-6.3,0L62,70.5c-1.8,2-2.9,4.6-3,7.4v1.2c0,2.4-1.4,2.9-3,1.3l-26-26
	c-1.7-1.7-3.2-3.2-3.4-3.4c-0.5-1.6-0.8-3.3-0.8-4.9V15.5c-0.1-2.7-1.2-5.3-3-7.3L16,1.3c-1.7-1.7-4.4-1.7-6.1,0L3,8.1
	c-1.8,2-2.9,4.6-3,7.3v90.8c0.1,2.7,1.2,5.3,3,7.4l6.8,6.8c1.7,1.7,4.4,1.7,6.1,0l6.8-6.8c1.8-2,2.9-4.6,3-7.4V81.5
	c0-2.4,1.4-2.9,3-1.3l27,27c1.8,2,2.9,4.6,3,7.4v14.6c0.3,3,1.5,5.8,3.4,8.1l6.8,6.8c1.7,1.7,4.4,1.7,6.1,0l6.8-6.8
	c1-1.1,1.8-2.5,2.3-3.9c0.2-0.2,0.3-0.5,0.4-0.8c0-0.1,0-0.3,0-0.4c0.2-0.7,0.3-1.5,0.3-2.2V77.8c-0.1-2.7-1.2-5.3-3-7.4L75.2,63.7z
	"/>
<path class="st0" d="M140.2,8.1l-6.8-6.8c-1.7-1.7-4.4-1.7-6.1,0h-0.1l-6.8,6.8c-1.8,2-2.9,4.6-3,7.3v0.4c-0.2,1.1-0.7,2.1-1.4,3
	L99.8,42.7l-11.9-12c1.8,2.7,2.8,5.8,2.9,9.1V42c-0.2,4-1.7,7.7-4.2,10.8c0,0,11.1,12.1,11.2,12.1c1.8,1.3,3.2,4.5,8.5-2.7l7.4-10.3
	c0.5-0.6,3.3-3.5,3.7,0.2v54.2c0.1,2.7,1.2,5.3,3,7.4l6.8,6.8c1.7,1.7,4.5,1.7,6.2,0l6.8-6.8c1.8-2,2.9-4.6,3-7.4V15.5
	C143,12.8,142,10.2,140.2,8.1z"/>
</svg>
