<svg id="Layer_1" data-name="Layer 1" xmlns="http://www.w3.org/2000/svg" viewBox="0 0 240.4 300"><defs><style>.cls-1{fill:#fff;}</style></defs><title>laptop_w</title><path class="cls-1" d="M41.8,168h156V61H41.8Zm6-101h144v95H47.8ZM217,171h-7.3V62.6c0-7.9-6-14.6-13.9-14.6H44.6c-7.9,0-14.8,6.8-14.8,14.6V171H23.4a7.92,7.92,0,0,0-7.6,7.5v6.9c0,3.9,3.8,6.6,7.6,6.6H217a6.44,6.44,0,0,0,6.7-6.6v-6.9C223.8,174.6,220.9,171,217,171ZM35.8,62.6A9,9,0,0,1,44.6,54H195.8c4.6,0,7.9,4.1,7.9,8.6V171H35.7V62.6ZM217.8,185a1,1,0,0,1-1,1H22.8a1,1,0,0,1-1-1v-7a1,1,0,0,1,1-1h194a1,1,0,0,1,1,1ZM107.3,88.5a2.9,2.9,0,0,0-4.2,0L84.8,106.8a2.9,2.9,0,0,0,0,4.2,2.9,2.9,0,0,0,4.2,0l18.3-18.3A2.9,2.9,0,0,0,107.3,88.5Zm46.4,30.6-18.3,18.3a2.9,2.9,0,0,0,0,4.2,2.9,2.9,0,0,0,4.2,0l18.3-18.3a3,3,0,1,0-4.2-4.2Zm-7.8-30.6a2.9,2.9,0,0,0-4.2,0L94.1,136.1a2.9,2.9,0,0,0,0,4.2,2.9,2.9,0,0,0,4.2,0l47.6-47.6A2.9,2.9,0,0,0,145.9,88.5Z"/></svg>