<svg id="Layer_1" data-name="Layer 1" xmlns="http://www.w3.org/2000/svg" viewBox="0 0 100 125"><defs><style>.cls-1{fill:#fff;}</style></defs><title>masks_w</title><path class="cls-1" d="M49.14,36.76a1.81,1.81,0,0,1-2.56,0h0a2.58,2.58,0,0,0-4.1.69,1.81,1.81,0,0,1-3.22-1.65,6.17,6.17,0,0,1,4.5-3.29h0a6.15,6.15,0,0,1,5.31,1.63l.09.08A1.81,1.81,0,0,1,49.14,36.76Zm-3,10.84a1.81,1.81,0,0,0-2.31.73h0a5.91,5.91,0,0,1-9.38,1.57,1.81,1.81,0,0,0-2.5,2.61A9.53,9.53,0,0,0,47,50a1.81,1.81,0,0,0-.9-2.4h0ZM34.7,39.18a1.81,1.81,0,0,0,0-2.56h0a6.17,6.17,0,0,0-5.36-1.54h0A6.15,6.15,0,0,0,25,38.45l0,.11A1.81,1.81,0,1,0,28.2,40a2.58,2.58,0,0,1,4.08-.77A1.81,1.81,0,0,0,34.7,39.18ZM60.88,60.65A9.49,9.49,0,0,0,52.65,63,1.82,1.82,0,0,0,55,65.79h0l.09-.08a5.92,5.92,0,0,1,9.36,1.73,1.81,1.81,0,0,0,3.24-1.61A9.49,9.49,0,0,0,60.88,60.65ZM78.73,37.87a42,42,0,0,0-13-4.33,48.37,48.37,0,0,0-9-.75l-1.6-9.1c-.61-3.46-5.28-5.46-12.8-5.46a48.86,48.86,0,0,0-8.44.77,42,42,0,0,0-13,4.32c-5,2.84-5.68,5.56-5.36,7.35L18.47,47c1.61,9.13,10.68,19.29,21.11,19.29a15.35,15.35,0,0,0,2.65-.23l.4-.08c2.53,7.77,8.2,13.43,14.86,14.59a15.66,15.66,0,0,0,2.72.24c10.08,0,19.31-9.72,21-19.3L84.1,45.21C84.41,43.43,83.74,40.71,78.73,37.87ZM41.52,62.57a11.77,11.77,0,0,1-1.26.14H38.35l-.58-.07-.4-.07-.58-.11-.79-.2h-.14a19.75,19.75,0,0,1-9.53-6.7l-.21-.27L26,55.08a20.39,20.39,0,0,1-4-8.59L19,30.16c-.08-.48.59-1.84,3.59-3.56a38.29,38.29,0,0,1,4.61-2l.23-.08.75-.27a38.29,38.29,0,0,1,3.91-1.08c.83-.19,1.66-.37,2.51-.51A38.32,38.32,0,0,1,42.79,22a28.24,28.24,0,0,1,3.7.28l.65.08c3.4.62,4.49,1.68,4.57,2.16l2.69,16.4a16.23,16.23,0,0,1,.2,2.2v1.21C54.33,52.3,49.08,61.34,41.52,62.57Zm39-17.87L77.54,61c-1.58,8.57-11,17.63-19.71,16a11.78,11.78,0,0,1-1.94-.53C51.1,74.71,47.65,70,46,64.87l.52-.26C51.55,62.08,55.2,57,57,51.39a6.73,6.73,0,0,0,3.37-2.17,1.81,1.81,0,0,0-2.25-2.7A22.29,22.29,0,0,0,58,40l-.65-3.6a38.31,38.31,0,0,1,7.85.77,45.18,45.18,0,0,1,7.57,2.06h0C78.4,41.33,80.75,43.78,80.54,44.7Zm-7.86,6.65c-2-.07-3.32-.9-3.83-2.36a1.81,1.81,0,1,0-3.41,1.19,6.8,6.8,0,0,0,4.17,4.22,9.41,9.41,0,0,0,2.93.56,1.81,1.81,0,0,0,1.88-1.74h0A1.81,1.81,0,0,0,72.68,51.35Z"/></svg>