<svg id="Layer_1" data-name="Layer 1" xmlns="http://www.w3.org/2000/svg" viewBox="0 0 100 125"><defs><style>.cls-1{fill:#fff;}</style></defs><title>masks_w</title><path class="cls-1" d="M49.14,36.76a1.81,1.81,0,0,1-2.56,0,2.58,2.58,0,0,0-4.1.69,1.81,1.81,0,0,1-3.22-1.65,6.17,6.17,0,0,1,4.5-3.29h0a6.15,6.15,0,0,1,5.31,1.63l.09.08A1.81,1.81,0,0,1,49.14,36.76Zm-3,10.84a1.81,1.81,0,0,0-2.31.73v0a5.91,5.91,0,0,1-9.38,1.57,1.81,1.81,0,0,0-2.5,2.61A9.53,9.53,0,0,0,47,50,1.81,1.81,0,0,0,46.1,47.6ZM34.7,39.18a1.81,1.81,0,0,0,0-2.56,6.17,6.17,0,0,0-5.36-1.54h0A6.15,6.15,0,0,0,25,38.45l-.05.11A1.81,1.81,0,1,0,28.2,40a2.58,2.58,0,0,1,4.08-.77A1.81,1.81,0,0,0,34.7,39.18ZM60.88,60.65A9.49,9.49,0,0,0,52.65,63,1.81,1.81,0,1,0,55,65.79l.09-.08a5.92,5.92,0,0,1,9.36,1.73,1.81,1.81,0,0,0,3.24-1.61A9.49,9.49,0,0,0,60.88,60.65ZM84.1,45.21,81.21,61.53c-1.69,9.58-10.92,19.3-21,19.3a15.66,15.66,0,0,1-2.72-.24C50.83,79.43,45.16,73.77,42.63,66l-.4.08a15.35,15.35,0,0,1-2.65.23c-10.43,0-19.5-10.16-21.11-19.29L15.53,30.67c-.32-1.79.36-4.51,5.36-7.35a42,42,0,0,1,13-4.32,48.86,48.86,0,0,1,8.44-.77c7.52,0,12.19,2,12.8,5.46l1.6,9.1a48.37,48.37,0,0,1,9,.75,42,42,0,0,1,13,4.33h0C83.74,40.71,84.41,43.43,84.1,45.21Zm-29.5-.87v-.09c0-.17,0-.33,0-.5s0-.28,0-.42,0-.13,0-.2a16.23,16.23,0,0,0-.2-2.2l-2.69-16.4c-.08-.48-1.17-1.54-4.57-2.16l-.65-.08a28.24,28.24,0,0,0-3.7-.28,38.32,38.32,0,0,0-8.15.65c-.85.14-1.68.32-2.51.51a38.3,38.3,0,0,0-3.91,1.08l-.75.27-.23.08h0a38.29,38.29,0,0,0-4.61,2c-3,1.72-3.67,3.08-3.59,3.56l2.91,16.33a20.39,20.39,0,0,0,4,8.59h0l.17.21.21.27a19.75,19.75,0,0,0,9.53,6.7l.14,0,.79.2.58.11.4.07.58.07.51,0,.42,0h.24l.62,0h.12a11.77,11.77,0,0,0,1.26-.14C49.08,61.34,54.33,52.3,54.6,44.34Zm18.17-5.11a45.19,45.19,0,0,0-7.57-2.06,38.31,38.31,0,0,0-7.85-.77L58,40v0l0,0a22.29,22.29,0,0,1,.12,6.52,1.81,1.81,0,0,1,2.25,2.7A6.73,6.73,0,0,1,57,51.39c-1.8,5.6-5.45,10.69-10.49,13.22h0l-.52.26,0,0c1.66,5.14,5.11,9.84,9.9,11.62a11.78,11.78,0,0,0,1.94.53c8.72,1.63,18.13-7.43,19.71-16l3-16.32C80.75,43.78,78.4,41.33,72.78,39.23Zm-.09,12.12c-2-.07-3.32-.9-3.83-2.36a1.81,1.81,0,1,0-3.41,1.19,6.8,6.8,0,0,0,4.17,4.22,9.41,9.41,0,0,0,2.93.56,1.81,1.81,0,0,0,1.88-1.74h0A1.81,1.81,0,0,0,72.68,51.35Z"/></svg>