<svg id="Layer_1" data-name="Layer 1" xmlns="http://www.w3.org/2000/svg" viewBox="0 0 100 125"><defs><style>.cls-1{fill:#fff;}</style></defs><title>masks_w</title><path class="cls-1" d="M65.14,64.4a5.91,5.91,0,0,1-9.37-1.65,1.81,1.81,0,0,0-3.23,1.63A9.53,9.53,0,0,0,67.61,67a1.81,1.81,0,0,0-2.47-2.64Zm5.27-15A6.17,6.17,0,0,0,65.07,51a1.81,1.81,0,0,0,2.48,2.63,2.58,2.58,0,0,1,4.09.72,1.81,1.81,0,1,0,3.23-1.63A6.15,6.15,0,0,0,70.41,49.41Zm8.32-11.53a42,42,0,0,0-13-4.33,48.37,48.37,0,0,0-9-.75l-1.6-9.1c-.61-3.47-5.28-5.46-12.8-5.46a48.86,48.86,0,0,0-8.44.77,42,42,0,0,0-13,4.32c-5,2.84-5.68,5.56-5.36,7.35L18.47,47c1.61,9.13,10.68,19.29,21.11,19.29h0a15.35,15.35,0,0,0,2.65-.23l.4-.08c2.53,7.79,8.2,13.45,14.81,14.61a15.66,15.66,0,0,0,2.72.24c10.13,0,19.36-9.72,21.05-19.3L84.1,45.21C84.41,43.43,83.74,40.71,78.73,37.88ZM41.61,62.52a11.79,11.79,0,0,1-2,.18h0c-8.4,0-16.19-8.61-17.55-16.31L19.15,30.06c-.08-.48.56-1.84,3.59-3.56a38.31,38.31,0,0,1,11.83-3.91,45.19,45.19,0,0,1,7.81-.72c6,0,9.06,1.47,9.23,2.46l2.88,16.34C56,49.22,50.35,61,41.61,62.52Zm36-1.6c-1.51,8.55-10.85,17.66-19.58,16.13-5.94-1-10.15-6.64-12-12.18,5.24-2.41,9.08-7.56,11-13.27a2.48,2.48,0,0,1,.14.21,1.81,1.81,0,1,0,3.22-1.64A6.24,6.24,0,0,0,58,47.64a22.73,22.73,0,0,0,0-7.6l-.64-3.64a45.31,45.31,0,0,1,7.71.71A38.32,38.32,0,0,1,76.95,41c3,1.72,3.67,3.08,3.59,3.56ZM48.81,34.41a1.81,1.81,0,0,0-2.28-1.15c-1.89.63-3.42.32-4.41-.87a1.81,1.81,0,1,0-2.78,2.31,6.8,6.8,0,0,0,5.38,2.5,9.41,9.41,0,0,0,2.94-.5A1.81,1.81,0,0,0,48.81,34.41ZM34.23,35.6a1.81,1.81,0,0,0-3.4-1.22C30.31,35.84,29,36.64,27,36.7A1.81,1.81,0,0,0,27,40.32h.06C30.59,40.21,33.19,38.49,34.23,35.6Zm4.49,10.5a9.49,9.49,0,0,0-6.87,5.12,1.81,1.81,0,1,0,3.23,1.63,5.92,5.92,0,0,1,9.37-1.65,1.81,1.81,0,0,0,2.47-2.64A9.49,9.49,0,0,0,38.72,46.1Z"/></svg>