<svg id="Layer_1" data-name="Layer 1" xmlns="http://www.w3.org/2000/svg" viewBox="0 0 58.73 54.42"><defs><style>.cls-1{fill:#fff;}</style></defs><title>palette_w</title><path class="cls-1" d="M70.82,31.36a29.26,29.26,0,0,0-41.38,0c-8.77,8.77-12.41,24.74-4.16,33,3.46,3.46,7,5.15,10.73,5.15s6.81-1.6,9.58-3c2-1,3.86-2,5.34-2a3.1,3.1,0,0,1,2.3,1.06c1.25,1.25,1.2,2.25,1.11,3.75A6.63,6.63,0,0,0,56.09,75a7.31,7.31,0,0,0,5.33,2.23c4.86,0,9.21-4.28,9.39-4.47A29.29,29.29,0,0,0,70.82,31.36ZM68.26,70.19c-.89.88-4,3.41-6.84,3.41a3.76,3.76,0,0,1-2.78-1.18c-.79-.79-.78-1.46-.71-2.9A7.53,7.53,0,0,0,55.77,63a6.71,6.71,0,0,0-4.86-2.12c-2.34,0-4.59,1.15-7,2.36S38.79,65.88,36,65.88s-5.42-1.34-8.17-4.09C21.73,55.7,23.76,42.15,32,33.91A25.65,25.65,0,0,1,68.26,70.19ZM35.45,44a8,8,0,1,0,8,8A8,8,0,0,0,35.45,44Zm0,12.42a4.4,4.4,0,1,1,4.4-4.4A4.41,4.41,0,0,1,35.45,56.37Zm11.23-26a7.05,7.05,0,1,0,7.05,7.05A7.06,7.06,0,0,0,46.68,30.4Zm0,10.49a3.44,3.44,0,1,1,3.44-3.44A3.44,3.44,0,0,1,46.68,40.89ZM70,42.44A5.93,5.93,0,1,0,64,48.37,5.94,5.94,0,0,0,70,42.44Zm-8.25,0A2.32,2.32,0,1,1,64,44.76,2.32,2.32,0,0,1,61.73,42.44Zm4.74,10.41A5.52,5.52,0,1,0,72,58.37,5.53,5.53,0,0,0,66.47,52.85Zm0,7.42a1.9,1.9,0,1,1,1.9-1.9A1.9,1.9,0,0,1,66.47,60.27Z" transform="translate(-20.64 -22.79)"/></svg>