<svg xmlns="http://www.w3.org/2000/svg" xmlns:xlink="http://www.w3.org/1999/xlink" version="1.1" x="0px" y="0px" viewBox="0 0 100 125" enable-background="new 0 0 100 100" xml:space="preserve"><path d="M48.899,60.037v13.082l9.099-6.541L48.899,60.037z M36.914,46.924l37.302-15.491l-4.198-10.111l-47.319,19.65l2.443,5.883  c-0.54,0.45-0.891,1.119-0.891,1.877c0,1.135,0.774,2.08,1.821,2.36v27.585h51.229V46.924H36.914z M61.186,50.541h4.924  l-3.777,3.779h-4.925L61.186,50.541z M51.147,50.541h4.925l-3.777,3.779h-4.926L51.147,50.541z M41.109,50.541h4.925l-3.778,3.779  h-4.926L41.109,50.541z M65.742,27.014l2.322-0.965l1.425,3.432l-5.753,2.389L65.742,27.014z M56.468,30.865l4.551-1.89  l-2.006,4.856l-4.55,1.89L56.468,30.865z M47.197,34.715l4.549-1.889l-2.005,4.856l-4.548,1.889L47.197,34.715z M37.926,38.564  l4.549-1.889l-2.005,4.856l-4.55,1.89L37.926,38.564z M35.996,50.541l-3.779,3.779h-2.529v-3.779H35.996z M27.425,42.926  l5.778-2.399l-2.006,4.856l-2.347,0.975L27.425,42.926z M73.686,75.061H29.688V57.938h43.998V75.061z M73.686,54.32h-6.24  l3.777-3.779h2.463V54.32z"/><text x="0" y="115" fill="#000000" font-size="5px" font-weight="bold" font-family="'Helvetica Neue', Helvetica, Arial-Unicode, Arial, Sans-serif" visibility="hidden">Created by Sergey Demushkin</text><text x="0" y="120" fill="#000000" font-size="5px" font-weight="bold" font-family="'Helvetica Neue', Helvetica, Arial-Unicode, Arial, Sans-serif" visibility="hidden">from the Noun Project</text></svg>