<?xml version="1.0" encoding="utf-8"?>
<!-- Generator: Adobe Illustrator 19.1.0, SVG Export Plug-In . SVG Version: 6.00 Build 0)  -->
<svg version="1.1" id="Layer_1" xmlns="http://www.w3.org/2000/svg" xmlns:xlink="http://www.w3.org/1999/xlink" x="0px" y="0px"
	 viewBox="0 0 16 16" style="enable-background:new 0 0 16 16;" xml:space="preserve">
<style type="text/css">
	.st0{fill:#FFFFFF;}
</style>
<path class="st0" d="M15.1,7.1c0,0.2-0.1,0.3-0.3,0.3H8.9c-0.1,0-0.2-0.1-0.3-0.2c0-0.1,0-0.3,0.1-0.3l1.8-1.8C9.7,4.4,8.8,4,7.7,4
	C5.3,4,3.4,5.9,3.4,8.3c0,2.4,1.9,4.3,4.3,4.3c1.1,0,2.1-0.4,2.8-1.1c0.1-0.1,0.3-0.1,0.4,0l1.3,1.3c0,0,0,0,0,0
	c0.1,0.1,0.1,0.1,0.1,0.2c0,0.1,0,0.2-0.1,0.2c0,0,0,0,0,0c-1.2,1.1-2.8,1.8-4.6,1.8c-3.7,0-6.8-3-6.8-6.8c0-3.7,3-6.8,6.8-6.8
	c1.8,0,3.4,0.7,4.6,1.8L14.5,1c0.1-0.1,0.2-0.1,0.3-0.1C15,1,15.1,1.1,15.1,1.2V7.1z"/>
</svg>
