<?xml version="1.0" encoding="utf-8"?>
<!-- Generator: Adobe Illustrator 19.2.1, SVG Export Plug-In . SVG Version: 6.00 Build 0)  -->
<svg version="1.1" id="Layer_1" xmlns="http://www.w3.org/2000/svg" xmlns:xlink="http://www.w3.org/1999/xlink" x="0px" y="0px"
	 viewBox="0 0 326 145.4" style="enable-background:new 0 0 326 145.4;" xml:space="preserve">
<style type="text/css">
	.st0{fill:#414042;}
</style>
<title>HiM_logo_landscape</title>
<path class="st0" d="M173.7,73.5c-1.1,0-1.9-0.9-1.9-1.9v-7.7h-9.9v7.7c0,0.5-0.2,1-0.6,1.4c-0.7,0.8-1.9,0.8-2.7,0
	c-0.4-0.4-0.6-0.9-0.6-1.4V52.4c0-1.1,0.8-1.9,1.9-1.9c0.5,0,1,0.2,1.4,0.6c0.4,0.4,0.6,0.8,0.6,1.4v7.7h9.9v-7.7
	c0-1.1,0.9-1.9,1.9-1.9c1.1,0,1.9,0.9,1.9,1.9v19.2C175.6,72.7,174.7,73.5,173.7,73.5z"/>
<path class="st0" d="M194.5,69.7c0.5,0,1,0.2,1.3,0.6c0.4,0.4,0.6,0.8,0.6,1.4c0,1-0.9,1.9-1.9,1.9h-11.7c-1,0-1.9-0.9-1.9-1.9V52.3
	c0-1.1,0.8-1.9,1.9-1.9l0,0h11.6c0.5,0,1,0.2,1.4,0.6c0.4,0.4,0.6,0.8,0.6,1.4c0,1-0.9,1.9-1.9,1.9l0,0h-9.7V60h7
	c0.5,0,1,0.2,1.4,0.6c0.7,0.7,0.8,1.9,0,2.7c0,0,0,0,0,0c-0.4,0.4-0.8,0.6-1.4,0.6h-7v5.8L194.5,69.7L194.5,69.7z"/>
<path class="st0" d="M215.6,57.1c0,1.4-0.4,2.8-1.3,3.9c-0.8,1.1-2,2-3.4,2.4l3.6,7.4c0.4,0.9,0.1,2.1-0.9,2.5
	c-0.3,0.1-0.5,0.2-0.8,0.2c-0.7,0-1.4-0.4-1.7-1.1l-4.3-8.6h-3.3v7.7c0,1-0.9,1.9-1.9,1.9c0,0,0,0,0,0c-1,0-1.9-0.8-1.9-1.9
	c0,0,0,0,0,0V52.3c0-1,0.8-1.9,1.9-1.9h6.7c1.9,0,3.7,0.7,5.1,2C214.9,53.6,215.7,55.3,215.6,57.1z M208.6,60c0.9,0,1.7-0.3,2.3-0.9
	c1.1-0.9,1.3-2.6,0.4-3.7c-0.1-0.1-0.2-0.3-0.4-0.4c-0.7-0.6-1.5-0.9-2.4-0.9h-4.8V60L208.6,60L208.6,60z"/>
<path class="st0" d="M221.6,73.5c-1,0-1.9-0.9-1.9-1.9V52.4c0-1,0.9-1.9,1.9-1.9c1,0,1.9,0.8,1.9,1.9v19.2
	C223.5,72.7,222.7,73.5,221.6,73.5z"/>
<path class="st0" d="M233.4,54.2h-4.8c-0.5,0-1-0.2-1.4-0.6c-0.7-0.7-0.7-1.9,0-2.7c0.4-0.4,0.8-0.6,1.4-0.6h13.4
	c1,0,1.9,0.9,1.9,1.9c0,1-0.9,1.9-1.9,1.9h-4.8v17.4c0,0.5-0.2,1-0.6,1.4c-0.7,0.7-1.9,0.7-2.7,0c-0.4-0.4-0.6-0.8-0.6-1.4
	L233.4,54.2L233.4,54.2z"/>
<path class="st0" d="M246.4,73.4c-1-0.4-1.4-1.5-1-2.5l2-4.9l0,0l5.9-14.3l0.1-0.2v-0.1l0.1-0.1v-0.1l0.1-0.1c0,0,0,0,0-0.1
	c0,0,0,0,0.1-0.1h0.1l0.1-0.1h0.1l0.1-0.1h0.1h0.1h0.1l0,0h0.1h0.1h0.1h0.1h0.1h0.1h0.4h0.1h0.1h0.1h0.1c0.1,0,0.2,0.1,0.4,0.1h0.1
	l0.1,0.1h0.1l0.1,0.1h0.1l0.1,0.1c0,0,0,0,0,0.1c0,0,0,0,0.1,0.1v0.1l0.1,0.1c0,0,0,0.1,0,0.1c0,0,0,0.1,0,0.1l0.1,0.2l6.4,14.1l0,0
	l2,4.9c0.4,1,0,2.1-1,2.5c-0.2,0.1-0.5,0.1-0.7,0.1c-0.8,0-1.5-0.4-1.8-1.2l-1.5-3.7h-9.3l-1.5,3.7c-0.3,0.7-1,1.2-1.8,1.2h-0.4
	L246.4,73.4z M258.2,64.8l-3.1-7.5l-3.1,7.5H258.2L258.2,64.8z"/>
<path class="st0" d="M278.5,73.4c-6.4,0-11.5-5.1-11.5-11.5s5.1-11.5,11.5-11.5c2.5,0,5,0.8,7,2.4c0.4,0.3,0.7,0.8,0.7,1.3
	c0.1,0.5-0.1,1-0.4,1.4c-0.6,0.8-1.8,1-2.7,0.4c-3.4-2.6-8.2-2-10.8,1.4c-2.6,3.4-2,8.2,1.4,10.8c3,2.3,7.1,2.1,9.9-0.4l0.1-0.1
	v-4.2h-2.6c-1,0-1.9-0.8-1.9-1.9c0-0.5,0.2-1,0.6-1.4c0.4-0.4,0.8-0.6,1.4-0.6h4.5c1.1,0,1.9,0.9,1.9,1.9v10.2c0,1-0.9,1.9-1.9,1.9
	l0,0c-0.4,0-0.8-0.1-1.2-0.4c-0.3-0.2-0.6-0.6-0.7-1C282.3,73,280.4,73.5,278.5,73.4z"/>
<path class="st0" d="M305.9,69.7c0.5,0,1,0.2,1.3,0.6c0.4,0.4,0.6,0.8,0.6,1.4c0,1-0.9,1.9-1.9,1.9h-11.6c-1,0-1.9-0.9-1.9-1.9V52.3
	c0-1.1,0.8-1.9,1.9-1.9l0,0h11.6c0.5,0,1,0.2,1.4,0.6c0.4,0.4,0.6,0.8,0.5,1.4c0,1-0.9,1.9-1.9,1.9l0,0h-9.7V60h7
	c0.5,0,1,0.2,1.4,0.6c0.7,0.7,0.8,1.9,0,2.7c0,0,0,0,0,0c-0.4,0.4-0.8,0.6-1.4,0.6h-7v5.8L305.9,69.7L305.9,69.7z"/>
<path class="st0" d="M159.9,109.3c-1,0-1.9-0.9-1.9-1.9V88.2c0-1,0.9-1.9,1.9-1.9c1,0,1.9,0.9,1.9,1.9v19.2
	C161.8,108.4,161,109.3,159.9,109.3z"/>
<path class="st0" d="M182.2,108.5L182.2,108.5L182.2,108.5l-11.6-14.9v13.7c0,1-0.9,1.9-1.9,1.9c-1,0-1.9-0.9-1.9-1.9V88.1
	c0-0.8,0.5-1.5,1.3-1.8c0.4-0.1,0.8-0.1,1.2,0c0.4,0.1,0.7,0.3,0.9,0.7l11.6,14.9V88.1c0-0.5,0.2-1,0.6-1.3c0.4-0.4,0.8-0.6,1.4-0.6
	c1,0,1.9,0.9,1.9,1.9v19.3c0,0,0,0.1,0,0.1v0.1c0,0,0,0.1,0,0.1c0,0,0,0.1,0,0.1v0.1c0,0,0,0.1,0,0.1c0,0,0,0.1,0,0.1
	c0,0,0,0.1,0,0.1v0.1v0.1v0.1l0,0l-0.1,0.1v0.1l-0.1,0.1c0,0,0,0-0.1,0.1c0,0,0,0-0.1,0.1l-0.1,0.1l0,0l0,0l-0.2,0.2l0,0l-0.3,0.1
	l0,0c-0.1,0-0.2,0.1-0.3,0.1l0,0h-0.3h-0.2l0,0h-0.2h-0.1h-0.1h-0.1h-0.1c0,0,0,0-0.1,0h-0.1h-0.1l-0.1-0.1h-0.1l-0.1-0.1l0,0l0,0
	l-0.1-0.1L182.2,108.5z"/>
<path class="st0" d="M220.7,86.2c0.4,0.1,0.8,0.4,1,0.7c0.3,0.3,0.4,0.7,0.4,1.1v19.3c0,0.5-0.2,1-0.5,1.3c-0.7,0.7-1.9,0.8-2.7,0
	c0,0,0,0,0,0c-0.4-0.4-0.6-0.8-0.5-1.3V92l-6,6.3l0,0l0,0l0,0l0,0l-0.1,0.1v0.1l-0.1,0.1l-0.1,0.1l-0.1,0.1l-0.1,0.1l0,0l-0.1,0.1
	l0,0l0,0l0,0l-0.1,0.1l0,0h-0.1c-0.2,0.1-0.5,0.2-0.8,0.1l0,0h-0.1c-0.1,0-0.3,0-0.4-0.1h-0.1h-0.1h-0.1l0,0l-0.5,0.1l0,0l0,0l0,0
	c0,0-0.1,0-0.1-0.1l0,0l-0.1-0.1l-0.1-0.1l-0.1-0.1c0,0,0-0.1-0.1-0.1v-0.1l-0.1-0.1l0,0l0,0l0,0l0,0l-6-6.3v15.4
	c0,0.5-0.2,1-0.6,1.3c-0.4,0.4-0.8,0.6-1.4,0.6c-1,0-1.9-0.9-1.9-1.9V88c0-0.4,0.1-0.8,0.4-1.1c0.2-0.3,0.6-0.6,1-0.7
	c0.8-0.2,1.7,0.1,2.1,0.9l7.9,7.9l7.8-7.9c0.2-0.4,0.5-0.6,0.9-0.8l0.6-0.2L220.7,86.2z"/>
<path class="st0" d="M237.6,109.3c-6.4,0-11.6-5.2-11.6-11.6c0-6.4,5.2-11.6,11.6-11.6c6.4,0,11.6,5.2,11.6,11.6
	c0,3.1-1.2,6-3.4,8.2C243.7,108.1,240.7,109.3,237.6,109.3z M237.6,90c-4.3,0-7.7,3.5-7.7,7.7c0,4.3,3.5,7.7,7.7,7.7
	c4.3,0,7.7-3.5,7.7-7.7c0-2-0.8-4-2.3-5.5C241.7,90.8,239.7,89.9,237.6,90z"/>
<path class="st0" d="M258.7,90h-4.8c-0.5,0-1-0.2-1.4-0.6c-0.7-0.7-0.7-1.9,0-2.7c0.4-0.4,0.8-0.6,1.4-0.6h13.4c1,0,1.9,0.9,1.9,1.9
	c0,1-0.9,1.9-1.9,1.9h-4.8v17.4c0,0.5-0.2,1-0.6,1.4c-0.7,0.7-1.9,0.7-2.7,0c-0.4-0.4-0.6-0.8-0.6-1.4L258.7,90L258.7,90z"/>
<path class="st0" d="M273.9,109.3c-1,0-1.9-0.9-1.9-1.9V88.2c0-1,0.9-1.9,1.9-1.9c1,0,1.9,0.8,1.9,1.9v19.2
	C275.8,108.4,275,109.3,273.9,109.3z"/>
<path class="st0" d="M291.1,109.3c-6.4,0-11.6-5.2-11.6-11.6c0-6.4,5.2-11.6,11.6-11.6c6.4,0,11.6,5.2,11.6,11.6
	c0,3.1-1.2,6-3.4,8.2C297.1,108.1,294.1,109.3,291.1,109.3z M291.1,90c-4.3,0-7.7,3.5-7.7,7.7c0,4.3,3.5,7.7,7.7,7.7
	c4.3,0,7.7-3.5,7.7-7.7c0-2-0.8-4-2.3-5.5C295.1,90.8,293.1,89.9,291.1,90z"/>
<path class="st0" d="M322.7,108.5L322.7,108.5L322.7,108.5l-11.6-14.9v13.7c0,1-0.9,1.9-1.9,1.9c-1,0-1.9-0.8-1.9-1.9V88.1
	c0-0.8,0.5-1.5,1.2-1.8c0.4-0.1,0.8-0.1,1.2,0c0.4,0.1,0.7,0.3,1,0.7l11.6,14.9V88.1c0-0.5,0.2-1,0.5-1.3c0.4-0.4,0.8-0.6,1.4-0.6
	c1,0,1.9,0.9,1.9,1.9v19.3c0,0,0,0.1,0,0.1v0.1c0,0,0,0.1,0,0.1c0,0,0,0.1,0,0.1v0.1c0,0,0,0.1,0,0.1c0,0,0,0.1,0,0.1
	c0,0,0,0.1,0,0.1v0.1v0.1v0.1l0,0l-0.1,0.1v0.1l-0.1,0.1c0,0,0,0-0.1,0.1c0,0,0,0-0.1,0.1l-0.1,0.1l0,0l0,0l-0.2,0.2l0,0l-0.3,0.1
	l0,0c-0.1,0-0.2,0.1-0.3,0.1l0,0h-0.3h-0.2l0,0h-0.2h-0.1h-0.1H324h-0.1c0,0,0,0-0.1,0h-0.1h-0.1l-0.1-0.1h-0.1l-0.1-0.1l0,0l0,0
	l-0.1-0.1L322.7,108.5z"/>
<path class="st0" d="M59.2,39.7v2.2c0.1,2.7,1.2,5.3,3,7.4l6.8,6.8c1.7,1.7,4.4,1.7,6.1,0l6.8-6.8c1.8-2,2.9-4.6,3-7.3v-2.2
	c-0.1-2.7-1.2-5.3-3-7.3l-6.8-6.8c-1.7-1.7-4.4-1.7-6.1,0l-6.8,6.8C60.4,34.4,59.4,37,59.2,39.7z"/>
<path class="st0" d="M75.2,63.6c-1.8-1.7-4.6-1.7-6.3,0L62,70.4c-1.8,2-2.9,4.6-3,7.4V79c0,2.4-1.4,2.9-3,1.3l-26-26
	c-1.7-1.7-3.2-3.2-3.4-3.4c-0.5-1.6-0.8-3.3-0.8-4.9V15.4c-0.1-2.7-1.2-5.3-3-7.3L16,1.2c-1.7-1.7-4.4-1.7-6.1,0L3,8
	c-1.8,2-2.9,4.6-3,7.3v90.8c0.1,2.7,1.2,5.3,3,7.4l6.8,6.8c1.7,1.7,4.4,1.7,6.1,0l6.8-6.8c1.8-2,2.9-4.6,3-7.4V81.4
	c0-2.4,1.4-2.9,3-1.3l27,27c1.8,2,2.9,4.6,3,7.4v14.6c0.3,3,1.5,5.8,3.4,8.1l6.8,6.8c1.7,1.7,4.4,1.7,6.1,0l6.8-6.8
	c1-1.1,1.8-2.5,2.3-3.9c0.2-0.2,0.3-0.5,0.4-0.8c0-0.1,0-0.3,0-0.4c0.2-0.7,0.3-1.5,0.3-2.2V77.7c-0.1-2.7-1.2-5.3-3-7.4L75.2,63.6z
	"/>
<path class="st0" d="M140.2,8l-6.8-6.8c-1.7-1.7-4.4-1.7-6.1,0h-0.1L120.4,8c-1.8,2-2.9,4.6-3,7.3v0.4c-0.2,1.1-0.7,2.1-1.4,3
	L99.8,42.6l-11.9-12c1.8,2.7,2.8,5.8,2.9,9.1v2.2c-0.2,4-1.7,7.7-4.2,10.8c0,0,11.1,12.1,11.2,12.1c1.8,1.3,3.2,4.5,8.5-2.7
	l7.4-10.3c0.5-0.6,3.3-3.5,3.7,0.2v54.2c0.1,2.7,1.2,5.3,3,7.4l6.8,6.8c1.7,1.7,4.5,1.7,6.2,0l6.8-6.8c1.8-2,2.9-4.6,3-7.4V15.4
	C143,12.7,142,10.1,140.2,8z"/>
</svg>
