<?xml version="1.0" encoding="utf-8"?>
<!-- Generator: Adobe Illustrator 19.1.0, SVG Export Plug-In . SVG Version: 6.00 Build 0)  -->
<svg version="1.1" id="Layer_1" xmlns="http://www.w3.org/2000/svg" xmlns:xlink="http://www.w3.org/1999/xlink" x="0px" y="0px"
	 viewBox="0 0 16 16" style="enable-background:new 0 0 16 16;" xml:space="preserve">
<style type="text/css">
	.st0{fill:#FFFFFF;}
</style>
<path class="st0" d="M15.1,2.1v7.1c0,0.5-0.4,0.9-0.9,0.9h-1.5v-3H3.3v3H1.8c-0.5,0-0.9-0.4-0.9-0.9V2.1c0-0.5,0.4-0.9,0.9-0.9h12.4
	C14.7,1.2,15.1,1.6,15.1,2.1z M4.4,15.1c0,0.2,0.1,0.3,0.3,0.3h6.5c0.2,0,0.3-0.1,0.3-0.3V8.3H4.4V15.1z M13.3,3.9
	c0-0.5-0.4-0.9-0.9-0.9s-0.9,0.4-0.9,0.9c0,0.5,0.4,0.9,0.9,0.9S13.3,4.3,13.3,3.9z"/>
</svg>
