<svg xmlns="http://www.w3.org/2000/svg" viewBox="0 0 310.55 100.88"><defs><style>.cls-1{fill:#666;}</style></defs><title>europeana-logo-metis</title><g id="Layer_1" data-name="Layer 1"><path d="M110.95,30.14c0,1.1-.5,1.7-1.6,1.7H96v1.3c0,4.2,1.8,6.3,5.5,6.3a13.07,13.07,0,0,0,6.1-1.4,1.85,1.85,0,0,1,.7-.2,1.43,1.43,0,0,1,1.2.6,2.11,2.11,0,0,1,.5,1.3,1.72,1.72,0,0,1-1,1.6,15.92,15.92,0,0,1-7.7,1.8c-3.3,0-5.8-1-7.4-3.1-1.5-1.8-2.2-4.2-2.2-7.3v-4.5c0-3.1.7-5.5,2.2-7.3a9.14,9.14,0,0,1,7.4-3.1c3.4,0,5.8,1,7.5,3.1q2.1,2.55,2.1,7.2Zm-4.2-2.5c0-4.1-1.8-6.2-5.3-6.2s-5.5,2.1-5.5,6.2v.8h10.8Z"/><path d="M136,43.14a3.88,3.88,0,0,1-2.6-1,5.12,5.12,0,0,1-1.2-1.8c-1.8,1.9-4.3,2.8-7.6,2.8-5.3,0-8-3-8-8.9V20a2.1,2.1,0,1,1,4.2,0v13.8a6.45,6.45,0,0,0,.9,3.8,4.53,4.53,0,0,0,3.7,1.4c2.8,0,4.8-1.1,5.9-3.3V19.94a2.1,2.1,0,1,1,4.2,0v16.7a3.18,3.18,0,0,0,1.5,3.1,1.42,1.42,0,0,1,.8,1.4C138.15,42.54,137.45,43.14,136,43.14Z"/><path d="M156.15,22.34c-.3,0-.5-.1-.8-.1s-.6-.1-.9-.1h-.7a5,5,0,0,0-5.4,4.4V41a2.1,2.1,0,1,1-4.2,0V24.64a3.18,3.18,0,0,0-1.5-3.1,1.42,1.42,0,0,1-.8-1.4c0-1.2.7-1.9,2.1-1.9h.7a4.54,4.54,0,0,1,3.3,3,7.86,7.86,0,0,1,6.7-3.4,8.11,8.11,0,0,1,3.3.6,1.76,1.76,0,0,1,1,1.7,2,2,0,0,1-.6,1.5,2,2,0,0,1-1.4.6A2.2,2.2,0,0,1,156.15,22.34Z"/><path d="M177.65,40.14c-1.7,2-4.2,3-7.6,3s-5.8-1-7.5-3a10.81,10.81,0,0,1-2.3-7.1V28a10.63,10.63,0,0,1,2.3-7.1q2.55-3,7.5-3c3.4,0,5.9,1,7.6,3a10.81,10.81,0,0,1,2.3,7.1v5A10.63,10.63,0,0,1,177.65,40.14Zm-2-12.1c0-4.1-1.9-6.1-5.6-6.1s-5.5,2-5.5,6.1v5c0,4.1,1.8,6.2,5.5,6.2s5.6-2.1,5.6-6.2Z"/><path d="M196.65,43.14a9.19,9.19,0,0,1-5.8-1.9v8.4a2.1,2.1,0,1,1-4.2,0V24.24c0-1.6-.5-2.6-1.4-3.1a1.42,1.42,0,0,1-.8-1.4c0-1.2.7-1.9,2.1-1.9a3.88,3.88,0,0,1,2.6,1,10.62,10.62,0,0,1,.9,1.1,10.89,10.89,0,0,1,6.4-2.1q9,0,9,9.9v4.4C205.45,39.54,202.45,43.14,196.65,43.14Zm4.5-15.6c0-3.9-1.8-5.9-5.4-5.9a7.53,7.53,0,0,0-4.9,2v13.5a7,7,0,0,0,5.1,2.2c3.5,0,5.2-2.2,5.2-6.6v-5.2Z"/><path d="M229.85,30.14c0,1.1-.5,1.7-1.6,1.7h-13.3v1.3c0,4.2,1.8,6.3,5.5,6.3a13.07,13.07,0,0,0,6.1-1.4,1.85,1.85,0,0,1,.7-.2,1.43,1.43,0,0,1,1.2.6,2.11,2.11,0,0,1,.5,1.3,1.72,1.72,0,0,1-1,1.6,15.92,15.92,0,0,1-7.7,1.8c-3.3,0-5.8-1-7.4-3.1-1.5-1.8-2.2-4.2-2.2-7.3v-4.5c0-3.1.7-5.5,2.2-7.3a9.14,9.14,0,0,1,7.4-3.1c3.4,0,5.8,1,7.5,3.1q2.1,2.55,2.1,7.2Zm-4.1-2.5c0-4.1-1.8-6.2-5.3-6.2s-5.5,2.1-5.5,6.2v.8h10.8Z"/><path d="M252.65,43.14a3.17,3.17,0,0,1-2.5-1,3.56,3.56,0,0,1-1-1.5c-1.5,1.7-3.8,2.5-6.8,2.5s-5.1-.7-6.5-2a6.93,6.93,0,0,1-2-5.1v-.4a6.64,6.64,0,0,1,2.1-5.1,10.59,10.59,0,0,1,6.8-2h5.6v-1.2c0-2.1-.3-3.5-1-4.4s-2.1-1.5-4.1-1.5a10.55,10.55,0,0,0-5,1.2,2.24,2.24,0,0,1-1,.3,1.61,1.61,0,0,1-1.3-.6,2.11,2.11,0,0,1-.5-1.3,1.76,1.76,0,0,1,.9-1.5,13.69,13.69,0,0,1,7.2-1.7c3.3,0,5.7.8,7.1,2.5,1.3,1.5,1.9,4,1.9,7.3v9.1a3.32,3.32,0,0,0,1.4,3.1,1.51,1.51,0,0,1,.8,1.4C254.75,42.54,254,43.14,252.65,43.14Zm-4.4-11.3h-5.1c-3.4,0-5.2,1.3-5.2,3.8V36c0,2.5,1.7,3.8,5,3.8,3.5,0,5.3-1.7,5.3-5.1Z"/><path d="M278.75,42.54a2.1,2.1,0,0,1-3.6-1.5V27.24a6.45,6.45,0,0,0-.9-3.8,4.28,4.28,0,0,0-3.7-1.5c-2.8,0-4.7,1-5.9,3.1V41a2.1,2.1,0,1,1-4.2,0V24.64a3.18,3.18,0,0,0-1.5-3.1,1.42,1.42,0,0,1-.8-1.4c0-1.2.7-1.9,2.1-1.9a3.88,3.88,0,0,1,2.6,1,5.71,5.71,0,0,1,1.1,1.6c1.8-2,4.3-2.9,7.6-2.9,5.3,0,8,3,8,8.9V41A3.61,3.61,0,0,1,278.75,42.54Z"/><path d="M303.45,43.14a3.17,3.17,0,0,1-2.5-1,3.56,3.56,0,0,1-1-1.5c-1.5,1.7-3.8,2.5-6.8,2.5s-5.1-.7-6.5-2a6.93,6.93,0,0,1-2-5.1v-.4a6.64,6.64,0,0,1,2.1-5.1,10.59,10.59,0,0,1,6.8-2h5.6v-1.2c0-2.1-.3-3.5-1-4.4s-2.1-1.5-4.1-1.5a10.55,10.55,0,0,0-5,1.2,2.24,2.24,0,0,1-1,.3,1.61,1.61,0,0,1-1.3-.6,2.11,2.11,0,0,1-.5-1.3,1.76,1.76,0,0,1,.9-1.5,13.69,13.69,0,0,1,7.2-1.7c3.3,0,5.7.8,7.1,2.5,1.3,1.5,1.9,4,1.9,7.3v9.1a3.32,3.32,0,0,0,1.4,3.1,1.51,1.51,0,0,1,.8,1.4C305.55,42.54,304.85,43.14,303.45,43.14Zm-4.3-11.3H294c-3.4,0-5.2,1.3-5.2,3.8V36c0,2.5,1.7,3.8,5,3.8,3.5,0,5.3-1.7,5.3-5.1Z"/><path d="M66.77,43.34h9.49a7,7,0,0,0,6.95-7c0-.15,0-.31,0-.46v0c0-.06,0-.11,0-.17s0-.08,0-.12a37.8,37.8,0,1,0-71.26,20A20.27,20.27,0,0,0,27.57,93,10,10,0,1,0,39.76,80.77a20.45,20.45,0,0,0,1.13-5A37.68,37.68,0,0,0,78.76,56.13v0A7.07,7.07,0,0,0,66.43,49.2l0,0a23.67,23.67,0,0,1-32.79,9,20.34,20.34,0,0,0-2.71-1.87,23.67,23.67,0,1,1,35.94-29q.51,1,.92,2.09H52.24a6.95,6.95,0,0,0,0,13.9H66.77ZM38.5,83.61h0l.58.13h0l.54.17.06,0,.51.21.06,0,.49.26,0,0a7,7,0,0,1,1.76,1.46l.06.06.25.32.14.19.19.3.15.25.15.29.14.29.12.29.12.33.09.28c0,.12.07.25.1.37s0,.18.06.27,0,.29.07.43,0,.15,0,.23,0,.45,0,.68a7,7,0,0,1-7,7c-.23,0-.46,0-.68,0l-.23,0L36,97.36l-.27-.06-.37-.1L35,97.11,34.71,97l-.29-.12-.29-.14-.29-.15-.25-.15-.3-.19-.19-.14-.32-.25-.06-.06A7,7,0,0,1,31.26,94l0,0c-.09-.16-.18-.32-.26-.49l0-.06c-.08-.17-.15-.34-.21-.51l0-.06q-.1-.26-.17-.54v0a7,7,0,0,1,8-8.67Zm-4.41-9.72a13.4,13.4,0,1,1-13.4-13.4A13.4,13.4,0,0,1,34.09,73.89Z"/></g><g id="font_40" data-name="font 40"><path class="cls-1" d="M120.18,85.62a1.83,1.83,0,0,1-2.54,0,1.71,1.71,0,0,1-.53-1.29V72.8q0-4.42-3.76-4.42A4.93,4.93,0,0,0,108.61,71c0,.3,0,.57.06.8s0,.44,0,.63v11.9a1.71,1.71,0,0,1-.53,1.29,1.83,1.83,0,0,1-2.54,0,1.71,1.71,0,0,1-.53-1.29V72.8q0-4.42-3.76-4.42a5,5,0,0,0-4.66,2.37V84.33a1.71,1.71,0,0,1-.53,1.29,1.77,1.77,0,0,1-1.27.51,1.82,1.82,0,0,1-1.8-1.8V70.55A2.62,2.62,0,0,0,91.79,68a1.25,1.25,0,0,1-.7-1.19q0-1.55,1.76-1.55a3.48,3.48,0,0,1,2.21.86,4.22,4.22,0,0,1,.86,1.19A8.35,8.35,0,0,1,102.1,65q4,0,5.52,2.7a7.94,7.94,0,0,1,6.46-2.7q6.63,0,6.63,7.45v11.9A1.71,1.71,0,0,1,120.18,85.62Z"/><path class="cls-1" d="M141.86,75.25a1.21,1.21,0,0,1-1.35,1.39H129.35v1.1q0,5.32,4.62,5.32a10.8,10.8,0,0,0,5.11-1.15,1.21,1.21,0,0,1,.61-.16,1.28,1.28,0,0,1,1,.49,1.68,1.68,0,0,1,.41,1.1,1.42,1.42,0,0,1-.82,1.31,13.61,13.61,0,0,1-6.46,1.47,7.52,7.52,0,0,1-6.22-2.58,9.34,9.34,0,0,1-1.84-6.1v-3.8a9.2,9.2,0,0,1,1.88-6.1A7.55,7.55,0,0,1,133.85,65q4.21,0,6.26,2.58a9.3,9.3,0,0,1,1.76,6Zm-3.48-2.13q0-5.19-4.46-5.2t-4.58,5.2v.7h9Z"/><path class="cls-1" d="M156.69,85.4a1.55,1.55,0,0,1-1.17.49H154.3q-4,0-5.69-2.41-1.43-2.13-1.43-6.42V68.3H146a1.5,1.5,0,0,1-1.1-.45,1.45,1.45,0,0,1-.45-1.06A1.54,1.54,0,0,1,146,65.23h1.19V61a1.82,1.82,0,0,1,1.8-1.8,1.67,1.67,0,0,1,1.25.53,1.77,1.77,0,0,1,.51,1.27v4.21h3.8a1.54,1.54,0,0,1,1.55,1.55,1.45,1.45,0,0,1-.45,1.06,1.5,1.5,0,0,1-1.1.45h-3.8V77a8.63,8.63,0,0,0,.78,4.38q.78,1.23,3.19,1.23h.82a1.63,1.63,0,0,1,1.17,2.78Z"/><path class="cls-1" d="M163.75,60a2.06,2.06,0,0,1-1.51.61,2.09,2.09,0,0,1,0-4.17,2.06,2.06,0,0,1,1.51.61,2.07,2.07,0,0,1,0,2.95Zm-.23,25.67a1.75,1.75,0,0,1-1.29.51,1.7,1.7,0,0,1-1.25-.51,1.74,1.74,0,0,1-.51-1.29V66.78a1.76,1.76,0,0,1,.51-1.27,1.67,1.67,0,0,1,1.25-.53,1.72,1.72,0,0,1,1.29.53,1.77,1.77,0,0,1,.51,1.27V84.33A1.75,1.75,0,0,1,163.53,85.62Z"/><path class="cls-1" d="M180.85,84.58a9.28,9.28,0,0,1-5.6,1.55,16.76,16.76,0,0,1-5.77-.9,1.43,1.43,0,0,1-1-1.47,1.63,1.63,0,0,1,.43-1.1,1.38,1.38,0,0,1,1.08-.49,1.67,1.67,0,0,1,.57.12,13.43,13.43,0,0,0,4.71.82q4.38,0,4.38-3.15a2.51,2.51,0,0,0-1.84-2.41l-1.12-.27-2.8-.67A8.55,8.55,0,0,1,170.25,75a4.85,4.85,0,0,1-1.64-4,5.56,5.56,0,0,1,2-4.54,7.62,7.62,0,0,1,5-1.55,14.55,14.55,0,0,1,5.28.86A1.53,1.53,0,0,1,182,67.32a1.57,1.57,0,0,1-.45,1.13,1.47,1.47,0,0,1-1.1.47,2.29,2.29,0,0,1-.53-.08,11.66,11.66,0,0,0-4.09-.78q-3.76,0-3.76,2.86a2.31,2.31,0,0,0,1.55,2.21,24.07,24.07,0,0,0,3.64.9,10,10,0,0,1,4,1.51,5,5,0,0,1,1.88,4.29A5.5,5.5,0,0,1,180.85,84.58Z"/></g></svg>