<svg xmlns="http://www.w3.org/2000/svg" xmlns:xlink="http://www.w3.org/1999/xlink" version="1.1" x="0px" y="0px" viewBox="0 0 100 125" enable-background="new 0 0 100 100" xml:space="preserve"><path d="M60.878,52.286l16.828-16.829c0.706-0.706,0.706-1.851,0-2.557L67.102,22.293c-0.34-0.339-0.799-0.53-1.279-0.53  c-0.479,0-0.938,0.19-1.277,0.53l-6.036,6.037h-0.001c0,0,0,0-0.001,0.001l-6.032,6.033c0,0,0,0.001-0.002,0.001  c0,0,0,0.001,0,0.002l-4.757,4.755l-12.3-12.3c-0.032-0.032-0.072-0.054-0.106-0.083c-0.05-0.043-0.101-0.085-0.156-0.123  c-0.061-0.042-0.124-0.079-0.189-0.113c-0.046-0.024-0.095-0.043-0.144-0.063c-0.053-0.022-0.102-0.053-0.157-0.07l-8.675-2.64  c-0.64-0.194-1.333-0.02-1.805,0.451c-0.472,0.472-0.646,1.166-0.452,1.805l2.639,8.675c0.047,0.154,0.118,0.298,0.203,0.434  c0.022,0.035,0.05,0.063,0.074,0.095c0.056,0.077,0.107,0.157,0.175,0.224l12.301,12.3l-4.75,4.75  c-0.003,0.003-0.006,0.004-0.008,0.007c-0.002,0.004-0.004,0.006-0.006,0.008L22.294,64.544c-0.339,0.339-0.529,0.799-0.529,1.278  c0,0.479,0.19,0.938,0.53,1.277l10.606,10.605c0.353,0.354,0.815,0.529,1.278,0.529c0.463,0,0.925-0.176,1.278-0.529l16.829-16.828  L67.829,76.42c0.353,0.354,0.815,0.53,1.278,0.53s0.926-0.177,1.277-0.53l6.035-6.035c0.706-0.705,0.706-1.851,0-2.557  L60.878,52.286z M31.287,34.766c1.637-0.989,2.729-2.33,3.437-3.52l31.85,31.85l-3.479,3.479L31.287,34.766z M53.75,38.201  l3.083,3.082c0.353,0.353,0.815,0.529,1.278,0.529s0.926-0.177,1.277-0.53c0.707-0.706,0.707-1.851,0-2.557l-3.082-3.082  l3.479-3.478l3.083,3.082c0.353,0.353,0.815,0.529,1.278,0.529s0.926-0.177,1.277-0.53c0.706-0.706,0.706-1.851,0-2.557  l-3.082-3.082l3.479-3.48l8.05,8.05L58.32,49.729l-8.049-8.049L53.75,38.201z M31.708,29.252c-0.474,0.836-1.246,1.819-2.444,2.499  l-1.086-3.573L31.708,29.252z M34.179,73.871l-8.049-8.049l3.478-3.479l3.083,3.082c0.353,0.353,0.816,0.529,1.278,0.529  c0.463,0,0.926-0.177,1.279-0.53c0.706-0.706,0.706-1.852,0-2.558l-3.082-3.081l3.479-3.479l3.082,3.082  c0.353,0.354,0.815,0.529,1.278,0.529s0.925-0.177,1.278-0.529c0.707-0.707,0.707-1.852,0-2.558l-3.082-3.082l3.479-3.479  l8.049,8.048L34.179,73.871z M69.107,72.586l-3.455-3.455l3.479-3.479l3.455,3.455L69.107,72.586z"/><text x="0" y="115" fill="#000000" font-size="5px" font-weight="bold" font-family="'Helvetica Neue', Helvetica, Arial-Unicode, Arial, Sans-serif" visibility="hidden">Created by Sergey Demushkin</text><text x="0" y="120" fill="#000000" font-size="5px" font-weight="bold" font-family="'Helvetica Neue', Helvetica, Arial-Unicode, Arial, Sans-serif" visibility="hidden">from the Noun Project</text></svg>