<?xml version="1.0" encoding="utf-8"?>
<!-- Generated by IcoMoon.io -->
<!DOCTYPE svg PUBLIC "-//W3C//DTD SVG 1.1//EN" "http://www.w3.org/Graphics/SVG/1.1/DTD/svg11.dtd">
<svg version="1.1" xmlns="http://www.w3.org/2000/svg" xmlns:xlink="http://www.w3.org/1999/xlink" width="22" height="30" viewBox="0 0 22 30">
<g>
	<line stroke-width="1" x1="" y1="" x2="" y2="" stroke="#449FDB" opacity=""></line>
</g>
	<path d="M21.793 12.45q-0.126 0.278-0.429 0.278h-2.273v10q0 0.202-0.126 0.328t-0.328 0.126h-4.545q-0.202 0-0.328-0.126t-0.126-0.328v-7.727h-5.455v7.727q0 0.202-0.126 0.328t-0.328 0.126h-4.545q-0.202 0-0.328-0.126t-0.126-0.328v-10h-2.273q-0.303 0-0.429-0.278-0.076-0.278 0.101-0.505l10.455-10.455q0.328-0.328 0.657 0l10.455 10.455q0.177 0.227 0.101 0.505z" fill="#4d4d4d"></path>
</svg>
