<?xml version="1.0" encoding="utf-8"?>
<!-- Generated by IcoMoon.io -->
<!DOCTYPE svg PUBLIC "-//W3C//DTD SVG 1.1//EN" "http://www.w3.org/Graphics/SVG/1.1/DTD/svg11.dtd">
<svg version="1.1" xmlns="http://www.w3.org/2000/svg" xmlns:xlink="http://www.w3.org/1999/xlink" width="26" height="36" viewBox="0 0 26 36">
<g>
	<line stroke-width="1" x1="" y1="" x2="" y2="" stroke="#449FDB" opacity=""></line>
</g>
	<path d="M26.182 2.242l-3.273 25.091q-0.061 0.303-0.303 0.424-0.242 0.152-0.485 0l-8.333-4.152-3 4q-0.152 0.212-0.424 0.212-0.121 0-0.182-0.030-0.364-0.091-0.364-0.515v-5.455q0-0.212 0.121-0.333l11.909-15.333-15.485 13.364q-0.152 0.121-0.364 0.121-0.121 0-0.242-0.061l-5.455-2.727q-0.303-0.152-0.303-0.455 0-0.333 0.273-0.515l25.091-14.182q0.303-0.152 0.576 0.030 0.303 0.182 0.242 0.515z" fill="#e96e62"></path>
</svg>
