<?xml version="1.0" encoding="utf-8"?>
<!-- Generator: Adobe Illustrator 19.2.1, SVG Export Plug-In . SVG Version: 6.00 Build 0)  -->
<svg version="1.1" baseProfile="tiny" id="brand-circles"
	 xmlns="http://www.w3.org/2000/svg" xmlns:xlink="http://www.w3.org/1999/xlink" x="0px" y="0px" viewBox="0 0 300 300"
	 xml:space="preserve">
<path fill="none" d="M462.2,860h-21.4c0,77.6-63.2,140.8-140.8,140.8v21.4C389.5,1022.2,462.2,949.5,462.2,860z"/>
<path fill="none" d="M409.2,860h-21.4c0,48.4-39.4,87.8-87.8,87.8v21.4C360.3,969.2,409.2,920,409.2,860z"/>
<path fill="none" d="M356.2,860H300v56.2C330.9,916.2,356.2,890.9,356.2,860z"/>
<path fill="none" d="M300,1160L300,1160h300V860C600,1025.3,465.3,1160,300,1160z"/>
<path fill="none" d="M568.4,860H547c0,136.1-110.9,247-247,247v21.4C448.1,1128.4,568.4,1008.1,568.4,860z"/>
<path fill="none" d="M515.4,860h-21.6c0,106.7-86.8,193.8-193.8,193.8v21.6C418.6,1075.4,515.4,978.9,515.4,860z"/>
<path d="M100.2,0h-0.5C99.7,55,55,99.8,0,99.8v0.5C55.2,100.3,100.2,55.3,100.2,0z"/>
<path d="M141.8,0h-0.5C141.3,78,77.9,141.3,0,141.3v0.5c37.9,0,73.5-14.7,100.3-41.5C127.1,73.5,141.8,37.9,141.8,0z"/>
<path d="M59.3,0h-0.5c0,32.4-26.4,58.8-58.8,58.8v0.5C32.7,59.4,59.3,32.8,59.3,0z"/>
<path d="M19.9,0h-0.5c0,10.7-8.7,19.4-19.4,19.4v0.5C11,19.9,19.9,11,19.9,0z"/>
<path d="M157.2,157.2c20.4-20.4,36.4-44.2,47.6-70.6C216.4,59.2,222.2,30,222.2,0h-0.5c0,122.3-99.5,221.7-221.7,221.7v0.5
	c30,0,59.1-5.9,86.5-17.5C113,193.6,136.8,177.6,157.2,157.2z"/>
<path d="M129,129c16.7-16.7,29.9-36.2,39.1-58c9.5-22.5,14.3-46.4,14.3-71h-0.5c0,100.3-81.6,181.9-181.9,181.9v0.5
	c24.6,0,48.5-4.8,71-14.3C92.7,158.9,112.2,145.8,129,129z"/>
<path d="M184.5,184.5c24-24,42.8-51.8,55.9-82.9C254,69.4,260.9,35.2,260.9,0h-0.5c0,143.6-116.8,260.4-260.4,260.4v0.5
	c35.2,0,69.4-6.9,101.6-20.5C132.6,227.3,160.5,208.5,184.5,184.5z"/>
<path d="M299.5,0C299.2,165,165,299.2,0,299.5v0.5c40.4-0.1,79.5-8,116.5-23.6c35.8-15.1,67.9-36.8,95.5-64.4s49.3-59.7,64.4-95.5
	C292,79.5,299.9,40.4,300,0H299.5z"/>
</svg>
