<?xml version="1.0" encoding="utf-8"?>
<!-- Generator: Adobe Illustrator 19.1.0, SVG Export Plug-In . SVG Version: 6.00 Build 0)  -->
<svg version="1.1" id="Layer_1" xmlns="http://www.w3.org/2000/svg" xmlns:xlink="http://www.w3.org/1999/xlink" x="0px" y="0px"
	 viewBox="0 0 16 16" style="enable-background:new 0 0 16 16;" xml:space="preserve">
<style type="text/css">
	.st0{fill:#FFFFFF;}
</style>
<g>
	<path class="st0" d="M15.1,6.2c0,2.9-2.4,5.3-5.3,5.3c-1.1,0-2-0.3-2.8-0.8l-4,4c-0.2,0.2-0.5,0.3-0.8,0.3c-0.3,0-0.6-0.1-0.8-0.3
		c-0.5-0.5-0.5-1.2,0-1.7l4-4C4.7,8.2,4.4,7.3,4.4,6.2c0-2.9,2.4-5.3,5.3-5.3S15.1,3.3,15.1,6.2z M13.3,6.2c0-2-1.6-3.5-3.5-3.5
		S6.2,4.3,6.2,6.2s1.6,3.5,3.5,3.5S13.3,8.2,13.3,6.2z"/>
</g>
</svg>
