<?xml version="1.0" encoding="utf-8"?>
<!-- Generated by IcoMoon.io -->
<!DOCTYPE svg PUBLIC "-//W3C//DTD SVG 1.1//EN" "http://www.w3.org/Graphics/SVG/1.1/DTD/svg11.dtd">
<svg version="1.1" xmlns="http://www.w3.org/2000/svg" xmlns:xlink="http://www.w3.org/1999/xlink" width="23" height="32" viewBox="0 0 23 32">
<path d="M3.879 24.727h-3.394q-0.216 0-0.35-0.135t-0.135-0.35v-3.663q0-0.215 0.135-0.35l9.024-9.024q-0.431-1.131-0.431-2.478 0-3.017 2.128-5.145t5.145-2.128 5.145 2.128 2.128 5.145-2.128 5.145-5.145 2.128q-1.347 0-2.478-0.431l-3.205 3.205q-0.135 0.135-0.35 0.135h-2.694v2.424q0 0.215-0.135 0.35t-0.35 0.135h-2.424v2.424q0 0.215-0.135 0.35t-0.35 0.135zM17.455 5.091q-0.916 0-1.549 0.633t-0.633 1.549 0.633 1.549 1.549 0.633 1.549-0.633 0.633-1.549-0.633-1.549-1.549-0.633z"></path>
</svg>
