<?xml version="1.0" encoding="utf-8"?>
<!-- Generator: Adobe Illustrator 19.1.0, SVG Export Plug-In . SVG Version: 6.00 Build 0)  -->
<svg version="1.1" id="Layer_1" xmlns="http://www.w3.org/2000/svg" xmlns:xlink="http://www.w3.org/1999/xlink" x="0px" y="0px"
	 viewBox="0 0 16 16" style="enable-background:new 0 0 16 16;" xml:space="preserve">
<style type="text/css">
	.st0{fill:#FFFFFF;}
</style>
<path class="st0" d="M6.6,13.6c0,0.1-0.1,0.2-0.2,0.3c-0.1,0-0.3,0-0.3-0.1l-3.2-3.2H0.6c-0.2,0-0.3-0.1-0.3-0.3V5.5
	c0-0.2,0.1-0.3,0.3-0.3h2.3L6.1,2c0.1-0.1,0.2-0.1,0.3-0.1c0.1,0.1,0.2,0.2,0.2,0.3V13.6z M10.1,12.7l-0.9-0.8
	c-0.1-0.1-0.1-0.3,0-0.4c1.9-1.9,1.9-5.1,0-7C9.2,4.3,9.2,4.1,9.3,4l0.9-0.9c0.1-0.1,0.3-0.1,0.4,0c2.6,2.6,2.6,6.9,0,9.5
	C10.4,12.8,10.3,12.8,10.1,12.7z M8.4,5.2C8.4,5.2,8.4,5.2,8.4,5.2C8.4,5.1,8.4,5.1,8.4,5.2C8.4,5.1,8.3,5.1,8.3,5.1
	C8.2,5,8,5,7.9,5.1L7.4,5.6C7.3,5.7,7.3,5.8,7.3,5.9s0,0.1,0.1,0.2c1,1,1,2.7,0,3.7c-0.1,0.1-0.1,0.3,0,0.4l0.5,0.5
	c0,0,0.1,0,0.1,0.1l0.1,0c0.1,0.1,0.1,0.1,0.2,0.1c0.1,0,0.1,0,0.2-0.1c0.4-0.4,0.7-0.8,0.9-1.3C9.9,7.9,9.5,6.3,8.4,5.2z
	 M11.4,14.2c-0.1-0.1-0.1-0.3,0-0.4c3.2-3.2,3.2-8.5,0-11.7c-0.1-0.1-0.1-0.3,0-0.4l0.9-0.9c0.1-0.1,0.3-0.1,0.4,0
	c3.9,3.9,3.9,10.3,0,14.2c-0.1,0.1-0.3,0.1-0.4,0L11.4,14.2z"/>
</svg>
