<?xml version="1.0" encoding="utf-8"?>
<!-- Generated by IcoMoon.io -->
<!DOCTYPE svg PUBLIC "-//W3C//DTD SVG 1.1//EN" "http://www.w3.org/Graphics/SVG/1.1/DTD/svg11.dtd">
<svg version="1.1" xmlns="http://www.w3.org/2000/svg" xmlns:xlink="http://www.w3.org/1999/xlink" width="26" height="36" viewBox="0 0 26 36">
<g>
	<line stroke-width="1" x1="" y1="" x2="" y2="" stroke="#449FDB" opacity=""></line>
</g>
	<path d="M25.667 23.485q0.515 0.697 0.515 1.606 0 1.152-0.788 1.939t-1.939 0.788h-20.727q-1.636 0-2.424-1.455-0.758-1.455 0.152-2.788l8.273-12.182v-9.212q0-0.242 0.152-0.394t0.394-0.152h7.636q0.242 0 0.394 0.152t0.152 0.394v9.212zM9.818 23.455q0.909 0 1.545-0.636t0.636-1.545-0.636-1.545-1.545-0.636-1.545 0.636-0.636 1.545 0.636 1.545 1.545 0.636zM14.727 18q0.667 0 1.152-0.485t0.485-1.152-0.485-1.152-1.152-0.485-1.152 0.485-0.485 1.152 0.485 1.152 1.152 0.485z" fill="#293745"></path>
</svg>
