<?xml version="1.0" encoding="utf-8"?>
<!-- Generator: Adobe Illustrator 18.1.1, SVG Export Plug-In . SVG Version: 6.00 Build 0)  -->
<svg version="1.1" baseProfile="tiny" id="Layer_1" xmlns="http://www.w3.org/2000/svg" xmlns:xlink="http://www.w3.org/1999/xlink"
	 x="0px" y="0px" viewBox="-363 231 309.8 100" xml:space="preserve">
<path d="M-296,260.1h0.1H-296 M-343,291c7.4,0,13.4,6,13.4,13.4c0,7.4-6,13.4-13.4,13.4c-7.4,0-13.4-6-13.4-13.4
	C-356.4,297-350.4,291-343,291 M-333.3,321c0-3.8,3.1-6.9,6.9-6.9c3.8,0,6.9,3.1,6.9,6.9c0,3.8-3.1,6.9-6.9,6.9
	C-330.2,327.9-333.3,324.8-333.3,321 M-280.4,266.3c-0.1-0.9-0.2-1.8-0.2-2.7c-0.2-0.7-0.3-1.8-0.4-2.4c-0.3-0.8-0.3-1.1-0.4-1.7
	c-0.2-0.6-0.2-0.6-0.5-1.9c-0.7-2.5-1.8-5-3-7.4c-0.8-1.5-1.8-2.8-2.8-4.1c-0.2-0.3-0.8-1-1-1.2c-0.4-0.5-2.6-3.1-3.3-3.7
	c-0.7-0.6-1.3-1.2-2.1-1.8c-0.7-0.6-1.5-1.2-2.2-1.7c-0.6-0.5-1.3-0.7-1.9-1.1c-3.4-2.1-7.2-3.8-11.1-4.7c-13.1-3-28.5,1.4-37,12.1
	c-0.9,1.1-1.8,2.2-2.7,3.4c-0.4,0.5-0.6,1.2-1,1.8c-0.8,1.3-1.4,2.5-2,3.9c-2.4,5.3-3.9,11.8-3.4,17.9c0.3,3.4,0.9,6.8,2.1,10
	c0.4,1,0.7,2,1.2,3c0.3,0.7,1.1,2.1,1.2,2.3c-7,3.1-11.9,10.1-11.9,18.3c0,11,9,20,20,20c2.4,0,4.7-0.4,6.8-1.2
	c0,0.1,0.1,0.1,0.1,0.2c1.1,4.3,5,7.6,9.7,7.6c5.5,0,10-4.5,10-10c0-4.8-3.3-8.8-7.8-9.8c0-0.1,0.1-0.2,0.1-0.3
	c0.1-0.4,0.3-0.8,0.4-1.2c0.2-0.5,0.3-1,0.4-1.6c0-0.3,0.1-0.6,0.1-1c0.1-0.4,0.1-0.8,0.1-1.2c0.1-0.1,0.2,0,0.4,0
	c2.2,0.1,4.4,0.5,6.6,0.3c4.1-0.2,8.5-1,12.2-2.7c3.9-1.7,7.7-3.9,10.9-6.8c1.5-1.3,3-2.8,4.2-4.5c0.6-0.8,1.3-1.5,1.8-2.3
	c0.4-0.7,1-1.4,1.4-2.1c0.3-0.5,0.3-0.8,0.6-1.3c0.2-0.3,0.4-0.6,0.5-1c0.3-0.7,0.4-1.5,0.4-2.3c0.1-1.5-0.4-3.1-1.3-4.4
	c-0.7-1.1-2.4-2.1-3.7-2.5c-1.5-0.4-3.3-0.3-4.8,0.2c-1.6,0.6-2.7,2-3.6,3.5c-1,1.6-1.9,3.1-3.2,4.4c-2.5,2.5-5.2,4.5-8.5,5.8
	c-12.6,5.1-27.2-1.8-31.4-14.7c-1.9-6-1.4-12.7,1.7-18.3c1.6-2.9,3.8-5.5,6.4-7.6c1.4-1.1,3-2.1,4.6-2.8c1.5-0.6,3-1,4.5-1.5
	c1.2-0.4,2.8-0.5,4-0.6c1.3-0.1,2.7-0.1,4,0.1c2.7,0.4,5.5,1.1,8,2.3c1.3,0.7,2.8,1.6,4,2.6c1.2,1,2.5,2.2,3.5,3.4
	c0.8,1,1.2,1.7,2,2.7c0.8,1.2,1.9,2.5,2,4c-3.1,0-6.3,0-9.4,0c-3,0-6.3-0.7-9.1,0.7c-2.9,1.5-5.2,5.7-3.3,8.8c0.9,1.5,1.3,2.7,3,3.5
	c1.7,0.8,3.1,0.9,5,0.9c4.3-0.1,8.6,0,12.9,0h6.7c1.9,0,3.8,0.1,5.6-0.6C-281.6,272.4-280.1,269.5-280.4,266.3"/>
<g>
	<path d="M-250.6,271.7c0,1.1-0.5,1.7-1.6,1.7h-13.3v1.3c0,4.2,1.8,6.3,5.5,6.3c2.3,0,4.4-0.5,6.1-1.4c0.2-0.1,0.5-0.2,0.7-0.2
		c0.5,0,0.9,0.2,1.2,0.6c0.3,0.4,0.5,0.8,0.5,1.3c0,0.7-0.3,1.2-1,1.6c-2.2,1.2-4.8,1.8-7.7,1.8c-3.3,0-5.8-1-7.4-3.1
		c-1.5-1.8-2.2-4.2-2.2-7.3v-4.5c0-3.1,0.7-5.5,2.2-7.3c1.7-2,4.1-3.1,7.4-3.1c3.4,0,5.8,1,7.5,3.1c1.4,1.7,2.1,4.1,2.1,7.2V271.7z
		 M-254.8,269.2c0-4.1-1.8-6.2-5.3-6.2c-3.6,0-5.5,2.1-5.5,6.2v0.8h10.8V269.2z"/>
	<path d="M-225.5,284.7c-0.9,0-1.8-0.3-2.6-1c-0.5-0.4-0.8-1-1.2-1.8c-1.8,1.9-4.3,2.8-7.6,2.8c-5.3,0-8-3-8-8.9v-14.2
		c0-0.6,0.2-1.1,0.6-1.5c0.4-0.4,0.9-0.6,1.5-0.6c0.6,0,1.1,0.2,1.5,0.6c0.4,0.4,0.6,0.9,0.6,1.5v13.8c0,1.7,0.3,3,0.9,3.8
		c0.7,0.9,2,1.4,3.7,1.4c2.8,0,4.8-1.1,5.9-3.3v-15.8c0-0.6,0.2-1.1,0.6-1.5c0.4-0.4,0.9-0.6,1.5-0.6s1.1,0.2,1.5,0.6
		c0.4,0.4,0.6,0.9,0.6,1.5v16.7c0,1.5,0.5,2.6,1.5,3.1c0.6,0.3,0.8,0.8,0.8,1.4C-223.4,284.1-224.1,284.7-225.5,284.7z"/>
	<path d="M-205.4,263.9c-0.3,0-0.5-0.1-0.8-0.1s-0.6-0.1-0.9-0.1c-0.3,0-0.5,0-0.7,0c-3,0-4.8,1.5-5.4,4.4v14.5
		c0,0.6-0.2,1.1-0.6,1.5s-0.9,0.6-1.5,0.6c-0.6,0-1.1-0.2-1.5-0.6s-0.6-0.9-0.6-1.5v-16.4c0-1.5-0.5-2.6-1.5-3.1
		c-0.6-0.3-0.8-0.8-0.8-1.4c0-1.2,0.7-1.9,2.1-1.9c0.4,0,0.6,0,0.7,0c1.6,0.4,2.7,1.4,3.3,3c1.6-2.2,3.8-3.4,6.7-3.4
		c1.3,0,2.4,0.2,3.3,0.6c0.7,0.4,1,0.9,1,1.7c0,0.6-0.2,1.1-0.6,1.5c-0.4,0.4-0.9,0.6-1.4,0.6C-204.9,263.9-205.1,263.9-205.4,263.9
		z"/>
	<path d="M-183.9,281.7c-1.7,2-4.2,3-7.6,3c-3.3,0-5.8-1-7.5-3c-1.5-1.8-2.3-4.2-2.3-7.1v-5c0-3,0.8-5.3,2.3-7.1c1.7-2,4.2-3,7.5-3
		c3.4,0,5.9,1,7.6,3c1.5,1.8,2.3,4.2,2.3,7.1v5C-181.6,277.6-182.4,279.9-183.9,281.7z M-185.9,269.6c0-4.1-1.9-6.1-5.6-6.1
		c-3.7,0-5.5,2-5.5,6.1v5c0,4.1,1.8,6.2,5.5,6.2c3.7,0,5.6-2.1,5.6-6.2V269.6z"/>
	<path d="M-164.9,284.7c-2.2,0-4.1-0.6-5.8-1.9v8.4c0,0.6-0.2,1.1-0.6,1.5c-0.4,0.4-0.9,0.6-1.5,0.6c-0.6,0-1.1-0.2-1.5-0.6
		c-0.4-0.4-0.6-0.9-0.6-1.5v-25.4c0-1.6-0.5-2.6-1.4-3.1c-0.6-0.3-0.8-0.8-0.8-1.4c0-1.2,0.7-1.9,2.1-1.9c0.9,0,1.8,0.3,2.6,1
		c0.3,0.3,0.6,0.7,0.9,1.1c2-1.4,4.1-2.1,6.4-2.1c6,0,9,3.3,9,9.9v4.4C-156.1,281.1-159.1,284.7-164.9,284.7z M-160.4,269.1
		c0-3.9-1.8-5.9-5.4-5.9c-1.7,0-3.4,0.7-4.9,2v13.5c1.5,1.5,3.2,2.2,5.1,2.2c3.5,0,5.2-2.2,5.2-6.6V269.1z"/>
	<path d="M-131.7,271.7c0,1.1-0.5,1.7-1.6,1.7h-13.3v1.3c0,4.2,1.8,6.3,5.5,6.3c2.3,0,4.4-0.5,6.1-1.4c0.2-0.1,0.5-0.2,0.7-0.2
		c0.5,0,0.9,0.2,1.2,0.6c0.3,0.4,0.5,0.8,0.5,1.3c0,0.7-0.3,1.2-1,1.6c-2.2,1.2-4.8,1.8-7.7,1.8c-3.3,0-5.8-1-7.4-3.1
		c-1.5-1.8-2.2-4.2-2.2-7.3v-4.5c0-3.1,0.7-5.5,2.2-7.3c1.7-2,4.1-3.1,7.4-3.1c3.4,0,5.8,1,7.5,3.1c1.4,1.7,2.1,4.1,2.1,7.2V271.7z
		 M-135.8,269.2c0-4.1-1.8-6.2-5.3-6.2c-3.6,0-5.5,2.1-5.5,6.2v0.8h10.8V269.2z"/>
	<path d="M-108.9,284.7c-1,0-1.9-0.3-2.5-1c-0.4-0.3-0.7-0.8-1-1.5c-1.5,1.7-3.8,2.5-6.8,2.5c-2.9,0-5.1-0.7-6.5-2
		c-1.3-1.3-2-3-2-5.1v-0.4c0-2.1,0.7-3.8,2.1-5.1c1.6-1.3,3.9-2,6.8-2h5.6v-1.2c0-2.1-0.3-3.5-1-4.4c-0.7-1-2.1-1.5-4.1-1.5
		c-1.8,0-3.5,0.4-5,1.2c-0.4,0.2-0.7,0.3-1,0.3c-0.5,0-1-0.2-1.3-0.6c-0.3-0.4-0.5-0.8-0.5-1.3c0-0.6,0.3-1.1,0.9-1.5
		c1.8-1.1,4.2-1.7,7.2-1.7c3.3,0,5.7,0.8,7.1,2.5c1.3,1.5,1.9,4,1.9,7.3v9.1c0,1.5,0.5,2.6,1.4,3.1c0.6,0.4,0.8,0.8,0.8,1.4
		C-106.8,284.1-107.5,284.7-108.9,284.7z M-113.3,273.4h-5.1c-3.4,0-5.2,1.3-5.2,3.8v0.4c0,2.5,1.7,3.8,5,3.8c3.5,0,5.3-1.7,5.3-5.1
		V273.4z"/>
	<path d="M-82.8,284.1c-0.4,0.4-0.9,0.6-1.5,0.6c-0.6,0-1.1-0.2-1.5-0.6c-0.4-0.4-0.6-0.9-0.6-1.5v-13.8c0-1.7-0.3-3-0.9-3.8
		c-0.7-1-2-1.5-3.7-1.5c-2.8,0-4.7,1-5.9,3.1v16c0,0.6-0.2,1.1-0.6,1.5s-0.9,0.6-1.5,0.6c-0.6,0-1.1-0.2-1.5-0.6s-0.6-0.9-0.6-1.5
		v-16.4c0-1.5-0.5-2.6-1.5-3.1c-0.6-0.3-0.8-0.8-0.8-1.4c0-1.2,0.7-1.9,2.1-1.9c0.9,0,1.8,0.3,2.6,1c0.5,0.5,0.8,1,1.1,1.6
		c1.8-2,4.3-2.9,7.6-2.9c5.3,0,8,3,8,8.9v14.2C-82.2,283.2-82.4,283.7-82.8,284.1z"/>
	<path d="M-58.1,284.7c-1,0-1.9-0.3-2.5-1c-0.4-0.3-0.7-0.8-1-1.5c-1.5,1.7-3.8,2.5-6.8,2.5c-2.9,0-5.1-0.7-6.5-2
		c-1.3-1.3-2-3-2-5.1v-0.4c0-2.1,0.7-3.8,2.1-5.1c1.6-1.3,3.9-2,6.8-2h5.6v-1.2c0-2.1-0.3-3.5-1-4.4c-0.7-1-2.1-1.5-4.1-1.5
		c-1.8,0-3.5,0.4-5,1.2c-0.4,0.2-0.7,0.3-1,0.3c-0.5,0-1-0.2-1.3-0.6c-0.3-0.4-0.5-0.8-0.5-1.3c0-0.6,0.3-1.1,0.9-1.5
		c1.8-1.1,4.2-1.7,7.2-1.7c3.3,0,5.7,0.8,7.1,2.5c1.3,1.5,1.9,4,1.9,7.3v9.1c0,1.5,0.5,2.6,1.4,3.1c0.6,0.4,0.8,0.8,0.8,1.4
		C-56,284.1-56.7,284.7-58.1,284.7z M-62.4,273.4h-5.1c-3.4,0-5.2,1.3-5.2,3.8v0.4c0,2.5,1.7,3.8,5,3.8c3.5,0,5.3-1.7,5.3-5.1V273.4
		z"/>
</g>
</svg>
