<?xml version="1.0" encoding="utf-8"?>
<!-- Generated by IcoMoon.io -->
<!DOCTYPE svg PUBLIC "-//W3C//DTD SVG 1.1//EN" "http://www.w3.org/Graphics/SVG/1.1/DTD/svg11.dtd">
<svg version="1.1" xmlns="http://www.w3.org/2000/svg" xmlns:xlink="http://www.w3.org/1999/xlink" width="22" height="30" viewBox="0 0 22 30">
<path d="M3.636 18.636v2.727q0 0.202-0.126 0.328t-0.328 0.126h-2.727q-0.202 0-0.328-0.126t-0.126-0.328v-2.727q0-0.202 0.126-0.328t0.328-0.126h2.727q0.202 0 0.328 0.126t0.126 0.328zM3.636 10.909v2.727q0 0.202-0.126 0.328t-0.328 0.126h-2.727q-0.202 0-0.328-0.126t-0.126-0.328v-2.727q0-0.202 0.126-0.328t0.328-0.126h2.727q0.202 0 0.328 0.126t0.126 0.328zM3.636 3.182v2.727q0 0.202-0.126 0.328t-0.328 0.126h-2.727q-0.202 0-0.328-0.126t-0.126-0.328v-2.727q0-0.202 0.126-0.328t0.328-0.126h2.727q0.202 0 0.328 0.126t0.126 0.328zM21.818 18.636v2.727q0 0.202-0.126 0.328t-0.328 0.126h-15.455q-0.202 0-0.328-0.126t-0.126-0.328v-2.727q0-0.202 0.126-0.328t0.328-0.126h15.455q0.202 0 0.328 0.126t0.126 0.328zM21.818 10.909v2.727q0 0.202-0.126 0.328t-0.328 0.126h-15.455q-0.202 0-0.328-0.126t-0.126-0.328v-2.727q0-0.202 0.126-0.328t0.328-0.126h15.455q0.202 0 0.328 0.126t0.126 0.328zM21.818 3.182v2.727q0 0.202-0.126 0.328t-0.328 0.126h-15.455q-0.202 0-0.328-0.126t-0.126-0.328v-2.727q0-0.202 0.126-0.328t0.328-0.126h15.455q0.202 0 0.328 0.126t0.126 0.328z" fill="#000000"></path>
</svg>
