<svg xmlns="http://www.w3.org/2000/svg" xmlns:xlink="http://www.w3.org/1999/xlink" version="1.1" x="0px" y="0px" viewBox="0 0 100 125" enable-background="new 0 0 100 100" xml:space="preserve"><path d="M70.815,31.359c-5.527-5.528-12.876-8.572-20.692-8.572s-15.165,3.044-20.692,8.572  c-8.769,8.769-12.412,24.739-4.164,32.988c3.463,3.464,6.974,5.147,10.732,5.147c3.662,0,6.807-1.604,9.582-3.018  c1.987-1.014,3.864-1.97,5.336-1.97c0.857,0,1.566,0.326,2.299,1.059c1.252,1.252,1.196,2.247,1.113,3.752  c-0.086,1.56-0.204,3.696,1.759,5.66c1.482,1.482,3.277,2.234,5.335,2.234c4.865,0,9.211-4.283,9.395-4.467  C82.228,61.336,82.227,42.77,70.815,31.359z M68.262,70.188c-0.886,0.884-4.043,3.408-6.839,3.408c-1.078,0-1.986-0.384-2.777-1.175  c-0.787-0.788-0.785-1.46-0.705-2.903c0.096-1.736,0.228-4.114-2.167-6.509c-1.404-1.405-3.039-2.118-4.856-2.118  c-2.34,0-4.593,1.147-6.978,2.363c-2.53,1.29-5.146,2.624-7.94,2.624c-2.75,0-5.424-1.337-8.175-4.088  c-6.094-6.094-4.07-19.641,4.163-27.875c4.845-4.844,11.285-7.512,18.136-7.512s13.291,2.668,18.136,7.512  C78.26,43.917,78.261,60.188,68.262,70.188z M35.447,43.953c-4.421,0-8.017,3.597-8.017,8.018s3.596,8.018,8.017,8.018  s8.017-3.597,8.017-8.018S39.868,43.953,35.447,43.953z M35.447,56.371c-2.427,0-4.401-1.974-4.401-4.4s1.974-4.401,4.401-4.401  s4.401,1.975,4.401,4.401S37.874,56.371,35.447,56.371z M46.676,30.405c-3.889,0-7.052,3.164-7.052,7.052s3.164,7.052,7.052,7.052  s7.053-3.164,7.053-7.052S50.564,30.405,46.676,30.405z M46.676,40.894c-1.895,0-3.436-1.542-3.436-3.436s1.542-3.436,3.436-3.436  s3.436,1.542,3.436,3.436S48.57,40.894,46.676,40.894z M69.98,42.44c0-3.271-2.662-5.933-5.934-5.933s-5.934,2.662-5.934,5.933  s2.662,5.933,5.934,5.933S69.98,45.711,69.98,42.44z M61.73,42.44c0-1.277,1.039-2.317,2.316-2.317s2.316,1.04,2.316,2.317  s-1.039,2.317-2.316,2.317S61.73,43.717,61.73,42.44z M66.47,52.85c-3.043,0-5.519,2.476-5.519,5.518c0,3.043,2.476,5.52,5.519,5.52  s5.519-2.477,5.519-5.52C71.988,55.325,69.513,52.85,66.47,52.85z M66.47,60.27c-1.049,0-1.901-0.854-1.901-1.902  c0-1.048,0.853-1.9,1.901-1.9s1.901,0.853,1.901,1.9C68.371,59.416,67.519,60.27,66.47,60.27z"/><text x="0" y="115" fill="#000000" font-size="5px" font-weight="bold" font-family="'Helvetica Neue', Helvetica, Arial-Unicode, Arial, Sans-serif" visibility="hidden">Created by Sergey Demushkin</text><text x="0" y="120" fill="#000000" font-size="5px" font-weight="bold" font-family="'Helvetica Neue', Helvetica, Arial-Unicode, Arial, Sans-serif" visibility="hidden">from the Noun Project</text></svg>