<?xml version="1.0" encoding="utf-8"?>
<!-- Generator: Adobe Illustrator 19.2.0, SVG Export Plug-In . SVG Version: 6.00 Build 0)  -->
<svg version="1.1" id="first_award" xmlns="http://www.w3.org/2000/svg" xmlns:xlink="http://www.w3.org/1999/xlink" x="0px"
	 y="0px" viewBox="0 0 258.2 258.2" style="enable-background:new 0 0 258.2 258.2;" xml:space="preserve">
<style type="text/css">
	.st0{fill:#F7B91E;}
	.st1{fill:#FFFFFF;}
</style>
<circle class="st0" cx="129.1" cy="129.1" r="129.1"/>
<path class="st1" d="M41.4,136.5c0,0,2.5-5.7-1.3-11.4s-10.2-7-10.2-7s-2.5,6.4,1.3,12.7C34.4,135.9,41.4,136.5,41.4,136.5z"/>
<path class="st1" d="M52.2,137.8c0,0,6.4-1.9,8.9-8.9c2.5-6.4-1.9-12.7-1.9-12.7s-5.7,3.2-8.3,9.5C48.4,132.7,52.2,137.8,52.2,137.8
	z"/>
<path class="st1" d="M54.7,144.8c-1.3,7,3.2,11.4,3.2,11.4s5.7-2.5,7.6-9.5c1.3-7-3.8-12.1-3.8-12.1S56,137.8,54.7,144.8z"/>
<path class="st1" d="M68.7,168.9c0,0,5.7-3.2,6.4-10.2c0.6-7-4.4-11.4-4.4-11.4s-5.1,3.2-5.7,10.2C63.6,165.1,68.7,168.9,68.7,168.9
	z"/>
<path class="st1" d="M83.3,180.4c0,0,4.4-5.1,3.2-12.1c-1.3-6.4-7.6-9.5-7.6-9.5s-3.8,5.1-2.5,12.1
	C77.6,177.8,83.3,180.4,83.3,180.4z"/>
<path class="st1" d="M46.5,121.9c0,0,5.1-3.2,5.1-10.2c0-7.6-4.4-12.1-4.4-12.1s-6.4,3.8-6.4,10.8C41.4,118.1,46.5,121.9,46.5,121.9
	z"/>
<path class="st1" d="M44.6,151.1c0,0,0.6-6.4-4.4-10.8c-5.7-4.4-12.1-3.8-12.1-3.8s-0.6,7,4.4,11.4
	C38.2,152.4,44.6,151.1,44.6,151.1z"/>
<path class="st1" d="M52.8,165.1c0,0-0.6-6.4-7-9.5c-6.4-3.2-12.1-1.3-12.1-1.3s0.6,7,7,10.2C47.1,167.6,52.8,165.1,52.8,165.1z"/>
<path class="st1" d="M53.5,168.3c-7-1.3-12.1,2.5-12.1,2.5s3.2,6.4,10.2,7.6c7,1.3,11.4-3.2,11.4-3.2S60.4,169.6,53.5,168.3z"/>
<path class="st1" d="M67.4,179.7c-7,0-11.4,3.8-11.4,3.8s3.8,6.4,10.8,6.4s11.4-5.1,11.4-5.1S74.4,180.4,67.4,179.7z"/>
<path class="st1" d="M48.4,125.7l-3.2-0.6c0,0.6-7.6,36.9,44.5,63.6l1.3-3.2C40.7,160,47.7,127,48.4,125.7z"/>
<path class="st1" d="M162.8,200.1h-3.2v-36.9h3.2v-5.7H159v-3.8c0,0-26.7-5.1-26.7-15.9c0-3.8,3.2-7.6,7.6-12.7l1.3,3.2l7-2.5
	l-0.6-1.3c11.4,0.6,21-2.5,28.6-8.9c18.4-17.2,16.5-50.9,16.5-52.1v-3.8h-21.6l1.3,4.4c0.6,1.9,0,3.8-0.6,5.1
	c-2.5,3.8-8.3,5.7-10.8,6.4l0,0c0-1.3,0-2.5,0-4.4h5.1v-5.1h-36.9l0,0H92.3v5.7h5.1c0,1.3,0,3.2,0,4.4l0,0
	c-1.9-0.6-8.3-2.5-10.8-6.4c-0.6-1.3-0.6-3.2,0-5.1l1.3-4.4H66.2v3.8c0,1.3-1.9,35,16.5,52.1c7.6,7,17.2,10.2,28.6,8.9l-1.3,0.6
	l7,2.5l1.3-3.2c4.4,5.1,7.6,8.9,7.6,12.7c0,10.8-26.7,15.9-26.7,15.9v3.8h-3.8v5.7h3.2V200h-3.2v6.4h-2.5v8.9h36.2l0,0h36.2v-8.9
	h-2.5C162.8,206.4,162.8,200.1,162.8,200.1z M159.6,85.6h5.1v-3.2c3.8-1.3,9.5-3.8,12.7-8.3c1.3-1.9,1.9-3.8,1.9-6.4h5.7
	c0,8.9-1.3,31.1-14,42.6c-6.4,5.7-14.6,8.3-24.8,7C152,109.2,157.7,99,159.6,85.6z M87.1,109.8c-12.7-11.4-14-33.7-14-42.6h5.7
	c0,2.5,0.6,4.4,1.9,6.4c3.2,5.1,8.9,7.6,12.1,8.9v3.2h5.1c1.9,14,7.6,24.2,13.3,31.8C101.8,118.1,93.5,115.5,87.1,109.8z
	 M113.8,200.1h-4.1l0,0h-4.1v-35.6h4.1l0,0h4.1V200.1z M126.7,200.1h-4.1l0,0h-4.1v-35.6h4.1l0,0h4.1V200.1z M139.7,200.1h-4.1l0,0
	h-4.1v-35.6h4.1l0,0h4.1V200.1z M152.6,200.1h-4.1l0,0h-4.1v-35.6h4.1l0,0h4.1V200.1z"/>
<path class="st1" d="M216.8,136.5c0,0,6.4-0.6,10.2-6.4c3.8-5.7,1.3-12.7,1.3-12.7s-6.4,1.3-10.2,7
	C214.3,130.8,216.8,136.5,216.8,136.5z"/>
<path class="st1" d="M206,137.8c0,0,3.8-5.1,1.3-11.4c-2.5-7-8.3-9.5-8.3-9.5s-4.4,5.7-1.9,12.7C199.7,135.9,206,137.8,206,137.8z"
	/>
<path class="st1" d="M200.3,156.2c0,0,4.4-4.4,3.2-11.4c-1.3-7-7-10.2-7-10.2s-5.1,5.1-3.8,12.1
	C194.6,153.7,200.3,156.2,200.3,156.2z"/>
<path class="st1" d="M187.6,146.7c0,0-5.7,4.4-4.4,11.4c0.6,7,6.4,10.2,6.4,10.2s5.1-3.8,3.8-10.8
	C192.7,150.5,187.6,146.7,187.6,146.7z"/>
<path class="st1" d="M171.7,168.9c-1.3,7,3.2,12.1,3.2,12.1s5.7-2.5,7-9.5s-2.5-12.1-2.5-12.1S173,161.9,171.7,168.9z"/>
<path class="st1" d="M211.7,121.9c0,0,5.1-3.8,5.1-10.8s-6.4-10.8-6.4-10.8s-4.4,4.4-4.4,11.4C206.7,118.7,211.7,121.9,211.7,121.9z
	"/>
<path class="st1" d="M230.2,136.5c0,0-6.4-0.6-12.1,3.8c-5.1,4.4-4.4,10.8-4.4,10.8s6.4,1.3,12.1-3.2
	C230.8,143.5,230.2,136.5,230.2,136.5z"/>
<path class="st1" d="M212.4,155.6c-6.4,3.2-7,9.5-7,9.5s5.7,3.2,12.1,0c6.4-3.2,7-10.2,7-10.2S218.7,152.4,212.4,155.6z"/>
<path class="st1" d="M204.7,168.9c-7,1.3-9.5,7-9.5,7s5.1,4.4,12.1,3.2c7-1.3,10.2-7.6,10.2-7.6S211.7,167.6,204.7,168.9z"/>
<path class="st1" d="M180.6,185.4c0,0,4.4,5.1,11.4,5.1s10.8-6.4,10.8-6.4s-4.4-4.4-11.4-3.8C183.8,180.4,180.6,185.4,180.6,185.4z"
	/>
<path class="st1" d="M213.6,125.1l-3.8,0.6c0,1.3,7,34.3-42.6,59.8l1.3,3.2C221.3,161.9,213.6,125.7,213.6,125.1z"/>
</svg>
