<?xml version="1.0" encoding="utf-8"?>
<!-- Generated by IcoMoon.io -->
<!DOCTYPE svg PUBLIC "-//W3C//DTD SVG 1.1//EN" "http://www.w3.org/Graphics/SVG/1.1/DTD/svg11.dtd">
<svg version="1.1" xmlns="http://www.w3.org/2000/svg" xmlns:xlink="http://www.w3.org/1999/xlink" width="23" height="32" viewBox="0 0 23 32">
<path d="M23.138 4.983l-1.32 1.32-3.394-3.394 1.32-1.32q0.35-0.35 0.673 0l2.721 2.721q0.35 0.323 0 0.673zM16 15.030v6.788h-13.091v-14.545h8.242l2.909-2.909h-11.152q-1.185 0-2.047 0.862t-0.862 2.047v14.545q0 1.185 0.862 2.047t2.047 0.862h13.091q1.185 0 2.047-0.862t0.862-2.047v-9.697zM16.97 4.364l-10.128 10.128q-0.081 0.081-0.081 0.135l-1.939 4.66-0.027 0.027q-0.081 0.269 0.135 0.485 0.135 0.162 0.323 0.162 0.027 0 0.081-0.013t0.081-0.013l0.027-0.027 4.66-1.939q0.054 0 0.135-0.081l10.128-10.128z"></path>
</svg>
