<?xml version="1.0" encoding="utf-8"?>
<!-- Generated by IcoMoon.io -->
<!DOCTYPE svg PUBLIC "-//W3C//DTD SVG 1.1//EN" "http://www.w3.org/Graphics/SVG/1.1/DTD/svg11.dtd">
<svg version="1.1" xmlns="http://www.w3.org/2000/svg" xmlns:xlink="http://www.w3.org/1999/xlink" width="22" height="30" viewBox="0 0 22 30">
<g id="icomoon-ignore">
	<line stroke-width="1" x1="" y1="" x2="" y2="" stroke="#449FDB" opacity=""></line>
</g>
	<path d="M6.818 19.773q0 1.414-0.997 2.412t-2.412 0.997-2.412-0.997-0.997-2.412 0.997-2.412 2.412-0.997 2.412 0.997 0.997 2.412zM21.818 22.727q0 0.202-0.126 0.328t-0.328 0.126h-3.182q-0.202 0-0.328-0.126t-0.126-0.328q0-3.51-1.364-6.717t-3.674-5.518-5.518-3.674-6.717-1.364q-0.202 0-0.328-0.126t-0.126-0.328v-3.182q0-0.202 0.126-0.328t0.328-0.126q5.808 0 10.72 2.866t7.778 7.778 2.866 10.72zM15 22.727q0 0.202-0.126 0.328t-0.328 0.126h-3.182q-0.202 0-0.328-0.126t-0.126-0.328q0-4.343-3.056-7.399t-7.399-3.056q-0.202 0-0.328-0.126t-0.126-0.328v-3.182q0-0.202 0.126-0.328t0.328-0.126q2.955 0 5.644 1.149t4.646 3.106 3.106 4.646 1.149 5.644z" fill="#0087cc"></path>
</svg>
