<?xml version="1.0" encoding="utf-8"?>
<!-- Generator: Adobe Illustrator 19.1.0, SVG Export Plug-In . SVG Version: 6.00 Build 0)  -->
<svg version="1.1" id="Layer_1" xmlns="http://www.w3.org/2000/svg" xmlns:xlink="http://www.w3.org/1999/xlink" x="0px" y="0px"
	 viewBox="0 0 16 16" style="enable-background:new 0 0 16 16;" xml:space="preserve">
<style type="text/css">
	.st0{fill:#FFFFFF;}
</style>
<g>
	<path class="st0" d="M5,13.7C5,13.9,4.9,14,4.7,14H3.2C3.1,14,3,13.9,3,13.7V2.2C3,2.1,3.1,2,3.2,2h1.5C4.9,2,5,2.1,5,2.2V13.7z
		 M13.5,13.7c0,0.1-0.1,0.2-0.1,0.2c0,0-0.1,0-0.1,0c-0.1,0-0.1,0-0.2-0.1l-7-5.7C6,8.1,6,8,6,8s0-0.1,0.1-0.2l7-5.7
		C13.2,2,13.3,2,13.4,2c0.1,0,0.1,0.1,0.1,0.2V13.7z"/>
</g>
</svg>
