<?xml version="1.0" encoding="utf-8"?>
<!-- Generator: Adobe Illustrator 19.1.0, SVG Export Plug-In . SVG Version: 6.00 Build 0)  -->
<svg version="1.1" id="Layer_1" xmlns="http://www.w3.org/2000/svg" xmlns:xlink="http://www.w3.org/1999/xlink" x="0px" y="0px"
	 viewBox="0 0 16 16" style="enable-background:new 0 0 16 16;" xml:space="preserve">
<style type="text/css">
	.st0{fill:#FFFFFF;}
</style>
<path class="st0" d="M4.2,9.3H2.1c-0.7,0-1.2-0.5-1.2-1.2s0.5-1.2,1.2-1.2h2.1c0.7,0,1.2,0.5,1.2,1.2S4.9,9.3,4.2,9.3z M4.5,6.2
	L3,4.7C2.6,4.2,2.6,3.5,3,3c0.5-0.5,1.2-0.5,1.7,0l1.5,1.5c0.5,0.5,0.5,1.2,0,1.7C5.8,6.7,5,6.7,4.5,6.2z M4.7,13.2
	c-0.5,0.5-1.2,0.5-1.7,0c-0.5-0.5-0.5-1.2,0-1.7L4.5,10C5,9.5,5.8,9.5,6.2,10c0.5,0.5,0.5,1.2,0,1.7L4.7,13.2z M9.3,4.2
	c0,0.7-0.5,1.2-1.2,1.2S6.9,4.9,6.9,4.2V2.1c0-0.7,0.5-1.2,1.2-1.2s1.2,0.5,1.2,1.2V4.2z M9.3,14.1c0,0.7-0.5,1.2-1.2,1.2
	s-1.2-0.5-1.2-1.2V12c0-0.7,0.5-1.2,1.2-1.2s1.2,0.5,1.2,1.2V14.1z M11.8,6.2c-0.5,0.5-1.2,0.5-1.7,0c-0.5-0.5-0.5-1.2,0-1.7L11.6,3
	c0.5-0.5,1.2-0.5,1.7,0c0.5,0.5,0.5,1.2,0,1.7L11.8,6.2z M11.6,13.2l-1.5-1.5c-0.5-0.5-0.5-1.2,0-1.7c0.5-0.5,1.2-0.5,1.7,0l1.5,1.5
	c0.5,0.5,0.5,1.2,0,1.7C12.8,13.7,12,13.7,11.6,13.2z M14.2,9.3h-2.1c-0.7,0-1.2-0.5-1.2-1.2s0.5-1.2,1.2-1.2h2.1
	c0.7,0,1.2,0.5,1.2,1.2S14.8,9.3,14.2,9.3z"/>
</svg>
