<?xml version="1.0" encoding="utf-8"?>
<!-- Generator: Adobe Illustrator 18.1.1, SVG Export Plug-In . SVG Version: 6.00 Build 0)  -->
<svg version="1.1" baseProfile="basic" id="brand-circles"
	 xmlns="http://www.w3.org/2000/svg" xmlns:xlink="http://www.w3.org/1999/xlink" x="0px" y="0px" viewBox="300 860 300 300"
	 xml:space="preserve">
<g>
	<path fill="none" d="M462.2,860h-21.4c0,77.6-63.2,140.8-140.8,140.8v21.4C389.5,1022.2,462.2,949.5,462.2,860z"/>
	<path fill="none" d="M409.2,860h-21.4c0,48.4-39.4,87.8-87.8,87.8v21.4C360.3,969.2,409.2,920,409.2,860z"/>
	<path fill="none" d="M356.2,860H300v56.2C330.9,916.2,356.2,890.9,356.2,860z"/>
	<path fill="none" d="M300,1160L300,1160h300V860C600,1025.3,465.3,1160,300,1160z"/>
	<path fill="none" d="M568.4,860H547c0,136.1-110.9,247-247,247v21.4C448.1,1128.4,568.4,1008.1,568.4,860z"/>
	<path fill="none" d="M515.4,860h-21.6c0,106.7-86.8,193.8-193.8,193.8v21.6C418.6,1075.4,515.4,978.9,515.4,860z"/>
	<path fill="#3FA9F5" d="M600,860h-31.6c0,148.1-120.3,268.4-268.4,268.4v31.6C465.3,1160,600,1025.3,600,860z"/>
	<path fill="#3FA9F5" d="M547,860h-31.6c0,118.9-96.8,215.4-215.4,215.4v31.6C436.1,1107,547,996.1,547,860z"/>
	<path fill="#3FA9F5" d="M493.8,860h-31.6c0,89.5-72.7,162.2-162.2,162.2v31.6C407,1053.8,493.8,966.7,493.8,860z"/>
	<path fill="#3FA9F5" d="M440.8,860h-31.6c0,60-48.9,109.2-109.2,109.2v31.6C377.6,1000.8,440.8,937.6,440.8,860z"/>
	<path fill="#3FA9F5" d="M387.8,860h-31.6c0,30.9-25.3,56.2-56.2,56.2v31.6C348.4,947.8,387.8,908.4,387.8,860z"/>
</g>
</svg>
