<?xml version="1.0" encoding="utf-8"?>
<!-- Generator: Adobe Illustrator 19.1.0, SVG Export Plug-In . SVG Version: 6.00 Build 0)  -->
<svg version="1.1" id="Layer_1" xmlns="http://www.w3.org/2000/svg" xmlns:xlink="http://www.w3.org/1999/xlink" x="0px" y="0px"
	 viewBox="0 0 16 16" style="enable-background:new 0 0 16 16;" xml:space="preserve">
<style type="text/css">
	.st0{fill:#FFFFFF;}
</style>
<g>
	<path class="st0" d="M3.1,2c0.1,0,0.2,0,0.3,0l7,5.7c0.1,0.1,0.1,0.1,0.1,0.2s0,0.2-0.1,0.2l-7,5.7c0,0-0.1,0.1-0.2,0.1
		c0,0-0.1,0-0.1,0c-0.1,0-0.1-0.1-0.1-0.2V2.2C3,2.1,3.1,2,3.1,2z M11.7,2h1.5c0.1,0,0.2,0.1,0.2,0.2v11.5c0,0.1-0.1,0.2-0.2,0.2
		h-1.5c-0.1,0-0.2-0.1-0.2-0.2V2.2C11.5,2.1,11.6,2,11.7,2z"/>
</g>
</svg>
