<?xml version="1.0" encoding="utf-8"?>
<!-- Generator: Adobe Illustrator 19.1.0, SVG Export Plug-In . SVG Version: 6.00 Build 0)  -->
<svg version="1.1" baseProfile="tiny" id="Calque_1"
	 xmlns="http://www.w3.org/2000/svg" xmlns:xlink="http://www.w3.org/1999/xlink" x="0px" y="0px" viewBox="0 0 595 842"
	 xml:space="preserve">
<g>
	<rect x="148.8" y="331.4" fill="#FFFFFF" width="294.9" height="200.3"/>
	<path fill="#FFFFFF" d="M296.2,433.5"/>
</g>
<g>
	<rect x="154.4" y="336.9" fill="#164194" width="283.6" height="189.1"/>
	<path fill="#164194" d="M296.2,431.5"/>
</g>
<g>
	<polygon fill="#FFFFFF" points="290.2,378.1 296.2,373.8 302.2,378.1 299.9,371.1 306,366.7 298.5,366.7 296.2,359.6 293.9,366.7 
		286.4,366.7 292.5,371.1 	"/>
	<polygon fill="#FFFFFF" points="259.2,386.4 265.2,382.1 271.2,386.4 268.9,379.4 275,375 267.5,375 265.2,367.9 262.9,375 
		255.4,375 261.5,379.4 	"/>
	<polygon fill="#FFFFFF" points="242.5,390.6 240.2,397.7 232.8,397.7 238.8,402.1 236.6,409.2 242.5,404.8 248.5,409.2 
		246.2,402.1 252.3,397.7 244.8,397.7 	"/>
	<polygon fill="#FFFFFF" points="234.2,435.7 240.2,440.1 237.9,433 244,428.7 236.5,428.7 234.2,421.5 231.9,428.7 224.4,428.7 
		230.5,433 228.2,440.1 	"/>
	<polygon fill="#FFFFFF" points="244.8,459.7 242.5,452.5 240.2,459.7 232.8,459.7 238.8,464.1 236.6,471.1 242.5,466.7 
		248.5,471.1 246.2,464.1 252.3,459.7 	"/>
	<polygon fill="#FFFFFF" points="267.5,482.4 265.2,475.2 263,482.4 255.5,482.4 261.5,486.8 259.3,493.8 265.2,489.4 271.2,493.8 
		269,486.8 275,482.4 	"/>
	<polygon fill="#FFFFFF" points="298.5,490.6 296.2,483.5 293.9,490.6 286.4,490.6 292.5,495 290.2,502 296.2,497.7 302.2,502 
		299.9,495 306,490.6 	"/>
	<polygon fill="#FFFFFF" points="329.4,482.4 327.1,475.2 324.8,482.4 317.3,482.4 323.4,486.8 321.1,493.8 327.1,489.4 
		333.1,493.8 330.8,486.8 336.9,482.4 	"/>
	<polygon fill="#FFFFFF" points="352.1,459.7 349.8,452.5 347.5,459.7 340,459.7 346.1,464.1 343.8,471.1 349.8,466.7 355.8,471.1 
		353.5,464.1 359.6,459.7 	"/>
	<polygon fill="#FFFFFF" points="367.8,428.6 360.3,428.6 358,421.4 355.7,428.6 348.2,428.6 354.3,432.9 352.1,440 358,435.6 
		364,440 361.7,432.9 	"/>
	<polygon fill="#FFFFFF" points="343.8,409.1 349.8,404.7 355.8,409.1 353.5,402 359.6,397.6 352.1,397.6 349.8,390.5 347.5,397.7 
		340,397.6 346.1,402 	"/>
	<polygon fill="#FFFFFF" points="327.2,367.9 324.9,375 317.4,375 323.5,379.4 321.2,386.5 327.2,382.1 333.2,386.5 330.9,379.4 
		337,375 329.5,375 	"/>
</g>
</svg>
