<?xml version="1.0" encoding="utf-8"?>
<!-- Generator: Adobe Illustrator 22.1.0, SVG Export Plug-In . SVG Version: 6.00 Build 0)  -->
<svg version="1.1" baseProfile="tiny" id="Layer_1" xmlns="http://www.w3.org/2000/svg" xmlns:xlink="http://www.w3.org/1999/xlink"
	 x="0px" y="0px" viewBox="0 0 226.7 35.7" xml:space="preserve">
<g id="Layer_1_1_" display="none">
</g>
<g>
	<g>
		<polygon fill="#FFFFFF" points="0,3.7 42.5,3.7 42.5,31.7 0,31.7 0,3.7 		"/>
		<path fill="#FFF200" d="M21.2,17.9"/>
		<polygon fill="#034EA2" points="0.8,4.4 41.6,4.4 41.6,30.9 0.8,30.9 0.8,4.4 		"/>
		<path fill="#FFF200" d="M21.2,17.6"/>
		<polygon fill="#FFF200" points="20.4,10.2 21.2,9.6 22.1,10.2 21.8,9.2 22.6,8.6 21.6,8.6 21.2,7.6 20.9,8.6 19.8,8.6 20.7,9.2 
			20.4,10.2 		"/>
		<polygon fill="#FFF200" points="15.9,11.4 16.8,10.7 17.6,11.4 17.3,10.4 18.2,9.8 17.1,9.8 16.8,8.8 16.4,9.8 15.4,9.8 
			16.2,10.4 15.9,11.4 		"/>
		<polygon fill="#FFF200" points="13.5,11.9 13.2,12.9 12.1,12.9 13,13.5 12.6,14.5 13.5,13.9 14.4,14.5 14,13.5 14.9,12.9 
			13.8,12.9 13.5,11.9 		"/>
		<polygon fill="#FFF200" points="12.3,18.2 13.2,18.9 12.8,17.9 13.7,17.3 12.6,17.3 12.3,16.3 12,17.3 10.9,17.3 11.8,17.9 
			11.4,18.9 12.3,18.2 		"/>
		<polygon fill="#FFF200" points="13.8,21.6 13.5,20.6 13.2,21.6 12.1,21.6 13,22.2 12.6,23.2 13.5,22.6 14.4,23.2 14,22.2 
			14.9,21.6 13.8,21.6 		"/>
		<polygon fill="#FFF200" points="17.1,24.8 16.8,23.8 16.4,24.8 15.4,24.8 16.2,25.4 15.9,26.4 16.8,25.8 17.6,26.4 17.3,25.4 
			18.2,24.8 17.1,24.8 		"/>
		<polygon fill="#FFF200" points="21.6,25.9 21.2,24.9 20.9,25.9 19.8,25.9 20.7,26.5 20.4,27.5 21.2,26.9 22.1,27.5 21.8,26.5 
			22.6,25.9 21.6,25.9 		"/>
		<polygon fill="#FFF200" points="26,24.8 25.7,23.8 25.3,24.8 24.3,24.8 25.1,25.4 24.8,26.4 25.7,25.8 26.5,26.4 26.2,25.4 
			27.1,24.8 26,24.8 		"/>
		<polygon fill="#FFF200" points="29.3,21.6 28.9,20.6 28.6,21.6 27.5,21.6 28.4,22.2 28.1,23.2 28.9,22.6 29.8,23.2 29.5,22.2 
			30.3,21.6 29.3,21.6 		"/>
		<polygon fill="#FFF200" points="31.5,17.2 30.5,17.2 30.1,16.2 29.8,17.2 28.7,17.2 29.6,17.9 29.3,18.8 30.1,18.2 31,18.8 
			30.7,17.9 31.5,17.2 		"/>
		<polygon fill="#FFF200" points="28.1,14.5 28.9,13.9 29.8,14.5 29.5,13.5 30.3,12.9 29.3,12.9 28.9,11.9 28.6,12.9 27.5,12.9 
			28.4,13.5 28.1,14.5 		"/>
		<polygon fill="#FFF200" points="25.7,8.8 25.4,9.8 24.3,9.8 25.2,10.4 24.8,11.4 25.7,10.7 26.5,11.4 26.2,10.4 27.1,9.8 26,9.8 
			25.7,8.8 		"/>
	</g>
	<path d="M99.6,10c0,0.5,0,1-0.1,1.4s-0.2,0.8-0.4,1.1c-0.2,0.3-0.5,0.5-0.9,0.7c-0.4,0.2-0.8,0.2-1.4,0.2c-0.2,0-0.4,0-0.7,0
		c-0.2,0-0.5,0-0.7-0.1c-0.2,0-0.4-0.1-0.6-0.1c-0.2,0-0.4-0.1-0.5-0.1c-0.1-0.1-0.2-0.1-0.3-0.2s-0.1-0.2-0.1-0.3V4.3
		c0-0.2,0.1-0.2,0.3-0.2h0.9c0.1,0,0.2,0,0.2,0.1c0,0,0.1,0.1,0.1,0.2v2.7C95.7,7,96,6.9,96.3,6.8s0.5-0.1,0.7-0.1
		c0.5,0,1,0.1,1.3,0.2c0.3,0.2,0.6,0.4,0.8,0.7c0.2,0.3,0.3,0.6,0.4,1C99.6,9.1,99.6,9.5,99.6,10z M98.1,10.1c0-0.4,0-0.7-0.1-1
		c0-0.3-0.1-0.5-0.2-0.6c-0.1-0.2-0.2-0.3-0.4-0.4S97.2,8,97,8c-0.1,0-0.3,0-0.4,0s-0.2,0-0.3,0c-0.1,0-0.2,0-0.4,0.1
		s-0.3,0.1-0.5,0.1V12c0.2,0,0.4,0.1,0.7,0.1c0.2,0,0.4,0,0.7,0c0.2,0,0.4,0,0.6-0.1c0.2,0,0.3-0.1,0.4-0.3c0.1-0.1,0.2-0.3,0.3-0.6
		C98.1,10.9,98.1,10.6,98.1,10.1z"/>
	<path d="M103.1,11.4c0.1-0.3,0.2-0.5,0.3-0.8c0.1-0.2,0.2-0.4,0.2-0.6c0.1-0.2,0.1-0.4,0.2-0.6l0.8-2.4c0-0.1,0.1-0.1,0.1-0.2
		c0,0,0.1-0.1,0.2-0.1h1c0.1,0,0.2,0,0.2,0.1c0,0.1,0,0.1,0,0.2l-3,8.3c0,0.1-0.1,0.1-0.1,0.2c0,0-0.1,0.1-0.2,0.1h-0.9
		c-0.1,0-0.2,0-0.2-0.1c0-0.1,0-0.1,0-0.2l0.8-2.2l-2.3-6c0-0.1,0-0.1,0-0.2c0-0.1,0.1-0.1,0.2-0.1h1c0.1,0,0.1,0,0.2,0
		c0,0,0.1,0.1,0.1,0.2l0.8,2.4L103.1,11.4L103.1,11.4z"/>
	<path d="M114.6,12.8c0,0.1,0,0.3-0.2,0.3c-0.1,0.1-0.2,0.1-0.4,0.1c-0.2,0-0.3,0.1-0.5,0.1c-0.2,0-0.3,0-0.5,0c-0.1,0-0.3,0-0.4,0
		c-0.4,0-0.7-0.1-0.9-0.2s-0.4-0.3-0.5-0.4c-0.1-0.2-0.2-0.4-0.2-0.7s0-0.5,0-0.8V8h-0.6c-0.1,0-0.2,0-0.2-0.1c0,0-0.1-0.1-0.1-0.2
		V7.1c0-0.1,0-0.2,0.1-0.2c0,0,0.1-0.1,0.2-0.1h0.7V5.5c0-0.1,0-0.2,0.1-0.2c0,0,0.1-0.1,0.2-0.1l0.9-0.2c0.2,0,0.3,0,0.3,0.2v1.7
		h1.4c0.1,0,0.2,0,0.2,0.1c0,0,0,0.1,0,0.2v0.6c0,0.1,0,0.1,0,0.2c0,0-0.1,0.1-0.2,0.1h-1.4v3.2c0,0.2,0,0.3,0,0.4
		c0,0.1,0.1,0.2,0.1,0.2c0.1,0,0.2,0.1,0.3,0.1c0.1,0,0.3,0,0.4,0c0.1,0,0.2,0,0.4,0c0.2,0,0.3,0,0.5,0c0.1,0,0.1,0,0.2,0
		c0,0,0.1,0.1,0.1,0.2L114.6,12.8z"/>
	<path d="M120.6,13.3h-0.9c-0.2,0-0.3-0.1-0.3-0.2c0-0.6,0-1.3,0-1.9s0-1.2,0-1.9c0-0.4-0.1-0.7-0.2-0.9c-0.1-0.2-0.4-0.3-0.8-0.3
		c-0.1,0-0.3,0-0.4,0.1c-0.2,0-0.3,0.1-0.5,0.2c-0.2,0.1-0.3,0.1-0.5,0.2c-0.1,0.1-0.3,0.1-0.4,0.2V13c0,0.1,0,0.1-0.1,0.2
		s-0.1,0.1-0.2,0.1h-0.9c-0.2,0-0.2-0.1-0.2-0.2V4.3c0-0.2,0.1-0.2,0.2-0.2h0.9c0.2,0,0.3,0.1,0.3,0.2l0,3.1
		c0.1-0.1,0.3-0.1,0.4-0.2c0.2-0.1,0.3-0.2,0.5-0.2s0.4-0.1,0.6-0.2c0.2,0,0.4-0.1,0.6-0.1c0.5,0,0.8,0.1,1.1,0.2
		c0.3,0.1,0.5,0.3,0.6,0.5c0.1,0.2,0.2,0.5,0.3,0.8c0,0.3,0.1,0.6,0.1,0.9V13C120.9,13.2,120.8,13.3,120.6,13.3z"/>
	<path d="M123.6,10.5c0,0.3,0,0.6,0.1,0.8c0.1,0.2,0.2,0.4,0.3,0.5c0.1,0.1,0.3,0.2,0.5,0.3c0.2,0.1,0.4,0.1,0.7,0.1
		c0.2,0,0.5,0,0.8-0.1c0.3,0,0.6-0.1,0.9-0.1c0.1,0,0.2,0,0.3,0c0,0,0.1,0.1,0.1,0.2l0.1,0.4c0,0.1,0,0.2,0,0.2
		c0,0.1-0.1,0.1-0.2,0.2c-0.1,0.1-0.3,0.1-0.5,0.1c-0.2,0-0.4,0.1-0.5,0.1c-0.2,0-0.4,0-0.6,0.1c-0.2,0-0.4,0-0.5,0
		c-0.6,0-1.1-0.1-1.5-0.3c-0.4-0.2-0.7-0.4-0.9-0.7c-0.2-0.3-0.3-0.7-0.4-1c-0.1-0.4-0.1-0.8-0.1-1.2c0-0.3,0-0.7,0.1-1.1
		c0.1-0.4,0.2-0.8,0.4-1.1c0.2-0.3,0.5-0.6,0.8-0.9c0.4-0.2,0.9-0.3,1.5-0.3c0.6,0,1.1,0.1,1.4,0.3c0.4,0.2,0.6,0.4,0.8,0.7
		s0.3,0.6,0.4,0.9c0.1,0.4,0.1,0.7,0.1,1c0,0.2,0,0.4-0.1,0.6c-0.1,0.1-0.3,0.2-0.5,0.2H123.6z M124.9,7.9c-0.2,0-0.4,0-0.6,0.1
		c-0.2,0.1-0.3,0.2-0.4,0.3s-0.2,0.3-0.2,0.5s-0.1,0.4-0.1,0.7h2.6c0-0.2,0-0.4-0.1-0.6c0-0.2-0.1-0.4-0.2-0.5
		c-0.1-0.1-0.2-0.3-0.4-0.3C125.4,8,125.2,7.9,124.9,7.9z"/>
	<path d="M132.7,4.9c0-0.2,0.1-0.3,0.3-0.3h4.8c0.2,0,0.2,0.1,0.2,0.2v0.8c0,0.2-0.1,0.2-0.3,0.2h-3.5v2.2h3.1
		c0.2,0,0.3,0.1,0.3,0.2v0.8c0,0.2-0.1,0.2-0.3,0.2h-3.1V12h3.6c0.2,0,0.2,0.1,0.2,0.2V13c0,0.2-0.1,0.2-0.2,0.2H133
		c-0.2,0-0.3-0.1-0.3-0.2V4.9z"/>
	<path d="M144.6,13.3h-0.9c-0.1,0-0.2,0-0.2-0.1c0,0-0.1-0.1-0.1-0.2v-0.4l0,0c-0.1,0.1-0.3,0.2-0.4,0.3s-0.3,0.2-0.5,0.3
		c-0.2,0.1-0.4,0.1-0.6,0.2c-0.2,0-0.4,0.1-0.6,0.1c-0.4,0-0.8-0.1-1-0.2c-0.3-0.1-0.4-0.3-0.6-0.5c-0.1-0.2-0.2-0.5-0.2-0.8
		c0-0.3-0.1-0.6-0.1-0.9V7.1c0-0.2,0.1-0.3,0.2-0.3h1c0.2,0,0.2,0.1,0.2,0.3v3.7c0,0.2,0,0.4,0,0.5c0,0.2,0.1,0.3,0.1,0.4
		s0.2,0.2,0.3,0.3c0.1,0.1,0.3,0.1,0.5,0.1c0.1,0,0.3,0,0.5-0.1s0.3-0.1,0.5-0.2s0.3-0.1,0.5-0.2c0.1-0.1,0.2-0.1,0.3-0.2V7.1
		c0-0.1,0-0.1,0.1-0.2c0,0,0.1-0.1,0.2-0.1h0.9c0.2,0,0.2,0.1,0.2,0.3V13C144.9,13.2,144.8,13.3,144.6,13.3z"/>
	<path d="M148,13c0,0.2-0.1,0.2-0.2,0.2h-0.9c-0.2,0-0.2-0.1-0.2-0.2V7.1c0-0.2,0.1-0.3,0.2-0.3h0.9c0.2,0,0.3,0.1,0.3,0.3v0.6l0,0
		c0.1-0.1,0.2-0.2,0.4-0.3s0.3-0.2,0.5-0.3s0.4-0.2,0.5-0.2c0.2-0.1,0.4-0.1,0.5-0.1c0.1,0,0.2,0,0.2,0c0.1,0,0.1,0.1,0.1,0.2
		l0.1,0.9c0,0.1,0,0.2,0,0.2s-0.1,0.1-0.2,0.1c-0.2,0-0.4,0.1-0.6,0.1c-0.2,0-0.4,0.1-0.6,0.2c-0.2,0.1-0.4,0.1-0.5,0.2
		c-0.2,0.1-0.3,0.1-0.4,0.2V13z"/>
	<path d="M156.5,10c0,0.4,0,0.8-0.1,1.2c0,0.4-0.2,0.8-0.4,1.1c-0.2,0.3-0.5,0.6-0.9,0.8c-0.4,0.2-0.9,0.3-1.6,0.3
		c-0.6,0-1.2-0.1-1.5-0.3c-0.4-0.2-0.7-0.5-0.8-0.8c-0.2-0.3-0.3-0.7-0.3-1.1c0-0.4-0.1-0.8-0.1-1.2c0-0.3,0-0.6,0.1-1
		c0.1-0.4,0.2-0.7,0.4-1c0.2-0.3,0.5-0.6,0.8-0.8s0.9-0.3,1.5-0.3c0.6,0,1.1,0.1,1.5,0.3s0.7,0.4,0.9,0.7c0.2,0.3,0.3,0.7,0.4,1
		C156.5,9.2,156.5,9.6,156.5,10z M155.1,10.1c0-0.3,0-0.6-0.1-0.9c0-0.3-0.1-0.5-0.2-0.6c-0.1-0.2-0.2-0.3-0.4-0.4
		C154.2,8,154,8,153.7,8c-0.3,0-0.5,0-0.7,0.1c-0.2,0.1-0.3,0.2-0.4,0.4s-0.2,0.4-0.2,0.6c0,0.3-0.1,0.6-0.1,0.9
		c0,0.3,0,0.6,0.1,0.9c0,0.3,0.1,0.5,0.2,0.6c0.1,0.2,0.2,0.3,0.4,0.4c0.2,0.1,0.4,0.1,0.7,0.1c0.3,0,0.5,0,0.7-0.1
		c0.2-0.1,0.3-0.2,0.4-0.4c0.1-0.2,0.2-0.4,0.2-0.6C155.1,10.7,155.1,10.4,155.1,10.1z"/>
	<path d="M163.4,10c0,0.5,0,1-0.1,1.4s-0.2,0.8-0.4,1.1c-0.2,0.3-0.5,0.5-0.8,0.6c-0.3,0.1-0.8,0.2-1.3,0.2c-0.2,0-0.5,0-0.7-0.1
		s-0.6-0.1-0.9-0.2l0,0v2.3c0,0.1,0,0.1,0,0.2c0,0.1-0.1,0.1-0.2,0.1H158c-0.1,0-0.2,0-0.2-0.1c0,0,0-0.1,0-0.2V7.1
		c0-0.2,0.1-0.3,0.2-0.3h0.9c0.1,0,0.2,0,0.2,0.1c0,0,0,0.1,0,0.2v0.4l0,0c0.1-0.1,0.2-0.2,0.4-0.3c0.2-0.1,0.3-0.2,0.5-0.3
		c0.2-0.1,0.4-0.1,0.6-0.2c0.2-0.1,0.4-0.1,0.6-0.1c0.4,0,0.8,0.1,1.1,0.2c0.3,0.2,0.5,0.4,0.7,0.7c0.2,0.3,0.3,0.6,0.3,1
		C163.4,9.1,163.4,9.5,163.4,10z M162,10c0-0.4,0-0.7-0.1-1c0-0.3-0.1-0.4-0.2-0.6c-0.1-0.1-0.2-0.2-0.3-0.3c-0.1,0-0.3-0.1-0.4-0.1
		c-0.1,0-0.3,0-0.4,0.1c-0.2,0-0.3,0.1-0.5,0.1c-0.2,0.1-0.3,0.1-0.5,0.2c-0.1,0.1-0.3,0.1-0.4,0.2v3.2c0.3,0.1,0.6,0.1,0.8,0.2
		c0.2,0,0.5,0,0.7,0c0.2,0,0.4,0,0.6-0.1c0.2-0.1,0.3-0.2,0.4-0.3s0.2-0.4,0.2-0.7C161.9,10.8,162,10.4,162,10z"/>
	<path d="M165.9,10.5c0,0.3,0,0.6,0.1,0.8c0.1,0.2,0.2,0.4,0.3,0.5s0.3,0.2,0.5,0.3c0.2,0.1,0.4,0.1,0.7,0.1c0.2,0,0.5,0,0.8-0.1
		c0.3,0,0.6-0.1,0.9-0.1c0.1,0,0.2,0,0.3,0s0.1,0.1,0.1,0.2l0.1,0.4c0,0.1,0,0.2,0,0.2s-0.1,0.1-0.2,0.2c-0.1,0.1-0.3,0.1-0.5,0.1
		c-0.2,0-0.4,0.1-0.5,0.1s-0.4,0-0.6,0.1c-0.2,0-0.4,0-0.5,0c-0.6,0-1.1-0.1-1.5-0.3c-0.4-0.2-0.7-0.4-0.9-0.7
		c-0.2-0.3-0.3-0.7-0.4-1c-0.1-0.4-0.1-0.8-0.1-1.2c0-0.3,0-0.7,0.1-1.1c0.1-0.4,0.2-0.8,0.4-1.1c0.2-0.3,0.5-0.6,0.8-0.9
		c0.4-0.2,0.9-0.3,1.5-0.3c0.6,0,1.1,0.1,1.4,0.3c0.4,0.2,0.6,0.4,0.8,0.7s0.3,0.6,0.4,0.9c0.1,0.4,0.1,0.7,0.1,1
		c0,0.2,0,0.4-0.1,0.6c-0.1,0.1-0.3,0.2-0.5,0.2H165.9z M167.2,7.9c-0.2,0-0.4,0-0.6,0.1c-0.2,0.1-0.3,0.2-0.4,0.3s-0.2,0.3-0.2,0.5
		c0,0.2-0.1,0.4-0.1,0.7h2.6c0-0.2,0-0.4-0.1-0.6c0-0.2-0.1-0.4-0.2-0.5c-0.1-0.1-0.2-0.3-0.4-0.3C167.7,8,167.5,7.9,167.2,7.9z"/>
	<path d="M175.2,12.5c-0.3,0.3-0.7,0.5-1.1,0.6c-0.4,0.2-0.8,0.2-1.3,0.2c-0.3,0-0.6,0-0.9-0.1c-0.2-0.1-0.4-0.2-0.5-0.4
		c-0.1-0.2-0.2-0.4-0.3-0.6c-0.1-0.2-0.1-0.5-0.1-0.8c0-0.8,0.2-1.3,0.6-1.7s1-0.5,1.8-0.5h1.7V9c0-0.2,0-0.4-0.1-0.5
		s-0.1-0.2-0.2-0.3c-0.1-0.1-0.2-0.1-0.4-0.2c-0.2,0-0.4-0.1-0.7-0.1c-0.1,0-0.2,0-0.4,0c-0.2,0-0.3,0-0.5,0s-0.3,0-0.5,0
		c-0.2,0-0.3,0-0.4,0c-0.1,0-0.2,0-0.3,0c0,0-0.1-0.1-0.1-0.2l-0.1-0.5c0-0.1,0-0.2,0-0.2c0-0.1,0.1-0.1,0.3-0.2
		c0.1-0.1,0.3-0.1,0.5-0.1s0.4-0.1,0.6-0.1s0.4,0,0.6-0.1c0.2,0,0.4,0,0.5,0c0.6,0,1,0.1,1.3,0.2c0.3,0.1,0.6,0.3,0.8,0.5
		c0.2,0.2,0.3,0.5,0.3,0.7c0.1,0.3,0.1,0.6,0.1,1v2.5c0,0.1,0,0.2,0,0.3c0,0.1,0,0.1,0.1,0.2c0,0,0.1,0.1,0.1,0.1c0.1,0,0.1,0,0.2,0
		c0.1,0,0.2,0,0.2,0.1c0,0,0.1,0.1,0.1,0.1V13c0,0.1-0.1,0.2-0.3,0.3c-0.1,0-0.2,0-0.3,0c-0.1,0-0.2,0-0.3,0c-0.3,0-0.5-0.1-0.7-0.2
		C175.4,13,175.3,12.8,175.2,12.5L175.2,12.5z M175.1,10.4h-1.6c-0.3,0-0.6,0.1-0.8,0.2c-0.2,0.2-0.3,0.4-0.3,0.9
		c0,0.3,0.1,0.5,0.2,0.6c0.1,0.1,0.3,0.2,0.6,0.2c0.1,0,0.3,0,0.5-0.1c0.2,0,0.3-0.1,0.5-0.1c0.2-0.1,0.3-0.1,0.5-0.2
		c0.2-0.1,0.3-0.1,0.4-0.2V10.4z"/>
	<path d="M183.7,13.2c0,0-0.1,0.1-0.2,0.1h-0.9c-0.2,0-0.2-0.1-0.2-0.2l0-3.7c0-0.4-0.1-0.7-0.2-0.9c-0.1-0.2-0.4-0.4-0.7-0.4
		c-0.1,0-0.3,0-0.4,0.1s-0.3,0.1-0.5,0.2c-0.2,0.1-0.3,0.1-0.5,0.2s-0.3,0.1-0.4,0.2V13c0,0.2-0.1,0.2-0.2,0.2h-0.9
		c-0.2,0-0.2-0.1-0.2-0.2V7.1c0-0.2,0.1-0.3,0.2-0.3h0.9c0.2,0,0.2,0.1,0.2,0.3v0.4c0,0,0,0,0,0c0,0,0,0,0,0
		c0.1-0.1,0.3-0.2,0.4-0.3c0.2-0.1,0.3-0.2,0.5-0.3s0.4-0.1,0.6-0.2c0.2,0,0.4-0.1,0.6-0.1c0.4,0,0.8,0.1,1,0.2
		c0.3,0.1,0.4,0.3,0.6,0.5c0.1,0.2,0.2,0.5,0.2,0.8c0,0.3,0.1,0.6,0.1,0.9V13C183.7,13.1,183.7,13.1,183.7,13.2z"/>
	<path d="M192.1,12.1c0.6,0,1-0.2,1.3-0.5s0.4-0.8,0.4-1.5V4.9c0-0.2,0.1-0.3,0.3-0.3h1c0.1,0,0.2,0,0.2,0.1c0,0,0,0.1,0,0.2l0,5.2
		c0,0.3,0,0.5,0,0.8c0,0.3-0.1,0.5-0.2,0.8c-0.1,0.3-0.3,0.6-0.5,0.8c-0.2,0.2-0.4,0.4-0.7,0.5s-0.5,0.2-0.8,0.3s-0.6,0.1-0.9,0.1
		c-1.4,0-2.3-0.5-2.8-1.4c-0.1-0.3-0.2-0.5-0.3-0.9s-0.1-0.6-0.1-1V4.9c0-0.2,0.1-0.3,0.2-0.3h1c0.2,0,0.2,0.1,0.2,0.3v5.2
		c0,0.6,0.1,1.1,0.4,1.5C191.1,11.9,191.5,12.1,192.1,12.1z"/>
	<path d="M202.3,13.2c0,0-0.1,0.1-0.2,0.1h-0.9c-0.2,0-0.2-0.1-0.2-0.2l0-3.7c0-0.4-0.1-0.7-0.2-0.9c-0.1-0.2-0.4-0.4-0.7-0.4
		c-0.1,0-0.3,0-0.4,0.1s-0.3,0.1-0.5,0.2c-0.2,0.1-0.3,0.1-0.5,0.2s-0.3,0.1-0.4,0.2V13c0,0.2-0.1,0.2-0.2,0.2h-0.9
		c-0.2,0-0.2-0.1-0.2-0.2V7.1c0-0.2,0.1-0.3,0.2-0.3h0.9c0.2,0,0.2,0.1,0.2,0.3v0.4c0,0,0,0,0,0c0,0,0,0,0,0
		c0.1-0.1,0.3-0.2,0.4-0.3c0.2-0.1,0.3-0.2,0.5-0.3s0.4-0.1,0.6-0.2c0.2,0,0.4-0.1,0.6-0.1c0.4,0,0.8,0.1,1,0.2
		c0.3,0.1,0.4,0.3,0.6,0.5c0.1,0.2,0.2,0.5,0.2,0.8c0,0.3,0.1,0.6,0.1,0.9V13C202.4,13.1,202.4,13.1,202.3,13.2z"/>
	<path d="M205.4,5.2c0,0.1,0,0.2,0,0.3c0,0.1-0.1,0.2-0.1,0.2s-0.1,0.1-0.2,0.2c-0.1,0-0.2,0.1-0.4,0.1c-0.2,0-0.3,0-0.4-0.1
		c-0.1,0-0.2-0.1-0.2-0.2c-0.1-0.1-0.1-0.1-0.1-0.2c0-0.1,0-0.2,0-0.3c0-0.2,0-0.4,0.1-0.5s0.3-0.2,0.6-0.2c0.3,0,0.5,0.1,0.6,0.2
		C205.4,4.8,205.4,5,205.4,5.2z M205.4,13c0,0.1,0,0.1,0,0.2c0,0-0.1,0.1-0.2,0.1h-0.9c-0.2,0-0.3-0.1-0.3-0.2V7.1
		c0-0.2,0.1-0.2,0.3-0.2h0.9c0.1,0,0.2,0,0.2,0.1c0,0,0,0.1,0,0.2V13z"/>
	<path d="M212.5,10c0,0.4,0,0.8-0.1,1.2c0,0.4-0.2,0.8-0.4,1.1c-0.2,0.3-0.5,0.6-0.9,0.8c-0.4,0.2-0.9,0.3-1.6,0.3
		c-0.6,0-1.2-0.1-1.5-0.3c-0.4-0.2-0.7-0.5-0.8-0.8c-0.2-0.3-0.3-0.7-0.3-1.1c0-0.4-0.1-0.8-0.1-1.2c0-0.3,0-0.6,0.1-1
		c0.1-0.4,0.2-0.7,0.4-1c0.2-0.3,0.5-0.6,0.8-0.8s0.9-0.3,1.5-0.3c0.6,0,1.1,0.1,1.5,0.3s0.7,0.4,0.9,0.7c0.2,0.3,0.3,0.7,0.4,1
		C212.4,9.2,212.5,9.6,212.5,10z M211,10.1c0-0.3,0-0.6-0.1-0.9c0-0.3-0.1-0.5-0.2-0.6c-0.1-0.2-0.2-0.3-0.4-0.4
		C210.2,8,209.9,8,209.6,8c-0.3,0-0.5,0-0.7,0.1c-0.2,0.1-0.3,0.2-0.4,0.4s-0.2,0.4-0.2,0.6c0,0.3-0.1,0.6-0.1,0.9
		c0,0.3,0,0.6,0.1,0.9c0,0.3,0.1,0.5,0.2,0.6c0.1,0.2,0.2,0.3,0.4,0.4c0.2,0.1,0.4,0.1,0.7,0.1c0.3,0,0.5,0,0.7-0.1
		c0.2-0.1,0.3-0.2,0.4-0.4c0.1-0.2,0.2-0.4,0.2-0.6C211,10.7,211,10.4,211,10.1z"/>
	<path d="M219.2,13.2c0,0-0.1,0.1-0.2,0.1h-0.9c-0.2,0-0.2-0.1-0.2-0.2l0-3.7c0-0.4-0.1-0.7-0.2-0.9c-0.1-0.2-0.4-0.4-0.7-0.4
		c-0.1,0-0.3,0-0.4,0.1s-0.3,0.1-0.5,0.2c-0.2,0.1-0.3,0.1-0.5,0.2s-0.3,0.1-0.4,0.2V13c0,0.2-0.1,0.2-0.2,0.2H214
		c-0.2,0-0.2-0.1-0.2-0.2V7.1c0-0.2,0.1-0.3,0.2-0.3h0.9c0.2,0,0.2,0.1,0.2,0.3v0.4c0,0,0,0,0,0c0,0,0,0,0,0
		c0.1-0.1,0.3-0.2,0.4-0.3c0.2-0.1,0.3-0.2,0.5-0.3s0.4-0.1,0.6-0.2c0.2,0,0.4-0.1,0.6-0.1c0.4,0,0.8,0.1,1,0.2
		c0.3,0.1,0.4,0.3,0.6,0.5c0.1,0.2,0.2,0.5,0.2,0.8c0,0.3,0.1,0.6,0.1,0.9V13C219.3,13.1,219.3,13.1,219.2,13.2z"/>
	<g>
		<rect x="49.4" y="18.2" width="0.3" height="0.5"/>
		<path d="M51.7,18.7h-0.5v-0.5h0.5V18.7z M50.7,18.7h-0.5v-0.5h0.5V18.7z"/>
		<path d="M221,18.7h-0.5v-0.5h0.5V18.7z M220,18.7h-0.5v-0.5h0.5V18.7z M219,18.7h-0.5v-0.5h0.5V18.7z M218,18.7h-0.5v-0.5h0.5
			V18.7z M217,18.7h-0.5v-0.5h0.5V18.7z M215.9,18.7h-0.5v-0.5h0.5V18.7z M214.9,18.7h-0.5v-0.5h0.5V18.7z M213.9,18.7h-0.5v-0.5
			h0.5V18.7z M212.9,18.7h-0.5v-0.5h0.5V18.7z M211.9,18.7h-0.5v-0.5h0.5V18.7z M210.9,18.7h-0.5v-0.5h0.5V18.7z M209.9,18.7h-0.5
			v-0.5h0.5V18.7z M208.9,18.7h-0.5v-0.5h0.5V18.7z M207.9,18.7h-0.5v-0.5h0.5V18.7z M206.9,18.7h-0.5v-0.5h0.5V18.7z M205.9,18.7
			h-0.5v-0.5h0.5V18.7z M204.9,18.7h-0.5v-0.5h0.5V18.7z M203.9,18.7h-0.5v-0.5h0.5V18.7z M202.8,18.7h-0.5v-0.5h0.5V18.7z
			 M201.8,18.7h-0.5v-0.5h0.5V18.7z M200.8,18.7h-0.5v-0.5h0.5V18.7z M199.8,18.7h-0.5v-0.5h0.5V18.7z M198.8,18.7h-0.5v-0.5h0.5
			V18.7z M197.8,18.7h-0.5v-0.5h0.5V18.7z M196.8,18.7h-0.5v-0.5h0.5V18.7z M195.8,18.7h-0.5v-0.5h0.5V18.7z M194.8,18.7h-0.5v-0.5
			h0.5V18.7z M193.8,18.7h-0.5v-0.5h0.5V18.7z M192.8,18.7h-0.5v-0.5h0.5V18.7z M191.8,18.7h-0.5v-0.5h0.5V18.7z M190.8,18.7h-0.5
			v-0.5h0.5V18.7z M189.7,18.7h-0.5v-0.5h0.5V18.7z M188.7,18.7h-0.5v-0.5h0.5V18.7z M187.7,18.7h-0.5v-0.5h0.5V18.7z M186.7,18.7
			h-0.5v-0.5h0.5V18.7z M185.7,18.7h-0.5v-0.5h0.5V18.7z M184.7,18.7h-0.5v-0.5h0.5V18.7z M183.7,18.7h-0.5v-0.5h0.5V18.7z
			 M182.7,18.7h-0.5v-0.5h0.5V18.7z M181.7,18.7h-0.5v-0.5h0.5V18.7z M180.7,18.7h-0.5v-0.5h0.5V18.7z M179.7,18.7h-0.5v-0.5h0.5
			V18.7z M178.7,18.7h-0.5v-0.5h0.5V18.7z M177.6,18.7h-0.5v-0.5h0.5V18.7z M176.6,18.7h-0.5v-0.5h0.5V18.7z M175.6,18.7h-0.5v-0.5
			h0.5V18.7z M174.6,18.7h-0.5v-0.5h0.5V18.7z M173.6,18.7h-0.5v-0.5h0.5V18.7z M172.6,18.7h-0.5v-0.5h0.5V18.7z M171.6,18.7h-0.5
			v-0.5h0.5V18.7z M170.6,18.7h-0.5v-0.5h0.5V18.7z M169.6,18.7h-0.5v-0.5h0.5V18.7z M168.6,18.7h-0.5v-0.5h0.5V18.7z M167.6,18.7
			h-0.5v-0.5h0.5V18.7z M166.6,18.7h-0.5v-0.5h0.5V18.7z M165.6,18.7h-0.5v-0.5h0.5V18.7z M164.5,18.7H164v-0.5h0.5V18.7z
			 M163.5,18.7H163v-0.5h0.5V18.7z M162.5,18.7H162v-0.5h0.5V18.7z M161.5,18.7H161v-0.5h0.5V18.7z M160.5,18.7H160v-0.5h0.5V18.7z
			 M159.5,18.7H159v-0.5h0.5V18.7z M158.5,18.7H158v-0.5h0.5V18.7z M157.5,18.7H157v-0.5h0.5V18.7z M156.5,18.7H156v-0.5h0.5V18.7z
			 M155.5,18.7H155v-0.5h0.5V18.7z M154.5,18.7H154v-0.5h0.5V18.7z M153.5,18.7H153v-0.5h0.5V18.7z M152.5,18.7h-0.5v-0.5h0.5V18.7z
			 M151.4,18.7h-0.5v-0.5h0.5V18.7z M150.4,18.7h-0.5v-0.5h0.5V18.7z M149.4,18.7h-0.5v-0.5h0.5V18.7z M148.4,18.7h-0.5v-0.5h0.5
			V18.7z M147.4,18.7h-0.5v-0.5h0.5V18.7z M146.4,18.7h-0.5v-0.5h0.5V18.7z M145.4,18.7h-0.5v-0.5h0.5V18.7z M144.4,18.7h-0.5v-0.5
			h0.5V18.7z M143.4,18.7h-0.5v-0.5h0.5V18.7z M142.4,18.7h-0.5v-0.5h0.5V18.7z M141.4,18.7h-0.5v-0.5h0.5V18.7z M140.4,18.7h-0.5
			v-0.5h0.5V18.7z M139.4,18.7h-0.5v-0.5h0.5V18.7z M138.3,18.7h-0.5v-0.5h0.5V18.7z M137.3,18.7h-0.5v-0.5h0.5V18.7z M136.3,18.7
			h-0.5v-0.5h0.5V18.7z M135.3,18.7h-0.5v-0.5h0.5V18.7z M134.3,18.7h-0.5v-0.5h0.5V18.7z M133.3,18.7h-0.5v-0.5h0.5V18.7z
			 M132.3,18.7h-0.5v-0.5h0.5V18.7z M131.3,18.7h-0.5v-0.5h0.5V18.7z M130.3,18.7h-0.5v-0.5h0.5V18.7z M129.3,18.7h-0.5v-0.5h0.5
			V18.7z M128.3,18.7h-0.5v-0.5h0.5V18.7z M127.3,18.7h-0.5v-0.5h0.5V18.7z M126.2,18.7h-0.5v-0.5h0.5V18.7z M125.2,18.7h-0.5v-0.5
			h0.5V18.7z M124.2,18.7h-0.5v-0.5h0.5V18.7z M123.2,18.7h-0.5v-0.5h0.5V18.7z M122.2,18.7h-0.5v-0.5h0.5V18.7z M121.2,18.7h-0.5
			v-0.5h0.5V18.7z M120.2,18.7h-0.5v-0.5h0.5V18.7z M119.2,18.7h-0.5v-0.5h0.5V18.7z M118.2,18.7h-0.5v-0.5h0.5V18.7z M117.2,18.7
			h-0.5v-0.5h0.5V18.7z M116.2,18.7h-0.5v-0.5h0.5V18.7z M115.2,18.7h-0.5v-0.5h0.5V18.7z M114.2,18.7h-0.5v-0.5h0.5V18.7z
			 M113.1,18.7h-0.5v-0.5h0.5V18.7z M112.1,18.7h-0.5v-0.5h0.5V18.7z M111.1,18.7h-0.5v-0.5h0.5V18.7z M110.1,18.7h-0.5v-0.5h0.5
			V18.7z M109.1,18.7h-0.5v-0.5h0.5V18.7z M108.1,18.7h-0.5v-0.5h0.5V18.7z M107.1,18.7h-0.5v-0.5h0.5V18.7z M106.1,18.7h-0.5v-0.5
			h0.5V18.7z M105.1,18.7h-0.5v-0.5h0.5V18.7z M104.1,18.7h-0.5v-0.5h0.5V18.7z M103.1,18.7h-0.5v-0.5h0.5V18.7z M102.1,18.7h-0.5
			v-0.5h0.5V18.7z M101.1,18.7h-0.5v-0.5h0.5V18.7z M100,18.7h-0.5v-0.5h0.5V18.7z M99,18.7h-0.5v-0.5H99V18.7z M98,18.7h-0.5v-0.5
			H98V18.7z M97,18.7h-0.5v-0.5H97V18.7z M96,18.7h-0.5v-0.5H96V18.7z M95,18.7h-0.5v-0.5H95V18.7z M94,18.7h-0.5v-0.5H94V18.7z
			 M93,18.7h-0.5v-0.5H93V18.7z M92,18.7h-0.5v-0.5H92V18.7z M91,18.7h-0.5v-0.5H91V18.7z M90,18.7h-0.5v-0.5H90V18.7z M89,18.7
			h-0.5v-0.5H89V18.7z M88,18.7h-0.5v-0.5H88V18.7z M86.9,18.7h-0.5v-0.5h0.5V18.7z M85.9,18.7h-0.5v-0.5h0.5V18.7z M84.9,18.7h-0.5
			v-0.5h0.5V18.7z M83.9,18.7h-0.5v-0.5h0.5V18.7z M82.9,18.7h-0.5v-0.5h0.5V18.7z M81.9,18.7h-0.5v-0.5h0.5V18.7z M80.9,18.7h-0.5
			v-0.5h0.5V18.7z M79.9,18.7h-0.5v-0.5h0.5V18.7z M78.9,18.7h-0.5v-0.5h0.5V18.7z M77.9,18.7h-0.5v-0.5h0.5V18.7z M76.9,18.7h-0.5
			v-0.5h0.5V18.7z M75.9,18.7h-0.5v-0.5h0.5V18.7z M74.9,18.7h-0.5v-0.5h0.5V18.7z M73.8,18.7h-0.5v-0.5h0.5V18.7z M72.8,18.7h-0.5
			v-0.5h0.5V18.7z M71.8,18.7h-0.5v-0.5h0.5V18.7z M70.8,18.7h-0.5v-0.5h0.5V18.7z M69.8,18.7h-0.5v-0.5h0.5V18.7z M68.8,18.7h-0.5
			v-0.5h0.5V18.7z M67.8,18.7h-0.5v-0.5h0.5V18.7z M66.8,18.7h-0.5v-0.5h0.5V18.7z M65.8,18.7h-0.5v-0.5h0.5V18.7z M64.8,18.7h-0.5
			v-0.5h0.5V18.7z M63.8,18.7h-0.5v-0.5h0.5V18.7z M62.8,18.7h-0.5v-0.5h0.5V18.7z M61.7,18.7h-0.5v-0.5h0.5V18.7z M60.7,18.7h-0.5
			v-0.5h0.5V18.7z M59.7,18.7h-0.5v-0.5h0.5V18.7z M58.7,18.7h-0.5v-0.5h0.5V18.7z M57.7,18.7h-0.5v-0.5h0.5V18.7z M56.7,18.7h-0.5
			v-0.5h0.5V18.7z M55.7,18.7h-0.5v-0.5h0.5V18.7z M54.7,18.7h-0.5v-0.5h0.5V18.7z M53.7,18.7h-0.5v-0.5h0.5V18.7z M52.7,18.7h-0.5
			v-0.5h0.5V18.7z"/>
		<rect x="221.5" y="18.2" width="0.2" height="0.5"/>
	</g>
	<g>
		<path d="M53.1,21.7c0.1,0,0.3,0,0.4,0c0.2,0,0.4,0,0.6,0c0.2,0,0.4,0.1,0.6,0.1c0.2,0,0.4,0.1,0.5,0.2c0.1,0,0.1,0.1,0.2,0.1
			s0,0.1,0,0.1l-0.1,0.3c0,0,0,0.1-0.1,0.1c0,0-0.1,0-0.2,0c-0.3,0-0.6-0.1-0.9-0.1s-0.7-0.1-1.1-0.1c-0.5,0-0.8,0.1-1.1,0.3
			s-0.5,0.4-0.6,0.7s-0.2,0.6-0.3,1c0,0.4-0.1,0.8-0.1,1.3c0,0.4,0,0.8,0.1,1.2c0,0.4,0.1,0.7,0.3,1s0.4,0.5,0.6,0.7
			s0.6,0.3,1.1,0.3c0.4,0,0.7,0,1.1-0.1c0.3,0,0.6-0.1,0.9-0.1c0.1,0,0.1,0,0.2,0c0,0,0,0.1,0.1,0.1l0.1,0.3c0,0.1,0,0.1,0,0.2
			s-0.1,0.1-0.1,0.1c-0.1,0.1-0.3,0.1-0.5,0.2c-0.2,0-0.4,0.1-0.6,0.1c-0.2,0-0.4,0-0.6,0.1c-0.2,0-0.3,0-0.5,0
			c-0.6,0-1.1-0.1-1.5-0.3c-0.4-0.2-0.7-0.5-0.9-0.9s-0.4-0.8-0.5-1.3c-0.1-0.5-0.1-1-0.1-1.5c0-0.5,0-1,0.1-1.5
			c0.1-0.5,0.2-0.9,0.4-1.3c0.2-0.4,0.5-0.7,0.9-0.9C51.9,21.8,52.4,21.7,53.1,21.7z"/>
		<path d="M61.2,26.7c0,0.4,0,0.7-0.1,1.1s-0.1,0.7-0.3,1c-0.2,0.3-0.4,0.6-0.8,0.7c-0.3,0.2-0.8,0.3-1.4,0.3c-0.6,0-1-0.1-1.4-0.3
			c-0.3-0.2-0.6-0.4-0.7-0.7c-0.2-0.3-0.3-0.6-0.3-1s-0.1-0.7-0.1-1.1c0-0.3,0-0.6,0.1-0.9c0-0.3,0.2-0.7,0.3-1
			c0.2-0.3,0.4-0.5,0.7-0.7s0.8-0.3,1.3-0.3c0.6,0,1,0.1,1.3,0.3s0.6,0.4,0.8,0.7c0.2,0.3,0.3,0.6,0.3,0.9
			C61.2,26,61.2,26.3,61.2,26.7z M60.2,26.8c0-0.4,0-0.7-0.1-1c0-0.3-0.1-0.5-0.2-0.7s-0.3-0.3-0.5-0.4c-0.2-0.1-0.5-0.1-0.8-0.1
			c-0.3,0-0.6,0-0.8,0.1c-0.2,0.1-0.3,0.2-0.5,0.4c-0.1,0.2-0.2,0.4-0.2,0.7c0,0.3-0.1,0.6-0.1,1s0,0.7,0.1,1s0.1,0.5,0.2,0.7
			c0.1,0.2,0.3,0.3,0.5,0.4c0.2,0.1,0.4,0.1,0.8,0.1c0.3,0,0.6,0,0.8-0.1c0.2-0.1,0.4-0.2,0.5-0.4c0.1-0.2,0.2-0.4,0.2-0.7
			C60.2,27.5,60.2,27.1,60.2,26.8z"/>
		<path d="M66.9,29.7h-0.5c-0.1,0-0.2-0.1-0.2-0.2l0-3.6c0-0.3,0-0.5,0-0.7c0-0.2-0.1-0.3-0.2-0.4c-0.1-0.1-0.2-0.2-0.3-0.2
			s-0.3-0.1-0.5-0.1c-0.1,0-0.3,0-0.5,0.1c-0.2,0.1-0.4,0.1-0.6,0.2s-0.4,0.1-0.5,0.2c-0.2,0.1-0.3,0.1-0.4,0.2v4.3
			c0,0.1-0.1,0.2-0.2,0.2h-0.5c-0.1,0-0.2-0.1-0.2-0.2v-5.4c0-0.1,0.1-0.2,0.2-0.2h0.5c0.1,0,0.1,0,0.2,0s0.1,0.1,0.1,0.2v0.4l0,0
			c0.1-0.1,0.2-0.1,0.4-0.2c0.2-0.1,0.3-0.2,0.5-0.2c0.2-0.1,0.4-0.1,0.6-0.2c0.2-0.1,0.4-0.1,0.6-0.1c0.4,0,0.7,0.1,0.9,0.2
			c0.2,0.1,0.4,0.3,0.5,0.5c0.1,0.2,0.2,0.4,0.2,0.7c0,0.3,0.1,0.6,0.1,0.9v3.5C67.2,29.6,67.1,29.7,66.9,29.7z"/>
		<path d="M73,29.7h-0.5c-0.1,0-0.2-0.1-0.2-0.2l0-3.6c0-0.3,0-0.5,0-0.7c0-0.2-0.1-0.3-0.2-0.4c-0.1-0.1-0.2-0.2-0.3-0.2
			s-0.3-0.1-0.5-0.1c-0.1,0-0.3,0-0.5,0.1c-0.2,0.1-0.4,0.1-0.6,0.2s-0.4,0.1-0.5,0.2c-0.2,0.1-0.3,0.1-0.4,0.2v4.3
			c0,0.1-0.1,0.2-0.2,0.2h-0.5c-0.1,0-0.2-0.1-0.2-0.2v-5.4c0-0.1,0.1-0.2,0.2-0.2h0.5c0.1,0,0.1,0,0.2,0s0.1,0.1,0.1,0.2v0.4l0,0
			c0.1-0.1,0.2-0.1,0.4-0.2c0.2-0.1,0.3-0.2,0.5-0.2c0.2-0.1,0.4-0.1,0.6-0.2c0.2-0.1,0.4-0.1,0.6-0.1c0.4,0,0.7,0.1,0.9,0.2
			c0.2,0.1,0.4,0.3,0.5,0.5c0.1,0.2,0.2,0.4,0.2,0.7c0,0.3,0.1,0.6,0.1,0.9v3.5C73.2,29.6,73.1,29.7,73,29.7z"/>
		<path d="M79.3,26.4c0,0.2,0,0.4-0.1,0.5s-0.2,0.2-0.4,0.2h-3.4c0,0.4,0,0.7,0.1,0.9c0.1,0.2,0.1,0.4,0.3,0.6
			c0.1,0.1,0.3,0.3,0.5,0.3s0.4,0.1,0.7,0.1c0.1,0,0.3,0,0.4,0c0.2,0,0.3,0,0.5,0s0.3,0,0.4,0c0.1,0,0.3,0,0.4,0c0.1,0,0.1,0,0.2,0
			c0,0,0.1,0.1,0.1,0.1l0,0.3c0,0.1,0,0.2-0.1,0.2c-0.1,0-0.2,0.1-0.4,0.1s-0.3,0.1-0.5,0.1c-0.2,0-0.4,0-0.5,0.1
			c-0.2,0-0.3,0-0.5,0c-0.6,0-1-0.1-1.3-0.3c-0.3-0.2-0.6-0.4-0.7-0.7s-0.3-0.6-0.3-1s-0.1-0.7-0.1-1.1c0-0.3,0-0.6,0.1-1
			c0-0.4,0.2-0.7,0.3-1c0.2-0.3,0.4-0.6,0.7-0.8c0.3-0.2,0.8-0.3,1.3-0.3c0.5,0,0.9,0.1,1.2,0.2c0.3,0.2,0.6,0.4,0.7,0.6
			c0.2,0.2,0.3,0.5,0.3,0.9S79.2,26.1,79.3,26.4z M78.3,26.3c0-0.2,0-0.4-0.1-0.6c0-0.2-0.1-0.4-0.2-0.6s-0.3-0.3-0.4-0.4
			c-0.2-0.1-0.4-0.2-0.8-0.2c-0.3,0-0.5,0-0.7,0.1c-0.2,0.1-0.3,0.2-0.4,0.4c-0.1,0.2-0.2,0.3-0.3,0.6s-0.1,0.5-0.1,0.7H78.3z"/>
		<path d="M84.5,29.5c-0.2,0.1-0.5,0.2-0.8,0.2c-0.3,0-0.7,0.1-1,0.1c-0.5,0-1-0.1-1.3-0.2c-0.3-0.2-0.6-0.4-0.7-0.7
			c-0.2-0.3-0.3-0.6-0.3-1c-0.1-0.4-0.1-0.8-0.1-1.2c0-0.4,0-0.8,0.1-1.1c0.1-0.4,0.2-0.7,0.3-1c0.2-0.3,0.4-0.5,0.7-0.7
			s0.7-0.3,1.3-0.3c0.1,0,0.3,0,0.4,0c0.2,0,0.3,0,0.5,0s0.3,0,0.5,0.1c0.2,0,0.3,0.1,0.4,0.1c0.1,0,0.1,0.1,0.1,0.1
			c0,0,0,0.1,0,0.1l0,0.3c0,0.1-0.1,0.1-0.1,0.1c-0.1,0-0.1,0-0.2,0c-0.2,0-0.5,0-0.8-0.1c-0.3,0-0.6,0-0.8,0c-0.3,0-0.5,0-0.7,0.1
			s-0.3,0.2-0.4,0.4s-0.2,0.4-0.2,0.7c0,0.3-0.1,0.6-0.1,1c0,0.4,0,0.8,0.1,1.1c0,0.3,0.1,0.5,0.2,0.7c0.1,0.2,0.3,0.3,0.4,0.4
			s0.4,0.1,0.7,0.1c0.1,0,0.2,0,0.4,0s0.3,0,0.4,0c0.1,0,0.3,0,0.4,0c0.2,0,0.3,0,0.4,0c0.1,0,0.1,0,0.2,0s0.1,0.1,0.1,0.1l0,0.3
			C84.6,29.4,84.6,29.5,84.5,29.5z"/>
		<path d="M88.7,29.3c0,0.1,0,0.2-0.1,0.2c-0.1,0-0.2,0.1-0.3,0.1c-0.1,0-0.2,0.1-0.4,0.1c-0.1,0-0.3,0-0.4,0c-0.1,0-0.2,0-0.3,0
			c-0.3,0-0.5,0-0.6-0.1c-0.2-0.1-0.3-0.1-0.4-0.3s-0.2-0.2-0.2-0.4S86,28.7,86,28.5v-3.9h-0.7c-0.1,0-0.2-0.1-0.2-0.2v-0.3
			c0-0.1,0.1-0.2,0.2-0.2H86v-1.3c0-0.1,0-0.1,0.1-0.2c0,0,0.1-0.1,0.2-0.1l0.5-0.1c0.1,0,0.2,0,0.2,0.2v1.5h1.3
			c0.1,0,0.1,0,0.2,0.1c0,0,0,0.1,0,0.1v0.3c0,0.1,0,0.1,0,0.2c0,0-0.1,0-0.2,0h-1.3v3.6c0,0.1,0,0.3,0,0.3s0.1,0.2,0.1,0.2
			c0.1,0.1,0.1,0.1,0.3,0.1c0.1,0,0.3,0,0.4,0c0.1,0,0.2,0,0.3,0c0.2,0,0.3,0,0.4,0c0.1,0,0.2,0,0.2,0c0,0,0.1,0.1,0.1,0.1
			L88.7,29.3z"/>
		<path d="M90.6,22.3c0,0.2,0,0.3-0.1,0.4c-0.1,0.1-0.2,0.2-0.4,0.2c-0.2,0-0.4-0.1-0.4-0.2c-0.1-0.1-0.1-0.2-0.1-0.4
			c0-0.2,0-0.3,0.1-0.4c0.1-0.1,0.2-0.1,0.4-0.1c0.2,0,0.4,0,0.4,0.1C90.5,22,90.6,22.1,90.6,22.3z M90.5,29.5
			c0,0.1-0.1,0.2-0.2,0.2h-0.5c-0.1,0-0.2-0.1-0.2-0.2v-5.4c0-0.1,0-0.1,0.1-0.2c0,0,0.1,0,0.2,0h0.5c0.1,0,0.2,0.1,0.2,0.2V29.5z"
			/>
		<path d="M96.6,29.7h-0.5c-0.1,0-0.2-0.1-0.2-0.2l0-3.6c0-0.3,0-0.5,0-0.7c0-0.2-0.1-0.3-0.2-0.4c-0.1-0.1-0.2-0.2-0.3-0.2
			s-0.3-0.1-0.5-0.1c-0.1,0-0.3,0-0.5,0.1c-0.2,0.1-0.4,0.1-0.6,0.2s-0.4,0.1-0.5,0.2c-0.2,0.1-0.3,0.1-0.4,0.2v4.3
			c0,0.1-0.1,0.2-0.2,0.2h-0.5c-0.1,0-0.2-0.1-0.2-0.2v-5.4c0-0.1,0.1-0.2,0.2-0.2h0.5c0.1,0,0.1,0,0.2,0s0.1,0.1,0.1,0.2v0.4l0,0
			c0.1-0.1,0.2-0.1,0.4-0.2c0.2-0.1,0.3-0.2,0.5-0.2c0.2-0.1,0.4-0.1,0.6-0.2c0.2-0.1,0.4-0.1,0.6-0.1c0.4,0,0.7,0.1,0.9,0.2
			c0.2,0.1,0.4,0.3,0.5,0.5c0.1,0.2,0.2,0.4,0.2,0.7c0,0.3,0.1,0.6,0.1,0.9v3.5C96.8,29.6,96.7,29.7,96.6,29.7z"/>
		<path d="M100.5,23.7c0.2,0,0.4,0,0.6,0c0.2,0,0.4,0,0.6,0.1c0.2,0,0.4,0.1,0.6,0.1c0.2,0,0.3,0.1,0.5,0.1c0.1,0,0.2,0.1,0.3,0.2
			c0,0.1,0,0.2,0,0.3v5.2c0,0.3,0,0.6-0.1,0.9c0,0.3-0.2,0.5-0.3,0.7c-0.2,0.2-0.4,0.3-0.7,0.5c-0.3,0.1-0.7,0.2-1.2,0.2
			c-0.2,0-0.3,0-0.5,0c-0.2,0-0.4,0-0.5,0c-0.2,0-0.3,0-0.5-0.1c-0.2,0-0.3-0.1-0.4-0.1c-0.1,0-0.1-0.1-0.1-0.1s0-0.1,0-0.1l0-0.3
			c0-0.1,0-0.1,0.1-0.1c0,0,0.1,0,0.2,0c0.3,0,0.5,0.1,0.9,0.1c0.3,0,0.6,0,0.8,0c0.3,0,0.5,0,0.7-0.1c0.2,0,0.3-0.1,0.4-0.2
			s0.2-0.2,0.2-0.4s0.1-0.3,0.1-0.5v-0.5c-0.4,0.1-0.7,0.2-1,0.3c-0.3,0.1-0.5,0.1-0.7,0.1c-0.5,0-0.8-0.1-1.1-0.2
			c-0.3-0.1-0.5-0.3-0.7-0.6c-0.2-0.3-0.3-0.6-0.4-0.9C98,27.7,98,27.3,98,26.8c0-0.5,0-0.9,0.1-1.3s0.2-0.7,0.4-1s0.4-0.5,0.8-0.6
			C99.6,23.8,100,23.7,100.5,23.7z M99,26.7c0,0.4,0,0.8,0.1,1.1s0.1,0.5,0.2,0.7c0.1,0.2,0.2,0.3,0.4,0.4s0.4,0.1,0.6,0.1
			c0.2,0,0.5,0,0.8-0.1s0.6-0.1,0.9-0.2v-4c-0.2,0-0.5-0.1-0.8-0.1s-0.5,0-0.8,0c-0.2,0-0.4,0-0.6,0.1s-0.4,0.1-0.5,0.3
			c-0.1,0.1-0.2,0.4-0.3,0.6S99,26.2,99,26.7z"/>
		<path d="M112.3,29.7c0,0-0.1,0-0.2,0h-4.2c-0.1,0-0.2-0.1-0.2-0.2V22c0-0.1,0.1-0.2,0.2-0.2h4.1c0.1,0,0.2,0.1,0.2,0.2v0.5
			c0,0.1-0.1,0.2-0.2,0.2h-3.4v2.5h3.1c0.1,0,0.2,0.1,0.2,0.2v0.5c0,0.1-0.1,0.2-0.2,0.2h-3.1v2.9h3.5c0.1,0,0.2,0.1,0.2,0.2v0.5
			C112.3,29.6,112.3,29.7,112.3,29.7z"/>
		<path d="M118.1,29.7h-0.5c-0.1,0-0.2-0.1-0.2-0.2v-0.4l0,0c-0.1,0.1-0.2,0.1-0.4,0.2c-0.2,0.1-0.3,0.2-0.5,0.2
			c-0.2,0.1-0.4,0.1-0.6,0.2s-0.4,0.1-0.6,0.1c-0.4,0-0.7-0.1-0.9-0.2c-0.2-0.1-0.4-0.3-0.5-0.5c-0.1-0.2-0.2-0.4-0.2-0.7
			c0-0.3-0.1-0.6-0.1-0.9v-3.5c0-0.1,0.1-0.2,0.2-0.2h0.5c0.1,0,0.2,0.1,0.2,0.2v3.6c0,0.3,0,0.5,0,0.7c0,0.2,0.1,0.3,0.2,0.4
			s0.2,0.2,0.3,0.2s0.3,0.1,0.5,0.1c0.1,0,0.3,0,0.5-0.1c0.2-0.1,0.4-0.1,0.6-0.2c0.2-0.1,0.4-0.1,0.5-0.2c0.2-0.1,0.3-0.1,0.4-0.2
			v-4.2c0-0.1,0.1-0.2,0.2-0.2h0.5c0.1,0,0.2,0.1,0.2,0.2v5.4C118.3,29.7,118.3,29.7,118.1,29.7z"/>
		<path d="M122.8,24.7c-0.2,0-0.3,0.1-0.5,0.1c-0.2,0.1-0.4,0.1-0.6,0.2c-0.2,0.1-0.3,0.1-0.5,0.2s-0.3,0.1-0.3,0.1v4.2
			c0,0.1-0.1,0.2-0.2,0.2h-0.5c-0.1,0-0.2-0.1-0.2-0.2v-5.4c0-0.1,0.1-0.2,0.2-0.2h0.5c0.1,0,0.2,0.1,0.2,0.2v0.5l0,0
			c0.1-0.1,0.2-0.1,0.3-0.2s0.3-0.2,0.5-0.2c0.2-0.1,0.3-0.1,0.5-0.2c0.2-0.1,0.3-0.1,0.5-0.1c0.1,0,0.1,0,0.1,0c0,0,0,0.1,0.1,0.1
			l0,0.5C123,24.6,122.9,24.7,122.8,24.7z"/>
		<path d="M128.4,26.7c0,0.4,0,0.7-0.1,1.1s-0.1,0.7-0.3,1c-0.2,0.3-0.4,0.6-0.8,0.7c-0.3,0.2-0.8,0.3-1.4,0.3c-0.6,0-1-0.1-1.4-0.3
			c-0.3-0.2-0.6-0.4-0.7-0.7c-0.2-0.3-0.3-0.6-0.3-1s-0.1-0.7-0.1-1.1c0-0.3,0-0.6,0.1-0.9c0-0.3,0.2-0.7,0.3-1
			c0.2-0.3,0.4-0.5,0.7-0.7s0.8-0.3,1.3-0.3c0.6,0,1,0.1,1.3,0.3s0.6,0.4,0.8,0.7c0.2,0.3,0.3,0.6,0.3,0.9
			C128.4,26,128.4,26.3,128.4,26.7z M127.5,26.8c0-0.4,0-0.7-0.1-1c0-0.3-0.1-0.5-0.2-0.7s-0.3-0.3-0.5-0.4
			c-0.2-0.1-0.5-0.1-0.8-0.1c-0.3,0-0.6,0-0.8,0.1c-0.2,0.1-0.3,0.2-0.5,0.4c-0.1,0.2-0.2,0.4-0.2,0.7c0,0.3-0.1,0.6-0.1,1
			s0,0.7,0.1,1s0.1,0.5,0.2,0.7c0.1,0.2,0.3,0.3,0.5,0.4c0.2,0.1,0.4,0.1,0.8,0.1c0.3,0,0.6,0,0.8-0.1c0.2-0.1,0.4-0.2,0.5-0.4
			c0.1-0.2,0.2-0.4,0.2-0.7C127.5,27.5,127.5,27.1,127.5,26.8z"/>
		<path d="M134.6,26.7c0,0.5,0,0.9-0.1,1.3c-0.1,0.4-0.2,0.7-0.4,1s-0.4,0.5-0.7,0.6c-0.3,0.1-0.7,0.2-1.1,0.2c-0.2,0-0.5,0-0.8-0.1
			c-0.3,0-0.6-0.1-0.9-0.3l0,0v2.1c0,0.1,0,0.1,0,0.2c0,0-0.1,0.1-0.2,0.1h-0.5c-0.1,0-0.1,0-0.2,0c0,0,0-0.1,0-0.2v-7.5
			c0-0.1,0.1-0.2,0.2-0.2h0.5c0.1,0,0.2,0.1,0.2,0.2v0.4l0,0c0.1-0.1,0.2-0.1,0.4-0.2s0.3-0.2,0.5-0.2s0.4-0.1,0.6-0.2
			c0.2-0.1,0.4-0.1,0.6-0.1c0.4,0,0.7,0.1,0.9,0.2c0.3,0.1,0.5,0.3,0.6,0.6c0.1,0.3,0.3,0.6,0.3,0.9S134.6,26.3,134.6,26.7z
			 M133.6,26.7c0-0.5,0-0.8-0.1-1.1c0-0.3-0.1-0.5-0.2-0.6c-0.1-0.2-0.2-0.3-0.3-0.3c-0.1,0-0.3-0.1-0.5-0.1c-0.1,0-0.3,0-0.5,0.1
			c-0.2,0-0.4,0.1-0.6,0.2c-0.2,0.1-0.4,0.1-0.5,0.2c-0.2,0.1-0.3,0.1-0.4,0.2v3.5c0.3,0.1,0.6,0.2,0.9,0.2c0.3,0,0.5,0.1,0.8,0.1
			c0.3,0,0.5,0,0.6-0.1c0.2-0.1,0.3-0.2,0.4-0.4c0.1-0.2,0.2-0.4,0.2-0.7S133.6,27.1,133.6,26.7z"/>
		<path d="M140.4,26.4c0,0.2,0,0.4-0.1,0.5s-0.2,0.2-0.4,0.2h-3.4c0,0.4,0,0.7,0.1,0.9c0.1,0.2,0.1,0.4,0.3,0.6
			c0.1,0.1,0.3,0.3,0.5,0.3s0.4,0.1,0.7,0.1c0.1,0,0.3,0,0.4,0c0.2,0,0.3,0,0.5,0s0.3,0,0.4,0c0.1,0,0.3,0,0.4,0c0.1,0,0.1,0,0.2,0
			c0,0,0.1,0.1,0.1,0.1l0,0.3c0,0.1,0,0.2-0.1,0.2c-0.1,0-0.2,0.1-0.4,0.1s-0.3,0.1-0.5,0.1c-0.2,0-0.4,0-0.5,0.1
			c-0.2,0-0.3,0-0.5,0c-0.6,0-1-0.1-1.3-0.3c-0.3-0.2-0.6-0.4-0.7-0.7s-0.3-0.6-0.3-1s-0.1-0.7-0.1-1.1c0-0.3,0-0.6,0.1-1
			c0-0.4,0.2-0.7,0.3-1c0.2-0.3,0.4-0.6,0.7-0.8c0.3-0.2,0.8-0.3,1.3-0.3c0.5,0,0.9,0.1,1.2,0.2c0.3,0.2,0.6,0.4,0.7,0.6
			c0.2,0.2,0.3,0.5,0.3,0.9S140.3,26.1,140.4,26.4z M139.4,26.3c0-0.2,0-0.4-0.1-0.6c0-0.2-0.1-0.4-0.2-0.6s-0.3-0.3-0.4-0.4
			c-0.2-0.1-0.4-0.2-0.8-0.2c-0.3,0-0.5,0-0.7,0.1c-0.2,0.1-0.3,0.2-0.4,0.4c-0.1,0.2-0.2,0.3-0.3,0.6s-0.1,0.5-0.1,0.7H139.4z"/>
		<path d="M145.2,21.8h4.1c0.1,0,0.2,0.1,0.2,0.2v0.5c0,0.1-0.1,0.2-0.2,0.2h-3.3v2.5h3c0.1,0,0.2,0.1,0.2,0.2v0.5
			c0,0.1-0.1,0.2-0.2,0.2h-2.9v3.5c0,0.1-0.1,0.2-0.2,0.2h-0.5c-0.1,0-0.2-0.1-0.2-0.2v-7.6C145,21.8,145.1,21.8,145.2,21.8z"/>
		<path d="M153.9,29.1c-0.3,0.2-0.6,0.3-1,0.5c-0.4,0.2-0.8,0.2-1.3,0.2c-0.6,0-1-0.1-1.2-0.4s-0.4-0.7-0.4-1.2
			c0-0.7,0.2-1.2,0.5-1.5c0.3-0.3,0.9-0.5,1.7-0.5h1.7v-0.4c0-0.4-0.1-0.7-0.3-0.9s-0.6-0.3-1.1-0.3c-0.1,0-0.2,0-0.4,0
			c-0.1,0-0.3,0-0.4,0s-0.3,0-0.5,0c-0.2,0-0.3,0-0.4,0c-0.1,0-0.2,0-0.2-0.1l-0.1-0.3c0-0.1,0-0.1,0-0.1s0.1-0.1,0.2-0.1
			c0.1,0,0.3-0.1,0.4-0.1s0.3-0.1,0.5-0.1c0.2,0,0.4,0,0.5,0s0.3,0,0.5,0c0.5,0,0.9,0.1,1.1,0.2c0.3,0.1,0.5,0.2,0.6,0.4
			c0.1,0.2,0.2,0.4,0.3,0.7c0,0.3,0.1,0.6,0.1,0.9v2.7c0,0.1,0,0.2,0,0.3c0,0.1,0,0.1,0.1,0.1c0,0,0.1,0.1,0.1,0.1
			c0.1,0,0.1,0,0.2,0c0.1,0,0.2,0.1,0.2,0.2v0.3c0,0.1,0,0.1,0,0.1c0,0-0.1,0.1-0.2,0.1c-0.1,0-0.3,0-0.4,0c-0.3,0-0.5-0.1-0.6-0.2
			C154,29.5,153.9,29.3,153.9,29.1L153.9,29.1z M153.9,26.9h-1.8c-0.4,0-0.7,0.1-0.9,0.3c-0.2,0.2-0.3,0.5-0.3,1
			c0,0.3,0.1,0.6,0.2,0.7c0.1,0.1,0.4,0.2,0.7,0.2c0.2,0,0.3,0,0.5-0.1s0.4-0.1,0.5-0.2s0.4-0.1,0.5-0.2c0.2-0.1,0.3-0.2,0.5-0.2
			V26.9z"/>
		<path d="M160.4,29.5c-0.2,0.1-0.5,0.2-0.8,0.2s-0.7,0.1-1,0.1c-0.5,0-1-0.1-1.3-0.2c-0.3-0.2-0.6-0.4-0.7-0.7
			c-0.2-0.3-0.3-0.6-0.3-1c-0.1-0.4-0.1-0.8-0.1-1.2c0-0.4,0-0.8,0.1-1.1c0.1-0.4,0.2-0.7,0.3-1c0.2-0.3,0.4-0.5,0.7-0.7
			c0.3-0.2,0.7-0.3,1.3-0.3c0.1,0,0.3,0,0.4,0s0.3,0,0.5,0c0.2,0,0.3,0,0.5,0.1c0.2,0,0.3,0.1,0.4,0.1c0.1,0,0.1,0.1,0.1,0.1
			c0,0,0,0.1,0,0.1l0,0.3c0,0.1-0.1,0.1-0.1,0.1c-0.1,0-0.1,0-0.2,0c-0.2,0-0.5,0-0.8-0.1c-0.3,0-0.6,0-0.8,0c-0.3,0-0.5,0-0.7,0.1
			s-0.3,0.2-0.4,0.4c-0.1,0.2-0.2,0.4-0.2,0.7c0,0.3-0.1,0.6-0.1,1c0,0.4,0,0.8,0.1,1.1c0,0.3,0.1,0.5,0.2,0.7
			c0.1,0.2,0.3,0.3,0.4,0.4c0.2,0.1,0.4,0.1,0.7,0.1c0.1,0,0.2,0,0.4,0c0.1,0,0.3,0,0.4,0c0.1,0,0.3,0,0.5,0c0.2,0,0.3,0,0.4,0
			c0.1,0,0.1,0,0.2,0s0.1,0.1,0.1,0.1l0,0.3C160.5,29.4,160.5,29.5,160.4,29.5z"/>
		<path d="M162.6,22.3c0,0.2,0,0.3-0.1,0.4c-0.1,0.1-0.2,0.2-0.4,0.2c-0.2,0-0.4-0.1-0.4-0.2c-0.1-0.1-0.1-0.2-0.1-0.4
			c0-0.2,0-0.3,0.1-0.4c0.1-0.1,0.2-0.1,0.4-0.1c0.2,0,0.4,0,0.4,0.1C162.5,22,162.6,22.1,162.6,22.3z M162.5,29.5
			c0,0.1-0.1,0.2-0.2,0.2h-0.5c-0.1,0-0.2-0.1-0.2-0.2v-5.4c0-0.1,0-0.1,0.1-0.2c0,0,0.1,0,0.2,0h0.5c0.1,0,0.2,0.1,0.2,0.2V29.5z"
			/>
		<path d="M166,29.4c0,0.1,0,0.2-0.1,0.2c-0.1,0-0.2,0.1-0.3,0.1c-0.1,0-0.2,0-0.3,0c-0.2,0-0.4,0-0.5-0.1c-0.1,0-0.2-0.1-0.3-0.2
			s-0.1-0.2-0.2-0.3c0-0.1,0-0.3,0-0.4v-7.3c0-0.1,0.1-0.2,0.2-0.2h0.5c0.1,0,0.1,0,0.2,0s0.1,0.1,0.1,0.2v7c0,0.2,0,0.3,0.1,0.4
			c0.1,0,0.2,0.1,0.5,0.1c0.1,0,0.2,0,0.2,0.1L166,29.4z"/>
		<path d="M168.1,22.3c0,0.2,0,0.3-0.1,0.4c-0.1,0.1-0.2,0.2-0.4,0.2c-0.2,0-0.4-0.1-0.4-0.2c-0.1-0.1-0.1-0.2-0.1-0.4
			c0-0.2,0-0.3,0.1-0.4c0.1-0.1,0.2-0.1,0.4-0.1c0.2,0,0.4,0,0.4,0.1C168.1,22,168.1,22.1,168.1,22.3z M168,29.5
			c0,0.1-0.1,0.2-0.2,0.2h-0.5c-0.1,0-0.2-0.1-0.2-0.2v-5.4c0-0.1,0-0.1,0.1-0.2c0,0,0.1,0,0.2,0h0.5c0.1,0,0.2,0.1,0.2,0.2V29.5z"
			/>
		<path d="M172.8,29.3c0,0.1,0,0.2-0.1,0.2c-0.1,0-0.2,0.1-0.3,0.1c-0.1,0-0.2,0.1-0.4,0.1c-0.1,0-0.3,0-0.4,0c-0.1,0-0.2,0-0.3,0
			c-0.3,0-0.5,0-0.6-0.1c-0.2-0.1-0.3-0.1-0.4-0.3s-0.2-0.2-0.2-0.4s-0.1-0.3-0.1-0.5v-3.9h-0.7c-0.1,0-0.2-0.1-0.2-0.2v-0.3
			c0-0.1,0.1-0.2,0.2-0.2h0.7v-1.3c0-0.1,0-0.1,0.1-0.2c0,0,0.1-0.1,0.2-0.1l0.5-0.1c0.1,0,0.2,0,0.2,0.2v1.5h1.3
			c0.1,0,0.1,0,0.2,0.1c0,0,0,0.1,0,0.1v0.3c0,0.1,0,0.1,0,0.2c0,0-0.1,0-0.2,0H171v3.6c0,0.1,0,0.3,0,0.3c0,0.1,0.1,0.2,0.1,0.2
			c0.1,0.1,0.2,0.1,0.3,0.1c0.1,0,0.3,0,0.4,0c0.1,0,0.2,0,0.3,0c0.2,0,0.3,0,0.4,0c0.1,0,0.2,0,0.2,0c0,0,0.1,0.1,0.1,0.1
			L172.8,29.3z"/>
		<path d="M175.4,31.7c0,0.1,0,0.1-0.1,0.1c0,0-0.1,0-0.2,0h-0.6c-0.1,0-0.1-0.1-0.1-0.2l0.7-1.9l-2.1-5.7c0,0,0-0.1,0-0.1
			s0-0.1,0.1-0.1h0.6c0.1,0,0.1,0,0.1,0c0,0,0,0.1,0.1,0.1l1,2.7l0.6,1.8c0,0,0.1-0.2,0.1-0.4c0.1-0.2,0.2-0.4,0.2-0.7
			c0.1-0.3,0.2-0.6,0.3-0.9l0.9-2.7c0-0.1,0.1-0.2,0.2-0.2h0.6c0.1,0,0.1,0.1,0.1,0.2L175.4,31.7z"/>
	</g>
</g>
<g>
	<path d="M78.3,10.5c0,0.3,0,0.6,0.1,0.8c0.1,0.2,0.2,0.4,0.3,0.5c0.1,0.1,0.3,0.2,0.5,0.3c0.2,0.1,0.4,0.1,0.7,0.1
		c0.2,0,0.5,0,0.8-0.1c0.3,0,0.6-0.1,0.9-0.1c0.1,0,0.2,0,0.3,0c0,0,0.1,0.1,0.1,0.2l0.1,0.4c0,0.1,0,0.2,0,0.2
		c0,0.1-0.1,0.1-0.2,0.2c-0.1,0.1-0.3,0.1-0.5,0.1c-0.2,0-0.4,0.1-0.5,0.1c-0.2,0-0.4,0-0.6,0.1c-0.2,0-0.4,0-0.5,0
		c-0.6,0-1.1-0.1-1.5-0.3c-0.4-0.2-0.7-0.4-0.9-0.7c-0.2-0.3-0.3-0.7-0.4-1c-0.1-0.4-0.1-0.8-0.1-1.2c0-0.3,0-0.7,0.1-1.1
		C77,8.7,77.1,8.3,77.3,8c0.2-0.3,0.5-0.6,0.8-0.9c0.4-0.2,0.9-0.3,1.5-0.3c0.6,0,1.1,0.1,1.4,0.3c0.4,0.2,0.6,0.4,0.8,0.7
		c0.2,0.3,0.3,0.6,0.4,0.9c0.1,0.4,0.1,0.7,0.1,1c0,0.2,0,0.4-0.1,0.6c-0.1,0.1-0.3,0.2-0.5,0.2H78.3z M79.6,8c-0.2,0-0.4,0-0.6,0.1
		c-0.2,0.1-0.3,0.2-0.4,0.3s-0.2,0.3-0.2,0.5s-0.1,0.4-0.1,0.7h2.6c0-0.2,0-0.4-0.1-0.6c0-0.2-0.1-0.4-0.2-0.5
		c-0.1-0.1-0.2-0.3-0.4-0.3S79.9,8,79.6,8z"/>
	<path d="M89.1,13.1c0,0.1,0,0.1,0,0.2s-0.1,0.1-0.2,0.1h-0.9c-0.2,0-0.2-0.1-0.2-0.2v-0.4c0,0,0,0,0,0c0,0,0,0,0,0
		c-0.1,0.1-0.2,0.2-0.4,0.3c-0.2,0.1-0.3,0.2-0.5,0.3c-0.2,0.1-0.4,0.1-0.6,0.2c-0.2,0-0.4,0.1-0.6,0.1c-0.4,0-0.8-0.1-1-0.2
		s-0.5-0.4-0.6-0.6c-0.2-0.3-0.3-0.6-0.3-1s-0.1-0.8-0.1-1.3c0-0.5,0-1,0.1-1.4C83.6,8.3,83.8,8,84,7.7c0.2-0.3,0.5-0.5,0.8-0.7
		c0.3-0.2,0.8-0.2,1.3-0.2c0.5,0,1.1,0.1,1.6,0.3c0,0,0,0,0,0s0,0,0,0V4.4c0-0.1,0-0.2,0-0.2c0,0,0.1-0.1,0.2-0.1h0.9
		c0.1,0,0.2,0,0.2,0.1c0,0,0,0.1,0,0.2V13.1z M87.7,8.3c-0.3-0.1-0.6-0.1-0.8-0.2c-0.2,0-0.5,0-0.7,0c-0.2,0-0.4,0-0.6,0.1
		c-0.2,0.1-0.3,0.2-0.4,0.4C85.1,8.7,85,8.9,85,9.2s-0.1,0.6-0.1,1c0,0.4,0,0.8,0.1,1c0,0.3,0.1,0.5,0.2,0.6
		c0.1,0.1,0.2,0.2,0.3,0.3c0.1,0,0.3,0.1,0.4,0.1c0.1,0,0.3,0,0.4-0.1c0.2,0,0.3-0.1,0.5-0.2s0.3-0.1,0.5-0.2
		c0.1-0.1,0.3-0.1,0.4-0.2V8.3z"/>
	<path d="M75.6,13c0,0.1,0,0.1,0,0.2s-0.1,0.1-0.2,0.1h-0.9c-0.2,0-0.2-0.1-0.2-0.2v-0.4c0,0,0,0,0,0c0,0,0,0,0,0
		c-0.1,0.1-0.2,0.2-0.4,0.3c-0.2,0.1-0.3,0.2-0.5,0.3c-0.2,0.1-0.4,0.1-0.6,0.2c-0.2,0-0.4,0.1-0.6,0.1c-0.4,0-0.8-0.1-1-0.2
		s-0.5-0.4-0.6-0.6c-0.2-0.3-0.3-0.6-0.3-1S70,10.6,70,10.1c0-0.5,0-1,0.1-1.4c0.1-0.4,0.2-0.8,0.4-1.1c0.2-0.3,0.5-0.5,0.8-0.7
		c0.3-0.2,0.8-0.2,1.3-0.2c0.5,0,1.1,0.1,1.6,0.3c0,0,0,0,0,0s0,0,0,0V4.3c0-0.1,0-0.2,0-0.2c0,0,0.1-0.1,0.2-0.1h0.9
		c0.1,0,0.2,0,0.2,0.1c0,0,0,0.1,0,0.2V13z M74.2,8.2C73.9,8.1,73.6,8,73.4,8c-0.2,0-0.5,0-0.7,0c-0.2,0-0.4,0-0.6,0.1
		c-0.2,0.1-0.3,0.2-0.4,0.4c-0.1,0.2-0.2,0.4-0.2,0.7s-0.1,0.6-0.1,1c0,0.4,0,0.8,0.1,1c0,0.3,0.1,0.5,0.2,0.6
		c0.1,0.1,0.2,0.2,0.3,0.3c0.1,0,0.3,0.1,0.4,0.1c0.1,0,0.3,0,0.4-0.1c0.2,0,0.3-0.1,0.5-0.2s0.3-0.1,0.5-0.2
		c0.1-0.1,0.3-0.1,0.4-0.2V8.2z"/>
	<path d="M68.8,12.9c0,0-0.1,0.1-0.2,0.1h-0.9c-0.2,0-0.2-0.1-0.2-0.2l0-3.7c0-0.4-0.1-0.7-0.2-0.9c-0.1-0.2-0.4-0.4-0.7-0.4
		c-0.1,0-0.3,0-0.4,0.1S65.7,7.9,65.5,8c-0.2,0.1-0.3,0.1-0.5,0.2s-0.3,0.1-0.4,0.2v4.3c0,0.2-0.1,0.2-0.2,0.2h-0.9
		c-0.2,0-0.2-0.1-0.2-0.2V6.8c0-0.2,0.1-0.3,0.2-0.3h0.9c0.2,0,0.2,0.1,0.2,0.3v0.4c0,0,0,0,0,0c0,0,0,0,0,0C64.8,7.2,65,7.1,65.1,7
		c0.2-0.1,0.3-0.2,0.5-0.3s0.4-0.1,0.6-0.2c0.2,0,0.4-0.1,0.6-0.1c0.4,0,0.8,0.1,1,0.2c0.3,0.1,0.4,0.3,0.6,0.5
		c0.1,0.2,0.2,0.5,0.2,0.8c0,0.3,0.1,0.6,0.1,0.9v3.8C68.8,12.8,68.8,12.8,68.8,12.9z"/>
	<path d="M61.6,12.9h-0.9c-0.1,0-0.2,0-0.2-0.1c0,0-0.1-0.1-0.1-0.2v-0.4l0,0c-0.1,0.1-0.3,0.2-0.4,0.3s-0.3,0.2-0.5,0.3
		c-0.2,0.1-0.4,0.1-0.6,0.2c-0.2,0-0.4,0.1-0.6,0.1c-0.4,0-0.8-0.1-1-0.2c-0.3-0.1-0.4-0.3-0.6-0.5c-0.1-0.2-0.2-0.5-0.2-0.8
		c0-0.3-0.1-0.6-0.1-0.9V6.8c0-0.2,0.1-0.3,0.2-0.3h1c0.2,0,0.2,0.1,0.2,0.3v3.7c0,0.2,0,0.4,0,0.5c0,0.2,0.1,0.3,0.1,0.4
		s0.2,0.2,0.3,0.3c0.1,0.1,0.3,0.1,0.5,0.1c0.1,0,0.3,0,0.5-0.1s0.3-0.1,0.5-0.2s0.3-0.1,0.5-0.2c0.1-0.1,0.2-0.1,0.3-0.2V6.8
		c0-0.1,0-0.1,0.1-0.2c0,0,0.1-0.1,0.2-0.1h0.9c0.2,0,0.2,0.1,0.2,0.3v5.9C61.9,12.9,61.8,12.9,61.6,12.9z"/>
	<path d="M55.2,4.3h-4.8c-0.2,0-0.3,0.1-0.3,0.3v5.2l0,0v2.9c0,0,0,0,0,0l0,0v0c0,0.2,0.1,0.2,0.2,0.2h1c0.2,0,0.2-0.1,0.2-0.2V9.8
		h0V9.1h3.1c0.2,0,0.3-0.1,0.3-0.2V8.1c0-0.2-0.1-0.2-0.3-0.2h-3.1V5.6h3.5c0.2,0,0.3-0.1,0.3-0.2V4.6C55.5,4.4,55.4,4.3,55.2,4.3z"
		/>
</g>
</svg>
