<?xml version="1.0" encoding="utf-8"?>
<!-- Generator: Adobe Illustrator 19.2.0, SVG Export Plug-In . SVG Version: 6.00 Build 0)  -->
<svg version="1.1" baseProfile="tiny" id="Layer_1" xmlns="http://www.w3.org/2000/svg" xmlns:xlink="http://www.w3.org/1999/xlink"
	 x="0px" y="0px" viewBox="0 0 309.8 100" xml:space="preserve">
<path d="M66.8,28.9h0.1H66.8 M19.8,59.8c7.4,0,13.4,6,13.4,13.4s-6,13.4-13.4,13.4s-13.4-6-13.4-13.4S12.4,59.8,19.8,59.8
	 M29.5,89.8c0-3.8,3.1-6.9,6.9-6.9s6.9,3.1,6.9,6.9s-3.1,6.9-6.9,6.9C32.6,96.7,29.5,93.6,29.5,89.8 M82.4,35.1
	c-0.1-0.9-0.2-1.8-0.2-2.7c-0.2-0.7-0.3-1.8-0.4-2.4c-0.3-0.8-0.3-1.1-0.4-1.7c-0.2-0.6-0.2-0.6-0.5-1.9c-0.7-2.5-1.8-5-3-7.4
	c-0.8-1.5-1.8-2.8-2.8-4.1c-0.2-0.3-0.8-1-1-1.2c-0.4-0.5-2.6-3.1-3.3-3.7c-0.7-0.6-1.3-1.2-2.1-1.8C68,7.6,67.2,7,66.5,6.5
	c-0.6-0.5-1.3-0.7-1.9-1.1c-3.4-2.1-7.2-3.8-11.1-4.7c-13.1-3-28.5,1.4-37,12.1c-0.9,1.1-1.8,2.2-2.7,3.4c-0.4,0.5-0.6,1.2-1,1.8
	c-0.8,1.3-1.4,2.5-2,3.9c-2.4,5.3-3.9,11.8-3.4,17.9c0.3,3.4,0.9,6.8,2.1,10c0.4,1,0.7,2,1.2,3c0.3,0.7,1.1,2.1,1.2,2.3
	C4.9,58.2,0,65.2,0,73.4c0,11,9,20,20,20c2.4,0,4.7-0.4,6.8-1.2c0,0.1,0.1,0.1,0.1,0.2c1.1,4.3,5,7.6,9.7,7.6c5.5,0,10-4.5,10-10
	c0-4.8-3.3-8.8-7.8-9.8c0-0.1,0.1-0.2,0.1-0.3c0.1-0.4,0.3-0.8,0.4-1.2c0.2-0.5,0.3-1,0.4-1.6c0-0.3,0.1-0.6,0.1-1
	c0.1-0.4,0.1-0.8,0.1-1.2c0.1-0.1,0.2,0,0.4,0c2.2,0.1,4.4,0.5,6.6,0.3c4.1-0.2,8.5-1,12.2-2.7c3.9-1.7,7.7-3.9,10.9-6.8
	c1.5-1.3,3-2.8,4.2-4.5c0.6-0.8,1.3-1.5,1.8-2.3c0.4-0.7,1-1.4,1.4-2.1c0.3-0.5,0.3-0.8,0.6-1.3c0.2-0.3,0.4-0.6,0.5-1
	c0.3-0.7,0.4-1.5,0.4-2.3c0.1-1.5-0.4-3.1-1.3-4.4c-0.7-1.1-2.4-2.1-3.7-2.5c-1.5-0.4-3.3-0.3-4.8,0.2c-1.6,0.6-2.7,2-3.6,3.5
	c-1,1.6-1.9,3.1-3.2,4.4c-2.5,2.5-5.2,4.5-8.5,5.8c-12.6,5.1-27.2-1.8-31.4-14.7c-1.9-6-1.4-12.7,1.7-18.3c1.6-2.9,3.8-5.5,6.4-7.6
	c1.4-1.1,3-2.1,4.6-2.8c1.5-0.6,3-1,4.5-1.5c1.2-0.4,2.8-0.5,4-0.6c1.3-0.1,2.7-0.1,4,0.1c2.7,0.4,5.5,1.1,8,2.3
	c1.3,0.7,2.8,1.6,4,2.6s2.5,2.2,3.5,3.4c0.8,1,1.2,1.7,2,2.7c0.8,1.2,1.9,2.5,2,4c-3.1,0-6.3,0-9.4,0c-3,0-6.3-0.7-9.1,0.7
	c-2.9,1.5-5.2,5.7-3.3,8.8c0.9,1.5,1.3,2.7,3,3.5s3.1,0.9,5,0.9c4.3-0.1,8.6,0,12.9,0h6.7c1.9,0,3.8,0.1,5.6-0.6
	C81.2,41.2,82.7,38.3,82.4,35.1 M110.2,33.5c0,1.1-0.5,1.7-1.6,1.7H95.3v1.3c0,4.2,1.8,6.3,5.5,6.3c2.3,0,4.4-0.5,6.1-1.4
	c0.2-0.1,0.5-0.2,0.7-0.2c0.5,0,0.9,0.2,1.2,0.6s0.5,0.8,0.5,1.3c0,0.7-0.3,1.2-1,1.6c-2.2,1.2-4.8,1.8-7.7,1.8
	c-3.3,0-5.8-1-7.4-3.1c-1.5-1.8-2.2-4.2-2.2-7.3v-4.5c0-3.1,0.7-5.5,2.2-7.3c1.7-2,4.1-3.1,7.4-3.1c3.4,0,5.8,1,7.5,3.1
	c1.4,1.7,2.1,4.1,2.1,7.2V33.5z M106,31c0-4.1-1.8-6.2-5.3-6.2c-3.6,0-5.5,2.1-5.5,6.2v0.8H106V31z M135.3,46.5
	c-0.9,0-1.8-0.3-2.6-1c-0.5-0.4-0.8-1-1.2-1.8c-1.8,1.9-4.3,2.8-7.6,2.8c-5.3,0-8-3-8-8.9V23.4c0-0.6,0.2-1.1,0.6-1.5
	c0.4-0.4,0.9-0.6,1.5-0.6s1.1,0.2,1.5,0.6c0.4,0.4,0.6,0.9,0.6,1.5v13.8c0,1.7,0.3,3,0.9,3.8c0.7,0.9,2,1.4,3.7,1.4
	c2.8,0,4.8-1.1,5.9-3.3V23.3c0-0.6,0.2-1.1,0.6-1.5c0.4-0.4,0.9-0.6,1.5-0.6s1.1,0.2,1.5,0.6c0.4,0.4,0.6,0.9,0.6,1.5V40
	c0,1.5,0.5,2.6,1.5,3.1c0.6,0.3,0.8,0.8,0.8,1.4C137.4,45.9,136.7,46.5,135.3,46.5z M155.4,25.7c-0.3,0-0.5-0.1-0.8-0.1
	s-0.6-0.1-0.9-0.1c-0.3,0-0.5,0-0.7,0c-3,0-4.8,1.5-5.4,4.4v14.5c0,0.6-0.2,1.1-0.6,1.5c-0.4,0.4-0.9,0.6-1.5,0.6s-1.1-0.2-1.5-0.6
	s-0.6-0.9-0.6-1.5V28c0-1.5-0.5-2.6-1.5-3.1c-0.6-0.3-0.8-0.8-0.8-1.4c0-1.2,0.7-1.9,2.1-1.9c0.4,0,0.6,0,0.7,0
	c1.6,0.4,2.7,1.4,3.3,3c1.6-2.2,3.8-3.4,6.7-3.4c1.3,0,2.4,0.2,3.3,0.6c0.7,0.4,1,0.9,1,1.7c0,0.6-0.2,1.1-0.6,1.5
	c-0.4,0.4-0.9,0.6-1.4,0.6C155.9,25.7,155.7,25.7,155.4,25.7z M176.9,43.5c-1.7,2-4.2,3-7.6,3c-3.3,0-5.8-1-7.5-3
	c-1.5-1.8-2.3-4.2-2.3-7.1v-5c0-3,0.8-5.3,2.3-7.1c1.7-2,4.2-3,7.5-3c3.4,0,5.9,1,7.6,3c1.5,1.8,2.3,4.2,2.3,7.1v5
	C179.2,39.4,178.4,41.7,176.9,43.5z M174.9,31.4c0-4.1-1.9-6.1-5.6-6.1c-3.7,0-5.5,2-5.5,6.1v5c0,4.1,1.8,6.2,5.5,6.2
	s5.6-2.1,5.6-6.2V31.4z M195.9,46.5c-2.2,0-4.1-0.6-5.8-1.9V53c0,0.6-0.2,1.1-0.6,1.5c-0.4,0.4-0.9,0.6-1.5,0.6s-1.1-0.2-1.5-0.6
	s-0.6-0.9-0.6-1.5V27.6c0-1.6-0.5-2.6-1.4-3.1c-0.6-0.3-0.8-0.8-0.8-1.4c0-1.2,0.7-1.9,2.1-1.9c0.9,0,1.8,0.3,2.6,1
	c0.3,0.3,0.6,0.7,0.9,1.1c2-1.4,4.1-2.1,6.4-2.1c6,0,9,3.3,9,9.9v4.4C204.7,42.9,201.7,46.5,195.9,46.5z M200.4,30.9
	c0-3.9-1.8-5.9-5.4-5.9c-1.7,0-3.4,0.7-4.9,2v13.5c1.5,1.5,3.2,2.2,5.1,2.2c3.5,0,5.2-2.2,5.2-6.6L200.4,30.9L200.4,30.9z
	 M229.1,33.5c0,1.1-0.5,1.7-1.6,1.7h-13.3v1.3c0,4.2,1.8,6.3,5.5,6.3c2.3,0,4.4-0.5,6.1-1.4c0.2-0.1,0.5-0.2,0.7-0.2
	c0.5,0,0.9,0.2,1.2,0.6s0.5,0.8,0.5,1.3c0,0.7-0.3,1.2-1,1.6c-2.2,1.2-4.8,1.8-7.7,1.8c-3.3,0-5.8-1-7.4-3.1
	c-1.5-1.8-2.2-4.2-2.2-7.3v-4.5c0-3.1,0.7-5.5,2.2-7.3c1.7-2,4.1-3.1,7.4-3.1c3.4,0,5.8,1,7.5,3.1c1.4,1.7,2.1,4.1,2.1,7.2V33.5z
	 M225,31c0-4.1-1.8-6.2-5.3-6.2c-3.6,0-5.5,2.1-5.5,6.2v0.8H225V31z M251.9,46.5c-1,0-1.9-0.3-2.5-1c-0.4-0.3-0.7-0.8-1-1.5
	c-1.5,1.7-3.8,2.5-6.8,2.5c-2.9,0-5.1-0.7-6.5-2c-1.3-1.3-2-3-2-5.1V39c0-2.1,0.7-3.8,2.1-5.1c1.6-1.3,3.9-2,6.8-2h5.6v-1.2
	c0-2.1-0.3-3.5-1-4.4c-0.7-1-2.1-1.5-4.1-1.5c-1.8,0-3.5,0.4-5,1.2c-0.4,0.2-0.7,0.3-1,0.3c-0.5,0-1-0.2-1.3-0.6
	c-0.3-0.4-0.5-0.8-0.5-1.3c0-0.6,0.3-1.1,0.9-1.5c1.8-1.1,4.2-1.7,7.2-1.7c3.3,0,5.7,0.8,7.1,2.5c1.3,1.5,1.9,4,1.9,7.3v9.1
	c0,1.5,0.5,2.6,1.4,3.1c0.6,0.4,0.8,0.8,0.8,1.4C254,45.9,253.3,46.5,251.9,46.5z M247.5,35.2h-5.1c-3.4,0-5.2,1.3-5.2,3.8v0.4
	c0,2.5,1.7,3.8,5,3.8c3.5,0,5.3-1.7,5.3-5.1C247.5,38.1,247.5,35.2,247.5,35.2z M278,45.9c-0.4,0.4-0.9,0.6-1.5,0.6
	c-0.6,0-1.1-0.2-1.5-0.6c-0.4-0.4-0.6-0.9-0.6-1.5V30.6c0-1.7-0.3-3-0.9-3.8c-0.7-1-2-1.5-3.7-1.5c-2.8,0-4.7,1-5.9,3.1v16
	c0,0.6-0.2,1.1-0.6,1.5s-0.9,0.6-1.5,0.6s-1.1-0.2-1.5-0.6s-0.6-0.9-0.6-1.5V28c0-1.5-0.5-2.6-1.5-3.1c-0.6-0.3-0.8-0.8-0.8-1.4
	c0-1.2,0.7-1.9,2.1-1.9c0.9,0,1.8,0.3,2.6,1c0.5,0.5,0.8,1,1.1,1.6c1.8-2,4.3-2.9,7.6-2.9c5.3,0,8,3,8,8.9v14.2
	C278.6,45,278.4,45.5,278,45.9z M302.7,46.5c-1,0-1.9-0.3-2.5-1c-0.4-0.3-0.7-0.8-1-1.5c-1.5,1.7-3.8,2.5-6.8,2.5
	c-2.9,0-5.1-0.7-6.5-2c-1.3-1.3-2-3-2-5.1V39c0-2.1,0.7-3.8,2.1-5.1c1.6-1.3,3.9-2,6.8-2h5.6v-1.2c0-2.1-0.3-3.5-1-4.4
	c-0.7-1-2.1-1.5-4.1-1.5c-1.8,0-3.5,0.4-5,1.2c-0.4,0.2-0.7,0.3-1,0.3c-0.5,0-1-0.2-1.3-0.6c-0.3-0.4-0.5-0.8-0.5-1.3
	c0-0.6,0.3-1.1,0.9-1.5c1.8-1.1,4.2-1.7,7.2-1.7c3.3,0,5.7,0.8,7.1,2.5c1.3,1.5,1.9,4,1.9,7.3v9.1c0,1.5,0.5,2.6,1.4,3.1
	c0.6,0.4,0.8,0.8,0.8,1.4C304.8,45.9,304.1,46.5,302.7,46.5z M298.4,35.2h-5.1c-3.4,0-5.2,1.3-5.2,3.8v0.4c0,2.5,1.7,3.8,5,3.8
	c3.5,0,5.3-1.7,5.3-5.1C298.4,38.1,298.4,35.2,298.4,35.2z"/>
<path fill="#666766" d="M102.2,81.9c-1.4,1-3.3,1.6-5.6,1.6c-2.2,0-4.1-0.3-5.8-0.9c-0.7-0.2-1-0.7-1-1.5c0-0.4,0.1-0.8,0.4-1.1
	c0.3-0.3,0.6-0.5,1.1-0.5c0.2,0,0.4,0,0.6,0.1c1.5,0.5,3,0.8,4.7,0.8c2.9,0,4.4-1,4.4-3.1c0-1.1-0.6-1.9-1.8-2.4
	c-0.1,0-0.5-0.1-1.1-0.3c-0.6-0.1-1.6-0.4-2.8-0.7c-1.6-0.4-2.8-0.9-3.6-1.6c-1.1-0.9-1.6-2.2-1.6-4c0-1.9,0.7-3.4,2-4.5
	c1.3-1,2.9-1.6,5-1.6c2,0,3.8,0.3,5.3,0.9c0.7,0.3,1.1,0.8,1.1,1.5c0,0.4-0.2,0.8-0.5,1.1c-0.3,0.3-0.7,0.5-1.1,0.5
	c-0.1,0-0.3,0-0.5-0.1c-1.4-0.5-2.8-0.8-4.1-0.8c-2.5,0-3.8,1-3.8,2.9c0,1,0.5,1.7,1.6,2.2c0.4,0.2,1.6,0.5,3.6,0.9
	c1.8,0.4,3.1,0.9,4,1.5c1.3,0.9,1.9,2.4,1.9,4.3C104.5,79.3,103.7,80.9,102.2,81.9z M118.9,82.8c-0.3,0.3-0.7,0.5-1.2,0.5h-1.2
	c-2.7,0-4.6-0.8-5.7-2.4c-1-1.4-1.4-3.6-1.4-6.4v-8.8h-1.2c-0.4,0-0.8-0.1-1.1-0.5c-0.3-0.3-0.4-0.7-0.4-1.1c0-0.4,0.1-0.8,0.4-1.1
	c0.3-0.3,0.7-0.5,1.1-0.5h1.2v-4.2c0-0.5,0.2-0.9,0.5-1.3c0.4-0.4,0.8-0.5,1.3-0.5c0.5,0,0.9,0.2,1.2,0.5c0.3,0.4,0.5,0.8,0.5,1.3
	v4.2h3.8c0.4,0,0.8,0.2,1.1,0.5c0.3,0.3,0.4,0.7,0.4,1.1c0,0.4-0.1,0.8-0.4,1.1c-0.3,0.3-0.7,0.5-1.1,0.5h-3.8v8.7
	c0,2.1,0.3,3.6,0.8,4.4c0.5,0.8,1.6,1.2,3.2,1.2h0.8c0.5,0,0.9,0.2,1.2,0.5c0.3,0.3,0.5,0.7,0.5,1.2
	C119.3,82.1,119.2,82.4,118.9,82.8z M136.9,83.5c-0.8,0-1.6-0.3-2.1-0.9c-0.3-0.2-0.6-0.7-0.8-1.2c-1.3,1.4-3.2,2.1-5.7,2.1
	c-2.4,0-4.3-0.6-5.5-1.7c-1.1-1.1-1.7-2.5-1.7-4.3v-0.3c0-1.8,0.6-3.2,1.8-4.3c1.4-1.1,3.3-1.7,5.7-1.7h4.7v-1c0-1.7-0.3-3-0.8-3.7
	c-0.6-0.8-1.8-1.2-3.4-1.2c-1.5,0-2.9,0.3-4.2,1c-0.3,0.2-0.6,0.2-0.9,0.2c-0.4,0-0.8-0.2-1.1-0.5s-0.4-0.7-0.4-1.1
	c0-0.5,0.2-0.9,0.7-1.3c1.5-1,3.5-1.4,6-1.4c2.8,0,4.8,0.7,6,2.1c1.1,1.3,1.6,3.3,1.6,6.1v7.6c0,1.3,0.4,2.1,1.1,2.6
	c0.5,0.3,0.7,0.7,0.7,1.2C138.7,83,138.1,83.5,136.9,83.5z M133.3,74H129c-2.9,0-4.3,1.1-4.3,3.2v0.3c0,2.1,1.4,3.2,4.2,3.2
	c2.9,0,4.4-1.4,4.4-4.3V74z M152.8,82.8c-0.3,0.3-0.7,0.5-1.2,0.5h-1.2c-2.7,0-4.6-0.8-5.7-2.4c-1-1.4-1.4-3.6-1.4-6.4v-8.8h-1.2
	c-0.4,0-0.8-0.1-1.1-0.5c-0.3-0.3-0.4-0.7-0.4-1.1c0-0.4,0.1-0.8,0.4-1.1c0.3-0.3,0.7-0.5,1.1-0.5h1.2v-4.2c0-0.5,0.2-0.9,0.5-1.3
	c0.4-0.4,0.8-0.5,1.3-0.5c0.5,0,0.9,0.2,1.2,0.5c0.3,0.4,0.5,0.8,0.5,1.3v4.2h3.8c0.4,0,0.8,0.2,1.1,0.5c0.3,0.3,0.4,0.7,0.4,1.1
	c0,0.4-0.1,0.8-0.4,1.1c-0.3,0.3-0.7,0.5-1.1,0.5h-3.8v8.7c0,2.1,0.3,3.6,0.8,4.4c0.5,0.8,1.6,1.2,3.2,1.2h0.8
	c0.5,0,0.9,0.2,1.2,0.5c0.3,0.3,0.5,0.7,0.5,1.2C153.3,82.1,153.1,82.4,152.8,82.8z M159.9,57.3c-0.4,0.4-0.9,0.6-1.5,0.6
	c-0.6,0-1.1-0.2-1.5-0.6c-0.4-0.4-0.6-0.9-0.6-1.5c0-0.6,0.2-1.1,0.6-1.5c0.4-0.4,0.9-0.6,1.5-0.6c0.6,0,1.1,0.2,1.5,0.6
	c0.4,0.4,0.6,0.9,0.6,1.5C160.5,56.4,160.3,56.9,159.9,57.3z M159.7,83c-0.3,0.3-0.8,0.5-1.3,0.5c-0.5,0-0.9-0.2-1.2-0.5
	c-0.3-0.3-0.5-0.8-0.5-1.3V64.1c0-0.5,0.2-0.9,0.5-1.3c0.3-0.4,0.8-0.5,1.2-0.5c0.5,0,0.9,0.2,1.3,0.5c0.3,0.4,0.5,0.8,0.5,1.3v17.5
	C160.2,82.2,160,82.6,159.7,83z M177,81.9c-1.4,1-3.3,1.6-5.6,1.6c-2.2,0-4.1-0.3-5.8-0.9c-0.7-0.2-1-0.7-1-1.5
	c0-0.4,0.1-0.8,0.4-1.1c0.3-0.3,0.6-0.5,1.1-0.5c0.2,0,0.4,0,0.6,0.1c1.5,0.5,3,0.8,4.7,0.8c2.9,0,4.4-1,4.4-3.1
	c0-1.1-0.6-1.9-1.8-2.4c-0.1,0-0.5-0.1-1.1-0.3c-0.6-0.1-1.6-0.4-2.8-0.7c-1.6-0.4-2.8-0.9-3.6-1.6c-1.1-0.9-1.6-2.2-1.6-4
	c0-1.9,0.7-3.4,2-4.5c1.3-1,2.9-1.6,5-1.6c2,0,3.8,0.3,5.3,0.9c0.7,0.3,1.1,0.8,1.1,1.5c0,0.4-0.2,0.8-0.5,1.1
	c-0.3,0.3-0.7,0.5-1.1,0.5c-0.1,0-0.3,0-0.5-0.1c-1.4-0.5-2.8-0.8-4.1-0.8c-2.5,0-3.8,1-3.8,2.9c0,1,0.5,1.7,1.6,2.2
	c0.4,0.2,1.6,0.5,3.6,0.9c1.8,0.4,3.1,0.9,4,1.5c1.3,0.9,1.9,2.4,1.9,4.3C179.2,79.3,178.5,80.9,177,81.9z M193.6,82.8
	c-0.3,0.3-0.7,0.5-1.2,0.5h-1.2c-2.7,0-4.6-0.8-5.7-2.4c-1-1.4-1.4-3.6-1.4-6.4v-8.8h-1.2c-0.4,0-0.8-0.1-1.1-0.5
	c-0.3-0.3-0.5-0.7-0.5-1.1c0-0.4,0.1-0.8,0.5-1.1c0.3-0.3,0.7-0.5,1.1-0.5h1.2v-4.2c0-0.5,0.2-0.9,0.5-1.3c0.4-0.4,0.8-0.5,1.3-0.5
	s0.9,0.2,1.2,0.5c0.3,0.4,0.5,0.8,0.5,1.3v4.2h3.8c0.4,0,0.8,0.2,1.1,0.5c0.3,0.3,0.5,0.7,0.5,1.1c0,0.4-0.2,0.8-0.5,1.1
	c-0.3,0.3-0.7,0.5-1.1,0.5h-3.8v8.7c0,2.1,0.3,3.6,0.8,4.4c0.5,0.8,1.6,1.2,3.2,1.2h0.8c0.5,0,0.9,0.2,1.2,0.5
	c0.3,0.3,0.5,0.7,0.5,1.2C194.1,82.1,193.9,82.4,193.6,82.8z M200.7,57.3c-0.4,0.4-0.9,0.6-1.5,0.6c-0.6,0-1.1-0.2-1.5-0.6
	c-0.4-0.4-0.6-0.9-0.6-1.5c0-0.6,0.2-1.1,0.6-1.5c0.4-0.4,0.9-0.6,1.5-0.6c0.6,0,1.1,0.2,1.5,0.6c0.4,0.4,0.6,0.9,0.6,1.5
	C201.3,56.4,201.1,56.9,200.7,57.3z M200.4,83c-0.3,0.3-0.8,0.5-1.3,0.5c-0.5,0-0.9-0.2-1.2-0.5c-0.3-0.3-0.5-0.8-0.5-1.3V64.1
	c0-0.5,0.2-0.9,0.5-1.3c0.3-0.4,0.8-0.5,1.2-0.5c0.5,0,0.9,0.2,1.3,0.5c0.3,0.4,0.5,0.8,0.5,1.3v17.5C201,82.2,200.8,82.6,200.4,83z
	 M219.3,82.3c-1.5,0.8-3.2,1.2-5.2,1.2c-2.7,0-4.8-0.9-6.2-2.6c-1.3-1.6-1.9-3.8-1.9-6.5v-2.8c0-2.6,0.7-4.8,2-6.5
	c1.4-1.8,3.4-2.7,6.1-2.7c2,0,3.7,0.4,5.1,1.2c0.5,0.3,0.8,0.8,0.8,1.3c0,0.4-0.1,0.8-0.4,1.1c-0.3,0.3-0.6,0.5-1,0.5
	c-0.2,0-0.5-0.1-0.7-0.2c-1.1-0.5-2.3-0.8-3.6-0.8c-1.5,0-2.7,0.5-3.5,1.6c-0.8,1.1-1.3,2.5-1.3,4.3v3.3c0,3.9,1.6,5.9,4.7,5.9
	c1.3,0,2.6-0.3,3.7-0.8c0.2-0.1,0.4-0.2,0.7-0.2c0.4,0,0.7,0.2,1,0.5c0.3,0.3,0.4,0.7,0.4,1.1C220.1,81.6,219.9,82,219.3,82.3z
	 M235.2,81.9c-1.4,1-3.3,1.6-5.6,1.6c-2.2,0-4.1-0.3-5.8-0.9c-0.7-0.2-1-0.7-1-1.5c0-0.4,0.1-0.8,0.4-1.1c0.3-0.3,0.6-0.5,1.1-0.5
	c0.2,0,0.4,0,0.6,0.1c1.5,0.5,3,0.8,4.7,0.8c2.9,0,4.4-1,4.4-3.1c0-1.1-0.6-1.9-1.8-2.4c-0.1,0-0.5-0.1-1.1-0.3
	c-0.6-0.1-1.6-0.4-2.8-0.7c-1.6-0.4-2.8-0.9-3.6-1.6c-1.1-0.9-1.6-2.2-1.6-4c0-1.9,0.7-3.4,2-4.5c1.3-1,2.9-1.6,5-1.6
	c2,0,3.8,0.3,5.3,0.9c0.7,0.3,1.1,0.8,1.1,1.5c0,0.4-0.2,0.8-0.5,1.1c-0.3,0.3-0.7,0.5-1.1,0.5c-0.1,0-0.3,0-0.5-0.1
	c-1.4-0.5-2.8-0.8-4.1-0.8c-2.5,0-3.8,1-3.8,2.9c0,1,0.5,1.7,1.6,2.2c0.4,0.2,1.6,0.5,3.6,0.9c1.8,0.4,3.1,0.9,4,1.5
	c1.3,0.9,1.9,2.4,1.9,4.3C237.4,79.3,236.7,80.9,235.2,81.9z"/>
</svg>
