<?xml version="1.0" encoding="utf-8"?>
<!-- Generator: Adobe Illustrator 19.1.0, SVG Export Plug-In . SVG Version: 6.00 Build 0)  -->
<svg version="1.1" id="Layer_1" xmlns="http://www.w3.org/2000/svg" xmlns:xlink="http://www.w3.org/1999/xlink" x="0px" y="0px"
	 viewBox="-686 1141.9 309.8 100" style="enable-background:new -686 1141.9 309.8 100;" xml:space="preserve">
<path d="M-982,1402L-982,1402L-982,1402 M-1029,1432.9c7.4,0,13.4,6,13.4,13.4s-6,13.4-13.4,13.4s-13.4-6-13.4-13.4
	S-1036.4,1432.9-1029,1432.9 M-1019.3,1462.9c0-3.8,3.1-6.9,6.9-6.9c3.8,0,6.9,3.1,6.9,6.9c0,3.8-3.1,6.9-6.9,6.9
	C-1016.2,1469.8-1019.3,1466.7-1019.3,1462.9 M-966.4,1408.2c-0.1-0.9-0.2-1.8-0.2-2.7c-0.2-0.7-0.3-1.8-0.4-2.4
	c-0.3-0.8-0.3-1.1-0.4-1.7c-0.2-0.6-0.2-0.6-0.5-1.9c-0.7-2.5-1.8-5-3-7.4c-0.8-1.5-1.8-2.8-2.8-4.1c-0.2-0.3-0.8-1-1-1.2
	c-0.4-0.5-2.6-3.1-3.3-3.7c-0.7-0.6-1.3-1.2-2.1-1.8c-0.7-0.6-1.5-1.2-2.2-1.7c-0.6-0.5-1.3-0.7-1.9-1.1c-3.4-2.1-7.2-3.8-11.1-4.7
	c-13.1-3-28.5,1.4-37,12.1c-0.9,1.1-1.8,2.2-2.7,3.4c-0.4,0.5-0.6,1.2-1,1.8c-0.8,1.3-1.4,2.5-2,3.9c-2.4,5.3-3.9,11.8-3.4,17.9
	c0.3,3.4,0.9,6.8,2.1,10c0.4,1,0.7,2,1.2,3c0.3,0.7,1.1,2.1,1.2,2.3c-7,3.1-11.9,10.1-11.9,18.3c0,11,9,20,20,20
	c2.4,0,4.7-0.4,6.8-1.2c0,0.1,0.1,0.1,0.1,0.2c1.1,4.3,5,7.6,9.7,7.6c5.5,0,10-4.5,10-10c0-4.8-3.3-8.8-7.8-9.8
	c0-0.1,0.1-0.2,0.1-0.3c0.1-0.4,0.3-0.8,0.4-1.2c0.2-0.5,0.3-1,0.4-1.6c0-0.3,0.1-0.6,0.1-1c0.1-0.4,0.1-0.8,0.1-1.2
	c0.1-0.1,0.2,0,0.4,0c2.2,0.1,4.4,0.5,6.6,0.3c4.1-0.2,8.5-1,12.2-2.7c3.9-1.7,7.7-3.9,10.9-6.8c1.5-1.3,3-2.8,4.2-4.5
	c0.6-0.8,1.3-1.5,1.8-2.3c0.4-0.7,1-1.4,1.4-2.1c0.3-0.5,0.3-0.8,0.6-1.3c0.2-0.3,0.4-0.6,0.5-1c0.3-0.7,0.4-1.5,0.4-2.3
	c0.1-1.5-0.4-3.1-1.3-4.4c-0.7-1.1-2.4-2.1-3.7-2.5c-1.5-0.4-3.3-0.3-4.8,0.2c-1.6,0.6-2.7,2-3.6,3.5c-1,1.6-1.9,3.1-3.2,4.4
	c-2.5,2.5-5.2,4.5-8.5,5.8c-12.6,5.1-27.2-1.8-31.4-14.7c-1.9-6-1.4-12.7,1.7-18.3c1.6-2.9,3.8-5.5,6.4-7.6c1.4-1.1,3-2.1,4.6-2.8
	c1.5-0.6,3-1,4.5-1.5c1.2-0.4,2.8-0.5,4-0.6c1.3-0.1,2.7-0.1,4,0.1c2.7,0.4,5.5,1.1,8,2.3c1.3,0.7,2.8,1.6,4,2.6
	c1.2,1,2.5,2.2,3.5,3.4c0.8,1,1.2,1.7,2,2.7c0.8,1.2,1.9,2.5,2,4c-3.1,0-6.3,0-9.4,0c-3,0-6.3-0.7-9.1,0.7c-2.9,1.5-5.2,5.7-3.3,8.8
	c0.9,1.5,1.3,2.7,3,3.5c1.7,0.8,3.1,0.9,5,0.9c4.3-0.1,8.6,0,12.9,0h6.7c1.9,0,3.8,0.1,5.6-0.6
	C-967.6,1414.3-966.1,1411.4-966.4,1408.2"/>
</svg>
