<svg xmlns="http://www.w3.org/2000/svg" viewBox="0 0 174.4 212.02"><title>europeana-logo-symbol</title><path d="M141.32,61.61h0M41.89,127a28.35,28.35,0,1,1-28.35,28.35A28.35,28.35,0,0,1,41.89,127m20.52,63.47A14.6,14.6,0,1,1,77,205a14.63,14.63,0,0,1-14.6-14.6M174.32,74.72A51.89,51.89,0,0,1,173.9,69a50.77,50.77,0,0,1-.85-5.08,14.36,14.36,0,0,1-.85-3.6,31,31,0,0,1-1.06-4,90,90,0,0,0-6.35-15.65A62.63,62.63,0,0,0,158.88,32a26.84,26.84,0,0,0-2.12-2.54c-0.85-1.06-5.5-6.56-7-7.83s-2.75-2.54-4.44-3.81c-1.48-1.27-3.17-2.54-4.65-3.6-1.27-1.06-2.75-1.48-4-2.33a79.33,79.33,0,0,0-23.48-9.94c-27.71-6.35-60.29,3-78.27,25.6-1.9,2.33-3.81,4.65-5.71,7.19-0.85,1.06-1.27,2.54-2.12,3.81a60.67,60.67,0,0,0-4.23,8.25c-5.08,11.21-8.25,25-7.19,37.87a80.23,80.23,0,0,0,4.44,21.16c0.85,2.12,1.48,4.23,2.54,6.35,0.63,1.48,2.33,4.44,2.54,4.87a42.33,42.33,0,0,0,17.14,81,40.35,40.35,0,0,0,14.39-2.54c0,0.21.21,0.21,0.21,0.42a21.16,21.16,0,1,0,25.17-25.81c0-.21.21-0.42,0.21-0.63,0.21-.85.63-1.69,0.85-2.54a15.85,15.85,0,0,0,.85-3.38c0-.63.21-1.27,0.21-2.12a10.3,10.3,0,0,0,.21-2.54,1.13,1.13,0,0,1,.85,0c4.65,0.21,9.31,1.06,14,.63,8.67-.42,18-2.12,25.81-5.71a84.36,84.36,0,0,0,23.06-14.39,54.48,54.48,0,0,0,8.89-9.52c1.27-1.69,2.75-3.17,3.81-4.87,0.85-1.48,2.12-3,3-4.44,0.63-1.06.63-1.69,1.27-2.75a6.62,6.62,0,0,0,1.06-2.12,12.41,12.41,0,0,0,.85-4.87,15,15,0,0,0-2.75-9.31c-1.48-2.33-5.08-4.44-7.83-5.29a18.45,18.45,0,0,0-10.15.42c-3.38,1.27-5.71,4.23-7.62,7.4-2.12,3.38-4,6.56-6.77,9.31a52.35,52.35,0,0,1-18,12.27c-26.66,10.79-57.54-3.81-66.43-31.1A49.48,49.48,0,0,1,51,55.9,54.88,54.88,0,0,1,64.52,39.82a46.07,46.07,0,0,1,9.73-5.92c3.17-1.27,6.35-2.12,9.52-3.17a39,39,0,0,1,8.46-1.27,37.77,37.77,0,0,1,8.46.21,59.61,59.61,0,0,1,16.92,4.87,52.55,52.55,0,0,1,8.46,5.5,59.47,59.47,0,0,1,7.4,7.19c1.69,2.12,2.54,3.6,4.23,5.71,1.69,2.54,4,5.29,4.23,8.46H122.07c-6.35,0-13.33-1.48-19.25,1.48-6.14,3.17-11,12.06-7,18.62,1.9,3.17,2.75,5.71,6.35,7.4s6.56,1.9,10.58,1.9c9.1-.21,18.19,0,27.29,0h14.17c4,0,8,.21,11.85-1.27,5.71-1.9,8.89-8,8.25-14.81"/></svg>