<?xml version="1.0" encoding="utf-8"?>
<!-- Generated by IcoMoon.io -->
<!DOCTYPE svg PUBLIC "-//W3C//DTD SVG 1.1//EN" "http://www.w3.org/Graphics/SVG/1.1/DTD/svg11.dtd">
<svg version="1.1" xmlns="http://www.w3.org/2000/svg" xmlns:xlink="http://www.w3.org/1999/xlink" width="26" height="36" viewBox="0 0 26 36">
<g>
	<line stroke-width="1" x1="" y1="" x2="" y2="" stroke="#449FDB" opacity=""></line>
</g>
	<path d="M24.545 1.636q0.667 0 1.152 0.485t0.485 1.152v22.909q0 0.667-0.485 1.152t-1.152 0.485h-22.909q-0.667 0-1.152-0.485t-0.485-1.152v-22.909q0-0.667 0.485-1.152t1.152-0.485h2.182v3.273q0 0.667 0.485 1.152t1.152 0.485 1.152-0.485 0.485-1.152v-3.273h12v3.273q0 0.667 0.485 1.152t1.152 0.485 1.152-0.485 0.485-1.152v-3.273h2.182zM8.182 24v-4.364h-4.364v4.364h4.364zM8.182 16.364v-4.364h-4.364v4.364h4.364zM15.273 24v-4.364h-4.364v4.364h4.364zM15.273 16.364v-4.364h-4.364v4.364h4.364zM22.364 24v-4.364h-4.364v4.364h4.364zM22.364 16.364v-4.364h-4.364v4.364h4.364z" fill="#293745"></path>
</svg>
