<?xml version="1.0" encoding="utf-8"?>
<!-- Generator: Adobe Illustrator 19.1.0, SVG Export Plug-In . SVG Version: 6.00 Build 0)  -->
<svg version="1.1" id="Layer_1" xmlns="http://www.w3.org/2000/svg" xmlns:xlink="http://www.w3.org/1999/xlink" x="0px" y="0px"
	 viewBox="0 0 16 16" style="enable-background:new 0 0 16 16;" xml:space="preserve">
<style type="text/css">
	.st0{fill:#FFFFFF;}
</style>
<path class="st0" d="M14.7,10.1c0.1,0.1,0.1,0.2,0.1,0.3c-0.3,0.9-0.8,1.7-1.4,2.4c-0.1,0.1-0.2,0.1-0.3,0.1l-1.7-0.6
	c-0.4,0.4-0.9,0.6-1.4,0.8l-0.4,1.8c0,0.1-0.1,0.2-0.2,0.2c-0.5,0.1-0.9,0.1-1.4,0.1c-0.5,0-0.9,0-1.4-0.1c-0.1,0-0.2-0.1-0.2-0.2
	L6,13.1c-0.5-0.2-1-0.5-1.4-0.8l-1.7,0.6c-0.1,0-0.2,0-0.3-0.1c-0.6-0.7-1.1-1.5-1.4-2.4c0-0.1,0-0.2,0.1-0.3l1.4-1.2
	c0-0.3-0.1-0.5-0.1-0.8c0-0.3,0-0.6,0.1-0.8L1.3,6.1C1.2,6,1.1,5.9,1.2,5.8C1.5,4.9,2,4.1,2.6,3.4c0.1-0.1,0.2-0.1,0.3-0.1l1.7,0.6
	C5,3.6,5.5,3.3,6,3.1l0.3-1.8C6.4,1.1,6.5,1,6.6,1c0.9-0.2,1.8-0.2,2.7,0c0.1,0,0.2,0.1,0.2,0.2L10,3.1c0.5,0.2,1,0.5,1.4,0.8
	l1.7-0.6c0.1,0,0.2,0,0.3,0.1c0.6,0.7,1.1,1.5,1.4,2.4c0,0.1,0,0.2-0.1,0.3l-1.4,1.2c0,0.3,0.1,0.6,0.1,0.8c0,0.3,0,0.6-0.1,0.8
	L14.7,10.1z M10.7,8.1c0-1.5-1.2-2.7-2.7-2.7c-1.5,0-2.7,1.2-2.7,2.7c0,1.5,1.2,2.7,2.7,2.7C9.5,10.8,10.7,9.6,10.7,8.1z"/>
</svg>
