<?xml version="1.0" encoding="utf-8"?>
<!-- Generator: Adobe Illustrator 19.1.0, SVG Export Plug-In . SVG Version: 6.00 Build 0)  -->
<svg version="1.1" baseProfile="tiny" xmlns="http://www.w3.org/2000/svg" xmlns:xlink="http://www.w3.org/1999/xlink" x="0px"
	 y="0px" viewBox="0 0 250.9 35.7" xml:space="preserve">
<g id="Layer_1" display="none">
</g>
<g id="Layer_2">
	<g>
		<g>
			<path fill="#FFFFFF" d="M20.4,17.8"/>
			<polygon fill="#034EA2" points="0,4.4 40.8,4.4 40.8,30.8 0,30.8 0,4.4 			"/>
			<path fill="#034EA2" d="M20.4,17.6"/>
			<polygon fill="#FFF200" points="19.5,10.1 20.4,9.5 21.3,10.1 20.9,9.1 21.8,8.5 20.7,8.5 20.4,7.5 20.1,8.5 19,8.5 19.9,9.1 
				19.5,10.1 			"/>
			<polygon fill="#FFF200" points="15.1,11.3 15.9,10.7 16.8,11.3 16.5,10.3 17.4,9.7 16.3,9.7 15.9,8.7 15.6,9.7 14.5,9.7 
				15.4,10.3 15.1,11.3 			"/>
			<polygon fill="#FFF200" points="12.7,11.8 12.4,12.8 11.3,12.8 12.2,13.5 11.8,14.4 12.7,13.8 13.5,14.4 13.2,13.5 14.1,12.8 
				13,12.8 12.7,11.8 			"/>
			<polygon fill="#FFF200" points="11.5,18.2 12.3,18.8 12,17.8 12.9,17.2 11.8,17.2 11.5,16.2 11.2,17.2 10.1,17.2 11,17.8 
				10.6,18.8 11.5,18.2 			"/>
			<polygon fill="#FFF200" points="13,21.5 12.7,20.5 12.4,21.5 11.3,21.5 12.2,22.1 11.8,23.1 12.7,22.5 13.5,23.1 13.2,22.1 
				14.1,21.5 13,21.5 			"/>
			<polygon fill="#FFF200" points="16.3,24.7 16,23.7 15.6,24.7 14.5,24.7 15.4,25.3 15.1,26.3 16,25.7 16.8,26.3 16.5,25.3 
				17.4,24.7 16.3,24.7 			"/>
			<polygon fill="#FFF200" points="20.7,25.8 20.4,24.8 20.1,25.8 19,25.8 19.9,26.4 19.5,27.4 20.4,26.8 21.3,27.4 20.9,26.4 
				21.8,25.8 20.7,25.8 			"/>
			<polygon fill="#FFF200" points="25.2,24.7 24.9,23.7 24.5,24.7 23.4,24.7 24.3,25.3 24,26.3 24.9,25.7 25.7,26.3 25.4,25.3 
				26.3,24.7 25.2,24.7 			"/>
			<polygon fill="#FFF200" points="28.5,21.5 28.1,20.5 27.8,21.5 26.7,21.5 27.6,22.1 27.3,23.1 28.1,22.5 29,23.1 28.7,22.1 
				29.5,21.5 28.5,21.5 			"/>
			<polygon fill="#FFF200" points="30.7,17.2 29.6,17.2 29.3,16.2 29,17.2 27.9,17.2 28.8,17.8 28.4,18.8 29.3,18.1 30.2,18.8 
				29.8,17.8 30.7,17.2 			"/>
			<polygon fill="#FFF200" points="27.3,14.4 28.1,13.8 29,14.4 28.7,13.4 29.5,12.8 28.5,12.8 28.1,11.8 27.8,12.8 26.7,12.8 
				27.6,13.4 27.3,14.4 			"/>
			<polygon fill="#FFF200" points="24.9,8.7 24.5,9.7 23.5,9.7 24.3,10.3 24,11.3 24.9,10.7 25.7,11.3 25.4,10.3 26.3,9.7 25.2,9.7 
				24.9,8.7 			"/>
		</g>
		<g>
			<path d="M49.4,8.9c0-0.6,0-1.1,0.1-1.6c0.1-0.5,0.3-1,0.5-1.4c0.3-0.4,0.6-0.8,1.1-1s1.1-0.4,1.8-0.4c0.2,0,0.3,0,0.5,0
				c0.2,0,0.4,0,0.6,0.1c0.2,0,0.4,0.1,0.6,0.1c0.2,0,0.4,0.1,0.6,0.2c0.1,0,0.2,0.1,0.2,0.2s0,0.1,0,0.2l-0.1,0.5
				c0,0.1,0,0.1-0.1,0.2c0,0-0.1,0-0.2,0c-0.3,0-0.7-0.1-1-0.1c-0.4,0-0.7-0.1-1.1-0.1c-0.4,0-0.8,0.1-1.1,0.2
				c-0.3,0.2-0.5,0.4-0.6,0.7s-0.2,0.6-0.3,1C51,8.1,51,8.5,51,8.9c0,0.4,0,0.8,0.1,1.2c0.1,0.4,0.2,0.7,0.3,1
				c0.1,0.3,0.4,0.5,0.6,0.6c0.3,0.2,0.6,0.2,1,0.2c0.4,0,0.7,0,1.1-0.1c0.3,0,0.7-0.1,1-0.1c0.1,0,0.2,0,0.2,0c0,0,0.1,0.1,0.1,0.2
				l0.1,0.5c0.1,0.2,0,0.3-0.2,0.4C55.2,13,55,13,54.8,13.1c-0.2,0-0.4,0.1-0.6,0.1c-0.2,0-0.4,0.1-0.6,0.1c-0.2,0-0.4,0-0.6,0
				c-0.7,0-1.3-0.1-1.8-0.4s-0.8-0.6-1.1-1c-0.3-0.4-0.4-0.9-0.5-1.4C49.4,10,49.4,9.5,49.4,8.9z"/>
			<path d="M62.1,9.9c0,0.4,0,0.8-0.1,1.2c0,0.4-0.2,0.8-0.4,1.1c-0.2,0.3-0.5,0.6-0.9,0.8s-0.9,0.3-1.6,0.3c-0.6,0-1.2-0.1-1.5-0.3
				c-0.4-0.2-0.7-0.5-0.8-0.8c-0.2-0.3-0.3-0.7-0.3-1.1c0-0.4-0.1-0.8-0.1-1.2c0-0.3,0-0.6,0.1-1c0.1-0.4,0.2-0.7,0.4-1
				c0.2-0.3,0.5-0.6,0.8-0.8c0.4-0.2,0.9-0.3,1.5-0.3c0.6,0,1.1,0.1,1.5,0.3c0.4,0.2,0.7,0.4,0.9,0.7c0.2,0.3,0.3,0.7,0.4,1
				S62.1,9.5,62.1,9.9z M60.7,10c0-0.3,0-0.6-0.1-0.9c0-0.3-0.1-0.5-0.2-0.6C60.3,8.3,60.2,8.1,60,8c-0.2-0.1-0.4-0.1-0.7-0.1
				c-0.3,0-0.5,0-0.7,0.1c-0.2,0.1-0.3,0.2-0.4,0.4C58.1,8.6,58,8.8,58,9.1c0,0.3-0.1,0.6-0.1,0.9c0,0.3,0,0.6,0.1,0.9
				c0,0.3,0.1,0.5,0.2,0.6c0.1,0.2,0.2,0.3,0.4,0.4C58.7,12,59,12,59.2,12c0.3,0,0.5,0,0.7-0.1c0.2-0.1,0.3-0.2,0.4-0.4
				s0.2-0.4,0.2-0.6C60.6,10.6,60.7,10.3,60.7,10z"/>
			<path d="M67.1,8.4c0.1,0,0.2,0.1,0.2,0.2v0.7c0,0.1-0.1,0.2-0.2,0.2h-3.8c-0.1,0-0.2-0.1-0.2-0.2V8.7c0-0.1,0.1-0.2,0.2-0.2H67.1
				z"/>
			<path d="M71.5,3.9c0.1,0,0.3,0,0.4,0s0.3,0,0.5,0C72.6,3.9,72.8,4,73,4c0.2,0,0.3,0.1,0.5,0.1c0.1,0,0.2,0.1,0.2,0.2
				c0,0.1,0,0.1,0,0.2l-0.1,0.5c0,0.1-0.1,0.1-0.1,0.2c-0.1,0-0.1,0-0.2,0c-0.3,0-0.6-0.1-0.8-0.1c-0.3,0-0.5,0-0.7,0
				c-0.4,0-0.7,0.1-0.9,0.2c-0.2,0.2-0.3,0.4-0.3,0.9v0.6h3.4c0.1,0,0.2,0,0.2,0.1c0,0,0,0.1,0,0.2v5.9c0,0.1,0,0.1,0,0.2
				c0,0-0.1,0.1-0.2,0.1h-0.9c-0.2,0-0.3-0.1-0.3-0.2v-5h-2.2v5c0,0.1,0,0.1,0,0.2c0,0-0.1,0.1-0.2,0.1h-0.9c-0.2,0-0.3-0.1-0.3-0.2
				v-5h-0.6c-0.2,0-0.2-0.1-0.2-0.2V7.1c0-0.2,0.1-0.3,0.2-0.3H69V6c0-0.7,0.2-1.2,0.6-1.6S70.6,3.9,71.5,3.9z"/>
			<path d="M81,13.1c0,0-0.1,0.1-0.2,0.1h-0.9c-0.2,0-0.2-0.1-0.2-0.2l0-3.7c0-0.4-0.1-0.7-0.2-0.9C79.3,8.1,79,8,78.6,8
				c-0.1,0-0.3,0-0.4,0.1s-0.3,0.1-0.5,0.2c-0.2,0.1-0.3,0.1-0.5,0.2S77,8.5,76.9,8.6v4.3c0,0.2-0.1,0.2-0.2,0.2h-0.9
				c-0.2,0-0.2-0.1-0.2-0.2V7.1c0-0.2,0.1-0.3,0.2-0.3h0.9c0.2,0,0.2,0.1,0.2,0.3v0.4c0,0,0,0,0,0s0,0,0,0c0.1-0.1,0.3-0.2,0.4-0.3
				c0.2-0.1,0.3-0.2,0.5-0.3s0.4-0.1,0.6-0.2c0.2,0,0.4-0.1,0.6-0.1c0.4,0,0.8,0.1,1,0.2c0.3,0.1,0.4,0.3,0.6,0.5
				c0.1,0.2,0.2,0.5,0.2,0.8S81,8.8,81,9.1v3.8C81,13,81,13.1,81,13.1z"/>
			<path d="M86.4,12.4c-0.3,0.3-0.7,0.5-1.1,0.6c-0.4,0.2-0.8,0.2-1.3,0.2c-0.3,0-0.6,0-0.9-0.1c-0.2-0.1-0.4-0.2-0.5-0.4
				c-0.1-0.2-0.2-0.4-0.3-0.6c-0.1-0.2-0.1-0.5-0.1-0.8c0-0.8,0.2-1.3,0.6-1.7c0.4-0.3,1-0.5,1.8-0.5h1.7V8.9c0-0.2,0-0.4-0.1-0.5
				c0-0.1-0.1-0.2-0.2-0.3s-0.2-0.1-0.4-0.2c-0.2,0-0.4-0.1-0.7-0.1c-0.1,0-0.2,0-0.4,0c-0.2,0-0.3,0-0.5,0c-0.2,0-0.3,0-0.5,0
				c-0.2,0-0.3,0-0.4,0c-0.1,0-0.2,0-0.3,0c0,0-0.1-0.1-0.1-0.2l-0.1-0.5c0-0.1,0-0.2,0-0.2S82.9,7,83,6.9c0.1-0.1,0.3-0.1,0.5-0.1
				c0.2,0,0.4-0.1,0.6-0.1c0.2,0,0.4,0,0.6-0.1c0.2,0,0.4,0,0.5,0c0.6,0,1,0.1,1.3,0.2c0.3,0.1,0.6,0.3,0.8,0.5s0.3,0.5,0.3,0.7
				c0.1,0.3,0.1,0.6,0.1,1v2.5c0,0.1,0,0.2,0,0.3c0,0.1,0,0.1,0.1,0.2c0,0,0.1,0.1,0.1,0.1c0.1,0,0.1,0,0.2,0c0.1,0,0.2,0,0.2,0.1
				c0,0,0.1,0.1,0.1,0.1v0.5c0,0.1-0.1,0.2-0.3,0.3c-0.1,0-0.2,0-0.3,0c-0.1,0-0.2,0-0.3,0c-0.3,0-0.5-0.1-0.7-0.2
				S86.5,12.7,86.4,12.4L86.4,12.4z M86.3,10.3h-1.6c-0.3,0-0.6,0.1-0.8,0.2s-0.3,0.4-0.3,0.9c0,0.3,0.1,0.5,0.2,0.6
				s0.3,0.2,0.6,0.2c0.1,0,0.3,0,0.5-0.1s0.3-0.1,0.5-0.1c0.2-0.1,0.3-0.1,0.5-0.2c0.2-0.1,0.3-0.1,0.4-0.2V10.3z"/>
			<path d="M94.8,13.1c0,0-0.1,0.1-0.2,0.1h-0.9c-0.2,0-0.2-0.1-0.2-0.2l0-3.7c0-0.4-0.1-0.7-0.2-0.9C93.2,8.1,92.9,8,92.5,8
				c-0.1,0-0.3,0-0.4,0.1s-0.3,0.1-0.5,0.2c-0.2,0.1-0.3,0.1-0.5,0.2s-0.3,0.1-0.4,0.2v4.3c0,0.2-0.1,0.2-0.2,0.2h-0.9
				c-0.2,0-0.2-0.1-0.2-0.2V7.1c0-0.2,0.1-0.3,0.2-0.3h0.9c0.2,0,0.2,0.1,0.2,0.3v0.4c0,0,0,0,0,0s0,0,0,0c0.1-0.1,0.3-0.2,0.4-0.3
				c0.2-0.1,0.3-0.2,0.5-0.3s0.4-0.1,0.6-0.2c0.2,0,0.4-0.1,0.6-0.1c0.4,0,0.8,0.1,1,0.2c0.3,0.1,0.4,0.3,0.6,0.5
				c0.1,0.2,0.2,0.5,0.2,0.8s0.1,0.6,0.1,0.9v3.8C94.9,13,94.9,13.1,94.8,13.1z"/>
			<path d="M101.1,12.6c0,0.1,0,0.2,0,0.2s-0.1,0.1-0.2,0.2c-0.3,0.1-0.6,0.2-0.9,0.2c-0.4,0-0.7,0.1-1,0.1c-0.6,0-1.1-0.1-1.5-0.3
				s-0.6-0.4-0.8-0.7c-0.2-0.3-0.3-0.7-0.4-1.1s-0.1-0.8-0.1-1.3c0-0.4,0-0.8,0.1-1.2c0.1-0.4,0.2-0.7,0.4-1.1
				c0.2-0.3,0.5-0.6,0.8-0.7c0.4-0.2,0.9-0.3,1.4-0.3c0.1,0,0.3,0,0.5,0c0.2,0,0.4,0,0.5,0.1c0.2,0,0.4,0.1,0.5,0.1s0.3,0.1,0.5,0.2
				c0.2,0.1,0.2,0.2,0.2,0.4L101,7.9c0,0.1-0.1,0.2-0.1,0.2c-0.1,0-0.2,0-0.3,0C100.3,8,100,8,99.8,8s-0.5,0-0.8,0
				c-0.5,0-0.9,0.2-1.1,0.5c-0.2,0.3-0.3,0.8-0.3,1.5c0,0.4,0,0.7,0.1,1c0,0.3,0.1,0.5,0.2,0.6c0.1,0.2,0.3,0.3,0.4,0.3
				C98.5,12,98.7,12,99,12c0.2,0,0.5,0,0.8,0c0.3,0,0.6,0,0.9-0.1c0.1,0,0.2,0,0.2,0c0.1,0,0.1,0.1,0.1,0.2L101.1,12.6z"/>
			<path d="M103.4,10.4c0,0.3,0,0.6,0.1,0.8c0.1,0.2,0.2,0.4,0.3,0.5c0.1,0.1,0.3,0.2,0.5,0.3c0.2,0.1,0.4,0.1,0.7,0.1
				c0.2,0,0.5,0,0.8-0.1c0.3,0,0.6-0.1,0.9-0.1c0.1,0,0.2,0,0.3,0c0,0,0.1,0.1,0.1,0.2l0.1,0.4c0,0.1,0,0.2,0,0.2
				c0,0.1-0.1,0.1-0.2,0.2c-0.1,0.1-0.3,0.1-0.5,0.1c-0.2,0-0.4,0.1-0.5,0.1c-0.2,0-0.4,0-0.6,0.1c-0.2,0-0.4,0-0.5,0
				c-0.6,0-1.1-0.1-1.5-0.3c-0.4-0.2-0.7-0.4-0.9-0.7c-0.2-0.3-0.3-0.7-0.4-1c-0.1-0.4-0.1-0.8-0.1-1.2c0-0.3,0-0.7,0.1-1.1
				c0.1-0.4,0.2-0.8,0.4-1.1c0.2-0.3,0.5-0.6,0.8-0.9c0.4-0.2,0.9-0.3,1.5-0.3c0.6,0,1.1,0.1,1.4,0.3c0.4,0.2,0.6,0.4,0.8,0.7
				s0.3,0.6,0.4,0.9c0.1,0.4,0.1,0.7,0.1,1c0,0.2,0,0.4-0.1,0.6c-0.1,0.1-0.3,0.2-0.5,0.2H103.4z M104.7,7.8c-0.2,0-0.4,0-0.6,0.1
				c-0.2,0.1-0.3,0.2-0.4,0.3s-0.2,0.3-0.2,0.5s-0.1,0.4-0.1,0.7h2.6c0-0.2,0-0.4-0.1-0.6c0-0.2-0.1-0.4-0.2-0.5
				c-0.1-0.1-0.2-0.3-0.4-0.3S105,7.8,104.7,7.8z"/>
			<path d="M114.1,12.9c0,0.1,0,0.1,0,0.2s-0.1,0.1-0.2,0.1H113c-0.2,0-0.2-0.1-0.2-0.2v-0.4c0,0,0,0,0,0c0,0,0,0,0,0
				c-0.1,0.1-0.2,0.2-0.4,0.3c-0.2,0.1-0.3,0.2-0.5,0.3c-0.2,0.1-0.4,0.1-0.6,0.2c-0.2,0-0.4,0.1-0.6,0.1c-0.4,0-0.8-0.1-1-0.2
				s-0.5-0.4-0.6-0.6c-0.2-0.3-0.3-0.6-0.3-1s-0.1-0.8-0.1-1.3c0-0.5,0-1,0.1-1.4c0.1-0.4,0.2-0.8,0.4-1.1c0.2-0.3,0.5-0.5,0.8-0.7
				c0.3-0.2,0.8-0.2,1.3-0.2c0.5,0,1.1,0.1,1.6,0.3c0,0,0,0,0,0s0,0,0,0V4.3c0-0.1,0-0.2,0-0.2c0,0,0.1-0.1,0.2-0.1h0.9
				c0.1,0,0.2,0,0.2,0.1c0,0,0,0.1,0,0.2V12.9z M112.7,8.1C112.4,8,112.2,8,111.9,8c-0.2,0-0.5,0-0.7,0c-0.2,0-0.4,0-0.6,0.1
				c-0.2,0.1-0.3,0.2-0.4,0.4c-0.1,0.2-0.2,0.4-0.2,0.7s-0.1,0.6-0.1,1c0,0.4,0,0.8,0.1,1c0,0.3,0.1,0.5,0.2,0.6
				c0.1,0.1,0.2,0.2,0.3,0.3c0.1,0,0.3,0.1,0.4,0.1c0.1,0,0.3,0,0.4-0.1c0.2,0,0.3-0.1,0.5-0.2s0.3-0.1,0.5-0.2
				c0.1-0.1,0.3-0.1,0.4-0.2V8.1z"/>
			<path d="M124.8,9.9c0,0.5,0,1-0.1,1.4s-0.2,0.8-0.4,1.1c-0.2,0.3-0.5,0.5-0.9,0.7c-0.4,0.2-0.8,0.2-1.4,0.2c-0.2,0-0.4,0-0.7,0
				c-0.2,0-0.5,0-0.7-0.1c-0.2,0-0.4-0.1-0.6-0.1c-0.2,0-0.4-0.1-0.5-0.1c-0.1-0.1-0.2-0.1-0.3-0.2s-0.1-0.2-0.1-0.3V4.3
				c0-0.2,0.1-0.2,0.3-0.2h0.9c0.1,0,0.2,0,0.2,0.1c0,0,0.1,0.1,0.1,0.2V7c0.3-0.1,0.6-0.2,0.9-0.2s0.5-0.1,0.7-0.1
				c0.5,0,1,0.1,1.3,0.2c0.3,0.2,0.6,0.4,0.8,0.7c0.2,0.3,0.3,0.6,0.4,1C124.8,9,124.8,9.4,124.8,9.9z M123.3,10c0-0.4,0-0.7-0.1-1
				c0-0.3-0.1-0.5-0.2-0.6c-0.1-0.2-0.2-0.3-0.4-0.4s-0.3-0.1-0.5-0.1c-0.1,0-0.3,0-0.4,0s-0.2,0-0.3,0c-0.1,0-0.2,0-0.4,0.1
				s-0.3,0.1-0.5,0.1v3.8c0.2,0,0.4,0.1,0.7,0.1c0.2,0,0.4,0,0.7,0c0.2,0,0.4,0,0.6-0.1c0.2,0,0.3-0.1,0.4-0.3
				c0.1-0.1,0.2-0.3,0.3-0.6C123.3,10.8,123.3,10.5,123.3,10z"/>
			<path d="M128.3,11.3c0.1-0.3,0.2-0.5,0.3-0.8c0.1-0.2,0.2-0.4,0.2-0.6c0.1-0.2,0.1-0.4,0.2-0.6l0.8-2.4c0-0.1,0.1-0.1,0.1-0.2
				c0,0,0.1-0.1,0.2-0.1h1c0.1,0,0.2,0,0.2,0.1c0,0.1,0,0.1,0,0.2l-3,8.3c0,0.1-0.1,0.1-0.1,0.2c0,0-0.1,0.1-0.2,0.1H127
				c-0.1,0-0.2,0-0.2-0.1c0-0.1,0-0.1,0-0.2l0.8-2.2l-2.3-6c0-0.1,0-0.1,0-0.2c0-0.1,0.1-0.1,0.2-0.1h1c0.1,0,0.1,0,0.2,0
				c0,0,0.1,0.1,0.1,0.2l0.8,2.4L128.3,11.3L128.3,11.3z"/>
			<path d="M139.8,12.7c0,0.1,0,0.3-0.2,0.3c-0.1,0.1-0.2,0.1-0.4,0.1c-0.2,0-0.3,0.1-0.5,0.1c-0.2,0-0.3,0-0.5,0
				c-0.1,0-0.3,0-0.4,0c-0.4,0-0.7-0.1-0.9-0.2s-0.4-0.3-0.5-0.4c-0.1-0.2-0.2-0.4-0.2-0.7s0-0.5,0-0.8V7.9h-0.6
				c-0.1,0-0.2,0-0.2-0.1s-0.1-0.1-0.1-0.2V7.1c0-0.1,0-0.2,0.1-0.2c0,0,0.1-0.1,0.2-0.1h0.7V5.5c0-0.1,0-0.2,0.1-0.2
				c0,0,0.1-0.1,0.2-0.1l0.9-0.2c0.2,0,0.3,0,0.3,0.2v1.7h1.4c0.1,0,0.2,0,0.2,0.1c0,0,0,0.1,0,0.2v0.6c0,0.1,0,0.1,0,0.2
				s-0.1,0.1-0.2,0.1h-1.4v3.2c0,0.2,0,0.3,0,0.4c0,0.1,0.1,0.2,0.1,0.2c0.1,0,0.2,0.1,0.3,0.1c0.1,0,0.3,0,0.4,0c0.1,0,0.2,0,0.4,0
				c0.2,0,0.3,0,0.5,0c0.1,0,0.1,0,0.2,0c0,0,0.1,0.1,0.1,0.2L139.8,12.7z"/>
			<path d="M145.8,13.2h-0.9c-0.2,0-0.3-0.1-0.3-0.2c0-0.6,0-1.3,0-1.9s0-1.2,0-1.9c0-0.4-0.1-0.7-0.2-0.9c-0.1-0.2-0.4-0.3-0.8-0.3
				c-0.1,0-0.3,0-0.4,0.1c-0.2,0-0.3,0.1-0.5,0.2c-0.2,0.1-0.3,0.1-0.5,0.2c-0.1,0.1-0.3,0.1-0.4,0.2v4.4c0,0.1,0,0.1-0.1,0.2
				s-0.1,0.1-0.2,0.1h-0.9c-0.2,0-0.2-0.1-0.2-0.2V4.2c0-0.2,0.1-0.2,0.2-0.2h0.9c0.2,0,0.3,0.1,0.3,0.2l0,3.1
				c0.1-0.1,0.3-0.1,0.4-0.2c0.2-0.1,0.3-0.2,0.5-0.2s0.4-0.1,0.6-0.2c0.2,0,0.4-0.1,0.6-0.1c0.5,0,0.8,0.1,1.1,0.2
				c0.3,0.1,0.5,0.3,0.6,0.5c0.1,0.2,0.2,0.5,0.3,0.8s0.1,0.6,0.1,0.9v3.8C146.1,13.1,146,13.2,145.8,13.2z"/>
			<path d="M148.8,10.4c0,0.3,0,0.6,0.1,0.8c0.1,0.2,0.2,0.4,0.3,0.5c0.1,0.1,0.3,0.2,0.5,0.3c0.2,0.1,0.4,0.1,0.7,0.1
				c0.2,0,0.5,0,0.8-0.1c0.3,0,0.6-0.1,0.9-0.1c0.1,0,0.2,0,0.3,0c0,0,0.1,0.1,0.1,0.2l0.1,0.4c0,0.1,0,0.2,0,0.2
				c0,0.1-0.1,0.1-0.2,0.2c-0.1,0.1-0.3,0.1-0.5,0.1c-0.2,0-0.4,0.1-0.5,0.1c-0.2,0-0.4,0-0.6,0.1c-0.2,0-0.4,0-0.5,0
				c-0.6,0-1.1-0.1-1.5-0.3c-0.4-0.2-0.7-0.4-0.9-0.7c-0.2-0.3-0.3-0.7-0.4-1c-0.1-0.4-0.1-0.8-0.1-1.2c0-0.3,0-0.7,0.1-1.1
				c0.1-0.4,0.2-0.8,0.4-1.1c0.2-0.3,0.5-0.6,0.8-0.9c0.4-0.2,0.9-0.3,1.5-0.3c0.6,0,1.1,0.1,1.4,0.3c0.4,0.2,0.6,0.4,0.8,0.7
				s0.3,0.6,0.4,0.9c0.1,0.4,0.1,0.7,0.1,1c0,0.2,0,0.4-0.1,0.6c-0.1,0.1-0.3,0.2-0.5,0.2H148.8z M150.1,7.8c-0.2,0-0.4,0-0.6,0.1
				c-0.2,0.1-0.3,0.2-0.4,0.3s-0.2,0.3-0.2,0.5s-0.1,0.4-0.1,0.7h2.6c0-0.2,0-0.4-0.1-0.6c0-0.2-0.1-0.4-0.2-0.5
				c-0.1-0.1-0.2-0.3-0.4-0.3S150.3,7.8,150.1,7.8z"/>
			<path d="M157.9,4.8c0-0.2,0.1-0.3,0.3-0.3h4.8c0.2,0,0.2,0.1,0.2,0.2v0.8c0,0.2-0.1,0.2-0.3,0.2h-3.5v2.2h3.1
				c0.2,0,0.3,0.1,0.3,0.2v0.8c0,0.2-0.1,0.2-0.3,0.2h-3.1v2.6h3.6c0.2,0,0.2,0.1,0.2,0.2v0.8c0,0.2-0.1,0.2-0.2,0.2h-4.8
				c-0.2,0-0.3-0.1-0.3-0.2V4.8z"/>
			<path d="M169.8,13.2h-0.9c-0.1,0-0.2,0-0.2-0.1c0,0-0.1-0.1-0.1-0.2v-0.4l0,0c-0.1,0.1-0.3,0.2-0.4,0.3s-0.3,0.2-0.5,0.3
				c-0.2,0.1-0.4,0.1-0.6,0.2c-0.2,0-0.4,0.1-0.6,0.1c-0.4,0-0.8-0.1-1-0.2c-0.3-0.1-0.4-0.3-0.6-0.5c-0.1-0.2-0.2-0.5-0.2-0.8
				c0-0.3-0.1-0.6-0.1-0.9V7.1c0-0.2,0.1-0.3,0.2-0.3h1c0.2,0,0.2,0.1,0.2,0.3v3.7c0,0.2,0,0.4,0,0.5c0,0.2,0.1,0.3,0.1,0.4
				s0.2,0.2,0.3,0.3c0.1,0.1,0.3,0.1,0.5,0.1c0.1,0,0.3,0,0.5-0.1s0.3-0.1,0.5-0.2s0.3-0.1,0.5-0.2c0.1-0.1,0.2-0.1,0.3-0.2V7.1
				c0-0.1,0-0.1,0.1-0.2c0,0,0.1-0.1,0.2-0.1h0.9c0.2,0,0.2,0.1,0.2,0.3v5.9C170.1,13.1,170,13.2,169.8,13.2z"/>
			<path d="M173.1,12.9c0,0.2-0.1,0.2-0.2,0.2h-0.9c-0.2,0-0.2-0.1-0.2-0.2V7.1c0-0.2,0.1-0.3,0.2-0.3h0.9c0.2,0,0.3,0.1,0.3,0.3
				v0.6l0,0c0.1-0.1,0.2-0.2,0.4-0.3s0.3-0.2,0.5-0.3s0.4-0.2,0.5-0.2c0.2-0.1,0.4-0.1,0.5-0.1c0.1,0,0.2,0,0.2,0
				c0.1,0,0.1,0.1,0.1,0.2l0.1,0.9c0,0.1,0,0.2,0,0.2s-0.1,0.1-0.2,0.1c-0.2,0-0.4,0.1-0.6,0.1c-0.2,0-0.4,0.1-0.6,0.2
				c-0.2,0.1-0.4,0.1-0.5,0.2c-0.2,0.1-0.3,0.1-0.4,0.2V12.9z"/>
			<path d="M181.7,9.9c0,0.4,0,0.8-0.1,1.2c0,0.4-0.2,0.8-0.4,1.1c-0.2,0.3-0.5,0.6-0.9,0.8c-0.4,0.2-0.9,0.3-1.6,0.3
				c-0.6,0-1.2-0.1-1.5-0.3c-0.4-0.2-0.7-0.5-0.8-0.8c-0.2-0.3-0.3-0.7-0.3-1.1c0-0.4-0.1-0.8-0.1-1.2c0-0.3,0-0.6,0.1-1
				c0.1-0.4,0.2-0.7,0.4-1c0.2-0.3,0.5-0.6,0.8-0.8s0.9-0.3,1.5-0.3c0.6,0,1.1,0.1,1.5,0.3s0.7,0.4,0.9,0.7c0.2,0.3,0.3,0.7,0.4,1
				C181.7,9.1,181.7,9.5,181.7,9.9z M180.3,10c0-0.3,0-0.6-0.1-0.9c0-0.3-0.1-0.5-0.2-0.6c-0.1-0.2-0.2-0.3-0.4-0.4
				c-0.2-0.1-0.4-0.1-0.7-0.1c-0.3,0-0.5,0-0.7,0.1c-0.2,0.1-0.3,0.2-0.4,0.4s-0.2,0.4-0.2,0.6c0,0.3-0.1,0.6-0.1,0.9
				c0,0.3,0,0.6,0.1,0.9c0,0.3,0.1,0.5,0.2,0.6c0.1,0.2,0.2,0.3,0.4,0.4c0.2,0.1,0.4,0.1,0.7,0.1c0.3,0,0.5,0,0.7-0.1
				c0.2-0.1,0.3-0.2,0.4-0.4c0.1-0.2,0.2-0.4,0.2-0.6C180.2,10.6,180.3,10.3,180.3,10z"/>
			<path d="M188.6,9.9c0,0.5,0,1-0.1,1.4s-0.2,0.8-0.4,1.1c-0.2,0.3-0.5,0.5-0.8,0.6c-0.3,0.1-0.8,0.2-1.3,0.2c-0.2,0-0.5,0-0.7-0.1
				s-0.6-0.1-0.9-0.2l0,0v2.3c0,0.1,0,0.1,0,0.2c0,0.1-0.1,0.1-0.2,0.1h-0.9c-0.1,0-0.2,0-0.2-0.1c0,0,0-0.1,0-0.2V7.1
				c0-0.2,0.1-0.3,0.2-0.3h0.9c0.1,0,0.2,0,0.2,0.1c0,0,0,0.1,0,0.2v0.4l0,0c0.1-0.1,0.2-0.2,0.4-0.3c0.2-0.1,0.3-0.2,0.5-0.3
				c0.2-0.1,0.4-0.1,0.6-0.2c0.2-0.1,0.4-0.1,0.6-0.1c0.4,0,0.8,0.1,1.1,0.2c0.3,0.2,0.5,0.4,0.7,0.7c0.2,0.3,0.3,0.6,0.3,1
				C188.6,9,188.6,9.4,188.6,9.9z M187.1,9.9c0-0.4,0-0.7-0.1-1c0-0.3-0.1-0.4-0.2-0.6c-0.1-0.1-0.2-0.2-0.3-0.3
				c-0.1,0-0.3-0.1-0.4-0.1c-0.1,0-0.3,0-0.4,0.1c-0.2,0-0.3,0.1-0.5,0.1c-0.2,0.1-0.3,0.1-0.5,0.2c-0.1,0.1-0.3,0.1-0.4,0.2v3.2
				c0.3,0.1,0.6,0.1,0.8,0.2c0.2,0,0.5,0,0.7,0c0.2,0,0.4,0,0.6-0.1c0.2-0.1,0.3-0.2,0.4-0.3s0.2-0.4,0.2-0.7
				C187.1,10.7,187.1,10.3,187.1,9.9z"/>
			<path d="M191.1,10.4c0,0.3,0,0.6,0.1,0.8c0.1,0.2,0.2,0.4,0.3,0.5s0.3,0.2,0.5,0.3c0.2,0.1,0.4,0.1,0.7,0.1c0.2,0,0.5,0,0.8-0.1
				c0.3,0,0.6-0.1,0.9-0.1c0.1,0,0.2,0,0.3,0s0.1,0.1,0.1,0.2l0.1,0.4c0,0.1,0,0.2,0,0.2s-0.1,0.1-0.2,0.2c-0.1,0.1-0.3,0.1-0.5,0.1
				c-0.2,0-0.4,0.1-0.5,0.1s-0.4,0-0.6,0.1c-0.2,0-0.4,0-0.5,0c-0.6,0-1.1-0.1-1.5-0.3c-0.4-0.2-0.7-0.4-0.9-0.7
				c-0.2-0.3-0.3-0.7-0.4-1c-0.1-0.4-0.1-0.8-0.1-1.2c0-0.3,0-0.7,0.1-1.1c0.1-0.4,0.2-0.8,0.4-1.1c0.2-0.3,0.5-0.6,0.8-0.9
				c0.4-0.2,0.9-0.3,1.5-0.3c0.6,0,1.1,0.1,1.4,0.3c0.4,0.2,0.6,0.4,0.8,0.7s0.3,0.6,0.4,0.9c0.1,0.4,0.1,0.7,0.1,1
				c0,0.2,0,0.4-0.1,0.6c-0.1,0.1-0.3,0.2-0.5,0.2H191.1z M192.4,7.8c-0.2,0-0.4,0-0.6,0.1c-0.2,0.1-0.3,0.2-0.4,0.3
				s-0.2,0.3-0.2,0.5c0,0.2-0.1,0.4-0.1,0.7h2.6c0-0.2,0-0.4-0.1-0.6c0-0.2-0.1-0.4-0.2-0.5c-0.1-0.1-0.2-0.3-0.4-0.3
				S192.7,7.8,192.4,7.8z"/>
			<path d="M200.4,12.4c-0.3,0.3-0.7,0.5-1.1,0.6c-0.4,0.2-0.8,0.2-1.3,0.2c-0.3,0-0.6,0-0.9-0.1c-0.2-0.1-0.4-0.2-0.5-0.4
				c-0.1-0.2-0.2-0.4-0.3-0.6c-0.1-0.2-0.1-0.5-0.1-0.8c0-0.8,0.2-1.3,0.6-1.7s1-0.5,1.8-0.5h1.7V8.9c0-0.2,0-0.4-0.1-0.5
				s-0.1-0.2-0.2-0.3c-0.1-0.1-0.2-0.1-0.4-0.2c-0.2,0-0.4-0.1-0.7-0.1c-0.1,0-0.2,0-0.4,0c-0.2,0-0.3,0-0.5,0s-0.3,0-0.5,0
				c-0.2,0-0.3,0-0.4,0c-0.1,0-0.2,0-0.3,0c0,0-0.1-0.1-0.1-0.2l-0.1-0.5c0-0.1,0-0.2,0-0.2c0-0.1,0.1-0.1,0.3-0.2
				c0.1-0.1,0.3-0.1,0.5-0.1s0.4-0.1,0.6-0.1s0.4,0,0.6-0.1c0.2,0,0.4,0,0.5,0c0.6,0,1,0.1,1.3,0.2c0.3,0.1,0.6,0.3,0.8,0.5
				c0.2,0.2,0.3,0.5,0.3,0.7s0.1,0.6,0.1,1v2.5c0,0.1,0,0.2,0,0.3c0,0.1,0,0.1,0.1,0.2c0,0,0.1,0.1,0.1,0.1c0.1,0,0.1,0,0.2,0
				c0.1,0,0.2,0,0.2,0.1c0,0,0.1,0.1,0.1,0.1v0.5c0,0.1-0.1,0.2-0.3,0.3c-0.1,0-0.2,0-0.3,0c-0.1,0-0.2,0-0.3,0
				c-0.3,0-0.5-0.1-0.7-0.2C200.6,12.9,200.5,12.7,200.4,12.4L200.4,12.4z M200.3,10.3h-1.6c-0.3,0-0.6,0.1-0.8,0.2
				c-0.2,0.2-0.3,0.4-0.3,0.9c0,0.3,0.1,0.5,0.2,0.6c0.1,0.1,0.3,0.2,0.6,0.2c0.1,0,0.3,0,0.5-0.1c0.2,0,0.3-0.1,0.5-0.1
				c0.2-0.1,0.3-0.1,0.5-0.2c0.2-0.1,0.3-0.1,0.4-0.2V10.3z"/>
			<path d="M208.9,13.1c0,0-0.1,0.1-0.2,0.1h-0.9c-0.2,0-0.2-0.1-0.2-0.2l0-3.7c0-0.4-0.1-0.7-0.2-0.9c-0.1-0.2-0.4-0.4-0.7-0.4
				c-0.1,0-0.3,0-0.4,0.1s-0.3,0.1-0.5,0.2c-0.2,0.1-0.3,0.1-0.5,0.2s-0.3,0.1-0.4,0.2v4.3c0,0.2-0.1,0.2-0.2,0.2h-0.9
				c-0.2,0-0.2-0.1-0.2-0.2V7.1c0-0.2,0.1-0.3,0.2-0.3h0.9c0.2,0,0.2,0.1,0.2,0.3v0.4c0,0,0,0,0,0c0,0,0,0,0,0
				c0.1-0.1,0.3-0.2,0.4-0.3c0.2-0.1,0.3-0.2,0.5-0.3s0.4-0.1,0.6-0.2c0.2,0,0.4-0.1,0.6-0.1c0.4,0,0.8,0.1,1,0.2
				c0.3,0.1,0.4,0.3,0.6,0.5c0.1,0.2,0.2,0.5,0.2,0.8c0,0.3,0.1,0.6,0.1,0.9v3.8C208.9,13,208.9,13.1,208.9,13.1z"/>
			<path d="M217.3,12c0.6,0,1-0.2,1.3-0.5s0.4-0.8,0.4-1.5V4.8c0-0.2,0.1-0.3,0.3-0.3h1c0.1,0,0.2,0,0.2,0.1c0,0,0,0.1,0,0.2l0,5.2
				c0,0.3,0,0.5,0,0.8c0,0.3-0.1,0.5-0.2,0.8c-0.1,0.3-0.3,0.6-0.5,0.8c-0.2,0.2-0.4,0.4-0.7,0.5s-0.5,0.2-0.8,0.3s-0.6,0.1-0.9,0.1
				c-1.4,0-2.3-0.5-2.8-1.4c-0.1-0.3-0.2-0.5-0.3-0.9s-0.1-0.6-0.1-1V4.8c0-0.2,0.1-0.3,0.2-0.3h1c0.2,0,0.2,0.1,0.2,0.3V10
				c0,0.6,0.1,1.1,0.4,1.5C216.3,11.8,216.7,12,217.3,12z"/>
			<path d="M227.5,13.1c0,0-0.1,0.1-0.2,0.1h-0.9c-0.2,0-0.2-0.1-0.2-0.2l0-3.7c0-0.4-0.1-0.7-0.2-0.9c-0.1-0.2-0.4-0.4-0.7-0.4
				c-0.1,0-0.3,0-0.4,0.1s-0.3,0.1-0.5,0.2c-0.2,0.1-0.3,0.1-0.5,0.2s-0.3,0.1-0.4,0.2v4.3c0,0.2-0.1,0.2-0.2,0.2h-0.9
				c-0.2,0-0.2-0.1-0.2-0.2V7.1c0-0.2,0.1-0.3,0.2-0.3h0.9c0.2,0,0.2,0.1,0.2,0.3v0.4c0,0,0,0,0,0c0,0,0,0,0,0
				c0.1-0.1,0.3-0.2,0.4-0.3c0.2-0.1,0.3-0.2,0.5-0.3s0.4-0.1,0.6-0.2c0.2,0,0.4-0.1,0.6-0.1c0.4,0,0.8,0.1,1,0.2
				c0.3,0.1,0.4,0.3,0.6,0.5c0.1,0.2,0.2,0.5,0.2,0.8c0,0.3,0.1,0.6,0.1,0.9v3.8C227.6,13,227.6,13.1,227.5,13.1z"/>
			<path d="M230.6,5.1c0,0.1,0,0.2,0,0.3c0,0.1-0.1,0.2-0.1,0.2s-0.1,0.1-0.2,0.2c-0.1,0-0.2,0.1-0.4,0.1c-0.2,0-0.3,0-0.4-0.1
				c-0.1,0-0.2-0.1-0.2-0.2c-0.1-0.1-0.1-0.1-0.1-0.2c0-0.1,0-0.2,0-0.3c0-0.2,0-0.4,0.1-0.5s0.3-0.2,0.6-0.2c0.3,0,0.5,0.1,0.6,0.2
				C230.6,4.7,230.6,4.9,230.6,5.1z M230.5,12.9c0,0.1,0,0.1,0,0.2c0,0-0.1,0.1-0.2,0.1h-0.9c-0.2,0-0.3-0.1-0.3-0.2V7
				c0-0.2,0.1-0.2,0.3-0.2h0.9c0.1,0,0.2,0,0.2,0.1c0,0,0,0.1,0,0.2V12.9z"/>
			<path d="M237.7,9.9c0,0.4,0,0.8-0.1,1.2c0,0.4-0.2,0.8-0.4,1.1c-0.2,0.3-0.5,0.6-0.9,0.8c-0.4,0.2-0.9,0.3-1.6,0.3
				c-0.6,0-1.2-0.1-1.5-0.3c-0.4-0.2-0.7-0.5-0.8-0.8c-0.2-0.3-0.3-0.7-0.3-1.1c0-0.4-0.1-0.8-0.1-1.2c0-0.3,0-0.6,0.1-1
				c0.1-0.4,0.2-0.7,0.4-1c0.2-0.3,0.5-0.6,0.8-0.8s0.9-0.3,1.5-0.3c0.6,0,1.1,0.1,1.5,0.3s0.7,0.4,0.9,0.7c0.2,0.3,0.3,0.7,0.4,1
				C237.6,9.1,237.7,9.5,237.7,9.9z M236.2,10c0-0.3,0-0.6-0.1-0.9c0-0.3-0.1-0.5-0.2-0.6c-0.1-0.2-0.2-0.3-0.4-0.4
				c-0.2-0.1-0.4-0.1-0.7-0.1c-0.3,0-0.5,0-0.7,0.1c-0.2,0.1-0.3,0.2-0.4,0.4s-0.2,0.4-0.2,0.6c0,0.3-0.1,0.6-0.1,0.9
				c0,0.3,0,0.6,0.1,0.9c0,0.3,0.1,0.5,0.2,0.6c0.1,0.2,0.2,0.3,0.4,0.4c0.2,0.1,0.4,0.1,0.7,0.1c0.3,0,0.5,0,0.7-0.1
				c0.2-0.1,0.3-0.2,0.4-0.4c0.1-0.2,0.2-0.4,0.2-0.6C236.2,10.6,236.2,10.3,236.2,10z"/>
			<path d="M244.4,13.1c0,0-0.1,0.1-0.2,0.1h-0.9c-0.2,0-0.2-0.1-0.2-0.2l0-3.7c0-0.4-0.1-0.7-0.2-0.9c-0.1-0.2-0.4-0.4-0.7-0.4
				c-0.1,0-0.3,0-0.4,0.1s-0.3,0.1-0.5,0.2c-0.2,0.1-0.3,0.1-0.5,0.2s-0.3,0.1-0.4,0.2v4.3c0,0.2-0.1,0.2-0.2,0.2h-0.9
				c-0.2,0-0.2-0.1-0.2-0.2V7.1c0-0.2,0.1-0.3,0.2-0.3h0.9c0.2,0,0.2,0.1,0.2,0.3v0.4c0,0,0,0,0,0c0,0,0,0,0,0
				c0.1-0.1,0.3-0.2,0.4-0.3c0.2-0.1,0.3-0.2,0.5-0.3s0.4-0.1,0.6-0.2c0.2,0,0.4-0.1,0.6-0.1c0.4,0,0.8,0.1,1,0.2
				c0.3,0.1,0.4,0.3,0.6,0.5c0.1,0.2,0.2,0.5,0.2,0.8c0,0.3,0.1,0.6,0.1,0.9v3.8C244.5,13,244.4,13.1,244.4,13.1z"/>
		</g>
		<g>
			<line fill="none" stroke="#000000" stroke-width="0.5" x1="48.6" y1="18.3" x2="48.8" y2="18.3"/>
			
				<line fill="none" stroke="#000000" stroke-width="0.5" stroke-dasharray="0.5008,0.5008,0.5008,0.5008" x1="49.3" y1="18.3" x2="51.1" y2="18.3"/>
			
				<line fill="none" stroke="#000000" stroke-width="0.5" stroke-dasharray="0.5008,0.5008,0.5008,0.5008,0.5008,0.5008" x1="51.3" y1="18.3" x2="246.4" y2="18.3"/>
			<line fill="none" stroke="#000000" stroke-width="0.5" x1="246.7" y1="18.3" x2="246.9" y2="18.3"/>
		</g>
		<g>
			<path d="M52.3,21.6c0.1,0,0.3,0,0.4,0c0.2,0,0.4,0,0.6,0c0.2,0,0.4,0.1,0.6,0.1c0.2,0,0.4,0.1,0.5,0.2c0.1,0,0.1,0.1,0.2,0.1
				s0,0.1,0,0.1l-0.1,0.3c0,0,0,0.1-0.1,0.1c0,0-0.1,0-0.2,0c-0.3,0-0.6-0.1-0.9-0.1s-0.7-0.1-1.1-0.1c-0.5,0-0.8,0.1-1.1,0.3
				s-0.5,0.4-0.6,0.7s-0.2,0.6-0.3,1c0,0.4-0.1,0.8-0.1,1.3c0,0.4,0,0.8,0.1,1.2c0,0.4,0.1,0.7,0.3,1s0.4,0.5,0.6,0.7
				s0.6,0.3,1.1,0.3c0.4,0,0.7,0,1.1-0.1c0.3,0,0.6-0.1,0.9-0.1c0.1,0,0.1,0,0.2,0c0,0,0,0.1,0.1,0.1l0.1,0.3c0,0.1,0,0.1,0,0.2
				s-0.1,0.1-0.1,0.1c-0.1,0.1-0.3,0.1-0.5,0.2c-0.2,0-0.4,0.1-0.6,0.1c-0.2,0-0.4,0-0.6,0.1c-0.2,0-0.3,0-0.5,0
				c-0.6,0-1.1-0.1-1.5-0.3c-0.4-0.2-0.7-0.5-0.9-0.9s-0.4-0.8-0.5-1.3c-0.1-0.5-0.1-1-0.1-1.5c0-0.5,0-1,0.1-1.5
				c0.1-0.5,0.2-0.9,0.4-1.3c0.2-0.4,0.5-0.7,0.9-0.9C51.1,21.7,51.6,21.6,52.3,21.6z"/>
			<path d="M60.4,26.6c0,0.4,0,0.7-0.1,1.1s-0.1,0.7-0.3,1c-0.2,0.3-0.4,0.6-0.8,0.7c-0.3,0.2-0.8,0.3-1.4,0.3c-0.6,0-1-0.1-1.4-0.3
				c-0.3-0.2-0.6-0.4-0.7-0.7c-0.2-0.3-0.3-0.6-0.3-1s-0.1-0.7-0.1-1.1c0-0.3,0-0.6,0.1-0.9c0-0.3,0.2-0.7,0.3-1
				c0.2-0.3,0.4-0.5,0.7-0.7s0.8-0.3,1.3-0.3c0.6,0,1,0.1,1.3,0.3s0.6,0.4,0.8,0.7c0.2,0.3,0.3,0.6,0.3,0.9
				C60.3,25.9,60.4,26.2,60.4,26.6z M59.4,26.7c0-0.4,0-0.7-0.1-1c0-0.3-0.1-0.5-0.2-0.7s-0.3-0.3-0.5-0.4c-0.2-0.1-0.5-0.1-0.8-0.1
				c-0.3,0-0.6,0-0.8,0.1c-0.2,0.1-0.3,0.2-0.5,0.4c-0.1,0.2-0.2,0.4-0.2,0.7c0,0.3-0.1,0.6-0.1,1s0,0.7,0.1,1s0.1,0.5,0.2,0.7
				c0.1,0.2,0.3,0.3,0.5,0.4c0.2,0.1,0.4,0.1,0.8,0.1c0.3,0,0.6,0,0.8-0.1c0.2-0.1,0.4-0.2,0.5-0.4c0.1-0.2,0.2-0.4,0.2-0.7
				C59.4,27.4,59.4,27.1,59.4,26.7z"/>
			<path d="M66.1,29.6h-0.5c-0.1,0-0.2-0.1-0.2-0.2l0-3.6c0-0.3,0-0.5,0-0.7c0-0.2-0.1-0.3-0.2-0.4c-0.1-0.1-0.2-0.2-0.3-0.2
				s-0.3-0.1-0.5-0.1c-0.1,0-0.3,0-0.5,0.1c-0.2,0.1-0.4,0.1-0.6,0.2S63,24.9,62.8,25c-0.2,0.1-0.3,0.1-0.4,0.2v4.3
				c0,0.1-0.1,0.2-0.2,0.2h-0.5c-0.1,0-0.2-0.1-0.2-0.2V24c0-0.1,0.1-0.2,0.2-0.2h0.5c0.1,0,0.1,0,0.2,0s0.1,0.1,0.1,0.2v0.4l0,0
				c0.1-0.1,0.2-0.1,0.4-0.2c0.2-0.1,0.3-0.2,0.5-0.2c0.2-0.1,0.4-0.1,0.6-0.2c0.2-0.1,0.4-0.1,0.6-0.1c0.4,0,0.7,0.1,0.9,0.2
				c0.2,0.1,0.4,0.3,0.5,0.5c0.1,0.2,0.2,0.4,0.2,0.7c0,0.3,0.1,0.6,0.1,0.9v3.5C66.3,29.6,66.3,29.6,66.1,29.6z"/>
			<path d="M72.2,29.6h-0.5c-0.1,0-0.2-0.1-0.2-0.2l0-3.6c0-0.3,0-0.5,0-0.7c0-0.2-0.1-0.3-0.2-0.4c-0.1-0.1-0.2-0.2-0.3-0.2
				s-0.3-0.1-0.5-0.1c-0.1,0-0.3,0-0.5,0.1c-0.2,0.1-0.4,0.1-0.6,0.2s-0.4,0.1-0.5,0.2c-0.2,0.1-0.3,0.1-0.4,0.2v4.3
				c0,0.1-0.1,0.2-0.2,0.2h-0.5c-0.1,0-0.2-0.1-0.2-0.2V24c0-0.1,0.1-0.2,0.2-0.2h0.5c0.1,0,0.1,0,0.2,0s0.1,0.1,0.1,0.2v0.4l0,0
				c0.1-0.1,0.2-0.1,0.4-0.2c0.2-0.1,0.3-0.2,0.5-0.2c0.2-0.1,0.4-0.1,0.6-0.2c0.2-0.1,0.4-0.1,0.6-0.1c0.4,0,0.7,0.1,0.9,0.2
				c0.2,0.1,0.4,0.3,0.5,0.5c0.1,0.2,0.2,0.4,0.2,0.7c0,0.3,0.1,0.6,0.1,0.9v3.5C72.4,29.6,72.3,29.6,72.2,29.6z"/>
			<path d="M78.4,26.3c0,0.2,0,0.4-0.1,0.5S78.1,27,77.9,27h-3.4c0,0.4,0,0.7,0.1,0.9c0.1,0.2,0.1,0.4,0.3,0.6
				c0.1,0.1,0.3,0.3,0.5,0.3s0.4,0.1,0.7,0.1c0.1,0,0.3,0,0.4,0c0.2,0,0.3,0,0.5,0s0.3,0,0.4,0c0.1,0,0.3,0,0.4,0c0.1,0,0.1,0,0.2,0
				c0,0,0.1,0.1,0.1,0.1l0,0.3c0,0.1,0,0.2-0.1,0.2c-0.1,0-0.2,0.1-0.4,0.1s-0.3,0.1-0.5,0.1c-0.2,0-0.4,0-0.5,0.1
				c-0.2,0-0.3,0-0.5,0c-0.6,0-1-0.1-1.3-0.3c-0.3-0.2-0.6-0.4-0.7-0.7s-0.3-0.6-0.3-1s-0.1-0.7-0.1-1.1c0-0.3,0-0.6,0.1-1
				c0-0.4,0.2-0.7,0.3-1c0.2-0.3,0.4-0.6,0.7-0.8c0.3-0.2,0.8-0.3,1.3-0.3c0.5,0,0.9,0.1,1.2,0.2c0.3,0.2,0.6,0.4,0.7,0.6
				c0.2,0.2,0.3,0.5,0.3,0.9S78.4,26,78.4,26.3z M77.5,26.2c0-0.2,0-0.4-0.1-0.6c0-0.2-0.1-0.4-0.2-0.6s-0.3-0.3-0.4-0.4
				c-0.2-0.1-0.4-0.2-0.8-0.2c-0.3,0-0.5,0-0.7,0.1c-0.2,0.1-0.3,0.2-0.4,0.4c-0.1,0.2-0.2,0.3-0.3,0.6s-0.1,0.5-0.1,0.7H77.5z"/>
			<path d="M83.7,29.4c-0.2,0.1-0.5,0.2-0.8,0.2c-0.3,0-0.7,0.1-1,0.1c-0.5,0-1-0.1-1.3-0.2c-0.3-0.2-0.6-0.4-0.7-0.7
				c-0.2-0.3-0.3-0.6-0.3-1c-0.1-0.4-0.1-0.8-0.1-1.2c0-0.4,0-0.8,0.1-1.1c0.1-0.4,0.2-0.7,0.3-1c0.2-0.3,0.4-0.5,0.7-0.7
				s0.7-0.3,1.3-0.3c0.1,0,0.3,0,0.4,0c0.2,0,0.3,0,0.5,0s0.3,0,0.5,0.1c0.2,0,0.3,0.1,0.4,0.1c0.1,0,0.1,0.1,0.1,0.1
				c0,0,0,0.1,0,0.1l0,0.3c0,0.1-0.1,0.1-0.1,0.1c-0.1,0-0.1,0-0.2,0c-0.2,0-0.5,0-0.8-0.1c-0.3,0-0.6,0-0.8,0c-0.3,0-0.5,0-0.7,0.1
				s-0.3,0.2-0.4,0.4s-0.2,0.4-0.2,0.7c0,0.3-0.1,0.6-0.1,1c0,0.4,0,0.8,0.1,1.1c0,0.3,0.1,0.5,0.2,0.7c0.1,0.2,0.3,0.3,0.4,0.4
				s0.4,0.1,0.7,0.1c0.1,0,0.2,0,0.4,0s0.3,0,0.4,0c0.1,0,0.3,0,0.4,0c0.2,0,0.3,0,0.4,0c0.1,0,0.1,0,0.2,0s0.1,0.1,0.1,0.1l0,0.3
				C83.8,29.3,83.8,29.4,83.7,29.4z"/>
			<path d="M87.9,29.3c0,0.1,0,0.2-0.1,0.2c-0.1,0-0.2,0.1-0.3,0.1c-0.1,0-0.2,0.1-0.4,0.1c-0.1,0-0.3,0-0.4,0c-0.1,0-0.2,0-0.3,0
				c-0.3,0-0.5,0-0.6-0.1c-0.2-0.1-0.3-0.1-0.4-0.3s-0.2-0.2-0.2-0.4s-0.1-0.3-0.1-0.5v-3.9h-0.7c-0.1,0-0.2-0.1-0.2-0.2V24
				c0-0.1,0.1-0.2,0.2-0.2h0.7v-1.3c0-0.1,0-0.1,0.1-0.2c0,0,0.1-0.1,0.2-0.1l0.5-0.1c0.1,0,0.2,0,0.2,0.2v1.5h1.3
				c0.1,0,0.1,0,0.2,0.1c0,0,0,0.1,0,0.1v0.3c0,0.1,0,0.1,0,0.2c0,0-0.1,0-0.2,0h-1.3v3.6c0,0.1,0,0.3,0,0.3s0.1,0.2,0.1,0.2
				c0.1,0.1,0.1,0.1,0.3,0.1c0.1,0,0.3,0,0.4,0c0.1,0,0.2,0,0.3,0c0.2,0,0.3,0,0.4,0c0.1,0,0.2,0,0.2,0c0,0,0.1,0.1,0.1,0.1
				L87.9,29.3z"/>
			<path d="M89.7,22.2c0,0.2,0,0.3-0.1,0.4c-0.1,0.1-0.2,0.2-0.4,0.2c-0.2,0-0.4-0.1-0.4-0.2c-0.1-0.1-0.1-0.2-0.1-0.4
				c0-0.2,0-0.3,0.1-0.4c0.1-0.1,0.2-0.1,0.4-0.1c0.2,0,0.4,0,0.4,0.1C89.7,21.9,89.7,22.1,89.7,22.2z M89.7,29.4
				c0,0.1-0.1,0.2-0.2,0.2H89c-0.1,0-0.2-0.1-0.2-0.2V24c0-0.1,0-0.1,0.1-0.2c0,0,0.1,0,0.2,0h0.5c0.1,0,0.2,0.1,0.2,0.2V29.4z"/>
			<path d="M95.8,29.6h-0.5c-0.1,0-0.2-0.1-0.2-0.2l0-3.6c0-0.3,0-0.5,0-0.7c0-0.2-0.1-0.3-0.2-0.4c-0.1-0.1-0.2-0.2-0.3-0.2
				s-0.3-0.1-0.5-0.1c-0.1,0-0.3,0-0.5,0.1c-0.2,0.1-0.4,0.1-0.6,0.2s-0.4,0.1-0.5,0.2c-0.2,0.1-0.3,0.1-0.4,0.2v4.3
				c0,0.1-0.1,0.2-0.2,0.2h-0.5c-0.1,0-0.2-0.1-0.2-0.2V24c0-0.1,0.1-0.2,0.2-0.2h0.5c0.1,0,0.1,0,0.2,0s0.1,0.1,0.1,0.2v0.4l0,0
				c0.1-0.1,0.2-0.1,0.4-0.2c0.2-0.1,0.3-0.2,0.5-0.2c0.2-0.1,0.4-0.1,0.6-0.2c0.2-0.1,0.4-0.1,0.6-0.1c0.4,0,0.7,0.1,0.9,0.2
				c0.2,0.1,0.4,0.3,0.5,0.5c0.1,0.2,0.2,0.4,0.2,0.7c0,0.3,0.1,0.6,0.1,0.9v3.5C96,29.6,95.9,29.6,95.8,29.6z"/>
			<path d="M99.7,23.7c0.2,0,0.4,0,0.6,0c0.2,0,0.4,0,0.6,0.1c0.2,0,0.4,0.1,0.6,0.1c0.2,0,0.3,0.1,0.5,0.1c0.1,0,0.2,0.1,0.3,0.2
				c0,0.1,0,0.2,0,0.3v5.2c0,0.3,0,0.6-0.1,0.9c0,0.3-0.2,0.5-0.3,0.7c-0.2,0.2-0.4,0.3-0.7,0.5c-0.3,0.1-0.7,0.2-1.2,0.2
				c-0.2,0-0.3,0-0.5,0c-0.2,0-0.4,0-0.5,0c-0.2,0-0.3,0-0.5-0.1c-0.2,0-0.3-0.1-0.4-0.1c-0.1,0-0.1-0.1-0.1-0.1s0-0.1,0-0.1l0-0.3
				c0-0.1,0-0.1,0.1-0.1c0,0,0.1,0,0.2,0c0.3,0,0.5,0.1,0.9,0.1c0.3,0,0.6,0,0.8,0c0.3,0,0.5,0,0.7-0.1c0.2,0,0.3-0.1,0.4-0.2
				s0.2-0.2,0.2-0.4s0.1-0.3,0.1-0.5v-0.5c-0.4,0.1-0.7,0.2-1,0.3c-0.3,0.1-0.5,0.1-0.7,0.1c-0.5,0-0.8-0.1-1.1-0.2
				c-0.3-0.1-0.5-0.3-0.7-0.6c-0.2-0.3-0.3-0.6-0.4-0.9c-0.1-0.4-0.1-0.8-0.1-1.2c0-0.5,0-0.9,0.1-1.3s0.2-0.7,0.4-1
				s0.4-0.5,0.8-0.6C98.8,23.7,99.2,23.7,99.7,23.7z M98.2,26.6c0,0.4,0,0.8,0.1,1.1s0.1,0.5,0.2,0.7c0.1,0.2,0.2,0.3,0.4,0.4
				s0.4,0.1,0.6,0.1c0.2,0,0.5,0,0.8-0.1s0.6-0.1,0.9-0.2v-4c-0.2,0-0.5-0.1-0.8-0.1s-0.5,0-0.8,0c-0.2,0-0.4,0-0.6,0.1
				s-0.4,0.1-0.5,0.3c-0.1,0.1-0.2,0.4-0.3,0.6S98.2,26.2,98.2,26.6z"/>
			<path d="M111.5,29.6c0,0-0.1,0-0.2,0h-4.2c-0.1,0-0.2-0.1-0.2-0.2v-7.6c0-0.1,0.1-0.2,0.2-0.2h4.1c0.1,0,0.2,0.1,0.2,0.2v0.5
				c0,0.1-0.1,0.2-0.2,0.2h-3.4v2.5h3.1c0.1,0,0.2,0.1,0.2,0.2v0.5c0,0.1-0.1,0.2-0.2,0.2h-3.1v2.9h3.5c0.1,0,0.2,0.1,0.2,0.2v0.5
				C111.5,29.5,111.5,29.6,111.5,29.6z"/>
			<path d="M117.3,29.6h-0.5c-0.1,0-0.2-0.1-0.2-0.2V29l0,0c-0.1,0.1-0.2,0.1-0.4,0.2c-0.2,0.1-0.3,0.2-0.5,0.2
				c-0.2,0.1-0.4,0.1-0.6,0.2s-0.4,0.1-0.6,0.1c-0.4,0-0.7-0.1-0.9-0.2c-0.2-0.1-0.4-0.3-0.5-0.5c-0.1-0.2-0.2-0.4-0.2-0.7
				c0-0.3-0.1-0.6-0.1-0.9V24c0-0.1,0.1-0.2,0.2-0.2h0.5c0.1,0,0.2,0.1,0.2,0.2v3.6c0,0.3,0,0.5,0,0.7c0,0.2,0.1,0.3,0.2,0.4
				s0.2,0.2,0.3,0.2s0.3,0.1,0.5,0.1c0.1,0,0.3,0,0.5-0.1c0.2-0.1,0.4-0.1,0.6-0.2c0.2-0.1,0.4-0.1,0.5-0.2c0.2-0.1,0.3-0.1,0.4-0.2
				V24c0-0.1,0.1-0.2,0.2-0.2h0.5c0.1,0,0.2,0.1,0.2,0.2v5.4C117.5,29.6,117.5,29.6,117.3,29.6z"/>
			<path d="M122,24.6c-0.2,0-0.3,0.1-0.5,0.1c-0.2,0.1-0.4,0.1-0.6,0.2c-0.2,0.1-0.3,0.1-0.5,0.2s-0.3,0.1-0.3,0.1v4.2
				c0,0.1-0.1,0.2-0.2,0.2h-0.5c-0.1,0-0.2-0.1-0.2-0.2V24c0-0.1,0.1-0.2,0.2-0.2h0.5c0.1,0,0.2,0.1,0.2,0.2v0.5l0,0
				c0.1-0.1,0.2-0.1,0.3-0.2s0.3-0.2,0.5-0.2c0.2-0.1,0.3-0.1,0.5-0.2c0.2-0.1,0.3-0.1,0.5-0.1c0.1,0,0.1,0,0.1,0c0,0,0,0.1,0.1,0.1
				l0,0.5C122.1,24.5,122.1,24.6,122,24.6z"/>
			<path d="M127.6,26.6c0,0.4,0,0.7-0.1,1.1s-0.1,0.7-0.3,1c-0.2,0.3-0.4,0.6-0.8,0.7c-0.3,0.2-0.8,0.3-1.4,0.3
				c-0.6,0-1-0.1-1.4-0.3c-0.3-0.2-0.6-0.4-0.7-0.7c-0.2-0.3-0.3-0.6-0.3-1s-0.1-0.7-0.1-1.1c0-0.3,0-0.6,0.1-0.9
				c0-0.3,0.2-0.7,0.3-1c0.2-0.3,0.4-0.5,0.7-0.7s0.8-0.3,1.3-0.3c0.6,0,1,0.1,1.3,0.3s0.6,0.4,0.8,0.7c0.2,0.3,0.3,0.6,0.3,0.9
				C127.6,25.9,127.6,26.2,127.6,26.6z M126.7,26.7c0-0.4,0-0.7-0.1-1c0-0.3-0.1-0.5-0.2-0.7s-0.3-0.3-0.5-0.4
				c-0.2-0.1-0.5-0.1-0.8-0.1c-0.3,0-0.6,0-0.8,0.1c-0.2,0.1-0.3,0.2-0.5,0.4c-0.1,0.2-0.2,0.4-0.2,0.7c0,0.3-0.1,0.6-0.1,1
				s0,0.7,0.1,1s0.1,0.5,0.2,0.7c0.1,0.2,0.3,0.3,0.5,0.4c0.2,0.1,0.4,0.1,0.8,0.1c0.3,0,0.6,0,0.8-0.1c0.2-0.1,0.4-0.2,0.5-0.4
				c0.1-0.2,0.2-0.4,0.2-0.7C126.7,27.4,126.7,27.1,126.7,26.7z"/>
			<path d="M133.8,26.7c0,0.5,0,0.9-0.1,1.3c-0.1,0.4-0.2,0.7-0.4,1s-0.4,0.5-0.7,0.6c-0.3,0.1-0.7,0.2-1.1,0.2
				c-0.2,0-0.5,0-0.8-0.1c-0.3,0-0.6-0.1-0.9-0.3l0,0v2.1c0,0.1,0,0.1,0,0.2c0,0-0.1,0.1-0.2,0.1H129c-0.1,0-0.1,0-0.2,0
				c0,0,0-0.1,0-0.2V24c0-0.1,0.1-0.2,0.2-0.2h0.5c0.1,0,0.2,0.1,0.2,0.2v0.4l0,0c0.1-0.1,0.2-0.1,0.4-0.2s0.3-0.2,0.5-0.2
				s0.4-0.1,0.6-0.2c0.2-0.1,0.4-0.1,0.6-0.1c0.4,0,0.7,0.1,0.9,0.2c0.3,0.1,0.5,0.3,0.6,0.6c0.1,0.3,0.3,0.6,0.3,0.9
				S133.8,26.2,133.8,26.7z M132.8,26.6c0-0.5,0-0.8-0.1-1.1c0-0.3-0.1-0.5-0.2-0.6c-0.1-0.2-0.2-0.3-0.3-0.3
				c-0.1,0-0.3-0.1-0.5-0.1c-0.1,0-0.3,0-0.5,0.1c-0.2,0-0.4,0.1-0.6,0.2c-0.2,0.1-0.4,0.1-0.5,0.2c-0.2,0.1-0.3,0.1-0.4,0.2v3.5
				c0.3,0.1,0.6,0.2,0.9,0.2c0.3,0,0.5,0.1,0.8,0.1c0.3,0,0.5,0,0.6-0.1c0.2-0.1,0.3-0.2,0.4-0.4c0.1-0.2,0.2-0.4,0.2-0.7
				S132.8,27,132.8,26.6z"/>
			<path d="M139.5,26.3c0,0.2,0,0.4-0.1,0.5S139.2,27,139,27h-3.4c0,0.4,0,0.7,0.1,0.9c0.1,0.2,0.1,0.4,0.3,0.6
				c0.1,0.1,0.3,0.3,0.5,0.3s0.4,0.1,0.7,0.1c0.1,0,0.3,0,0.4,0c0.2,0,0.3,0,0.5,0s0.3,0,0.4,0c0.1,0,0.3,0,0.4,0c0.1,0,0.1,0,0.2,0
				c0,0,0.1,0.1,0.1,0.1l0,0.3c0,0.1,0,0.2-0.1,0.2c-0.1,0-0.2,0.1-0.4,0.1s-0.3,0.1-0.5,0.1c-0.2,0-0.4,0-0.5,0.1
				c-0.2,0-0.3,0-0.5,0c-0.6,0-1-0.1-1.3-0.3c-0.3-0.2-0.6-0.4-0.7-0.7s-0.3-0.6-0.3-1s-0.1-0.7-0.1-1.1c0-0.3,0-0.6,0.1-1
				c0-0.4,0.2-0.7,0.3-1c0.2-0.3,0.4-0.6,0.7-0.8c0.3-0.2,0.8-0.3,1.3-0.3c0.5,0,0.9,0.1,1.2,0.2c0.3,0.2,0.6,0.4,0.7,0.6
				c0.2,0.2,0.3,0.5,0.3,0.9S139.5,26,139.5,26.3z M138.6,26.2c0-0.2,0-0.4-0.1-0.6c0-0.2-0.1-0.4-0.2-0.6s-0.3-0.3-0.4-0.4
				c-0.2-0.1-0.4-0.2-0.8-0.2c-0.3,0-0.5,0-0.7,0.1c-0.2,0.1-0.3,0.2-0.4,0.4c-0.1,0.2-0.2,0.3-0.3,0.6s-0.1,0.5-0.1,0.7H138.6z"/>
			<path d="M144.4,21.7h4.1c0.1,0,0.2,0.1,0.2,0.2v0.5c0,0.1-0.1,0.2-0.2,0.2h-3.3v2.5h3c0.1,0,0.2,0.1,0.2,0.2v0.5
				c0,0.1-0.1,0.2-0.2,0.2h-2.9v3.5c0,0.1-0.1,0.2-0.2,0.2h-0.5c-0.1,0-0.2-0.1-0.2-0.2v-7.6C144.2,21.7,144.2,21.7,144.4,21.7z"/>
			<path d="M153,29c-0.3,0.2-0.6,0.3-1,0.5c-0.4,0.2-0.8,0.2-1.3,0.2c-0.6,0-1-0.1-1.2-0.4s-0.4-0.7-0.4-1.2c0-0.7,0.2-1.2,0.5-1.5
				c0.3-0.3,0.9-0.5,1.7-0.5h1.7v-0.4c0-0.4-0.1-0.7-0.3-0.9s-0.6-0.3-1.1-0.3c-0.1,0-0.2,0-0.4,0c-0.1,0-0.3,0-0.4,0s-0.3,0-0.5,0
				c-0.2,0-0.3,0-0.4,0c-0.1,0-0.2,0-0.2-0.1l-0.1-0.3c0-0.1,0-0.1,0-0.1s0.1-0.1,0.2-0.1c0.1,0,0.3-0.1,0.4-0.1s0.3-0.1,0.5-0.1
				c0.2,0,0.4,0,0.5,0s0.3,0,0.5,0c0.5,0,0.9,0.1,1.1,0.2c0.3,0.1,0.5,0.2,0.6,0.4c0.1,0.2,0.2,0.4,0.3,0.7c0,0.3,0.1,0.6,0.1,0.9
				v2.7c0,0.1,0,0.2,0,0.3c0,0.1,0,0.1,0.1,0.1c0,0,0.1,0.1,0.1,0.1c0.1,0,0.1,0,0.2,0c0.1,0,0.2,0.1,0.2,0.2v0.3c0,0.1,0,0.1,0,0.1
				c0,0-0.1,0.1-0.2,0.1c-0.1,0-0.3,0-0.4,0c-0.3,0-0.5-0.1-0.6-0.2C153.2,29.4,153.1,29.2,153,29L153,29z M153,26.8h-1.8
				c-0.4,0-0.7,0.1-0.9,0.3c-0.2,0.2-0.3,0.5-0.3,1c0,0.3,0.1,0.6,0.2,0.7c0.1,0.1,0.4,0.2,0.7,0.2c0.2,0,0.3,0,0.5-0.1
				s0.4-0.1,0.5-0.2s0.4-0.1,0.5-0.2c0.2-0.1,0.3-0.2,0.5-0.2V26.8z"/>
			<path d="M159.6,29.4c-0.2,0.1-0.5,0.2-0.8,0.2s-0.7,0.1-1,0.1c-0.5,0-1-0.1-1.3-0.2c-0.3-0.2-0.6-0.4-0.7-0.7
				c-0.2-0.3-0.3-0.6-0.3-1c-0.1-0.4-0.1-0.8-0.1-1.2c0-0.4,0-0.8,0.1-1.1c0.1-0.4,0.2-0.7,0.3-1c0.2-0.3,0.4-0.5,0.7-0.7
				c0.3-0.2,0.7-0.3,1.3-0.3c0.1,0,0.3,0,0.4,0s0.3,0,0.5,0c0.2,0,0.3,0,0.5,0.1c0.2,0,0.3,0.1,0.4,0.1c0.1,0,0.1,0.1,0.1,0.1
				c0,0,0,0.1,0,0.1l0,0.3c0,0.1-0.1,0.1-0.1,0.1c-0.1,0-0.1,0-0.2,0c-0.2,0-0.5,0-0.8-0.1c-0.3,0-0.6,0-0.8,0c-0.3,0-0.5,0-0.7,0.1
				s-0.3,0.2-0.4,0.4c-0.1,0.2-0.2,0.4-0.2,0.7c0,0.3-0.1,0.6-0.1,1c0,0.4,0,0.8,0.1,1.1c0,0.3,0.1,0.5,0.2,0.7
				c0.1,0.2,0.3,0.3,0.4,0.4c0.2,0.1,0.4,0.1,0.7,0.1c0.1,0,0.2,0,0.4,0c0.1,0,0.3,0,0.4,0c0.1,0,0.3,0,0.5,0c0.2,0,0.3,0,0.4,0
				c0.1,0,0.1,0,0.2,0s0.1,0.1,0.1,0.1l0,0.3C159.7,29.3,159.7,29.4,159.6,29.4z"/>
			<path d="M161.8,22.2c0,0.2,0,0.3-0.1,0.4c-0.1,0.1-0.2,0.2-0.4,0.2c-0.2,0-0.4-0.1-0.4-0.2c-0.1-0.1-0.1-0.2-0.1-0.4
				c0-0.2,0-0.3,0.1-0.4c0.1-0.1,0.2-0.1,0.4-0.1c0.2,0,0.4,0,0.4,0.1C161.7,21.9,161.8,22.1,161.8,22.2z M161.7,29.4
				c0,0.1-0.1,0.2-0.2,0.2H161c-0.1,0-0.2-0.1-0.2-0.2V24c0-0.1,0-0.1,0.1-0.2c0,0,0.1,0,0.2,0h0.5c0.1,0,0.2,0.1,0.2,0.2V29.4z"/>
			<path d="M165.2,29.4c0,0.1,0,0.2-0.1,0.2c-0.1,0-0.2,0.1-0.3,0.1c-0.1,0-0.2,0-0.3,0c-0.2,0-0.4,0-0.5-0.1
				c-0.1,0-0.2-0.1-0.3-0.2s-0.1-0.2-0.2-0.3c0-0.1,0-0.3,0-0.4v-7.3c0-0.1,0.1-0.2,0.2-0.2h0.5c0.1,0,0.1,0,0.2,0s0.1,0.1,0.1,0.2
				v7c0,0.2,0,0.3,0.1,0.4c0.1,0,0.2,0.1,0.5,0.1c0.1,0,0.2,0,0.2,0.1L165.2,29.4z"/>
			<path d="M167.3,22.2c0,0.2,0,0.3-0.1,0.4c-0.1,0.1-0.2,0.2-0.4,0.2c-0.2,0-0.4-0.1-0.4-0.2c-0.1-0.1-0.1-0.2-0.1-0.4
				c0-0.2,0-0.3,0.1-0.4c0.1-0.1,0.2-0.1,0.4-0.1c0.2,0,0.4,0,0.4,0.1C167.2,21.9,167.3,22.1,167.3,22.2z M167.2,29.4
				c0,0.1-0.1,0.2-0.2,0.2h-0.5c-0.1,0-0.2-0.1-0.2-0.2V24c0-0.1,0-0.1,0.1-0.2c0,0,0.1,0,0.2,0h0.5c0.1,0,0.2,0.1,0.2,0.2V29.4z"/>
			<path d="M172,29.3c0,0.1,0,0.2-0.1,0.2c-0.1,0-0.2,0.1-0.3,0.1c-0.1,0-0.2,0.1-0.4,0.1c-0.1,0-0.3,0-0.4,0c-0.1,0-0.2,0-0.3,0
				c-0.3,0-0.5,0-0.6-0.1c-0.2-0.1-0.3-0.1-0.4-0.3s-0.2-0.2-0.2-0.4s-0.1-0.3-0.1-0.5v-3.9h-0.7c-0.1,0-0.2-0.1-0.2-0.2V24
				c0-0.1,0.1-0.2,0.2-0.2h0.7v-1.3c0-0.1,0-0.1,0.1-0.2c0,0,0.1-0.1,0.2-0.1l0.5-0.1c0.1,0,0.2,0,0.2,0.2v1.5h1.3
				c0.1,0,0.1,0,0.2,0.1c0,0,0,0.1,0,0.1v0.3c0,0.1,0,0.1,0,0.2c0,0-0.1,0-0.2,0h-1.3v3.6c0,0.1,0,0.3,0,0.3c0,0.1,0.1,0.2,0.1,0.2
				c0.1,0.1,0.2,0.1,0.3,0.1c0.1,0,0.3,0,0.4,0c0.1,0,0.2,0,0.3,0c0.2,0,0.3,0,0.4,0c0.1,0,0.2,0,0.2,0c0,0,0.1,0.1,0.1,0.1
				L172,29.3z"/>
			<path d="M174.6,31.6c0,0.1,0,0.1-0.1,0.1c0,0-0.1,0-0.2,0h-0.6c-0.1,0-0.1-0.1-0.1-0.2l0.7-1.9l-2.1-5.7c0,0,0-0.1,0-0.1
				s0-0.1,0.1-0.1h0.6c0.1,0,0.1,0,0.1,0c0,0,0,0.1,0.1,0.1l1,2.7l0.6,1.8c0,0,0.1-0.2,0.1-0.4c0.1-0.2,0.2-0.4,0.2-0.7
				c0.1-0.3,0.2-0.6,0.3-0.9l0.9-2.7c0-0.1,0.1-0.2,0.2-0.2h0.6c0.1,0,0.1,0.1,0.1,0.2L174.6,31.6z"/>
		</g>
	</g>
	<g>
	</g>
	<g>
	</g>
	<g>
	</g>
	<g>
	</g>
	<g>
	</g>
	<g>
	</g>
</g>
</svg>
