<?xml version="1.0" encoding="utf-8"?>
<!-- Generator: Adobe Illustrator 19.1.0, SVG Export Plug-In . SVG Version: 6.00 Build 0)  -->
<svg version="1.1" id="Layer_1" xmlns="http://www.w3.org/2000/svg" xmlns:xlink="http://www.w3.org/1999/xlink" x="0px" y="0px"
	 viewBox="0 0 16 16" style="enable-background:new 0 0 16 16;" xml:space="preserve">
<style type="text/css">
	.st0{fill:#FFFFFF;}
</style>
<path class="st0" d="M6.5,15.2c-0.2,0-0.3-0.1-0.3-0.3V9.9H1.1C1,9.9,0.8,9.7,0.8,9.6v-3c0-0.2,0.1-0.3,0.3-0.3h5.1V1.2
	c0-0.2,0.1-0.3,0.3-0.3h3c0.2,0,0.3,0.1,0.3,0.3v5.1h5.1c0.2,0,0.3,0.1,0.3,0.3v3c0,0.2-0.1,0.3-0.3,0.3H9.8v5.1
	c0,0.2-0.1,0.3-0.3,0.3H6.5z"/>
</svg>
