<?xml version="1.0" encoding="utf-8"?>
<!-- Generator: Adobe Illustrator 19.1.0, SVG Export Plug-In . SVG Version: 6.00 Build 0)  -->
<svg version="1.1" id="Layer_1" xmlns="http://www.w3.org/2000/svg" xmlns:xlink="http://www.w3.org/1999/xlink" x="0px" y="0px"
	 viewBox="0 0 16 16" style="enable-background:new 0 0 16 16;" xml:space="preserve">
<style type="text/css">
	.st0{fill:#FFFFFF;}
</style>
<path class="st0" d="M5.9,12.7l2,2C8,14.8,8,14.8,8,14.9c0,0.2-0.1,0.3-0.3,0.3H1.1c-0.2,0-0.3-0.1-0.3-0.3V8.3C0.8,8.2,0.9,8.1,1,8
	c0.1,0,0.3,0,0.3,0.1l2,2l2.6-2.5c0.1-0.1,0.3-0.1,0.4,0l2.1,2.1c0.1,0,0.1,0.1,0.1,0.2s0,0.2-0.1,0.2L5.9,12.7z M15.2,7.7
	c0,0.1-0.1,0.2-0.2,0.3h-0.1c-0.1,0-0.2,0-0.2-0.1l-2-2l-2.6,2.6c0,0.1-0.1,0.1-0.2,0.1c-0.1,0-0.2,0-0.2-0.1L7.6,6.4
	C7.5,6.3,7.5,6.1,7.6,6l2.5-2.6l-2-2C8,1.3,8,1.2,8,1.1C8,1,8.2,0.9,8.3,0.9h6.6c0.2,0,0.3,0.1,0.3,0.3V7.7z"/>
</svg>
