<?xml version="1.0" encoding="utf-8"?>
<!-- Generator: Adobe Illustrator 14.0.0, SVG Export Plug-In . SVG Version: 6.00 Build 43363)  -->
<svg version="1.2" baseProfile="tiny" id="Layer_1" xmlns="http://www.w3.org/2000/svg" xmlns:xlink="http://www.w3.org/1999/xlink"
	 x="0px" y="0px" width="233px" height="100px" viewBox="0 0 233 100" xml:space="preserve">
<g>
	<g>
		<path fill="#293745" d="M96.723,64.191c-1.412,0-2.301-0.89-2.301-2.297v-5.883h-0.668c-0.315,0-0.464-0.223-0.464-0.443
			c0-0.243,0.148-0.464,0.464-0.464h0.668v-3.468c0-0.316,0.221-0.463,0.464-0.463c0.221,0,0.447,0.146,0.447,0.463v3.468h1.279
			c0.315,0,0.482,0.221,0.482,0.464c0,0.221-0.167,0.443-0.482,0.443h-1.279v5.883c0,0.795,0.519,1.407,1.391,1.407
			c0.316,0,0.464,0.222,0.464,0.443C97.187,63.987,97.039,64.191,96.723,64.191z"/>
		<path fill="#293745" d="M105.595,64.191c-0.222,0-0.461-0.13-0.461-0.446v-5.821c0-1.112-0.854-1.967-1.968-1.967h-0.167
			c-1.114,0-1.986,0.91-1.986,2.022v5.766c0,0.316-0.243,0.446-0.464,0.446c-0.222,0-0.464-0.13-0.464-0.446V51.637
			c0-0.316,0.242-0.463,0.464-0.463c0.221,0,0.464,0.146,0.464,0.463v4.32c0.352-0.536,1.223-0.908,1.986-0.908h0.167
			c1.576,0,2.896,1.26,2.896,2.895v5.802C106.061,64.062,105.819,64.191,105.595,64.191z"/>
		<path fill="#293745" d="M109.752,52.712c-0.222,0-0.464-0.167-0.464-0.462v-0.613c0-0.316,0.243-0.463,0.464-0.463
			c0.225,0,0.467,0.146,0.467,0.463v0.613C110.219,52.545,109.977,52.712,109.752,52.712z M109.752,64.191
			c-0.222,0-0.464-0.13-0.464-0.446v-8.232c0-0.316,0.243-0.464,0.464-0.464c0.225,0,0.467,0.147,0.467,0.464v8.232
			C110.219,64.062,109.977,64.191,109.752,64.191z"/>
		<path fill="#293745" d="M118.953,64.191c-0.224,0-0.466-0.13-0.466-0.446v-5.821c0-1.112-0.854-1.967-1.966-1.967h-0.168
			c-1.114,0-1.986,0.91-1.986,2.022v5.766c0,0.316-0.242,0.446-0.464,0.446c-0.224,0-0.464-0.13-0.464-0.446v-8.232
			c0-0.316,0.24-0.464,0.464-0.464c0.222,0,0.464,0.147,0.464,0.464v0.444c0.352-0.536,1.227-0.908,1.986-0.908h0.168
			c1.576,0,2.896,1.26,2.896,2.895v5.802C119.417,64.062,119.174,64.191,118.953,64.191z"/>
		<path fill="#293745" d="M128.828,55.846l-3.038,2.875l3.075,4.785c0.054,0.092,0.074,0.166,0.074,0.239
			c0,0.279-0.222,0.446-0.502,0.446c-0.166,0-0.295-0.075-0.39-0.224l-2.921-4.523l-1.673,1.763v2.538
			c0,0.316-0.221,0.446-0.443,0.446c-0.243,0-0.467-0.13-0.467-0.446V51.637c0-0.316,0.225-0.463,0.467-0.463
			c0.222,0,0.443,0.146,0.443,0.463v8.197l4.688-4.638c0.091-0.092,0.204-0.147,0.334-0.147c0.278,0,0.482,0.204,0.482,0.484
			C128.957,55.624,128.957,55.716,128.828,55.846z"/>
		<path fill="#293745" d="M141.811,64.198h-0.202c-1.724,0-3.159-1.396-3.159-3.135v-3.682c0-1.777,1.435-3.156,3.159-3.156h0.202
			c1.721,0,3.159,1.379,3.159,3.156c0,0.343-0.242,0.505-0.484,0.505c-0.245,0-0.508-0.162-0.508-0.505
			c0-1.192-0.971-2.164-2.167-2.164h-0.202c-1.195,0-2.167,0.972-2.167,2.164v3.682c0,1.193,0.972,2.165,2.167,2.165h0.202
			c1.195,0,2.167-0.972,2.167-2.165c0-0.344,0.263-0.527,0.508-0.527c0.242,0,0.484,0.184,0.484,0.527
			C144.97,62.803,143.532,64.198,141.811,64.198z"/>
		<path fill="#293745" d="M153.798,64.198c-0.242,0-0.505-0.14-0.505-0.484v-0.485c-0.385,0.587-1.338,0.97-2.167,0.97h-0.184
			c-1.721,0-3.159-1.335-3.159-3.135v-6.329c0-0.346,0.262-0.509,0.507-0.509c0.243,0,0.505,0.163,0.505,0.509v6.35
			c0,1.214,0.933,2.145,2.146,2.145h0.184c1.214,0,2.167-0.991,2.167-2.205v-6.289c0-0.346,0.263-0.509,0.505-0.509
			c0.245,0,0.508,0.163,0.508,0.509v8.979C154.306,64.059,154.043,64.198,153.798,64.198z"/>
		<path fill="#293745" d="M160.683,64.198c-1.639,0-2.511-1.11-2.511-2.506v-11.19c0-0.342,0.264-0.503,0.504-0.503
			c0.246,0,0.509,0.161,0.509,0.503v11.19c0,0.869,0.586,1.536,1.498,1.536c0.345,0,0.526,0.242,0.526,0.485
			C161.209,63.978,161.028,64.198,160.683,64.198z"/>
		<path fill="#293745" d="M166.961,64.198c-1.539,0-2.512-0.97-2.512-2.506v-6.414h-0.728c-0.346,0-0.505-0.242-0.505-0.487
			c0-0.26,0.16-0.504,0.505-0.504h0.728v-3.785c0-0.342,0.245-0.503,0.507-0.503c0.242,0,0.487,0.161,0.487,0.503v3.785h1.397
			c0.341,0,0.525,0.244,0.525,0.504c0,0.245-0.185,0.487-0.525,0.487h-1.397v6.414c0,0.869,0.566,1.536,1.517,1.536
			c0.343,0,0.506,0.242,0.506,0.485C167.467,63.978,167.304,64.198,166.961,64.198z"/>
		<path fill="#293745" d="M176.053,64.198c-0.244,0-0.507-0.14-0.507-0.484v-0.485c-0.386,0.587-1.336,0.97-2.167,0.97h-0.181
			c-1.723,0-3.161-1.335-3.161-3.135v-6.329c0-0.346,0.265-0.509,0.507-0.509s0.507,0.163,0.507,0.509v6.35
			c0,1.214,0.93,2.145,2.146,2.145h0.181c1.216,0,2.167-0.991,2.167-2.205v-6.289c0-0.346,0.263-0.509,0.507-0.509
			c0.242,0,0.508,0.163,0.508,0.509v8.979C176.562,64.059,176.295,64.198,176.053,64.198z"/>
		<path fill="#293745" d="M184.396,55.986c-0.164,0-0.304-0.082-0.406-0.223c-0.324-0.465-0.729-0.546-1.297-0.546
			c-0.828,0-1.496,0.363-1.496,1.335v7.141c0,0.341-0.245,0.505-0.508,0.505c-0.243,0-0.508-0.164-0.508-0.505v-8.959
			c0-0.346,0.265-0.509,0.529-0.509c0.242,0,0.487,0.163,0.487,0.487c0.303-0.304,0.95-0.487,1.496-0.487
			c0.709,0,1.601,0.224,2.108,0.953c0.08,0.1,0.123,0.202,0.123,0.304C184.923,55.783,184.657,55.986,184.396,55.986z"/>
		<path fill="#293745" d="M192.715,59.73h-5.02v1.333c0,1.193,0.969,2.165,2.167,2.165h0.202c0.951,0,1.703-0.585,2.004-1.456
			c0.08-0.223,0.241-0.345,0.466-0.345c0.263,0,0.545,0.184,0.545,0.484c0,0.043-0.017,0.101-0.038,0.182
			c-0.426,1.277-1.601,2.104-2.977,2.104h-0.202c-1.724,0-3.162-1.396-3.162-3.135v-3.682c0-1.719,1.438-3.156,3.138-3.156h0.204
			c1.762,0,3.179,1.314,3.179,3.156v1.845C193.223,59.487,192.981,59.73,192.715,59.73z M192.231,57.382
			c0-1.192-1.012-2.164-2.146-2.164h-0.204c-1.194,0-2.186,0.972-2.186,2.164v1.336h4.536V57.382z"/>
	</g>
	<g>
		<path fill="#293745" d="M103.346,36.758h-7.636v1.783c0,1.645,1.333,2.973,2.977,2.973h0.351c1.368,0,2.277-0.805,2.733-1.783
			c0.245-0.597,0.701-0.839,1.156-0.839c0.7,0,1.365,0.559,1.365,1.363c0,0.209-0.034,0.42-0.14,0.595
			c-0.842,1.959-2.731,3.286-5.114,3.286h-0.351c-3.118,0-5.638-2.446-5.638-5.595v-6.018c0-3.113,2.52-5.634,5.638-5.634h0.351
			c3.118,0,5.638,2.414,5.638,5.665v2.873C104.675,36.127,104.08,36.758,103.346,36.758z M102.015,32.555
			c0-1.712-1.402-3.005-2.943-3.005h-0.35c-1.645,0-3.013,1.293-3.013,2.974v1.75h6.306V32.555z"/>
		<path fill="#293745" d="M118.426,44.136c-0.596,0-1.192-0.312-1.33-1.013c-0.666,0.665-1.786,1.013-3.014,1.013h-0.314
			c-3.013,0-5.639-1.712-5.639-5.595V28.216c0-0.871,0.666-1.326,1.33-1.326c0.666,0,1.33,0.455,1.33,1.326v10.325
			c0,1.645,1.333,2.973,2.979,2.973h0.314c1.681,0,3.014-1.328,3.014-2.973V28.216c0-0.871,0.664-1.326,1.33-1.326
			c0.664,0,1.33,0.455,1.33,1.326v14.628C119.755,43.685,119.09,44.136,118.426,44.136z"/>
		<path fill="#293745" d="M131.307,30.771c-0.386,0-0.771-0.173-1.086-0.49c-0.283-0.278-0.737-0.731-1.611-0.731
			c-2.102,0-2.346,1.222-2.346,2.345v10.878c0,0.946-0.668,1.363-1.333,1.363c-0.666,0-1.33-0.417-1.33-1.363V28.216
			c0-0.837,0.7-1.326,1.365-1.326c0.456,0,0.911,0.174,1.156,0.698c0,0,0.702-0.698,2.523-0.698c1.365,0,2.801,0.489,3.642,1.715
			c0.21,0.312,0.315,0.594,0.315,0.909C132.601,30.249,132.007,30.771,131.307,30.771z"/>
		<path fill="#293745" d="M140.209,44.136h-0.351c-3.119,0-5.64-2.446-5.64-5.595v-6.018c0-3.113,2.521-5.634,5.64-5.634h0.351
			c3.117,0,5.64,2.521,5.64,5.634v6.018C145.849,41.689,143.326,44.136,140.209,44.136z M143.188,32.523
			c0-1.646-1.332-2.974-2.979-2.974h-0.351c-1.644,0-2.976,1.327-2.976,2.974v6.018c0,1.645,1.333,2.973,3.013,2.973h0.314
			c1.647,0,2.979-1.328,2.979-2.973V32.523z"/>
		<path fill="#293745" d="M154.928,44.136h-0.244c-1.226,0-2.453-0.348-3.049-1.013v7.034c0,0.874-0.666,1.328-1.331,1.328
			c-0.666,0-1.33-0.454-1.33-1.328V28.185c0-0.875,0.665-1.295,1.33-1.295c0.598,0,1.188,0.349,1.295,1.048
			c0.527-0.523,1.647-1.048,3.013-1.048h0.315c3.082,0,5.677,2.521,5.677,5.634v6.018C160.605,41.689,158.115,44.136,154.928,44.136
			z M157.942,32.523c0-1.646-1.331-2.974-3.014-2.974h-0.315c-1.577,0-2.977,1.049-2.977,2.764v6.507c0,1.644,1.4,2.693,2.977,2.693
			h0.315c1.683,0,3.014-1.328,3.014-2.973V32.523z"/>
		<path fill="#293745" d="M174.236,36.758h-7.636v1.783c0,1.644,1.33,2.973,2.977,2.973h0.351c1.366,0,2.275-0.805,2.73-1.783
			c0.245-0.597,0.701-0.839,1.156-0.839c0.701,0,1.365,0.559,1.365,1.363c0,0.209-0.034,0.42-0.14,0.595
			c-0.839,1.959-2.731,3.286-5.112,3.286h-0.351c-3.117,0-5.64-2.446-5.64-5.595v-6.018c0-3.113,2.523-5.634,5.64-5.634h0.351
			c3.116,0,5.638,2.414,5.638,5.665v2.873C175.566,36.127,174.969,36.758,174.236,36.758z M172.904,32.555
			c0-1.712-1.401-3.005-2.94-3.005h-0.353c-1.645,0-3.01,1.293-3.01,2.974v1.75h6.303V32.555z"/>
		<path fill="#293745" d="M190.443,44.136c-0.107,0-0.208,0-0.245-0.031c-1.228-0.175-1.927-0.667-2.384-1.332
			c-1.014,0.877-2.345,1.363-3.781,1.363h-0.317c-2.803,0-5.638-1.712-5.638-5.002v-0.417c0-5.528,7.985-4.587,8.862-5.74
			c0.104-0.139,0.104-0.422,0.104-0.594c0-2.102-1.295-2.833-2.836-2.833h-0.244c-1.436,0-2.172,0.594-2.839,1.748
			c-0.281,0.526-0.733,0.699-1.19,0.699c-0.665,0-1.33-0.489-1.33-1.226c0-0.244,0.035-0.452,0.139-0.628
			c1.121-2.52,3.399-3.254,5.22-3.254h0.244c3.119,0,5.499,2.414,5.499,5.388v8.118c0,0.665,0.315,1.047,0.91,1.154
			c0.805,0.14,1.121,0.7,1.121,1.259C191.738,43.508,191.284,44.136,190.443,44.136z M187.044,35.777
			c-2.591,0.629-6.302,0.629-6.302,3.009v0.279c0,1.504,1.191,2.448,2.974,2.448h0.317c1.645,0,3.011-1.294,3.011-2.973V35.777z"/>
		<path fill="#293745" d="M204.934,44.136c-0.665,0-1.33-0.417-1.33-1.292v-10.32c0-1.646-1.329-2.974-3.014-2.974h-0.315
			c-1.647,0-3.012,1.293-3.012,2.974v10.32c0,0.875-0.666,1.292-1.329,1.292c-0.668,0-1.331-0.417-1.331-1.292V28.216
			c0-0.837,0.663-1.326,1.364-1.326c0.596,0,1.189,0.349,1.332,1.048c0.664-0.662,1.785-1.048,3.013-1.048h0.313
			c2.979,0,5.603,1.784,5.603,5.634v10.32C206.228,43.719,205.599,44.136,204.934,44.136z"/>
		<path fill="#293745" d="M221.706,44.136c-0.106,0-0.212,0-0.247-0.031c-1.228-0.175-1.926-0.667-2.381-1.332
			c-1.016,0.877-2.345,1.363-3.784,1.363h-0.314c-2.8,0-5.639-1.712-5.639-5.002v-0.417c0-5.528,7.985-4.587,8.861-5.74
			c0.107-0.139,0.107-0.422,0.107-0.594c0-2.102-1.299-2.833-2.837-2.833h-0.249c-1.437,0-2.17,0.594-2.835,1.748
			c-0.279,0.526-0.737,0.699-1.192,0.699c-0.665,0-1.33-0.489-1.33-1.226c0-0.244,0.035-0.452,0.139-0.628
			c1.123-2.52,3.396-3.254,5.219-3.254h0.249c3.114,0,5.496,2.414,5.496,5.388v8.118c0,0.665,0.314,1.047,0.911,1.154
			c0.806,0.14,1.12,0.7,1.12,1.259C223,43.508,222.549,44.136,221.706,44.136z M218.31,35.777c-2.593,0.629-6.308,0.629-6.308,3.009
			v0.279c0,1.504,1.188,2.448,2.978,2.448h0.314c1.645,0,3.016-1.294,3.016-2.973V35.777z"/>
	</g>
	<path fill="#293745" d="M66.959,29.15h0.109H66.959 M19.986,60.035c7.411,0,13.414,5.999,13.414,13.399
		c0,7.397-6.003,13.397-13.414,13.397c-7.405,0-13.411-6-13.411-13.397C6.575,66.034,12.582,60.035,19.986,60.035 M29.727,90.013
		c0-3.832,3.11-6.935,6.944-6.935c3.837,0,6.948,3.103,6.948,6.935c0,3.83-3.111,6.937-6.948,6.937
		C32.836,96.949,29.727,93.843,29.727,90.013 M82.642,35.304c-0.065-0.909-0.179-1.803-0.21-2.722
		c-0.17-0.673-0.265-1.77-0.446-2.364c-0.251-0.815-0.26-1.114-0.422-1.666c-0.179-0.597-0.189-0.56-0.547-1.888
		c-0.675-2.504-1.842-5.003-3.048-7.354c-0.782-1.537-1.787-2.77-2.755-4.108c-0.209-0.295-0.78-0.97-0.95-1.222
		c-0.36-0.532-2.61-3.117-3.319-3.697c-0.715-0.585-1.335-1.25-2.066-1.816c-0.748-0.576-1.485-1.168-2.239-1.737
		c-0.62-0.473-1.267-0.73-1.903-1.12c-3.43-2.137-7.215-3.76-11.146-4.671C40.478-2.108,25.095,2.35,16.581,13.082
		c-0.889,1.122-1.816,2.231-2.719,3.355c-0.418,0.521-0.631,1.185-0.98,1.761c-0.783,1.279-1.423,2.486-2.041,3.861
		c-2.411,5.347-3.859,11.754-3.4,17.901c0.252,3.352,0.921,6.832,2.078,10.002c0.363,0.99,0.701,2.003,1.166,2.957
		c0.316,0.657,1.137,2.146,1.205,2.274C4.892,58.307,0,65.305,0,73.456c0,11.032,8.959,19.983,20.009,19.983
		c2.391,0,4.674-0.439,6.799-1.21c0.025,0.078,0.065,0.139,0.104,0.205c1.098,4.341,5.027,7.565,9.716,7.565
		c5.546,0,10.036-4.49,10.036-10.029c0-4.774-3.339-8.756-7.812-9.769c0.025-0.109,0.061-0.221,0.088-0.326
		c0.142-0.401,0.261-0.815,0.373-1.232c0.159-0.52,0.311-1.044,0.396-1.583c0.043-0.277,0.081-0.638,0.115-0.982
		c0.051-0.385,0.092-0.771,0.12-1.161c0.095-0.066,0.229,0,0.427,0.006c2.184,0.096,4.366,0.451,6.556,0.335
		c4.087-0.218,8.481-1.027,12.245-2.686c3.914-1.728,7.655-3.947,10.893-6.759c1.544-1.338,2.974-2.819,4.197-4.456
		c0.586-0.787,1.273-1.452,1.807-2.292c0.45-0.707,0.955-1.367,1.351-2.104c0.279-0.524,0.347-0.763,0.62-1.288
		c0.167-0.323,0.371-0.613,0.494-0.953c0.266-0.746,0.394-1.546,0.421-2.33c0.05-1.535-0.427-3.098-1.284-4.381
		c-0.736-1.088-2.384-2.126-3.682-2.481c-1.533-0.425-3.271-0.337-4.752,0.239c-1.627,0.634-2.744,2.027-3.609,3.486
		c-0.967,1.629-1.868,3.084-3.217,4.437c-2.501,2.491-5.209,4.487-8.504,5.826C41.32,64.64,26.667,57.676,22.509,44.792
		c-1.932-5.991-1.386-12.74,1.682-18.29c1.616-2.931,3.76-5.522,6.384-7.597c1.395-1.099,2.979-2.147,4.612-2.833
		c1.469-0.621,2.959-0.96,4.462-1.473c1.185-0.399,2.771-0.502,4.033-0.597c1.329-0.104,2.703-0.135,4.027,0.082
		c2.7,0.441,5.488,1.062,7.954,2.32c1.343,0.679,2.807,1.63,4.011,2.583c1.21,0.96,2.486,2.161,3.468,3.432
		c0.766,0.981,1.24,1.706,1.959,2.749c0.754,1.193,1.877,2.482,1.966,3.981c-3.122,0-6.307,0.023-9.431,0.023
		c-3.026,0-6.287-0.673-9.113,0.739c-2.932,1.464-5.165,5.736-3.345,8.833c0.882,1.497,1.329,2.693,2.997,3.514
		c1.652,0.825,3.146,0.947,4.966,0.909c4.308-0.096,8.633-0.006,12.938-0.006h6.715c1.912,0,3.75,0.117,5.559-0.578
		C81.393,41.418,82.854,38.455,82.642,35.304"/>
</g>
</svg>
