<svg xmlns="http://www.w3.org/2000/svg" xmlns:xlink="http://www.w3.org/1999/xlink" version="1.1" x="0px" y="0px" viewBox="0 0 100 125" enable-background="new 0 0 100 100" xml:space="preserve"><path d="M71.725,57.373h-3.822V22.206H57.204v-2.707h-5.396v-3.151h-3.617v3.151h-5.396v2.707H32.097v35.167h-3.822v9.035h10.851  l-6.878,15.8l3.316,1.443l4.425-10.165h8.203v5.275h3.617v-5.275h8.201l4.426,10.165l3.316-1.443l-6.88-15.8h10.853V57.373z   M46.413,23.114h7.174v1.801h-7.174V23.114z M35.714,25.821h7.082v2.709h14.408v-2.709h7.081v31.552H35.714V25.821z M41.563,69.869  l1.506-3.461h5.122v3.461H41.563z M58.435,69.869h-6.626v-3.461h5.119L58.435,69.869z M68.107,62.791H31.892V60.99h36.216V62.791z"/><text x="0" y="115" fill="#000000" font-size="5px" font-weight="bold" font-family="'Helvetica Neue', Helvetica, Arial-Unicode, Arial, Sans-serif" visibility="hidden">Created by Sergey Demushkin</text><text x="0" y="120" fill="#000000" font-size="5px" font-weight="bold" font-family="'Helvetica Neue', Helvetica, Arial-Unicode, Arial, Sans-serif" visibility="hidden">from the Noun Project</text></svg>