<?xml version="1.0" encoding="utf-8"?>
<!-- Generator: Adobe Illustrator 19.2.1, SVG Export Plug-In . SVG Version: 6.00 Build 0)  -->
<svg version="1.1" id="Layer_1" xmlns="http://www.w3.org/2000/svg" xmlns:xlink="http://www.w3.org/1999/xlink" x="0px" y="0px"
	 viewBox="0 0 2236 740" style="enable-background:new 0 0 2236 740;" xml:space="preserve">
<path d="M491.9,217.6h0.7H491.9 M147.8,443.7c54.2,0,98.1,43.9,98.1,98.1c0,54.2-43.9,98.1-98.1,98.1S49.7,596,49.7,541.8
	C49.7,487.7,93.6,443.7,147.8,443.7 M218.8,663.3c0-27.8,22.7-50.5,50.5-50.5s50.5,22.7,50.5,50.5s-22.7,50.5-50.5,50.5
	C241.5,713.8,218.8,691.2,218.8,663.3 M606,262.9c-0.7-6.6-1.5-13.2-1.5-19.8c-1.5-5.1-2.2-13.2-2.9-17.6c-2.2-5.9-2.2-8.1-2.9-12.4
	c-1.5-4.4-1.5-4.4-3.7-13.9c-5.1-18.3-13.2-36.6-22-54.2c-5.9-11-13.2-20.5-20.5-30c-1.5-2.2-5.9-7.3-7.3-8.8
	c-2.9-3.7-19-22.7-24.2-27.1c-5.1-4.4-9.5-8.8-15.4-13.2c-5.1-4.4-11-8.8-16.1-12.4c-4.4-3.7-9.5-5.1-13.9-8.1
	c-24.9-15.4-52.7-27.8-81.3-34.4c-95.9-22-208.6,10.2-270.8,88.6c-6.6,8.1-13.2,16.1-19.8,24.9c-2.9,3.7-4.4,8.8-7.3,13.2
	c-5.9,9.5-10.2,18.3-14.6,28.5c-17.6,38.8-28.5,86.4-24.9,131c2.2,24.9,6.6,49.8,15.4,73.2c2.9,7.3,5.1,14.6,8.8,22
	c2.2,5.1,8.1,15.4,8.8,16.8C38.7,432,2.9,483.3,2.9,543.3c0,80.5,65.9,146.4,146.4,146.4c17.6,0,34.4-2.9,49.8-8.8
	c0,0.7,0.7,0.7,0.7,1.5c8.1,31.5,36.6,55.6,71,55.6c40.3,0,73.2-32.9,73.2-73.2c0-35.1-24.2-64.4-57.1-71.7c0-0.7,0.7-1.5,0.7-2.2
	c0.7-2.9,2.2-5.9,2.9-8.8c1.5-3.7,2.2-7.3,2.9-11.7c0-2.2,0.7-4.4,0.7-7.3c0.7-2.9,0.7-5.9,0.7-8.8c0.7-0.7,1.5,0,2.9,0
	c16.1,0.7,32.2,3.7,48.3,2.2c30-1.5,62.2-7.3,89.3-19.8c28.5-12.4,56.4-28.5,79.8-49.8c11-9.5,22-20.5,30.7-32.9
	c4.4-5.9,9.5-11,13.2-16.8c2.9-5.1,7.3-10.2,10.2-15.4c2.2-3.7,2.2-5.9,4.4-9.5c1.5-2.2,2.9-4.4,3.7-7.3c2.2-5.1,2.9-11,2.9-16.8
	c0.7-11-2.9-22.7-9.5-32.2c-5.1-8.1-17.6-15.4-27.1-18.3c-11-2.9-24.2-2.2-35.1,1.5c-11.7,4.4-19.8,14.6-26.4,25.6
	c-7.3,11.7-13.9,22.7-23.4,32.2c-18.3,18.3-38.1,32.9-62.2,42.5c-92.2,37.3-199.1-13.2-229.8-107.6c-13.9-43.9-10.2-93,12.4-134
	c11.7-21.2,27.8-40.3,46.8-55.6c10.2-8.1,22-15.4,33.7-20.5c11-4.4,22-7.3,32.9-11c8.8-2.9,20.5-3.7,29.3-4.4
	c9.5-0.7,19.8-0.7,29.3,0.7c19.8,2.9,40.3,8.1,58.6,16.8c9.5,5.1,20.5,11.7,29.3,19c8.8,7.3,18.3,16.1,25.6,24.9
	c5.9,7.3,8.8,12.4,14.6,19.8c5.9,8.8,13.9,18.3,14.6,29.3c-22.7,0-46.1,0-68.8,0c-22,0-46.1-5.1-66.6,5.1
	c-21.2,11-38.1,41.7-24.2,64.4c6.6,11,9.5,19.8,22,25.6c12.4,5.9,22.7,6.6,36.6,6.6c31.5-0.7,63,0,94.4,0h49c13.9,0,27.8,0.7,41-4.4
	C597.3,307.6,608.2,286.4,606,262.9 M809.5,251.2c0,8.1-3.7,12.4-11.7,12.4h-97.4v9.5c0,30.7,13.2,46.1,40.3,46.1
	c16.8,0,32.2-3.7,44.7-10.2c1.5-0.7,3.7-1.5,5.1-1.5c3.7,0,6.6,1.5,8.8,4.4s3.7,5.9,3.7,9.5c0,5.1-2.2,8.8-7.3,11.7
	c-16.1,8.8-35.1,13.2-56.4,13.2c-24.2,0-42.5-7.3-54.2-22.7c-11-13.2-16.1-30.7-16.1-53.4v-32.9c0-22.7,5.1-40.3,16.1-53.4
	c12.4-14.6,30-22.7,54.2-22.7c24.9,0,42.5,7.3,54.9,22.7c10.2,12.4,15.4,30,15.4,52.7L809.5,251.2L809.5,251.2z M778.8,232.9
	c0-30-13.2-45.4-38.8-45.4c-26.4,0-40.3,15.4-40.3,45.4v5.9h79.1V232.9L778.8,232.9z M993.3,346.4c-6.6,0-13.2-2.2-19-7.3
	c-3.7-2.9-5.9-7.3-8.8-13.2c-13.2,13.9-31.5,20.5-55.6,20.5c-38.8,0-58.6-22-58.6-65.1V177.3c0-4.4,1.5-8.1,4.4-11
	c2.9-2.9,6.6-4.4,11-4.4c4.4,0,8.1,1.5,11,4.4s4.4,6.6,4.4,11v101c0,12.4,2.2,22,6.6,27.8c5.1,6.6,14.6,10.2,27.1,10.2
	c20.5,0,35.1-8.1,43.2-24.2V176.6c0-4.4,1.5-8.1,4.4-11c2.9-2.9,6.6-4.4,11-4.4c4.4,0,8.1,1.5,11,4.4c2.9,2.9,4.4,6.6,4.4,11v122.2
	c0,11,3.7,19,11,22.7c4.4,2.2,5.9,5.9,5.9,10.2C1008.6,342,1003.5,346.4,993.3,346.4z M1140.4,194.1c-2.2,0-3.7-0.7-5.9-0.7
	c-2.2,0-4.4-0.7-6.6-0.7c-2.2,0-3.7,0-5.1,0c-22,0-35.1,11-39.5,32.2V331c0,4.4-1.5,8.1-4.4,11c-2.9,2.9-6.6,4.4-11,4.4
	c-4.4,0-8.1-1.5-11-4.4s-4.4-6.6-4.4-11V211c0-11-3.7-19-11-22.7c-4.4-2.2-5.9-5.9-5.9-10.2c0-8.8,5.1-13.9,15.4-13.9
	c2.9,0,4.4,0,5.1,0c11.7,2.9,19.8,10.2,24.2,22c11.7-16.1,27.8-24.9,49-24.9c9.5,0,17.6,1.5,24.2,4.4c5.1,2.9,7.3,6.6,7.3,12.4
	c0,4.4-1.5,8.1-4.4,11c-2.9,2.9-6.6,4.4-10.2,4.4C1144.1,194.1,1142.6,194.1,1140.4,194.1z M1297.8,324.4
	c-12.4,14.6-30.7,22-55.6,22c-24.2,0-42.5-7.3-54.9-22c-11-13.2-16.8-30.7-16.8-52v-36.6c0-22,5.9-38.8,16.8-52
	c12.4-14.6,30.7-22,54.9-22c24.9,0,43.2,7.3,55.6,22c11,13.2,16.8,30.7,16.8,52v36.6C1314.6,294.4,1308.8,311.2,1297.8,324.4z
	 M1283.1,235.9c0-30-13.9-44.7-41-44.7c-27.1,0-40.3,14.6-40.3,44.7v36.6c0,30,13.2,45.4,40.3,45.4c27.1,0,41-15.4,41-45.4V235.9z
	 M1436.9,346.4c-16.1,0-30-4.4-42.5-13.9V394c0,4.4-1.5,8.1-4.4,11s-6.6,4.4-11,4.4c-4.4,0-8.1-1.5-11-4.4c-2.9-2.9-4.4-6.6-4.4-11
	V208c0-11.7-3.7-19-10.2-22.7c-4.4-2.2-5.9-5.9-5.9-10.2c0-8.8,5.1-13.9,15.4-13.9c6.6,0,13.2,2.2,19,7.3c2.2,2.2,4.4,5.1,6.6,8.1
	c14.6-10.2,30-15.4,46.8-15.4c43.9,0,65.9,24.2,65.9,72.5v32.2C1501.3,320,1479.3,346.4,1436.9,346.4z M1469.8,232.2
	c0-28.5-13.2-43.2-39.5-43.2c-12.4,0-24.9,5.1-35.9,14.6v98.8c11,11,23.4,16.1,37.3,16.1c25.6,0,38.1-16.1,38.1-48.3V232.2
	L1469.8,232.2z M1679.9,251.2c0,8.1-3.7,12.4-11.7,12.4h-97.4v9.5c0,30.7,13.2,46.1,40.3,46.1c16.8,0,32.2-3.7,44.7-10.2
	c1.5-0.7,3.7-1.5,5.1-1.5c3.7,0,6.6,1.5,8.8,4.4c2.2,2.9,3.7,5.9,3.7,9.5c0,5.1-2.2,8.8-7.3,11.7c-16.1,8.8-35.1,13.2-56.4,13.2
	c-24.2,0-42.5-7.3-54.2-22.7c-11-13.2-16.1-30.7-16.1-53.4v-32.9c0-22.7,5.1-40.3,16.1-53.4c12.4-14.6,30-22.7,54.2-22.7
	c24.9,0,42.5,7.3,54.9,22.7c10.2,12.4,15.4,30,15.4,52.7L1679.9,251.2L1679.9,251.2z M1649.9,232.9c0-30-13.2-45.4-38.8-45.4
	c-26.4,0-40.3,15.4-40.3,45.4v5.9h79.1V232.9z M1846.8,346.4c-7.3,0-13.9-2.2-18.3-7.3c-2.9-2.2-5.1-5.9-7.3-11
	c-11,12.4-27.8,18.3-49.8,18.3c-21.2,0-37.3-5.1-47.6-14.6c-9.5-9.5-14.6-22-14.6-37.3v-2.9c0-15.4,5.1-27.8,15.4-37.3
	c11.7-9.5,28.5-14.6,49.8-14.6h41v-8.8c0-15.4-2.2-25.6-7.3-32.2c-5.1-7.3-15.4-11-30-11c-13.2,0-25.6,2.9-36.6,8.8
	c-2.9,1.5-5.1,2.2-7.3,2.2c-3.7,0-7.3-1.5-9.5-4.4c-2.2-2.9-3.7-5.9-3.7-9.5c0-4.4,2.2-8.1,6.6-11c13.2-8.1,30.7-12.4,52.7-12.4
	c24.2,0,41.7,5.9,52,18.3c9.5,11,13.9,29.3,13.9,53.4v66.6c0,11,3.7,19,10.2,22.7c4.4,2.9,5.9,5.9,5.9,10.2
	C1862.1,342,1857,346.4,1846.8,346.4z M1814.6,263.7h-37.3c-24.9,0-38.1,9.5-38.1,27.8v2.9c0,18.3,12.4,27.8,36.6,27.8
	c25.6,0,38.8-12.4,38.8-37.3L1814.6,263.7L1814.6,263.7z M2037.8,342c-2.9,2.9-6.6,4.4-11,4.4s-8.1-1.5-11-4.4s-4.4-6.6-4.4-11V230
	c0-12.4-2.2-22-6.6-27.8c-5.1-7.3-14.6-11-27.1-11c-20.5,0-34.4,7.3-43.2,22.7V331c0,4.4-1.5,8.1-4.4,11c-2.9,2.9-6.6,4.4-11,4.4
	s-8.1-1.5-11-4.4c-2.9-2.9-4.4-6.6-4.4-11V211c0-11-3.7-19-11-22.7c-4.4-2.2-5.9-5.9-5.9-10.2c0-8.8,5.1-13.9,15.4-13.9
	c6.6,0,13.2,2.2,19,7.3c3.7,3.7,5.9,7.3,8.1,11.7c13.2-14.6,31.5-21.2,55.6-21.2c38.8,0,58.6,22,58.6,65.1V331
	C2042.2,335.4,2040.8,339.1,2037.8,342z M2218.6,346.4c-7.3,0-13.9-2.2-18.3-7.3c-2.9-2.2-5.1-5.9-7.3-11
	c-11,12.4-27.8,18.3-49.8,18.3c-21.2,0-37.3-5.1-47.6-14.6c-9.5-9.5-14.6-22-14.6-37.3v-2.9c0-15.4,5.1-27.8,15.4-37.3
	c11.7-9.5,28.5-14.6,49.8-14.6h41v-8.8c0-15.4-2.2-25.6-7.3-32.2c-5.1-7.3-15.4-11-30-11c-13.2,0-25.6,2.9-36.6,8.8
	c-2.9,1.5-5.1,2.2-7.3,2.2c-3.7,0-7.3-1.5-9.5-4.4c-2.2-2.9-3.7-5.9-3.7-9.5c0-4.4,2.2-8.1,6.6-11c13.2-8.1,30.7-12.4,52.7-12.4
	c24.2,0,41.7,5.9,52,18.3c9.5,11,13.9,29.3,13.9,53.4v66.6c0,11,3.7,19,10.2,22.7c4.4,2.9,5.9,5.9,5.9,10.2
	C2234,342,2228.9,346.4,2218.6,346.4z M2187.2,263.7h-37.3c-24.9,0-38.1,9.5-38.1,27.8v2.9c0,18.3,12.4,27.8,36.6,27.8
	c25.6,0,38.8-12.4,38.8-37.3L2187.2,263.7L2187.2,263.7z"/>
</svg>
