<svg xmlns="http://www.w3.org/2000/svg" xmlns:xlink="http://www.w3.org/1999/xlink" version="1.1" viewBox="0 0 240.4 300" xml:space="preserve"><style type="text/css">
	.st0{fill:none;}
	.st1{fill:#231F20;}
</style><g><path class="st0" d="M203.8,62.6c0-4.6-3.4-8.6-7.9-8.6H44.6c-4.6,0-8.8,4.1-8.8,8.6V171h168V62.6z M197.8,168   h-156V61h156V168z"/><path class="st0" d="M191.8,67h-144v95h144V67z M86.9,111.9c-0.8,0-1.5-0.3-2.1-0.9c-1.2-1.2-1.2-3.1,0-4.2   l18.3-18.3c1.2-1.2,3.1-1.2,4.2,0c1.2,1.2,1.2,3.1,0,4.2L89,111C88.4,111.6,87.7,111.9,86.9,111.9z M96.2,141.2   c-0.8,0-1.5-0.3-2.1-0.9c-1.2-1.2-1.2-3.1,0-4.2l47.6-47.6c1.2-1.2,3.1-1.2,4.2,0c1.2,1.2,1.2,3.1,0,4.2l-47.6,47.6   C97.8,140.9,97,141.2,96.2,141.2z M157.9,123.3l-18.3,18.3c-0.6,0.6-1.4,0.9-2.1,0.9s-1.5-0.3-2.1-0.9c-1.2-1.2-1.2-3.1,0-4.2   l18.3-18.3c1.2-1.2,3.1-1.2,4.2,0C159.1,120.3,159.1,122.2,157.9,123.3z"/><path class="st0" d="M217.8,178c0-0.6-0.5-1-1-1h-194c-0.6,0-1,0.5-1,1v7c0,0.6,0.5,1,1,1h194c0.6,0,1-0.5,1-1V178   z"/><path class="st1" d="M41.8,168h156V61h-156V168z M47.8,67h144v95h-144V67z"/><path class="st1" d="M217,171h-7.3V62.6c0-7.9-6-14.6-13.9-14.6H44.6c-7.9,0-14.8,6.8-14.8,14.6V171h-6.4   c-3.9,0-7.6,3.6-7.6,7.5v6.9c0,3.9,3.8,6.6,7.6,6.6H217c3.9,0,6.7-2.8,6.7-6.6v-6.9C223.8,174.6,220.9,171,217,171z M35.8,62.6   c0-4.6,4.2-8.6,8.8-8.6h151.2c4.6,0,7.9,4.1,7.9,8.6V171h-168V62.6z M217.8,185c0,0.6-0.5,1-1,1h-194c-0.6,0-1-0.5-1-1v-7   c0-0.6,0.5-1,1-1h194c0.6,0,1,0.5,1,1V185z"/><path class="st1" d="M107.3,88.5c-1.2-1.2-3.1-1.2-4.2,0l-18.3,18.3c-1.2,1.2-1.2,3.1,0,4.2   c0.6,0.6,1.4,0.9,2.1,0.9s1.5-0.3,2.1-0.9l18.3-18.3C108.5,91.5,108.5,89.6,107.3,88.5z"/><path class="st1" d="M153.7,119.1l-18.3,18.3c-1.2,1.2-1.2,3.1,0,4.2c0.6,0.6,1.4,0.9,2.1,0.9s1.5-0.3,2.1-0.9   l18.3-18.3c1.2-1.2,1.2-3.1,0-4.2C156.7,117.9,154.8,117.9,153.7,119.1z"/><path class="st1" d="M145.9,88.5c-1.2-1.2-3.1-1.2-4.2,0l-47.6,47.6c-1.2,1.2-1.2,3.1,0,4.2   c0.6,0.6,1.4,0.9,2.1,0.9s1.5-0.3,2.1-0.9l47.6-47.6C147.1,91.5,147.1,89.6,145.9,88.5z"/></g></svg>