<?xml version="1.0" encoding="UTF-8" standalone="no"?>
<svg width="125px" height="125px" viewBox="0 0 125 125" version="1.1" xmlns="http://www.w3.org/2000/svg" xmlns:xlink="http://www.w3.org/1999/xlink">
    <!-- Generator: Sketch 3.8.3 (29802) - http://www.bohemiancoding.com/sketch -->
    <title>noun_218428_cc</title>
    <desc>Created with Sketch.</desc>
    <defs></defs>
    <g id="Page-1" stroke="none" stroke-width="1" fill="none" fill-rule="evenodd">
        <g id="Desktop-HD" transform="translate(-1128.000000, -539.000000)">
            <g id="Group-4" transform="translate(973.000000, 341.000000)">
                <g id="noun_218428_cc" transform="translate(155.000000, 198.000000)">
                    <g id="Group">
                        <path d="M62.5,125 C97.0177969,125 125,97.0177969 125,62.5 C125,27.9822031 97.0177969,0 62.5,0 C27.9822031,0 0,27.9822031 0,62.5 C0,97.0177969 27.9822031,125 62.5,125 Z M40.432,43.265 L22,43.265 C20.896,43.265 20,42.369 20,41.265 L20,22.833 C20,21.729 20.896,20.833 22,20.833 L40.432,20.833 C41.536,20.833 42.432,21.729 42.432,22.833 L42.432,41.265 C42.432,42.37 41.536,43.265 40.432,43.265 Z M40.432,73.216 L22,73.216 C20.896,73.216 20,72.32 20,71.216 L20,52.784 C20,51.68 20.896,50.784 22,50.784 L40.432,50.784 C41.536,50.784 42.432,51.68 42.432,52.784 L42.432,71.216 C42.432,72.32 41.536,73.216 40.432,73.216 Z M70.846,73.216 L52.414,73.216 C51.31,73.216 50.414,72.32 50.414,71.216 L50.414,52.784 C50.414,51.68 51.31,50.784 52.414,50.784 L70.846,50.784 C71.95,50.784 72.846,51.68 72.846,52.784 L72.846,71.216 C72.846,72.32 71.95,73.216 70.846,73.216 Z M40.432,103.333 L22,103.333 C20.896,103.333 20,102.437 20,101.333 L20,82.901 C20,81.797 20.896,80.901 22,80.901 L40.432,80.901 C41.536,80.901 42.432,81.797 42.432,82.901 L42.432,101.333 C42.432,102.438 41.536,103.333 40.432,103.333 Z M70.846,103.333 L52.414,103.333 C51.31,103.333 50.414,102.437 50.414,101.333 L50.414,82.901 C50.414,81.797 51.31,80.901 52.414,80.901 L70.846,80.901 C71.95,80.901 72.846,81.797 72.846,82.901 L72.846,101.333 C72.846,102.438 71.95,103.333 70.846,103.333 Z M101.26,103.333 L82.828,103.333 C81.724,103.333 80.828,102.437 80.828,101.333 L80.828,82.901 C80.828,81.797 81.724,80.901 82.828,80.901 L101.26,80.901 C102.364,80.901 103.26,81.797 103.26,82.901 L103.26,101.333 C103.26,102.438 102.364,103.333 101.26,103.333 Z" id="Combined-Shape" fill-opacity="0.7" fill="#00B0FF"></path>
                        <g id="Groupsad" transform="translate(50.000000, 20.000000)" fill="#000000">
                            <g id="Group">
                                <path d="M20.846,23.265 L18.846,23.265 C17.742,23.265 16.846,22.369 16.846,21.265 C16.846,20.161 17.742,19.265 18.846,19.265 C18.846,18.161 19.742,17.265 20.846,17.265 C21.95,17.265 22.846,18.161 22.846,19.265 L22.846,21.265 C22.846,22.37 21.95,23.265 20.846,23.265 L20.846,23.265 Z" id="Shape"></path>
                                <path d="M14.035,23.265 L9.224,23.265 C8.12,23.265 7.224,22.369 7.224,21.265 C7.224,20.161 8.12,19.265 9.224,19.265 L14.035,19.265 C15.139,19.265 16.035,20.161 16.035,21.265 C16.035,22.369 15.14,23.265 14.035,23.265 L14.035,23.265 Z" id="Shape"></path>
                                <path d="M4.414,23.265 L2.414,23.265 C1.31,23.265 0.414,22.369 0.414,21.265 L0.414,19.265 C0.414,18.161 1.31,17.265 2.414,17.265 C3.518,17.265 4.414,18.161 4.414,19.265 C5.518,19.265 6.414,20.161 6.414,21.265 C6.414,22.369 5.519,23.265 4.414,23.265 L4.414,23.265 Z" id="Shape"></path>
                                <path d="M2.414,16.455 C1.31,16.455 0.414,15.559 0.414,14.455 L0.414,9.644 C0.414,8.54 1.31,7.644 2.414,7.644 C3.518,7.644 4.414,8.54 4.414,9.644 L4.414,14.455 C4.414,15.559 3.519,16.455 2.414,16.455 L2.414,16.455 Z" id="Shape"></path>
                                <path d="M2.414,6.833 C1.31,6.833 0.414,5.937 0.414,4.833 L0.414,2.833 C0.414,1.729 1.31,0.833 2.414,0.833 L4.414,0.833 C5.518,0.833 6.414,1.729 6.414,2.833 C6.414,3.937 5.518,4.833 4.414,4.833 C4.414,5.938 3.519,6.833 2.414,6.833 L2.414,6.833 Z" id="Shape"></path>
                                <path d="M14.035,4.833 L9.224,4.833 C8.12,4.833 7.224,3.937 7.224,2.833 C7.224,1.729 8.12,0.833 9.224,0.833 L14.035,0.833 C15.139,0.833 16.035,1.729 16.035,2.833 C16.035,3.937 15.14,4.833 14.035,4.833 L14.035,4.833 Z" id="Shape"></path>
                                <path d="M20.846,6.833 C19.742,6.833 18.846,5.937 18.846,4.833 C17.742,4.833 16.846,3.937 16.846,2.833 C16.846,1.729 17.742,0.833 18.846,0.833 L20.846,0.833 C21.95,0.833 22.846,1.729 22.846,2.833 L22.846,4.833 C22.846,5.938 21.95,6.833 20.846,6.833 L20.846,6.833 Z" id="Shape"></path>
                                <path d="M20.846,16.455 C19.742,16.455 18.846,15.559 18.846,14.455 L18.846,9.644 C18.846,8.54 19.742,7.644 20.846,7.644 C21.95,7.644 22.846,8.54 22.846,9.644 L22.846,14.455 C22.846,15.559 21.95,16.455 20.846,16.455 L20.846,16.455 Z" id="Shape"></path>
                            </g>
                        </g>
                        <g transform="translate(80.000000, 20.000000)" id="Shape" fill="#000000">
                            <g>
                                <path d="M21.26,23.265 L19.26,23.265 C18.156,23.265 17.26,22.369 17.26,21.265 C17.26,20.161 18.156,19.265 19.26,19.265 C19.26,18.161 20.156,17.265 21.26,17.265 C22.364,17.265 23.26,18.161 23.26,19.265 L23.26,21.265 C23.26,22.37 22.364,23.265 21.26,23.265 L21.26,23.265 Z"></path>
                                <path d="M14.449,23.265 L9.638,23.265 C8.534,23.265 7.638,22.369 7.638,21.265 C7.638,20.161 8.534,19.265 9.638,19.265 L14.449,19.265 C15.553,19.265 16.449,20.161 16.449,21.265 C16.449,22.369 15.554,23.265 14.449,23.265 L14.449,23.265 Z"></path>
                                <path d="M4.828,23.265 L2.828,23.265 C1.724,23.265 0.828,22.369 0.828,21.265 L0.828,19.265 C0.828,18.161 1.724,17.265 2.828,17.265 C3.932,17.265 4.828,18.161 4.828,19.265 C5.932,19.265 6.828,20.161 6.828,21.265 C6.828,22.369 5.933,23.265 4.828,23.265 L4.828,23.265 Z"></path>
                                <path d="M2.828,16.455 C1.724,16.455 0.828,15.559 0.828,14.455 L0.828,9.644 C0.828,8.54 1.724,7.644 2.828,7.644 C3.932,7.644 4.828,8.54 4.828,9.644 L4.828,14.455 C4.828,15.559 3.933,16.455 2.828,16.455 L2.828,16.455 Z"></path>
                                <path d="M2.828,6.833 C1.724,6.833 0.828,5.937 0.828,4.833 L0.828,2.833 C0.828,1.729 1.724,0.833 2.828,0.833 L4.828,0.833 C5.932,0.833 6.828,1.729 6.828,2.833 C6.828,3.937 5.932,4.833 4.828,4.833 C4.828,5.938 3.933,6.833 2.828,6.833 L2.828,6.833 Z"></path>
                                <path d="M14.449,4.833 L9.638,4.833 C8.534,4.833 7.638,3.937 7.638,2.833 C7.638,1.729 8.534,0.833 9.638,0.833 L14.449,0.833 C15.553,0.833 16.449,1.729 16.449,2.833 C16.449,3.937 15.554,4.833 14.449,4.833 L14.449,4.833 Z"></path>
                                <path d="M21.26,6.833 C20.156,6.833 19.26,5.937 19.26,4.833 C18.156,4.833 17.26,3.937 17.26,2.833 C17.26,1.729 18.156,0.833 19.26,0.833 L21.26,0.833 C22.364,0.833 23.26,1.729 23.26,2.833 L23.26,4.833 C23.26,5.938 22.364,6.833 21.26,6.833 L21.26,6.833 Z"></path>
                                <path d="M21.26,16.455 C20.156,16.455 19.26,15.559 19.26,14.455 L19.26,9.644 C19.26,8.54 20.156,7.644 21.26,7.644 C22.364,7.644 23.26,8.54 23.26,9.644 L23.26,14.455 C23.26,15.559 22.364,16.455 21.26,16.455 L21.26,16.455 Z"></path>
                            </g>
                        </g>
                        <g transform="translate(80.000000, 50.000000)" id="Shape" fill="#000000">
                            <g>
                                <path d="M21.26,23.216 L19.26,23.216 C18.156,23.216 17.26,22.32 17.26,21.216 C17.26,20.112 18.156,19.216 19.26,19.216 C19.26,18.112 20.156,17.216 21.26,17.216 C22.364,17.216 23.26,18.112 23.26,19.216 L23.26,21.216 C23.26,22.32 22.364,23.216 21.26,23.216 L21.26,23.216 Z"></path>
                                <path d="M14.449,23.216 L9.638,23.216 C8.534,23.216 7.638,22.32 7.638,21.216 C7.638,20.112 8.534,19.216 9.638,19.216 L14.449,19.216 C15.553,19.216 16.449,20.112 16.449,21.216 C16.449,22.32 15.554,23.216 14.449,23.216 L14.449,23.216 Z"></path>
                                <path d="M4.828,23.216 L2.828,23.216 C1.724,23.216 0.828,22.32 0.828,21.216 L0.828,19.216 C0.828,18.112 1.724,17.216 2.828,17.216 C3.932,17.216 4.828,18.112 4.828,19.216 C5.932,19.216 6.828,20.112 6.828,21.216 C6.828,22.32 5.933,23.216 4.828,23.216 L4.828,23.216 Z"></path>
                                <path d="M2.828,16.405 C1.724,16.405 0.828,15.509 0.828,14.405 L0.828,9.594 C0.828,8.49 1.724,7.594 2.828,7.594 C3.932,7.594 4.828,8.49 4.828,9.594 L4.828,14.405 C4.828,15.51 3.933,16.405 2.828,16.405 L2.828,16.405 Z"></path>
                                <path d="M2.828,6.784 C1.724,6.784 0.828,5.888 0.828,4.784 L0.828,2.784 C0.828,1.68 1.724,0.784 2.828,0.784 L4.828,0.784 C5.932,0.784 6.828,1.68 6.828,2.784 C6.828,3.888 5.932,4.784 4.828,4.784 C4.828,5.889 3.933,6.784 2.828,6.784 L2.828,6.784 Z"></path>
                                <path d="M14.449,4.784 L9.638,4.784 C8.534,4.784 7.638,3.888 7.638,2.784 C7.638,1.68 8.534,0.784 9.638,0.784 L14.449,0.784 C15.553,0.784 16.449,1.68 16.449,2.784 C16.449,3.888 15.554,4.784 14.449,4.784 L14.449,4.784 Z"></path>
                                <path d="M21.26,6.784 C20.156,6.784 19.26,5.888 19.26,4.784 C18.156,4.784 17.26,3.888 17.26,2.784 C17.26,1.68 18.156,0.784 19.26,0.784 L21.26,0.784 C22.364,0.784 23.26,1.68 23.26,2.784 L23.26,4.784 C23.26,5.889 22.364,6.784 21.26,6.784 L21.26,6.784 Z"></path>
                                <path d="M21.26,16.405 C20.156,16.405 19.26,15.509 19.26,14.405 L19.26,9.594 C19.26,8.49 20.156,7.594 21.26,7.594 C22.364,7.594 23.26,8.49 23.26,9.594 L23.26,14.405 C23.26,15.51 22.364,16.405 21.26,16.405 L21.26,16.405 Z"></path>
                            </g>
                        </g>
                    </g>
                </g>
            </g>
        </g>
    </g>
</svg>